<svg width="38" height="39" fill="none" xmlns="http://www.w3.org/2000/svg"><g clip-path="url(#clip0)" fill="#512DA8"><path d="M19 .5C11.412.5 5.238 6.674 5.238 14.262c0 9.418 12.316 23.243 12.84 23.827a1.24 1.24 0 001.844 0c.524-.584 12.84-14.41 12.84-23.827C32.762 6.674 26.588.5 19 .5zm0 34.863c-4.145-4.924-11.284-14.637-11.284-21.1C7.716 8.04 12.778 2.977 19 2.977S30.284 8.04 30.284 14.262c0 6.464-7.138 16.176-11.284 21.1z"/><path d="M19 7.338a6.932 6.932 0 00-6.924 6.924A6.932 6.932 0 0019 21.186a6.932 6.932 0 006.924-6.924A6.932 6.932 0 0019 7.338zm0 11.37a4.45 4.45 0 01-4.446-4.446A4.45 4.45 0 0119 9.816a4.45 4.45 0 014.446 4.446A4.45 4.45 0 0119 18.708z"/></g><defs><clipPath id="clip0"><path d="M0 .5h38v38H0V.5z" fill="#fff"/></clipPath></defs></svg>