<svg width="239" height="60" fill="none" xmlns="http://www.w3.org/2000/svg"><path d="M30.36 32.186c-1.104.645-2.27.81-3.496.492-1.226-.318-2.163-1.026-2.812-1.32L2.915 19.316c-.773-.484-1.54-1.695-1.221-2.916.319-1.221 1.435-2.154 2.539-2.8l16.704-9.29c1.104-.485 2.34-.375 3.496.152 1.156.527 2.126 1.13 2.812 1.48l21.41 13.087 2.199-1.203 2.489 1.41-22.983 12.95zm-1.575-2.67l15.087-8.647c.354-.207.661-.341.761-.725.11-.418-.287-.547-.55-.753l-19.52-11.88c-.208-.11-.677-.41-1.085-.497-.398-.122-.855-.08-1.208.046-.354.126-16.22 9.05-16.22 9.05-.353.206-.827.519-.936.938-.1.383.195.51.403.62.207.11 21.218 11.639 21.218 11.639.207.11.51.266.909.388.407.087.788.027 1.14-.18z" fill="#6F97FF"/><path d="M33.737 59.507c-.509.322-1.104.521-1.696.41-.89-.166-1.673-.584-2.347-1.255-.896-.892-1.344-1.975-1.344-3.25v-18.35c0-1.274.448-2.358 1.344-3.25.896-.892 1.984-1.499 3.264-2.223l17.881-10.29c.384-.22.808-.384 1.25-.362.956.049 1.838.48 2.567 1.205.896.892 1.344 1.975 1.344 3.25v17.304c0 1.274-.448 2.357-1.344 3.25-.896.891-1.984 1.579-3.264 2.384L33.737 59.507zm-1.105-2.635c.21.042.422-.03.603-.144l18.157-11.495c.351-.243.755-.542 1.036-.823.308-.306.461-.662.461-1.07V25.503a.883.883 0 00-.024-.22c-.095-.37-.3-.734-.596-.978-.326-.268-1.005-.11-1.415.13L32.958 35.25c-.41.241-.768.475-1.075.78a1.4 1.4 0 00-.423 1.033v18.35c0 .408.141.765.423 1.07.223.204.473.334.75.39z" fill="#FF6EF9"/><path d="M0 46.881v-28.33l23.042 12.998c1.047.523 2.368 1.13 3.264 2.022.896.892 1.344 1.975 1.344 3.25v18.35c0 1.274-.448 2.358-1.344 3.25-.896.892-2.213 1.82-3.264 1.337L0 46.881zm4.608-.362l18.434 10.143c.41 0 .755-.14 1.037-.42.307-.306.46-.663.46-1.071V36.82c0-.408-.153-.752-.46-1.033-.282-.306-.718-.535-1.037-.738L4.608 24.345c-.367-.199-.768-.13-1.075.175a1.4 1.4 0 00-.422 1.033v19.155c0 .408.14.764.422 1.07.307.28.708.497 1.075.74z" fill="#9C6EFF"/><path d="M82.944 16a2.005 2.005 0 01-1.472-.608 2.005 2.005 0 01-.608-1.472V6.56c0-.576.203-1.067.608-1.472a2.005 2.005 0 011.472-.608h7.344c.576 0 1.067.203 1.472.608.416.405.624.896.624 1.472v7.712h1.44V16h-10.88zm.24-1.728h6.864c.235 0 .39-.037.464-.112.085-.085.128-.245.128-.48V6.8c0-.235-.043-.39-.128-.464-.075-.085-.23-.128-.464-.128h-6.864c-.235 0-.395.043-.48.128-.075.075-.112.23-.112.464v6.88c0 .235.037.395.112.48.085.075.245.112.48.112zM97.069 16a2.005 2.005 0 01-1.472-.608 2.005 2.005 0 01-.608-1.472v-7.2h1.728v6.96c0 .235.037.395.112.48.085.075.245.112.48.112h4.8c.234 0 .389-.037.464-.112.085-.085.128-.245.128-.48V6.72h1.728v7.2c0 .576-.203 1.067-.608 1.472a2.006 2.006 0 01-1.472.608h-5.28zm11.109 0a2.005 2.005 0 01-1.472-.608 2.002 2.002 0 01-.608-1.472v-3.424h7.696V9.04c0-.235-.038-.39-.112-.464-.075-.085-.23-.128-.464-.128h-7.12V6.72h7.36c.576 0 1.066.203 1.472.608.405.405.608.896.608 1.472V16h-7.36zm.24-1.728h5.376v-2.16h-5.968v1.568c0 .235.037.395.112.48.085.075.245.112.48.112zM119.037 16a2.005 2.005 0 01-1.472-.608 2.006 2.006 0 01-.608-1.472V3.68h1.728v10c0 .235.037.395.112.48.085.075.245.112.48.112h1.488V16h-1.728zm3.139 0V6.72h1.728V16h-1.728zm0-10.592V3.68h1.728v1.728h-1.728zM127.834 16a2.006 2.006 0 01-1.472-.608 2.006 2.006 0 01-.608-1.472V3.792h1.728V6.72h3.808v1.728h-3.808v5.232c0 .235.038.395.112.48.086.075.246.112.48.112h3.216V16h-3.456zm6.236 3.552v-1.744h5.488c.234 0 .389-.043.464-.128.085-.075.128-.23.128-.464V16h-5.632a2.005 2.005 0 01-1.472-.608 2.002 2.002 0 01-.608-1.472V6.752h1.728v6.928c0 .235.037.395.112.48.085.075.245.112.48.112h4.8c.234 0 .389-.037.464-.112.085-.085.128-.245.128-.48V6.752h1.728v10.72c0 .576-.203 1.067-.608 1.472a2.006 2.006 0 01-1.472.608h-5.728z" fill="#6E97FF"/><path d="M82.944 56a2.005 2.005 0 01-1.472-.608 2.005 2.005 0 01-.608-1.472v-7.36c0-.576.203-1.067.608-1.472a2.005 2.005 0 011.472-.608h7.36c.565 0 1.05.203 1.456.608.416.405.624.896.624 1.472v7.36a1.98 1.98 0 01-.624 1.472c-.405.405-.89.608-1.456.608h-7.36zm.24-1.728h6.864c.235 0 .39-.037.464-.112.085-.085.128-.245.128-.48V46.8c0-.235-.043-.39-.128-.464-.075-.085-.23-.128-.464-.128h-6.864c-.235 0-.395.043-.48.128-.075.075-.112.23-.112.464v6.88c0 .235.037.395.112.48.085.075.245.112.48.112zm10.93 5.408V46.72h7.36c.576 0 1.067.203 1.472.608.405.405.608.896.608 1.472v5.12c0 .576-.203 1.067-.608 1.472a2.005 2.005 0 01-1.472.608h-5.632v3.68h-1.728zm2.32-5.408h4.8c.235 0 .389-.037.464-.112.085-.085.128-.245.128-.48v-4.64c0-.235-.043-.39-.128-.464-.075-.085-.229-.128-.464-.128h-4.8c-.235 0-.395.043-.48.128-.075.075-.112.23-.112.464v4.64c0 .235.037.395.112.48.085.075.245.112.48.112zM106.771 56a2.005 2.005 0 01-1.472-.608 2.006 2.006 0 01-.608-1.472V48.8c0-.576.203-1.067.608-1.472a2.005 2.005 0 011.472-.608h5.28c.576 0 1.067.203 1.472.608.405.405.608.896.608 1.472v3.424h-7.712v1.456c0 .235.037.395.112.48.085.075.245.112.48.112h7.12V56h-7.36zm-.352-5.392h5.968V49.04c0-.235-.037-.39-.112-.464-.075-.085-.229-.128-.464-.128h-4.8c-.235 0-.395.043-.48.128-.075.075-.112.23-.112.464v1.568zM115.691 56v-7.2c0-.576.203-1.067.608-1.472a2.006 2.006 0 011.472-.608h5.184v1.728h-4.944c-.234 0-.394.043-.48.128-.074.075-.112.23-.112.464V56h-1.728zm10.455 0a2.006 2.006 0 01-1.472-.608 2.006 2.006 0 01-.608-1.472v-3.424h7.696V49.04c0-.235-.037-.39-.112-.464-.074-.085-.229-.128-.464-.128h-7.12V46.72h7.36c.576 0 1.067.203 1.472.608.406.405.608.896.608 1.472V56h-7.36zm.24-1.728h5.376v-2.16h-5.968v1.568c0 .235.038.395.112.48.086.075.246.112.48.112zM137.272 56a2.005 2.005 0 01-1.472-.608 2.002 2.002 0 01-.608-1.472V43.792h1.728v2.928h3.808v1.728h-3.808v5.232c0 .235.037.395.112.48.085.075.245.112.48.112h3.216V56h-3.456zm4.748 0v-9.28h1.728V56h-1.728zm0-10.592V43.68h1.728v1.728h-1.728zM147.537 56a2.005 2.005 0 01-1.472-.608 2.002 2.002 0 01-.608-1.472V48.8c0-.576.202-1.067.608-1.472a2.005 2.005 0 011.472-.608h5.28c.576 0 1.066.203 1.472.608.405.405.608.896.608 1.472v5.12c0 .576-.203 1.067-.608 1.472a2.006 2.006 0 01-1.472.608h-5.28zm.24-1.728h4.8c.234 0 .389-.037.464-.112.074-.085.112-.245.112-.48v-4.64c0-.235-.038-.39-.112-.464-.075-.085-.23-.128-.464-.128h-4.8c-.235 0-.395.043-.48.128-.075.075-.112.23-.112.464v4.64c0 .235.037.395.112.48.085.075.245.112.48.112zM156.27 56v-9.28h7.36c.576 0 1.067.203 1.472.608.406.405.608.896.608 1.472V56h-1.728v-6.96c0-.235-.042-.39-.128-.464-.074-.085-.229-.128-.464-.128h-4.8c-.234 0-.394.043-.48.128-.074.075-.112.23-.112.464V56h-1.728zm13.016 0a2.005 2.005 0 01-1.472-.608 2.002 2.002 0 01-.608-1.472v-.24h1.728v.096c0 .17.037.299.112.384.085.075.213.112.384.112h4.992c.17 0 .293-.037.368-.112.074-.085.112-.213.112-.384V52.72c0-.17-.038-.293-.112-.368-.075-.085-.198-.128-.368-.128h-5.136a2.005 2.005 0 01-1.472-.608 2.002 2.002 0 01-.608-1.472V48.8c0-.576.202-1.067.608-1.472a2.005 2.005 0 011.472-.608h5.28c.576 0 1.066.203 1.472.608.405.405.608.896.608 1.472v.24h-1.744v-.096c0-.17-.038-.293-.112-.368-.075-.085-.198-.128-.368-.128h-4.992c-.171 0-.299.043-.384.128-.075.075-.112.197-.112.368V50c0 .17.037.299.112.384.085.075.213.112.384.112h5.136c.576 0 1.066.203 1.472.608.405.405.608.896.608 1.472v1.344c0 .576-.203 1.067-.608 1.472a2.006 2.006 0 01-1.472.608h-5.28z" fill="#FF6EF9"/><path d="M80.928 36V24.48h9.424c.576 0 1.067.203 1.472.608.416.405.624.896.624 1.472v7.36a1.98 1.98 0 01-.624 1.472 2.005 2.005 0 01-1.472.608h-9.424zm2.32-1.728h6.864c.235 0 .39-.037.464-.112.085-.085.128-.245.128-.48V26.8c0-.235-.043-.39-.128-.464-.075-.085-.23-.128-.464-.128h-6.864c-.235 0-.395.043-.48.128-.075.075-.112.23-.112.464v6.88c0 .235.037.395.112.48.085.075.245.112.48.112zM96.24 36a2.005 2.005 0 01-1.472-.608 2.005 2.005 0 01-.608-1.472V28.8c0-.576.202-1.067.608-1.472a2.005 2.005 0 011.472-.608h5.28c.576 0 1.066.203 1.472.608.405.405.608.896.608 1.472v3.424h-7.712v1.456c0 .235.037.395.112.48.085.075.245.112.48.112h7.12V36h-7.36zm-.352-5.392h5.968V29.04c0-.235-.038-.39-.112-.464-.075-.085-.23-.128-.464-.128h-4.8c-.235 0-.395.043-.48.128-.075.075-.112.23-.112.464v1.568zM109.347 36l-5.12-9.28h2l3.984 7.328 3.984-7.328h2l-5.12 9.28h-1.728zm9.596 0a2.005 2.005 0 01-1.472-.608 2.006 2.006 0 01-.608-1.472V28.8c0-.576.203-1.067.608-1.472a2.005 2.005 0 011.472-.608h5.28c.576 0 1.067.203 1.472.608.405.405.608.896.608 1.472v3.424h-7.712v1.456c0 .235.037.395.112.48.085.075.245.112.48.112h7.12V36h-7.36zm-.352-5.392h5.968V29.04c0-.235-.037-.39-.112-.464-.075-.085-.229-.128-.464-.128h-4.8c-.235 0-.395.043-.48.128-.075.075-.112.23-.112.464v1.568zM129.678 36a2.005 2.005 0 01-1.472-.608 2.002 2.002 0 01-.608-1.472V23.68h1.728v10c0 .235.037.395.112.48.085.075.245.112.48.112h1.488V36h-1.728zm4.984 0a2.005 2.005 0 01-1.472-.608 2.002 2.002 0 01-.608-1.472V28.8c0-.576.202-1.067.608-1.472a2.005 2.005 0 011.472-.608h5.28c.576 0 1.066.203 1.472.608.405.405.608.896.608 1.472v5.12c0 .576-.203 1.067-.608 1.472a2.006 2.006 0 01-1.472.608h-5.28zm.24-1.728h4.8c.234 0 .389-.037.464-.112.074-.085.112-.245.112-.48v-4.64c0-.235-.038-.39-.112-.464-.075-.085-.23-.128-.464-.128h-4.8c-.235 0-.395.043-.48.128-.075.075-.112.23-.112.464v4.64c0 .235.037.395.112.48.085.075.245.112.48.112zm8.806 5.408V26.72h7.36c.576 0 1.066.203 1.472.608.405.405.608.896.608 1.472v5.12c0 .576-.203 1.067-.608 1.472a2.006 2.006 0 01-1.472.608h-5.632v3.68h-1.728zm2.32-5.408h4.8c.234 0 .389-.037.464-.112.085-.085.128-.245.128-.48v-4.64c0-.235-.043-.39-.128-.464-.075-.085-.23-.128-.464-.128h-4.8c-.235 0-.395.043-.48.128-.075.075-.112.23-.112.464v4.64c0 .235.037.395.112.48.085.075.245.112.48.112zM154.333 36v-9.28h11.856c.576 0 1.066.203 1.472.608.405.405.608.896.608 1.472V36h-1.712v-6.96c0-.235-.043-.39-.128-.464-.075-.085-.23-.128-.464-.128h-3.184c-.246 0-.406.043-.48.128-.075.075-.112.23-.112.464V36h-1.744v-6.96c0-.235-.043-.39-.128-.464-.075-.085-.23-.128-.464-.128h-3.2c-.235 0-.39.043-.464.128-.075.075-.112.23-.112.464V36h-1.744zm17.438 0a2.005 2.005 0 01-1.472-.608 2.006 2.006 0 01-.608-1.472V28.8c0-.576.203-1.067.608-1.472a2.005 2.005 0 011.472-.608h5.28c.576 0 1.067.203 1.472.608.405.405.608.896.608 1.472v3.424h-7.712v1.456c0 .235.037.395.112.48.085.075.245.112.48.112h7.12V36h-7.36zm-.352-5.392h5.968V29.04c0-.235-.037-.39-.112-.464-.075-.085-.229-.128-.464-.128h-4.8c-.235 0-.395.043-.48.128-.075.075-.112.23-.112.464v1.568zM180.817 36v-9.28h7.36c.576 0 1.067.203 1.472.608.405.405.608.896.608 1.472V36h-1.728v-6.96c0-.235-.043-.39-.128-.464-.075-.085-.229-.128-.464-.128h-4.8c-.235 0-.395.043-.48.128-.075.075-.112.23-.112.464V36h-1.728zm13.205 0a2.005 2.005 0 01-1.472-.608 2.002 2.002 0 01-.608-1.472V23.792h1.728v2.928h3.808v1.728h-3.808v5.232c0 .235.037.395.112.48.085.075.245.112.48.112h3.216V36h-3.456z" fill="#9C6EFF"/></svg>