<svg width="239" height="60" viewBox="0 0 239 60" fill="none" xmlns="http://www.w3.org/2000/svg">
<path d="M30.3597 32.1862C29.2558 32.8314 28.0907 32.9953 26.8642 32.6777C25.6378 32.3601 24.7005 31.6518 24.0524 31.3577L2.91525 19.316C2.14246 18.8321 1.37492 17.6205 1.69395 16.3996C2.01299 15.1787 3.1287 14.2457 4.2326 13.6004L20.9372 4.30931C22.0411 3.82506 23.2768 3.93478 24.4327 4.46176C25.5887 4.98873 26.5588 5.59237 27.2446 5.94266L48.6549 19.0287L50.8539 17.826L53.3429 19.2357L30.3597 32.1862ZM28.7847 29.5158L43.8724 20.8686C44.2256 20.6621 44.5333 20.528 44.6335 20.1443C44.7429 19.7257 44.3456 19.5967 44.0822 19.3913L24.5621 7.51054C24.3547 7.40034 23.8855 7.10057 23.478 7.01366C23.0796 6.89186 22.6229 6.9342 22.2697 7.06018C21.9164 7.18617 6.05012 16.1099 6.05012 16.1099C5.69687 16.3163 5.22301 16.6289 5.11363 17.0475C5.01336 17.4312 5.30947 17.5574 5.51688 17.6676C5.72428 17.7778 26.7349 29.3069 26.7349 29.3069C26.9423 29.4171 27.2452 29.5734 27.6436 29.6952C28.0511 29.7821 28.4315 29.7223 28.7847 29.5158Z" fill="#6F97FF"/>
<path d="M33.7369 59.5069C33.2281 59.829 32.6331 60.0282 32.0412 59.9177C31.1501 59.7514 30.3676 59.3328 29.6938 58.6619C28.7977 57.7699 28.3497 56.6867 28.3497 55.4124V37.0619C28.3497 35.7875 28.7977 34.7043 29.6938 33.8123C30.5898 32.9203 31.6779 32.3133 32.958 31.5889L50.839 21.2992C51.2226 21.0785 51.6466 20.9147 52.0886 20.9372C53.045 20.9859 53.9269 21.4164 54.6559 22.142C55.5519 23.0341 56 24.1173 56 25.3916V42.6958C56 43.9701 55.5519 45.0533 54.6559 45.9454C53.7598 46.8374 52.6717 47.5249 51.3916 48.3297L33.7369 59.5069ZM32.6324 56.8717C32.8422 56.914 33.0541 56.8426 33.235 56.728L51.3916 45.2331C51.7433 44.9896 52.1469 44.6905 52.4285 44.4101C52.7357 44.1043 52.8893 43.7475 52.8893 43.3397V25.5026C52.8893 25.4288 52.883 25.3549 52.8647 25.2834C52.7697 24.9122 52.5654 24.549 52.2688 24.3051C51.9434 24.0374 51.2636 24.1944 50.8539 24.4358L32.958 35.249C32.5484 35.4904 32.19 35.7238 31.8827 36.0297C31.6011 36.31 31.4603 36.6541 31.4603 37.0619V55.4124C31.4603 55.8202 31.6011 56.177 31.8827 56.4828C32.1057 56.6862 32.3555 56.8159 32.6324 56.8717Z" fill="#FF6EF9"/>
<path d="M-1.78814e-05 46.881V18.5504L23.0419 31.5487C24.0889 32.0718 25.4101 32.6788 26.3062 33.5708C27.2023 34.4629 27.6503 35.5461 27.6503 36.8204V55.1709C27.6503 56.4453 27.2023 57.5285 26.3062 58.4205C25.4101 59.3125 24.093 60.2415 23.0419 59.7585L-1.78814e-05 46.881ZM4.60837 46.5188L23.0419 56.6619C23.4516 56.6619 23.7972 56.5217 24.0788 56.2414C24.386 55.9355 24.5396 55.5787 24.5396 55.1709V36.8204C24.5396 36.4126 24.386 36.0686 24.0788 35.7882C23.7972 35.4824 23.3613 35.253 23.0419 35.0498L4.60837 24.3453C4.24051 24.1461 3.84031 24.2145 3.53308 24.5203C3.25146 24.8007 3.11064 25.1448 3.11064 25.5526V44.7079C3.11064 45.1157 3.25146 45.4725 3.53308 45.7784C3.84031 46.0587 4.24051 46.2754 4.60837 46.5188Z" fill="#9C6EFF"/>
<path d="M82.944 16C82.368 16 81.8773 15.7973 81.472 15.392C81.0667 14.9867 80.864 14.496 80.864 13.92V6.56C80.864 5.984 81.0667 5.49333 81.472 5.088C81.8773 4.68267 82.368 4.48 82.944 4.48H90.288C90.864 4.48 91.3547 4.68267 91.76 5.088C92.176 5.49333 92.384 5.984 92.384 6.56V14.272H93.824V16H82.944ZM83.184 14.272H90.048C90.2827 14.272 90.4373 14.2347 90.512 14.16C90.5973 14.0747 90.64 13.9147 90.64 13.68V6.8C90.64 6.56533 90.5973 6.41067 90.512 6.336C90.4373 6.25067 90.2827 6.208 90.048 6.208H83.184C82.9493 6.208 82.7893 6.25067 82.704 6.336C82.6293 6.41067 82.592 6.56533 82.592 6.8V13.68C82.592 13.9147 82.6293 14.0747 82.704 14.16C82.7893 14.2347 82.9493 14.272 83.184 14.272ZM97.0686 16C96.4926 16 96.002 15.7973 95.5966 15.392C95.1913 14.9867 94.9886 14.496 94.9886 13.92V6.72H96.7166V13.68C96.7166 13.9147 96.754 14.0747 96.8286 14.16C96.914 14.2347 97.074 14.272 97.3086 14.272H102.109C102.343 14.272 102.498 14.2347 102.573 14.16C102.658 14.0747 102.701 13.9147 102.701 13.68V6.72H104.429V13.92C104.429 14.496 104.226 14.9867 103.821 15.392C103.415 15.7973 102.925 16 102.349 16H97.0686ZM108.178 16C107.602 16 107.111 15.7973 106.706 15.392C106.3 14.9867 106.098 14.496 106.098 13.92V10.496H113.794V9.04C113.794 8.80533 113.756 8.65067 113.682 8.576C113.607 8.49067 113.452 8.448 113.218 8.448H106.098V6.72H113.458C114.034 6.72 114.524 6.92267 114.93 7.328C115.335 7.73333 115.538 8.224 115.538 8.8V16H108.178ZM108.418 14.272H113.794V12.112H107.826V13.68C107.826 13.9147 107.863 14.0747 107.938 14.16C108.023 14.2347 108.183 14.272 108.418 14.272ZM119.037 16C118.461 16 117.97 15.7973 117.565 15.392C117.16 14.9867 116.957 14.496 116.957 13.92V3.68H118.685V13.68C118.685 13.9147 118.722 14.0747 118.797 14.16C118.882 14.2347 119.042 14.272 119.277 14.272H120.765V16H119.037ZM122.176 16V6.72H123.904V16H122.176ZM122.176 5.408V3.68H123.904V5.408H122.176ZM127.834 16C127.258 16 126.768 15.7973 126.362 15.392C125.957 14.9867 125.754 14.496 125.754 13.92V3.792H127.482V6.72H131.29V8.448H127.482V13.68C127.482 13.9147 127.52 14.0747 127.594 14.16C127.68 14.2347 127.84 14.272 128.074 14.272H131.29V16H127.834ZM134.07 19.552V17.808H139.558C139.792 17.808 139.947 17.7653 140.022 17.68C140.107 17.6053 140.15 17.4507 140.15 17.216V16H134.518C133.942 16 133.451 15.7973 133.046 15.392C132.64 14.9867 132.438 14.496 132.438 13.92V6.752H134.166V13.68C134.166 13.9147 134.203 14.0747 134.278 14.16C134.363 14.2347 134.523 14.272 134.758 14.272H139.558C139.792 14.272 139.947 14.2347 140.022 14.16C140.107 14.0747 140.15 13.9147 140.15 13.68V6.752H141.878V17.472C141.878 18.048 141.675 18.5387 141.27 18.944C140.864 19.3493 140.374 19.552 139.798 19.552H134.07Z" fill="#6E97FF"/>
<path d="M82.944 56C82.368 56 81.8773 55.7973 81.472 55.392C81.0667 54.9867 80.864 54.496 80.864 53.92V46.56C80.864 45.984 81.0667 45.4933 81.472 45.088C81.8773 44.6827 82.368 44.48 82.944 44.48H90.304C90.8693 44.48 91.3547 44.6827 91.76 45.088C92.176 45.4933 92.384 45.984 92.384 46.56V53.92C92.384 54.496 92.176 54.9867 91.76 55.392C91.3547 55.7973 90.8693 56 90.304 56H82.944ZM83.184 54.272H90.048C90.2827 54.272 90.4373 54.2347 90.512 54.16C90.5973 54.0747 90.64 53.9147 90.64 53.68V46.8C90.64 46.5653 90.5973 46.4107 90.512 46.336C90.4373 46.2507 90.2827 46.208 90.048 46.208H83.184C82.9493 46.208 82.7893 46.2507 82.704 46.336C82.6293 46.4107 82.592 46.5653 82.592 46.8V53.68C82.592 53.9147 82.6293 54.0747 82.704 54.16C82.7893 54.2347 82.9493 54.272 83.184 54.272ZM94.114 59.68V46.72H101.474C102.05 46.72 102.541 46.9227 102.946 47.328C103.351 47.7333 103.554 48.224 103.554 48.8V53.92C103.554 54.496 103.351 54.9867 102.946 55.392C102.541 55.7973 102.05 56 101.474 56H95.842V59.68H94.114ZM96.434 54.272H101.234C101.469 54.272 101.623 54.2347 101.698 54.16C101.783 54.0747 101.826 53.9147 101.826 53.68V49.04C101.826 48.8053 101.783 48.6507 101.698 48.576C101.623 48.4907 101.469 48.448 101.234 48.448H96.434C96.1993 48.448 96.0393 48.4907 95.954 48.576C95.8793 48.6507 95.842 48.8053 95.842 49.04V53.68C95.842 53.9147 95.8793 54.0747 95.954 54.16C96.0393 54.2347 96.1993 54.272 96.434 54.272ZM106.771 56C106.195 56 105.704 55.7973 105.299 55.392C104.894 54.9867 104.691 54.496 104.691 53.92V48.8C104.691 48.224 104.894 47.7333 105.299 47.328C105.704 46.9227 106.195 46.72 106.771 46.72H112.051C112.627 46.72 113.118 46.9227 113.523 47.328C113.928 47.7333 114.131 48.224 114.131 48.8V52.224H106.419V53.68C106.419 53.9147 106.456 54.0747 106.531 54.16C106.616 54.2347 106.776 54.272 107.011 54.272H114.131V56H106.771ZM106.419 50.608H112.387V49.04C112.387 48.8053 112.35 48.6507 112.275 48.576C112.2 48.4907 112.046 48.448 111.811 48.448H107.011C106.776 48.448 106.616 48.4907 106.531 48.576C106.456 48.6507 106.419 48.8053 106.419 49.04V50.608ZM115.691 56V48.8C115.691 48.224 115.894 47.7333 116.299 47.328C116.705 46.9227 117.195 46.72 117.771 46.72H122.955V48.448H118.011C117.777 48.448 117.617 48.4907 117.531 48.576C117.457 48.6507 117.419 48.8053 117.419 49.04V56H115.691ZM126.146 56C125.57 56 125.08 55.7973 124.674 55.392C124.269 54.9867 124.066 54.496 124.066 53.92V50.496H131.762V49.04C131.762 48.8053 131.725 48.6507 131.65 48.576C131.576 48.4907 131.421 48.448 131.186 48.448H124.066V46.72H131.426C132.002 46.72 132.493 46.9227 132.898 47.328C133.304 47.7333 133.506 48.224 133.506 48.8V56H126.146ZM126.386 54.272H131.762V52.112H125.794V53.68C125.794 53.9147 125.832 54.0747 125.906 54.16C125.992 54.2347 126.152 54.272 126.386 54.272ZM137.272 56C136.696 56 136.205 55.7973 135.8 55.392C135.394 54.9867 135.192 54.496 135.192 53.92V43.792H136.92V46.72H140.728V48.448H136.92V53.68C136.92 53.9147 136.957 54.0747 137.032 54.16C137.117 54.2347 137.277 54.272 137.512 54.272H140.728V56H137.272ZM142.02 56V46.72H143.748V56H142.02ZM142.02 45.408V43.68H143.748V45.408H142.02ZM147.537 56C146.961 56 146.47 55.7973 146.065 55.392C145.659 54.9867 145.457 54.496 145.457 53.92V48.8C145.457 48.224 145.659 47.7333 146.065 47.328C146.47 46.9227 146.961 46.72 147.537 46.72H152.817C153.393 46.72 153.883 46.9227 154.289 47.328C154.694 47.7333 154.897 48.224 154.897 48.8V53.92C154.897 54.496 154.694 54.9867 154.289 55.392C153.883 55.7973 153.393 56 152.817 56H147.537ZM147.777 54.272H152.577C152.811 54.272 152.966 54.2347 153.041 54.16C153.115 54.0747 153.153 53.9147 153.153 53.68V49.04C153.153 48.8053 153.115 48.6507 153.041 48.576C152.966 48.4907 152.811 48.448 152.577 48.448H147.777C147.542 48.448 147.382 48.4907 147.297 48.576C147.222 48.6507 147.185 48.8053 147.185 49.04V53.68C147.185 53.9147 147.222 54.0747 147.297 54.16C147.382 54.2347 147.542 54.272 147.777 54.272ZM156.27 56V46.72H163.63C164.206 46.72 164.697 46.9227 165.102 47.328C165.508 47.7333 165.71 48.224 165.71 48.8V56H163.982V49.04C163.982 48.8053 163.94 48.6507 163.854 48.576C163.78 48.4907 163.625 48.448 163.39 48.448H158.59C158.356 48.448 158.196 48.4907 158.11 48.576C158.036 48.6507 157.998 48.8053 157.998 49.04V56H156.27ZM169.286 56C168.71 56 168.219 55.7973 167.814 55.392C167.408 54.9867 167.206 54.496 167.206 53.92V53.68H168.934V53.776C168.934 53.9467 168.971 54.0747 169.046 54.16C169.131 54.2347 169.259 54.272 169.43 54.272H174.422C174.592 54.272 174.715 54.2347 174.79 54.16C174.864 54.0747 174.902 53.9467 174.902 53.776V52.72C174.902 52.5493 174.864 52.4267 174.79 52.352C174.715 52.2667 174.592 52.224 174.422 52.224H169.286C168.71 52.224 168.219 52.0213 167.814 51.616C167.408 51.2107 167.206 50.72 167.206 50.144V48.8C167.206 48.224 167.408 47.7333 167.814 47.328C168.219 46.9227 168.71 46.72 169.286 46.72H174.566C175.142 46.72 175.632 46.9227 176.038 47.328C176.443 47.7333 176.646 48.224 176.646 48.8V49.04H174.902V48.944C174.902 48.7733 174.864 48.6507 174.79 48.576C174.715 48.4907 174.592 48.448 174.422 48.448H169.43C169.259 48.448 169.131 48.4907 169.046 48.576C168.971 48.6507 168.934 48.7733 168.934 48.944V50C168.934 50.1707 168.971 50.2987 169.046 50.384C169.131 50.4587 169.259 50.496 169.43 50.496H174.566C175.142 50.496 175.632 50.6987 176.038 51.104C176.443 51.5093 176.646 52 176.646 52.576V53.92C176.646 54.496 176.443 54.9867 176.038 55.392C175.632 55.7973 175.142 56 174.566 56H169.286Z" fill="#FF6EF9"/>
<path d="M80.928 36V24.48H90.352C90.928 24.48 91.4187 24.6827 91.824 25.088C92.24 25.4933 92.448 25.984 92.448 26.56V33.92C92.448 34.496 92.24 34.9867 91.824 35.392C91.4187 35.7973 90.928 36 90.352 36H80.928ZM83.248 34.272H90.112C90.3467 34.272 90.5013 34.2347 90.576 34.16C90.6613 34.0747 90.704 33.9147 90.704 33.68V26.8C90.704 26.5653 90.6613 26.4107 90.576 26.336C90.5013 26.2507 90.3467 26.208 90.112 26.208H83.248C83.0133 26.208 82.8533 26.2507 82.768 26.336C82.6933 26.4107 82.656 26.5653 82.656 26.8V33.68C82.656 33.9147 82.6933 34.0747 82.768 34.16C82.8533 34.2347 83.0133 34.272 83.248 34.272ZM96.2398 36C95.6638 36 95.1731 35.7973 94.7678 35.392C94.3624 34.9867 94.1598 34.496 94.1598 33.92V28.8C94.1598 28.224 94.3624 27.7333 94.7678 27.328C95.1731 26.9227 95.6638 26.72 96.2398 26.72H101.52C102.096 26.72 102.586 26.9227 102.992 27.328C103.397 27.7333 103.6 28.224 103.6 28.8V32.224H95.8878V33.68C95.8878 33.9147 95.9251 34.0747 95.9998 34.16C96.0851 34.2347 96.2451 34.272 96.4798 34.272H103.6V36H96.2398ZM95.8878 30.608H101.856V29.04C101.856 28.8053 101.818 28.6507 101.744 28.576C101.669 28.4907 101.514 28.448 101.28 28.448H96.4798C96.2451 28.448 96.0851 28.4907 95.9998 28.576C95.9251 28.6507 95.8878 28.8053 95.8878 29.04V30.608ZM109.347 36L104.227 26.72H106.227L110.211 34.048L114.195 26.72H116.195L111.075 36H109.347ZM118.943 36C118.367 36 117.876 35.7973 117.471 35.392C117.066 34.9867 116.863 34.496 116.863 33.92V28.8C116.863 28.224 117.066 27.7333 117.471 27.328C117.876 26.9227 118.367 26.72 118.943 26.72H124.223C124.799 26.72 125.29 26.9227 125.695 27.328C126.1 27.7333 126.303 28.224 126.303 28.8V32.224H118.591V33.68C118.591 33.9147 118.628 34.0747 118.703 34.16C118.788 34.2347 118.948 34.272 119.183 34.272H126.303V36H118.943ZM118.591 30.608H124.559V29.04C124.559 28.8053 124.522 28.6507 124.447 28.576C124.372 28.4907 124.218 28.448 123.983 28.448H119.183C118.948 28.448 118.788 28.4907 118.703 28.576C118.628 28.6507 118.591 28.8053 118.591 29.04V30.608ZM129.678 36C129.102 36 128.611 35.7973 128.206 35.392C127.8 34.9867 127.598 34.496 127.598 33.92V23.68H129.326V33.68C129.326 33.9147 129.363 34.0747 129.438 34.16C129.523 34.2347 129.683 34.272 129.918 34.272H131.406V36H129.678ZM134.662 36C134.086 36 133.595 35.7973 133.19 35.392C132.784 34.9867 132.582 34.496 132.582 33.92V28.8C132.582 28.224 132.784 27.7333 133.19 27.328C133.595 26.9227 134.086 26.72 134.662 26.72H139.942C140.518 26.72 141.008 26.9227 141.414 27.328C141.819 27.7333 142.022 28.224 142.022 28.8V33.92C142.022 34.496 141.819 34.9867 141.414 35.392C141.008 35.7973 140.518 36 139.942 36H134.662ZM134.902 34.272H139.702C139.936 34.272 140.091 34.2347 140.166 34.16C140.24 34.0747 140.278 33.9147 140.278 33.68V29.04C140.278 28.8053 140.24 28.6507 140.166 28.576C140.091 28.4907 139.936 28.448 139.702 28.448H134.902C134.667 28.448 134.507 28.4907 134.422 28.576C134.347 28.6507 134.31 28.8053 134.31 29.04V33.68C134.31 33.9147 134.347 34.0747 134.422 34.16C134.507 34.2347 134.667 34.272 134.902 34.272ZM143.708 39.68V26.72H151.068C151.644 26.72 152.134 26.9227 152.54 27.328C152.945 27.7333 153.148 28.224 153.148 28.8V33.92C153.148 34.496 152.945 34.9867 152.54 35.392C152.134 35.7973 151.644 36 151.068 36H145.436V39.68H143.708ZM146.028 34.272H150.828C151.062 34.272 151.217 34.2347 151.292 34.16C151.377 34.0747 151.42 33.9147 151.42 33.68V29.04C151.42 28.8053 151.377 28.6507 151.292 28.576C151.217 28.4907 151.062 28.448 150.828 28.448H146.028C145.793 28.448 145.633 28.4907 145.548 28.576C145.473 28.6507 145.436 28.8053 145.436 29.04V33.68C145.436 33.9147 145.473 34.0747 145.548 34.16C145.633 34.2347 145.793 34.272 146.028 34.272ZM154.333 36V26.72H166.189C166.765 26.72 167.255 26.9227 167.661 27.328C168.066 27.7333 168.269 28.224 168.269 28.8V36H166.557V29.04C166.557 28.8053 166.514 28.6507 166.429 28.576C166.354 28.4907 166.199 28.448 165.965 28.448H162.781C162.535 28.448 162.375 28.4907 162.301 28.576C162.226 28.6507 162.189 28.8053 162.189 29.04V36H160.445V29.04C160.445 28.8053 160.402 28.6507 160.317 28.576C160.242 28.4907 160.087 28.448 159.853 28.448H156.653C156.418 28.448 156.263 28.4907 156.189 28.576C156.114 28.6507 156.077 28.8053 156.077 29.04V36H154.333ZM171.771 36C171.195 36 170.704 35.7973 170.299 35.392C169.894 34.9867 169.691 34.496 169.691 33.92V28.8C169.691 28.224 169.894 27.7333 170.299 27.328C170.704 26.9227 171.195 26.72 171.771 26.72H177.051C177.627 26.72 178.118 26.9227 178.523 27.328C178.928 27.7333 179.131 28.224 179.131 28.8V32.224H171.419V33.68C171.419 33.9147 171.456 34.0747 171.531 34.16C171.616 34.2347 171.776 34.272 172.011 34.272H179.131V36H171.771ZM171.419 30.608H177.387V29.04C177.387 28.8053 177.35 28.6507 177.275 28.576C177.2 28.4907 177.046 28.448 176.811 28.448H172.011C171.776 28.448 171.616 28.4907 171.531 28.576C171.456 28.6507 171.419 28.8053 171.419 29.04V30.608ZM180.817 36V26.72H188.177C188.753 26.72 189.244 26.9227 189.649 27.328C190.054 27.7333 190.257 28.224 190.257 28.8V36H188.529V29.04C188.529 28.8053 188.486 28.6507 188.401 28.576C188.326 28.4907 188.172 28.448 187.937 28.448H183.137C182.902 28.448 182.742 28.4907 182.657 28.576C182.582 28.6507 182.545 28.8053 182.545 29.04V36H180.817ZM194.022 36C193.446 36 192.955 35.7973 192.55 35.392C192.144 34.9867 191.942 34.496 191.942 33.92V23.792H193.67V26.72H197.478V28.448H193.67V33.68C193.67 33.9147 193.707 34.0747 193.782 34.16C193.867 34.2347 194.027 34.272 194.262 34.272H197.478V36H194.022Z" fill="#9C6EFF"/>
</svg>
