<svg width="40" height="41" fill="none" xmlns="http://www.w3.org/2000/svg"><path d="M32.201 38.39c-.312 0-.623-.093-.889-.273l-10.057-6.823-5.395 3.882a1.585 1.585 0 01-2.456-.881L10.696 24.03l-9.678-3.7a1.584 1.584 0 01-.02-2.951l36.8-14.643a1.584 1.584 0 012.17 1.775l-6.212 32.592a1.583 1.583 0 01-1.555 1.286zM22.138 28.066l8.959 6.077 4.833-25.36-17.456 16.797 3.621 2.457a.798.798 0 01.043.029zm-7.458-1.352l1.2 4.546 2.584-1.86-3.384-2.296a1.58 1.58 0 01-.4-.39zm-8.74-7.894l6.645 2.54c.476.182.836.583.966 1.075l.842 3.194c.04-.368.206-.715.477-.976L31.504 8.65 5.94 18.82z" fill="#512DA8"/></svg>