<svg width="40" height="44" fill="none" xmlns="http://www.w3.org/2000/svg"><g clip-path="url(#clip0)"><path d="M32.201 41.162c-.312 0-.623-.099-.889-.291l-10.058-7.269-5.394 4.136a1.505 1.505 0 01-1.46.218 1.651 1.651 0 01-.996-1.157l-2.708-10.936-9.678-3.943C.408 21.672.004 21.051 0 20.356c-.004-.695.392-1.322.998-1.579l36.8-15.6a1.504 1.504 0 011.727.348 1.739 1.739 0 01.469 1.351 1.734 1.734 0 01-.026.192L33.756 39.79a1.667 1.667 0 01-.948 1.243 1.497 1.497 0 01-.607.129zM22.138 30.164l8.958 6.474L35.93 9.62 18.474 27.516l3.621 2.618a.87.87 0 01.043.03zm-7.458-1.44l1.2 4.843 2.584-1.982-3.384-2.445a1.63 1.63 0 01-.4-.416zm-8.74-8.41l6.645 2.706c.476.194.836.62.966 1.145l.842 3.403c.039-.392.206-.762.477-1.04L31.504 9.476 5.94 20.313z" fill="#FBFDFF"/></g><defs><clipPath id="clip0"><path d="M0 .794h40V43.41H0V.794z" fill="#fff"/></clipPath></defs></svg>