<svg  viewBox="0 0 1920 968" fill="none" xmlns="http://www.w3.org/2000/svg">
<g class="steps e20">
  <line y1="-1" x2="150.501" y2="-1" transform="matrix(-0.916935 0.399037 -0.398416 -0.917205 1102.33 182.625)" stroke="#FFF8D2" stroke-width="2"/>
  <line y1="-1" x2="152.997" y2="-1" transform="matrix(-0.901979 -0.431781 0.431131 -0.90229 1350.33 361.29)" stroke="#FFF8D2" stroke-width="2"/>
  <path d="M1240.44 293.717C1238.92 293.068 1237.19 293.065 1235.66 293.709L1214.28 302.73C1213.52 303.051 1213.49 304.119 1214.23 304.486L1235.33 314.959C1237.05 315.809 1239.06 315.809 1240.77 314.959L1261.78 304.54C1262.52 304.174 1262.49 303.109 1261.73 302.786L1240.44 293.717Z" fill="#7F59D9" stroke="#FFF8D2" stroke-width="0.551596"/>
  <path d="M1240.52 309.207C1238.91 309.991 1237.02 309.989 1235.41 309.204L1214.05 298.797V303.067C1214.05 303.771 1214.46 304.414 1215.09 304.722L1236.24 315.007C1237.33 315.537 1238.6 315.538 1239.69 315.01L1260.93 304.722C1261.56 304.414 1261.96 303.77 1261.96 303.065V298.797L1240.52 309.207Z" fill="url(#paint0_linear)"/>
  <path d="M1235.88 289.217C1237.27 288.631 1238.84 288.634 1240.22 289.225L1261.48 298.278C1261.8 298.418 1261.81 298.881 1261.49 299.034L1240.31 309.018C1238.8 309.73 1237.05 309.726 1235.54 309.008L1214.51 298.982C1214.18 298.828 1214.19 298.365 1214.52 298.226L1235.88 289.217Z" fill="#7F59D9" stroke="#FFF8D2" stroke-width="0.551596"/>
  <ellipse cx="1237.5" cy="299" rx="11.5" ry="5" fill="#FFF8D2"/>
  <defs>
  <linearGradient id="paint0_linear" x1="1247.63" y1="312.698" x2="1209.19" y2="300.572" gradientUnits="userSpaceOnUse">
  <stop stop-color="#31107E"/>
  <stop offset="1" stop-color="#8A61ED"/>
  </linearGradient>
  </defs>
</g>
<g class="steps e17">
  <line y1="-0.838805" x2="205.135" y2="-0.838805" transform="matrix(-0.915784 0.40167 -0.401047 -0.916057 1122.19 318.43)" stroke="#FFF8D2" stroke-width="1.67761"/>
  <line y1="-1.07202" x2="175.828" y2="-1.07202" transform="matrix(-0.901979 -0.431781 0.431131 -0.90229 1122.92 318.599)" stroke="#FFF8D2" stroke-width="2.14404"/>
  <path d="M993.413 245.717C991.888 245.068 990.164 245.065 988.637 245.709L967.253 254.73C966.491 255.051 966.458 256.119 967.199 256.486L988.307 266.959C990.02 267.809 992.032 267.809 993.745 266.959L1014.75 256.54C1015.49 256.174 1015.46 255.109 1014.7 254.786L993.413 245.717Z" fill="#7F59D9" stroke="#FFF8D2" stroke-width="0.551596"/>
  <path d="M993.493 261.207C991.879 261.991 989.994 261.989 988.382 261.204L967.026 250.797V255.067C967.026 255.771 967.428 256.414 968.062 256.722L989.21 267.007C990.3 267.537 991.573 267.538 992.664 267.01L1013.9 256.722C1014.53 256.414 1014.94 255.77 1014.94 255.065V250.797L993.493 261.207Z" fill="url(#paint1_linear)"/>
  <path d="M988.851 241.217C990.241 240.631 991.809 240.634 993.197 241.225L1014.45 250.278C1014.78 250.418 1014.79 250.881 1014.46 251.034L993.279 261.018C991.768 261.73 990.018 261.726 988.51 261.008L967.479 250.982C967.156 250.828 967.167 250.365 967.497 250.226L988.851 241.217Z" fill="#7F59D9" stroke="#FFF8D2" stroke-width="0.551596"/>
  <ellipse cx="990.473" cy="251" rx="11.5" ry="5" fill="#FFF8D2"/>
  <line y1="-1" x2="291.553" y2="-1" transform="matrix(-0.915784 0.40167 -0.401047 -0.916057 1212.33 295.23)" stroke="#FFF8D2" stroke-width="2"/>
  <path d="M1140.44 316.717C1138.92 316.068 1137.19 316.065 1135.66 316.709L1114.28 325.73C1113.52 326.051 1113.49 327.119 1114.23 327.486L1135.33 337.959C1137.05 338.809 1139.06 338.809 1140.77 337.959L1161.78 327.54C1162.52 327.174 1162.49 326.109 1161.73 325.786L1140.44 316.717Z" fill="#7F59D9" stroke="#FFF8D2" stroke-width="0.551596"/>
  <path d="M1140.52 332.207C1138.91 332.991 1137.02 332.989 1135.41 332.204L1114.05 321.797V326.067C1114.05 326.771 1114.46 327.414 1115.09 327.722L1136.24 338.007C1137.33 338.537 1138.6 338.538 1139.69 338.01L1160.93 327.722C1161.56 327.414 1161.96 326.77 1161.96 326.065V321.797L1140.52 332.207Z" fill="url(#paint2_linear)"/>
  <path d="M1135.88 312.217C1137.27 311.631 1138.84 311.634 1140.22 312.225L1161.48 321.278C1161.8 321.418 1161.81 321.881 1161.49 322.034L1140.31 332.018C1138.8 332.73 1137.05 332.726 1135.54 332.008L1114.51 321.982C1114.18 321.828 1114.19 321.365 1114.52 321.226L1135.88 312.217Z" fill="#7F59D9" stroke="#FFF8D2" stroke-width="0.551596"/>
  <ellipse cx="1137.5" cy="322" rx="11.5" ry="5" fill="#FFF8D2"/>
  <line x1="1030.51" y1="375.94" x2="1131.43" y2="424.098" stroke="#FFF8D2" stroke-width="2"/>
  <defs>
  <linearGradient id="paint1_linear" x1="1000.6" y1="264.698" x2="962.165" y2="252.572" gradientUnits="userSpaceOnUse">
  <stop stop-color="#31107E"/>
  <stop offset="1" stop-color="#8A61ED"/>
  </linearGradient>
  <linearGradient id="paint2_linear" x1="1147.63" y1="335.698" x2="1109.19" y2="323.572" gradientUnits="userSpaceOnUse">
  <stop stop-color="#31107E"/>
  <stop offset="1" stop-color="#8A61ED"/>
  </linearGradient>
  </defs>
</g>
<g class="steps e14">
  <path d="M924.4 403.954C928.741 402.123 933.638 402.131 937.972 403.978L1024.22 440.721C1025.25 441.159 1025.28 442.607 1024.27 443.083L938.121 483.687C933.403 485.91 927.936 485.898 923.227 483.654L837.688 442.876C836.679 442.395 836.712 440.948 837.741 440.514L924.4 403.954Z" fill="#2F0B86" stroke="#00FFE3" stroke-width="1.72262"/>
  <path d="M938.779 454.258C933.739 456.705 927.854 456.7 922.817 454.246L856.123 421.747V435.081C856.123 437.281 857.379 439.289 859.358 440.252L925.403 472.37C928.808 474.026 932.784 474.029 936.191 472.378L1002.5 440.249C1004.49 439.288 1005.75 437.279 1005.75 435.075V421.747L938.779 454.258Z" fill="url(#paint3_linear)"/>
  <path d="M924.284 391.829C928.624 389.998 933.521 390.007 937.855 391.853L1004.22 420.124C1005.25 420.562 1005.28 422.01 1004.27 422.487L938.111 453.667C933.393 455.891 927.926 455.879 923.218 453.634L857.539 422.325C856.531 421.845 856.564 420.398 857.593 419.963L924.284 391.829Z" fill="#7F59D9" stroke="#00FFE3" stroke-width="1.72262"/>
  <path d="M938.222 444.445C933.633 446.672 928.276 446.668 923.691 444.434L862.977 414.848V416.32C862.977 418.323 864.12 420.151 865.922 421.027L926.045 450.266C929.145 451.774 932.764 451.776 935.866 450.274L996.234 421.025C998.04 420.15 999.186 418.321 999.186 416.315V414.848L938.222 444.445Z" fill="url(#paint4_linear)"/>
  <path d="M938.227 427.125C933.639 429.353 928.281 429.349 923.696 427.114L862.982 397.529V412.625C862.982 414.628 864.126 416.456 865.927 417.332L926.051 446.572C929.15 448.079 932.77 448.082 935.871 446.579L999.192 415.9V397.529L938.227 427.125Z" fill="url(#paint5_linear)"/>
  <path d="M924.403 369.899C928.709 368.101 933.558 368.109 937.858 369.923L998.214 395.375C999.244 395.809 999.276 397.258 998.266 397.738L938.461 426.147C933.73 428.395 928.238 428.389 923.512 426.133L863.705 397.587C862.695 397.105 862.731 395.654 863.764 395.223L924.403 369.899Z" fill="#7F59D9" stroke="#00FFE3" stroke-width="1.72262"/>
  <path d="M925.481 381.7C929.063 380.194 933.103 380.201 936.68 381.72L972.598 396.97L937.209 413.897C933.275 415.778 928.7 415.774 924.769 413.885L889.382 396.879L925.481 381.7ZM885.971 395.239C885.972 395.24 885.973 395.24 885.973 395.24L885.971 395.239Z" fill="#7F59D9" stroke="#00FFE3" stroke-width="7.72"/>
  <circle cx="941.482" cy="482.653" r="5.5" fill="#00FFE3"/>
  <circle cx="950.982" cy="478.153" r="4" fill="#00FFE3"/>
  <line x1="905.76" y1="454.87" x2="905.76" y2="462.87" stroke="#FFF8D2" stroke-width="3"/>
  <ellipse cx="905.76" cy="453.87" rx="3.5" ry="6" fill="#FFF8D2"/>
  <defs>
  <linearGradient id="paint3_linear" x1="960.973" y1="465.158" x2="840.944" y2="427.29" gradientUnits="userSpaceOnUse">
  <stop stop-color="#31107E"/>
  <stop offset="1" stop-color="#8A61ED"/>
  </linearGradient>
  <linearGradient id="paint4_linear" x1="958.426" y1="454.368" x2="849.159" y2="419.894" gradientUnits="userSpaceOnUse">
  <stop stop-color="#31107E"/>
  <stop offset="1" stop-color="#8A61ED"/>
  </linearGradient>
  <linearGradient id="paint5_linear" x1="958.431" y1="450.673" x2="849.164" y2="416.199" gradientUnits="userSpaceOnUse">
  <stop stop-color="#4B1AC1"/>
  <stop offset="1" stop-color="#8A61ED"/>
  </linearGradient>
  </defs>
</g>
<g class="steps e12">
  <line x1="906.872" y1="461.972" x2="747.397" y2="530.918" stroke="#FFF8D2" stroke-width="2"/>
  <line y1="-1.07202" x2="257.238" y2="-1.07202" transform="matrix(-0.88634 -0.463035 0.462362 -0.886691 908 614.077)" stroke="#FFF8D2" stroke-width="2.14404"/>
</g>
<g class="steps e10">
  <line y1="-1" x2="291.553" y2="-1" transform="matrix(-0.915784 0.40167 -0.401047 -0.916057 680 494.967)" stroke="#FFF8D2" stroke-width="2"/>
  <path d="M682.44 488.717C680.915 488.068 679.192 488.065 677.664 488.709L656.28 497.73C655.519 498.051 655.486 499.119 656.226 499.486L677.335 509.959C679.048 510.809 681.06 510.809 682.773 509.959L703.779 499.54C704.518 499.174 704.488 498.109 703.729 497.786L682.44 488.717Z" fill="#7F59D9" stroke="#FFF8D2" stroke-width="0.551596"/>
  <path d="M682.52 504.207C680.906 504.991 679.022 504.989 677.409 504.204L656.053 493.797V498.067C656.053 498.771 656.455 499.414 657.089 499.722L678.237 510.007C679.327 510.537 680.6 510.538 681.691 510.01L702.926 499.722C703.561 499.414 703.964 498.77 703.964 498.065V493.797L682.52 504.207Z" fill="url(#paint6_linear)"/>
  <path d="M677.879 484.217C679.268 483.631 680.837 483.634 682.224 484.225L703.475 493.278C703.805 493.418 703.813 493.881 703.49 494.034L682.306 504.018C680.796 504.73 679.045 504.726 677.537 504.008L656.507 493.982C656.184 493.828 656.194 493.365 656.524 493.226L677.879 484.217Z" fill="#7F59D9" stroke="#00FFE3" stroke-width="0.551596"/>
  <ellipse cx="679.5" cy="494" rx="11.5" ry="5" fill="#FFF8D2"/>
  <line y1="-1" x2="333.97" y2="-1" transform="matrix(-0.922239 0.38662 -0.386012 -0.922494 908 614.077)" stroke="#FFF8D2" stroke-width="2"/>
  <path d="M903.44 606.717C901.915 606.067 900.192 606.064 898.664 606.709L877.28 615.73C876.518 616.051 876.486 617.118 877.226 617.486L898.334 627.959C900.048 628.809 902.059 628.809 903.773 627.959L924.779 617.54C925.518 617.174 925.488 616.109 924.729 615.786L903.44 606.717Z" fill="#7F59D9" stroke="#FFF8D2" stroke-width="0.551596"/>
  <path d="M903.52 622.207C901.906 622.991 900.022 622.989 898.409 622.203L877.053 611.797V616.066C877.053 616.771 877.455 617.414 878.089 617.722L899.237 628.007C900.327 628.537 901.6 628.538 902.691 628.009L923.926 617.721C924.561 617.414 924.964 616.77 924.964 616.065V611.797L903.52 622.207Z" fill="url(#paint7_linear)"/>
  <path d="M898.879 602.217C900.268 601.631 901.836 601.633 903.224 602.224L924.475 611.277C924.805 611.418 924.813 611.881 924.49 612.034L903.306 622.018C901.796 622.73 900.045 622.726 898.537 622.007L877.507 611.982C877.184 611.828 877.194 611.365 877.524 611.226L898.879 602.217Z" fill="#7F59D9" stroke="#00FFE3" stroke-width="0.551596"/>
  <ellipse cx="900.5" cy="612" rx="11.5" ry="5" fill="#FFF8D2"/>
  <defs>
  <linearGradient id="paint6_linear" x1="689.627" y1="507.698" x2="651.193" y2="495.572" gradientUnits="userSpaceOnUse">
  <stop stop-color="#31107E"/>
  <stop offset="1" stop-color="#8A61ED"/>
  </linearGradient>
  <linearGradient id="paint7_linear" x1="910.627" y1="625.698" x2="872.193" y2="613.572" gradientUnits="userSpaceOnUse">
  <stop stop-color="#31107E"/>
  <stop offset="1" stop-color="#8A61ED"/>
  </linearGradient>
  </defs>
</g>
<g class="steps e9">
  <line y1="-1.07202" x2="175.828" y2="-1.07202" transform="matrix(-0.901979 -0.431781 0.431131 -0.90229 759.594 818.115)" stroke="#FFF8D2" stroke-width="2.14404"/>
  <path d="M612.44 732.717C610.915 732.067 609.192 732.064 607.664 732.709L586.28 741.73C585.519 742.051 585.486 743.118 586.226 743.486L607.335 753.959C609.048 754.809 611.06 754.809 612.773 753.959L633.779 743.54C634.518 743.174 634.488 742.109 633.729 741.786L612.44 732.717Z" fill="#7F59D9" stroke="#FFF8D2" stroke-width="0.551596"/>
  <path d="M612.52 748.207C610.906 748.991 609.022 748.989 607.409 748.203L586.053 737.797V742.066C586.053 742.771 586.455 743.414 587.089 743.722L608.237 754.007C609.327 754.537 610.6 754.538 611.691 754.009L632.926 743.721C633.561 743.414 633.964 742.77 633.964 742.065V737.797L612.52 748.207Z" fill="url(#paint8_linear)"/>
  <path d="M607.879 728.217C609.268 727.631 610.837 727.633 612.224 728.224L633.475 737.277C633.805 737.418 633.813 737.881 633.49 738.034L612.306 748.018C610.796 748.73 609.045 748.726 607.537 748.007L586.507 737.982C586.184 737.828 586.194 737.365 586.524 737.226L607.879 728.217Z" fill="#7F59D9" stroke="#00FFE3" stroke-width="0.551596"/>
  <ellipse cx="609.5" cy="738" rx="11.5" ry="5" fill="#FFF8D2"/>
  <defs>
  <linearGradient id="paint8_linear" x1="619.627" y1="751.698" x2="581.193" y2="739.572" gradientUnits="userSpaceOnUse">
  <stop stop-color="#31107E"/>
  <stop offset="1" stop-color="#8A61ED"/>
  </linearGradient>
  </defs>
</g>
<g class="steps e2">
  <path d="M820.697 912.866C810.222 917.951 797.991 917.942 787.524 912.841L648.919 845.3V873.011C648.919 877.585 651.529 881.757 655.642 883.757L792.899 950.508C799.975 953.949 808.237 953.955 815.318 950.524L953.134 883.753C957.256 881.756 959.874 877.579 959.874 872.999V845.3L820.697 912.866Z" fill="url(#paint9_linear)"/>
  <path d="M790.572 783.124C799.592 779.319 809.77 779.337 818.776 783.173L956.701 841.928C958.839 842.839 958.895 845.848 956.794 846.839L819.309 911.638C809.504 916.26 798.142 916.235 788.357 911.57L651.862 846.503C649.766 845.504 649.834 842.497 651.974 841.594L790.572 783.124Z" fill="#7F59D9" stroke="#00FFE3" stroke-width="3.58"/>
  <path d="M801.2 879.606C803.034 878.832 805.104 878.836 806.936 879.616L834.987 891.566C835.422 891.751 835.434 892.363 835.006 892.565L807.044 905.744C805.05 906.684 802.739 906.679 800.749 905.73L772.989 892.496C772.562 892.293 772.576 891.682 773.012 891.498L801.2 879.606Z" fill="#7F59D9" stroke="#00FFE3" stroke-width="0.728106"/>
  <path d="M695.2 831.606C697.034 830.832 699.104 830.836 700.936 831.616L728.987 843.566C729.422 843.751 729.434 844.363 729.006 844.565L701.044 857.744C699.05 858.684 696.739 858.679 694.749 857.73L666.989 844.496C666.562 844.293 666.576 843.682 667.012 843.498L695.2 831.606Z" fill="#7F59D9" stroke="#00FFE3" stroke-width="0.728106"/>
  <path d="M913.2 831.606C915.034 830.832 917.104 830.836 918.936 831.616L946.987 843.566C947.422 843.751 947.434 844.363 947.006 844.565L919.044 857.744C917.05 858.684 914.739 858.679 912.749 857.73L884.989 844.496C884.562 844.293 884.576 843.682 885.012 843.498L913.2 831.606Z" fill="#7F59D9" stroke="#00FFE3" stroke-width="0.728106"/>
  <path d="M853 910.5L929 873V883L853 920.5V910.5Z" fill="#04A08F"/>
  <defs>
  <linearGradient id="paint9_linear" x1="866.821" y1="935.519" x2="617.373" y2="856.819" gradientUnits="userSpaceOnUse">
  <stop stop-color="#31107E"/>
  <stop offset="1" stop-color="#8A61ED"/>
  </linearGradient>
  </defs>
</g>
<g class="steps e4">
  <path d="M706.06 836.832C704.498 836.078 704.572 833.828 706.18 833.176L787.323 800.293C798.326 795.834 810.642 795.906 821.588 800.492L870.554 821.01C872.152 821.679 872.2 823.927 870.631 824.665L793.906 860.771C781.63 866.547 767.407 866.475 755.196 860.575L706.06 836.832Z" fill="#523A8E"/>
  <path d="M733.104 835.476C745.647 841.664 760.354 841.668 772.901 835.486L849.5 797.747V804.754L773.045 842.422C760.417 848.643 745.606 848.597 733.017 842.297L684.105 817.818C683.428 817.479 683 816.787 683 816.03V810.759L733.104 835.476Z" fill="url(#paint10_linear)"/>
  <path d="M684.277 811.77C683.106 811.204 683.162 809.517 684.367 809.028L765.51 776.145C776.391 771.735 788.57 771.806 799.395 776.342L848.361 796.859C849.559 797.361 849.595 799.047 848.419 799.601L771.693 835.706C759.554 841.419 745.489 841.348 733.413 835.513L684.277 811.77Z" fill="#7F59D9" stroke="#FFF8D2"/>
  <path d="M701 722.364C701 720.941 701.861 719.66 703.179 719.123L792.179 682.847C794.481 681.909 797 683.602 797 686.088V774.539C797 775.962 796.138 777.243 794.821 777.78L705.821 814.056C703.519 814.994 701 813.301 701 810.815V722.364Z" fill="#482AA2" stroke="#FFF8D2"/>
  <path d="M712.5 742.196L718.5 739.693V774.726L712.5 777.228V742.196Z" fill="#CF59D9"/>
  <path d="M728 731.119L734 728.617V783.734L728 786.237V731.119Z" fill="#8259D9"/>
  <path d="M740 717.911L746 715.408V753.706L740 756.209V717.911Z" fill="#441F93"/>
  <path d="M766 728.683L772 726.181V764.479L766 766.981V728.683Z" fill="#821F93"/>
  <path d="M743.851 809.218C742.596 808.7 742.62 806.913 743.89 806.43L773.971 794.98C774.313 794.85 774.69 794.849 775.032 794.978L809.631 807.964C810.9 808.44 810.936 810.222 809.688 810.75L779.575 823.485C779.205 823.642 778.789 823.643 778.418 823.49L743.851 809.218Z" stroke="#FFF8D2"/>
  <defs>
  <linearGradient id="paint10_linear" x1="799.675" y1="842.222" x2="668.248" y2="797.184" gradientUnits="userSpaceOnUse">
  <stop stop-color="#31107E"/>
  <stop offset="1" stop-color="#8A61ED"/>
  </linearGradient>
  </defs>
</g>
<g class="steps e3">
  <rect width="58.0108" height="22.538" transform="matrix(0.893316 0.449429 -0.448766 0.893649 850.114 854.195)" fill="url(#paint11_linear)"/>
  <path d="M818 838.285L843 850.296V876.32L818 864.309V838.285Z" fill="#6742C2"/>
  <path d="M868 838.285L843 850.296V876.32L868 864.309V838.285Z" fill="#381787"/>
  <path d="M843 827.275L868 838.285L843 850.296L818 838.285L843 827.275Z" fill="#7F59D9"/>
  <defs>
  <linearGradient id="paint11_linear" x1="12.9312" y1="7.05479" x2="25.0367" y2="17.7637" gradientUnits="userSpaceOnUse">
  <stop stop-color="#643AC6"/>
  <stop offset="1" stop-color="#643BC6" stop-opacity="0"/>
  </linearGradient>
  </defs>
</g>
<g class="steps e5">
  <ellipse rx="5.00021" ry="3.00265" transform="matrix(0.977363 0.211568 -0.211195 0.977444 778.521 807.245)" fill="#F9D2FF"/>
  <ellipse rx="5.00021" ry="3.00265" transform="matrix(0.977363 0.211568 -0.211195 0.977444 791.521 787.226)" fill="#F9D2FF"/>
  <ellipse rx="8.6321" ry="4.65177" transform="matrix(0.96519 0.261551 -0.2611 0.965312 804.843 847.286)" fill="#5934AF"/>
  <path fill-rule="evenodd" clip-rule="evenodd" d="M817.872 792.687C830.488 788.035 844.809 770.085 832.194 768.756C824.997 767.998 821.782 773.948 818.746 779.569C816.46 783.8 814.276 787.844 810.569 788.7C806.14 789.724 801.285 788.625 797.916 787.863C797.205 787.702 796.56 787.557 796 787.449C794.614 787.603 794.255 788.004 794.309 789.239C797.049 793.153 805.812 797.135 817.872 792.687Z" fill="#6844BE"/>
  <path fill-rule="evenodd" clip-rule="evenodd" d="M827.457 826.374C833.006 827.794 839.645 829.492 845.091 822.951C855.05 810.988 811.893 795.704 809.237 814.977C807.04 830.914 805.755 842.517 808.004 847.183C809.663 848.635 810.682 848.759 812.655 847.55C813.314 845.948 813.717 843.428 814.174 840.566C814.806 836.61 815.543 832.003 817.204 828.267C819.008 824.213 822.858 825.198 827.457 826.374Z" fill="#5C99B5"/>
  <ellipse rx="24.5667" ry="34.4416" transform="matrix(0.999955 -0.00950827 0.00949068 0.999955 832.245 802.34)" fill="#724CCD"/>
  <ellipse rx="8.6321" ry="4.65177" transform="matrix(0.96519 0.261551 -0.2611 0.965312 794.476 861.925)" fill="#5934AF"/>
  <path fill-rule="evenodd" clip-rule="evenodd" d="M818.861 835.31C824.594 836.833 831.734 838.729 837.124 832.255C847.084 820.292 803.926 805.008 801.27 824.281C801.053 825.858 800.831 827.443 800.609 829.027C798.963 840.803 797.332 852.467 797.66 859.53C797.735 861.14 798.967 862.466 802.602 862.469C804.101 857.798 807.14 849.108 808.156 843.421C808.54 841.272 808.898 839.268 809.237 837.571C810.151 832.998 814 834.02 818.861 835.31Z" fill="#8BCAE7"/>
  <path fill-rule="evenodd" clip-rule="evenodd" d="M810.5 811.26C823.471 807.242 834.347 780.756 820.5 777.228C812.387 775.161 810.348 784.795 808.542 793.328C807.265 799.358 806.105 804.84 803 805.254C800.325 805.611 796.634 805.65 792.991 805.688C788.664 805.733 784.406 805.778 782 806.354C780.45 807.372 780.638 808.1 781.638 809.502C786.286 812.131 799.912 814.539 810.5 811.26Z" fill="#6844BE"/>
  <path d="M854.391 817.942C854.391 817.942 849.079 837.215 831.816 837.215C814.553 837.215 816.537 830.594 816.537 823.62C816.537 816.647 824.504 816.31 833.136 819.633C841.768 822.955 854.391 817.942 854.391 817.942Z" fill="#8BCAE7"/>
  <ellipse cx="832.48" cy="815.948" rx="22.5748" ry="7.31039" fill="#724CCD"/>
  <ellipse cx="829" cy="755.708" rx="11" ry="13.5125" fill="#F9D2FF"/>
  <path d="M841.148 751.847C841.893 757.477 840.394 762.739 834.673 763.078C828.952 763.416 827.784 759.178 829.373 755.573C830.962 751.967 811.519 746.885 826.789 741.18C831.11 740.607 840.403 746.218 841.148 751.847Z" fill="#9678DE"/>
  <ellipse cx="828.5" cy="755.708" rx="5.5" ry="5.50509" fill="#FF6EF9"/>
  <path d="M830.757 751.768C832.596 743.65 840.243 742.633 839 747.2" stroke="#FF6EF9"/>
</g>
<g class="steps e6">
  <path d="M512.6 578.268C522.055 574.286 532.72 574.304 542.16 578.319L699.789 645.356C703.352 646.871 703.446 651.887 699.944 653.535L542.647 727.549C532.369 732.385 520.463 732.359 510.206 727.478L354.027 653.151C350.533 651.488 350.647 646.477 354.213 644.975L512.6 578.268Z" fill="#26047A"/>
  <path d="M474.697 696.666C464.222 701.751 451.992 701.742 441.524 696.641L302.919 629.1V656.811C302.919 661.384 305.529 665.557 309.642 667.557L446.899 734.308C453.975 737.749 462.238 737.755 469.318 734.324L607.134 667.553C611.256 665.556 613.874 661.379 613.874 656.799V629.1L474.697 696.666Z" fill="url(#paint12_linear)"/>
  <path d="M444.572 566.924C453.592 563.119 463.77 563.137 472.776 566.973L610.701 625.728C612.839 626.639 612.896 629.648 610.794 630.639L473.309 695.438C463.504 700.059 452.142 700.034 442.357 695.37L305.862 630.303C303.766 629.303 303.834 626.296 305.974 625.394L444.572 566.924Z" fill="#7F59D9" stroke="#00FFE3" stroke-width="3.58"/>
  <path d="M444.628 588.896C453.647 585.092 463.823 585.11 472.828 588.945L561.104 626.544C563.242 627.454 563.298 630.464 561.196 631.454L473.629 672.72C463.825 677.34 452.465 677.315 442.682 672.652L355.781 631.233C353.685 630.234 353.753 627.227 355.893 626.324L444.628 588.896Z" fill="#7F59D9" stroke="#5C34BC" stroke-width="3.58"/>
  <path d="M407 693.5L331 656V666L407 703.5V693.5Z" fill="#06BFAB"/>
  <defs>
  <linearGradient id="paint12_linear" x1="520.821" y1="719.319" x2="271.373" y2="640.619" gradientUnits="userSpaceOnUse">
  <stop stop-color="#31107E"/>
  <stop offset="1" stop-color="#8A61ED"/>
  </linearGradient>
  </defs>
</g>
<g class="steps e8">
  <ellipse cx="446" cy="626" rx="37" ry="17" fill="#6845BC"/>
  <ellipse rx="6.63886" ry="3.57638" transform="matrix(-0.862071 -0.506787 0.50609 -0.86248 440.768 625.403)" fill="#5934AF"/>
  <ellipse rx="6.63886" ry="3.57638" transform="matrix(-0.862071 -0.506787 0.50609 -0.86248 453.071 622.324)" fill="#5934AF"/>
  <path d="M440.4 600.487C440.4 614.076 440.667 623.572 438.233 623.572C435.799 623.572 434.839 614.316 432.917 604.696C430.995 595.075 426.501 574.971 435.993 575.882C445.485 576.794 440.4 586.898 440.4 600.487Z" fill="#8BCAE7"/>
  <path d="M454.943 595.888C452.458 609.333 452.074 620.493 449.383 620.108C446.691 619.723 446.129 609.477 446.129 595.888C446.129 582.299 441.045 570.372 450.536 571.283C460.028 572.195 457.427 582.444 454.943 595.888Z" fill="#5C99B5"/>
  <path d="M458.082 564.78C461.157 583.597 463.491 589.113 444.316 593.512C425.142 597.911 419.906 583.891 423.088 564.78C426.269 545.669 400.16 535.08 433.36 529.731C466.559 524.383 455.008 545.963 458.082 564.78Z" fill="#724CCD"/>
  <path d="M414.395 556.226C416.318 564.692 426.314 573.158 424.776 575.852C423.238 578.546 407.927 566.836 408.244 555.071C408.56 543.306 420.547 528.517 426.698 534.29C432.85 540.063 412.473 547.759 414.395 556.226Z" fill="#6844BE"/>
  <ellipse cx="437.079" cy="513.894" rx="13.0722" ry="13.4692" fill="#F9D2FF"/>
  <path d="M453.612 535.059C449.829 527.246 448.755 518.004 445.538 519.281C442.321 520.558 445.922 528.133 448.998 538.908C452.074 549.683 463.993 545.835 457.457 535.83C450.921 525.824 457.395 542.873 453.612 535.059Z" fill="#6844BE"/>
  <path d="M449.383 505.813C449.383 510.063 441.309 514.279 434.388 510.815C427.467 507.352 428.236 521.206 424.776 520.436C421.316 519.667 422.085 501.195 432.466 499.27C442.847 497.346 449.383 501.562 449.383 505.813Z" fill="#9678DE"/>
  <ellipse cx="427.467" cy="514.279" rx="3.4603" ry="3.84834" fill="#F9D2FF"/>
  <ellipse cx="429.774" cy="513.124" rx="4.99821" ry="5.00284" fill="#FF6EF9"/>
  <path d="M431.504 509.328C432.905 499.33 441.309 495.422 446.114 500.862" stroke="#FF6EF9" stroke-width="0.768955"/>
</g>
<g class="steps e7">
  <path d="M473.5 425.358C473.5 420.755 478.153 417.61 482.424 419.327L628.424 478.008C630.886 478.997 632.5 481.385 632.5 484.039V613.318C632.5 618 627.698 621.146 623.405 619.277L477.405 555.706C475.033 554.674 473.5 552.333 473.5 549.747V425.358Z" fill="#4C29A0" fill-opacity="0.5" stroke="#FF6EF9"/>
  <path d="M462.5 443.766C462.5 439.871 466.436 437.21 470.05 438.662L605.55 493.094C607.634 493.931 609 495.951 609 498.197V617.91C609 621.872 604.938 624.534 601.305 622.953L465.805 563.986C463.798 563.112 462.5 561.132 462.5 558.943V443.766Z" fill="#4C29A0" fill-opacity="0.5" stroke="#00FFE3" stroke-width="3"/>
  <path d="M540.5 544.599C540.5 541.721 543.448 539.784 546.09 540.928L590.09 559.984C591.553 560.618 592.5 562.06 592.5 563.655V594.974C592.5 597.852 589.551 599.788 586.91 598.644L542.91 579.588C541.447 578.955 540.5 577.512 540.5 575.918V544.599Z" fill="#FF6EF9"/>
  <path d="M519.793 509.813L591.507 540.519L591.713 553.403L519.999 522.697L519.793 509.813Z" fill="#6E97FF"/>
  <path d="M519.793 491.964L591.507 522.671L591.713 535.554L519.999 504.848L519.793 491.964Z" fill="#6E97FF"/>
  <path d="M519.793 473.948L591.507 504.654L591.713 517.538L519.999 486.831L519.793 473.948Z" fill="#6E97FF"/>
</g>
<g class="steps e11">
  <path d="M772 586.064L803.5 601.198V633.988L772 618.854V586.064Z" fill="#6742C2"/>
  <path d="M835 586.064L803.5 601.198V633.988L835 618.854V586.064Z" fill="#381787"/>
  <path d="M803.5 572.191L835 586.064L803.5 601.198L772 586.064L803.5 572.191Z" fill="#7F59D9"/>
  <path fill-rule="evenodd" clip-rule="evenodd" d="M817.36 508.48H788.38V589.114C788.38 589.116 788.38 589.118 788.38 589.12C788.38 593.295 794.867 596.68 802.87 596.68C810.872 596.68 817.36 593.295 817.36 589.12V508.48Z" fill="url(#paint13_linear)"/>
  <ellipse cx="802.87" cy="508.48" rx="14.49" ry="7.56" fill="#8BCAE7"/>
  <rect x="788.38" y="448" width="28.98" height="60.48" fill="url(#paint14_linear)"/>
  <defs>
  <linearGradient id="paint13_linear" x1="817.36" y1="552.58" x2="758.14" y2="537.46" gradientUnits="userSpaceOnUse">
  <stop stop-color="#30107E"/>
  <stop offset="1" stop-color="#885FEA"/>
  </linearGradient>
  <linearGradient id="paint14_linear" x1="802.87" y1="448" x2="802.87" y2="508.48" gradientUnits="userSpaceOnUse">
  <stop stop-color="#8BCAE7" stop-opacity="0"/>
  <stop offset="1" stop-color="#8BCAE7" stop-opacity="0.66"/>
  </linearGradient>
  </defs>
</g>
<g class="steps e13">
  <path d="M722 456.01L747 468.021V494.045L722 482.034V456.01Z" fill="#6742C2"/>
  <path d="M772 456.01L747 468.021V494.045L772 482.034V456.01Z" fill="#381787"/>
  <path d="M747 445L772 456.01L747 468.022L722 456.01L747 445Z" fill="#7F59D9"/>
</g>
<g class="steps e16">
  <circle cx="930.094" cy="370" r="58" fill="url(#paint15_radial)"/>
  <circle cx="930.339" cy="367.604" r="37.8265" stroke="#EAE8F6" stroke-width="0.605224"/>
  <path d="M959.149 367.852C959.149 378.271 955.921 387.693 950.717 394.504C945.513 401.314 938.345 405.5 930.452 405.5C922.558 405.5 915.39 401.314 910.186 394.504C904.982 387.693 901.754 378.271 901.754 367.852C901.754 357.433 904.982 348.011 910.186 341.201C915.39 334.391 922.558 330.204 930.452 330.204C938.345 330.204 945.513 334.391 950.717 341.201C955.921 348.011 959.149 357.433 959.149 367.852Z" stroke="#EAE8F6" stroke-width="0.605224"/>
  <path d="M945.544 367.852C945.544 378.303 943.825 387.75 941.057 394.573C939.673 397.986 938.032 400.727 936.226 402.611C934.42 404.494 932.469 405.5 930.452 405.5C928.434 405.5 926.483 404.494 924.677 402.611C922.871 400.727 921.23 397.986 919.846 394.573C917.078 387.75 915.359 378.303 915.359 367.852C915.359 357.401 917.078 347.954 919.846 341.131C921.23 337.718 922.871 334.977 924.677 333.093C926.483 331.211 928.434 330.204 930.452 330.204C932.469 330.204 934.42 331.211 936.226 333.093C938.032 334.977 939.673 337.718 941.057 341.131C943.825 347.954 945.544 357.401 945.544 367.852Z" stroke="#EAE8F6" stroke-width="0.605224"/>
  <path d="M967.742 367.494C967.742 374.986 963.562 381.795 956.751 386.743C949.94 391.69 940.516 394.759 930.094 394.759C919.671 394.759 910.247 391.69 903.436 386.743C896.625 381.795 892.445 374.986 892.445 367.494C892.445 360.002 896.625 353.193 903.436 348.245C910.247 343.298 919.671 340.229 930.094 340.229C940.516 340.229 949.94 343.298 956.751 348.245C963.562 353.193 967.742 360.002 967.742 367.494Z" stroke="#EAE8F6" stroke-width="0.605224"/>
  <path d="M967.742 367.494C967.742 368.876 966.782 370.257 964.89 371.565C963.007 372.867 960.262 374.052 956.844 375.052C950.011 377.05 940.553 378.29 930.094 378.29C919.634 378.29 910.176 377.05 903.343 375.052C899.925 374.052 897.18 372.867 895.297 371.565C893.405 370.257 892.445 368.876 892.445 367.494C892.445 366.112 893.405 364.731 895.297 363.423C897.18 362.121 899.925 360.936 903.343 359.936C910.176 357.938 919.634 356.698 930.094 356.698C940.553 356.698 950.011 357.938 956.844 359.936C960.262 360.936 963.007 362.121 964.89 363.423C966.782 364.731 967.742 366.112 967.742 367.494Z" stroke="#EAE8F6" stroke-width="0.605224"/>
  <path d="M964.161 351.025C964.161 352.422 963.294 353.804 961.606 355.105C959.923 356.404 957.468 357.587 954.408 358.585C948.291 360.581 939.821 361.821 930.452 361.821C921.082 361.821 912.612 360.581 906.495 358.585C903.435 357.587 900.98 356.404 899.297 355.105C897.61 353.804 896.742 352.422 896.742 351.025C896.742 349.628 897.61 348.246 899.297 346.944C900.98 345.646 903.435 344.463 906.495 343.465C912.612 341.468 921.082 340.229 930.452 340.229C939.821 340.229 948.291 341.468 954.408 343.465C957.468 344.463 959.923 345.646 961.606 346.944C963.294 348.246 964.161 349.628 964.161 351.025Z" stroke="#EAE8F6" stroke-width="0.605224"/>
  <path d="M951.272 337.778C951.272 338.747 950.747 339.707 949.715 340.617C948.684 341.526 947.174 342.359 945.282 343.064C941.502 344.474 936.258 345.352 930.452 345.352C924.645 345.352 919.402 344.474 915.621 343.064C913.729 342.359 912.219 341.526 911.188 340.617C910.156 339.707 909.631 338.747 909.631 337.778C909.631 336.809 910.156 335.849 911.188 334.939C912.219 334.03 913.729 333.197 915.621 332.492C919.402 331.082 924.645 330.204 930.452 330.204C936.258 330.204 941.502 331.082 945.282 332.492C947.174 333.197 948.684 334.03 949.715 334.939C950.747 335.849 951.272 336.809 951.272 337.778Z" stroke="#EAE8F6" stroke-width="0.605224"/>
  <defs>
  <radialGradient id="paint15_radial" cx="0" cy="0" r="1" gradientUnits="userSpaceOnUse" gradientTransform="translate(930.094 370) rotate(90) scale(63.8906)">
  <stop stop-color="white"/>
  <stop offset="1" stop-color="#9C78F2" stop-opacity="0"/>
  </radialGradient>
  </defs>
</g>
<g class="steps e15">
  <path d="M937.9 355.477C933.469 357.523 928.362 357.516 923.936 355.459L863.146 327.202L863.437 397.202L926.135 426.926C929.175 428.367 932.7 428.372 935.744 426.938L999.146 397.074V327.202L937.9 355.477Z" fill="url(#paint16_linear)" fill-opacity="0.5"/>
  <path d="M939.083 340.724C933.998 343.223 928.041 343.219 922.961 340.712L863.146 311.202V327.202L925.628 357.581C929.032 359.236 933.007 359.239 936.413 357.589L999.146 327.202V311.202L939.083 340.724Z" fill="url(#paint17_linear)"/>
  <path d="M924.484 285.024C928.837 283.18 933.754 283.189 938.1 285.048L997.404 310.409C998.43 310.847 998.458 312.292 997.449 312.77L938.396 340.71C933.665 342.949 928.177 342.937 923.456 340.677L864.833 312.624C863.827 312.142 863.86 310.698 864.887 310.263L924.484 285.024Z" fill="#7F59D9" stroke="#00FFE3" stroke-width="1.72262"/>
  <path d="M924.41 277.661C928.835 275.797 933.826 275.806 938.245 277.686L1013.52 309.703C1014.84 310.263 1014.87 312.116 1013.58 312.725L938.465 348.073C933.654 350.337 928.082 350.324 923.281 348.039L848.704 312.543C847.413 311.928 847.455 310.076 848.773 309.521L924.41 277.661Z" stroke="#00FFE3"/>
  <circle cx="869" cy="322" r="3" fill="#00FFE3"/>
  <circle cx="875" cy="325" r="2" fill="#00FFE3"/>
  <circle cx="999.483" cy="319.061" r="3" fill="#00FFE3"/>
  <circle cx="993.483" cy="322.061" r="2" fill="#00FFE3"/>
  <path d="M889.454 306.851L932.454 326.79V333.851L889.454 313.912V306.851Z" fill="#6545C1"/>
  <path d="M975.454 307.038L932.454 326.79V333.851L975.454 313.912V307.038Z" fill="#30107E"/>
  <path d="M931.954 289.538L975.454 307.038L932.454 327.038L889.454 307.038L931.954 289.538Z" fill="#7F59D9"/>
  <ellipse cx="932.454" cy="305.538" rx="27" ry="8.5" fill="#00FFE3"/>
  <path d="M885.954 184.038C923.615 158.165 943.868 158.019 978.954 184.038L959.454 306.038H905.454L885.954 184.038Z" fill="url(#paint18_linear)"/>
  <defs>
  <linearGradient id="paint16_linear" x1="958.595" y1="431.847" x2="849.328" y2="397.373" gradientUnits="userSpaceOnUse">
  <stop stop-color="#8BCAE7"/>
  <stop offset="1" stop-color="#8A61ED"/>
  </linearGradient>
  <linearGradient id="paint17_linear" x1="958.448" y1="351.152" x2="849.108" y2="317.08" gradientUnits="userSpaceOnUse">
  <stop stop-color="#31107E"/>
  <stop offset="1" stop-color="#8A61ED"/>
  </linearGradient>
  <linearGradient id="paint18_linear" x1="930.454" y1="188.038" x2="932.454" y2="306.038" gradientUnits="userSpaceOnUse">
  <stop stop-color="#00FFE3" stop-opacity="0"/>
  <stop offset="1" stop-color="#00FFE3" stop-opacity="0.82"/>
  </linearGradient>
  </defs>
</g>
<g class="steps e18">
  <path d="M1181.36 484.925C1176.65 487.213 1171.14 487.209 1166.43 484.914L1104.08 454.527V466.994C1104.08 469.052 1105.25 470.929 1107.1 471.829L1168.85 501.86C1172.04 503.409 1175.75 503.411 1178.94 501.868L1240.94 471.827C1242.8 470.929 1243.98 469.049 1243.98 466.989V454.527L1181.36 484.925Z" fill="url(#paint19_linear)"/>
  <path d="M1167.67 426.24C1171.82 424.492 1176.49 424.5 1180.63 426.263L1242.68 452.697C1243.91 453.222 1243.95 454.956 1242.74 455.527L1180.88 484.68C1176.38 486.803 1171.16 486.792 1166.66 484.649L1105.25 455.375C1104.05 454.799 1104.08 453.066 1105.32 452.546L1167.67 426.24Z" fill="#7F59D9" stroke="#FFF8D2" stroke-width="0.929979"/>
  <defs>
  <linearGradient id="paint19_linear" x1="1202.11" y1="495.117" x2="1089.88" y2="459.709" gradientUnits="userSpaceOnUse">
  <stop stop-color="#31107E"/>
  <stop offset="1" stop-color="#8A61ED"/>
  </linearGradient>
  </defs>
</g>
<g class="steps e19">
  <path d="M1178.94 404.566C1175.78 406.102 1172.08 406.099 1168.92 404.559L1127.06 384.162V451.451C1127.06 452.832 1127.85 454.092 1129.09 454.696L1170.55 474.855C1172.68 475.894 1175.18 475.896 1177.32 474.86L1218.93 454.695C1220.18 454.092 1220.97 452.831 1220.97 451.447V384.162L1178.94 404.566Z" fill="url(#paint20_linear)"/>
  <path d="M1169.75 365.175C1172.53 364.002 1175.67 364.007 1178.45 365.19L1220.1 382.934C1220.93 383.286 1220.95 384.45 1220.14 384.833L1178.62 404.402C1175.6 405.827 1172.09 405.819 1169.08 404.381L1127.85 384.731C1127.04 384.345 1127.07 383.181 1127.9 382.832L1169.75 365.175Z" fill="#7F59D9" stroke="#FFF8D2" stroke-width="0.624233"/>
  <path d="M1170.57 374.936C1172.81 374.016 1175.32 374.02 1177.55 374.947L1200.23 384.362L1177.74 394.693C1175.3 395.811 1172.5 395.805 1170.07 394.677L1147.76 384.313L1170.57 374.936ZM1145.78 383.392C1145.78 383.392 1145.78 383.392 1145.78 383.392L1145.78 383.392L1145.38 384.259L1145.78 383.392Z" fill="#FFF8D2" stroke="#30107E" stroke-width="4.62"/>
  <path d="M1135 404.683C1135 403.578 1136.15 402.852 1137.15 403.331L1160.15 414.406C1160.67 414.656 1161 415.181 1161 415.757V454.318C1161 455.423 1159.85 456.149 1158.85 455.669L1135.85 444.595C1135.33 444.345 1135 443.82 1135 443.243V404.683Z" stroke="#FFF8D2"/>
  <path d="M1193 408.758C1193 408.389 1192.61 408.147 1192.28 408.307L1189.78 409.511C1189.61 409.594 1189.5 409.769 1189.5 409.961V450.742C1189.5 451.11 1189.88 451.352 1190.22 451.192L1192.72 449.988C1192.89 449.905 1193 449.73 1193 449.538V408.758ZM1201.5 404.591C1201.5 404.223 1201.11 403.981 1200.78 404.141L1198.28 405.344C1198.11 405.428 1198 405.603 1198 405.795V446.575C1198 446.944 1198.38 447.185 1198.72 447.026L1201.22 445.822C1201.39 445.739 1201.5 445.564 1201.5 445.372V404.591ZM1210 400.592C1210 400.223 1209.61 399.981 1209.28 400.141L1206.78 401.345C1206.61 401.428 1206.5 401.603 1206.5 401.795V442.575C1206.5 442.944 1206.88 443.186 1207.22 443.026L1209.72 441.822C1209.89 441.739 1210 441.564 1210 441.372V400.592Z" fill="#C4C4C4" stroke="#FFF8D2"/>
  <rect x="1155" y="316" width="38" height="69" fill="url(#paint21_linear)"/>
  <defs>
  <linearGradient id="paint20_linear" x1="1192.87" y1="411.407" x2="1117.54" y2="387.641" gradientUnits="userSpaceOnUse">
  <stop stop-color="#31107E"/>
  <stop offset="1" stop-color="#8A61ED"/>
  </linearGradient>
  <linearGradient id="paint21_linear" x1="1174" y1="316" x2="1174" y2="385" gradientUnits="userSpaceOnUse">
  <stop stop-color="#FFF8D2" stop-opacity="0"/>
  <stop offset="1" stop-color="#FFF8D2" stop-opacity="0.47"/>
  </linearGradient>
  </defs>
</g>
<g class="steps e25">
  <path d="M1184.16 110.744C1190.52 108.066 1197.69 108.078 1204.04 110.779L1317.14 158.885C1319.53 159.904 1319.6 163.276 1317.24 164.385L1204.33 217.522C1197.42 220.775 1189.41 220.758 1182.51 217.474L1070.4 164.11C1068.05 162.992 1068.13 159.622 1070.52 158.612L1184.16 110.744Z" fill="#26047A"/>
  <path d="M1172.22 190.102C1165.18 193.522 1156.95 193.515 1149.91 190.085L1056.71 144.667V163.301C1056.71 166.377 1058.46 169.183 1061.23 170.528L1153.53 215.415C1158.29 217.729 1163.84 217.733 1168.6 215.426L1261.28 170.525C1264.05 169.182 1265.81 166.373 1265.81 163.293V144.667L1172.22 190.102Z" fill="url(#paint22_linear)"/>
  <path d="M1151.76 102.388C1157.96 99.7756 1164.94 99.7878 1171.13 102.422L1263.88 141.932C1265.72 142.716 1265.77 145.309 1263.96 146.162L1171.5 189.737C1164.77 192.909 1156.97 192.892 1150.25 189.69L1058.47 145.935C1056.66 145.074 1056.72 142.484 1058.56 141.706L1151.76 102.388Z" fill="#7F59D9" stroke="#FFF8D2" stroke-width="1.39"/>
  <line x1="1094.83" y1="182.625" x2="1094.83" y2="187.629" stroke="#FFF8D2" stroke-width="3"/>
  <ellipse cx="1094.83" cy="179.622" rx="3.5" ry="5.00463" fill="#FFF8D2"/>
  <defs>
  <linearGradient id="paint22_linear" x1="1203.24" y1="205.335" x2="1035.49" y2="152.413" gradientUnits="userSpaceOnUse">
  <stop stop-color="#31107E"/>
  <stop offset="1" stop-color="#8A61ED"/>
  </linearGradient>
  </defs>
</g>
<g class="steps e26">
  <path d="M1169.5 72.8253C1164.32 75.1736 1158.36 75.1297 1153.21 72.7051L1081.61 38.9918V140.077C1081.61 142.419 1082.95 144.557 1085.06 145.581L1155.36 179.772C1158.98 181.534 1163.22 181.537 1166.84 179.78L1237.44 145.579C1239.55 144.556 1240.89 142.416 1240.89 140.071V40.4932L1169.5 72.8253Z" fill="url(#paint23_linear)"/>
  <path d="M1154.02 8.14834C1158.73 6.15846 1164.06 6.16777 1168.77 8.17413L1239.41 38.2692C1240.82 38.8667 1240.85 40.8413 1239.47 41.4913L1169.05 74.6824C1163.93 77.0991 1157.98 77.086 1152.87 74.6469L1082.95 41.3185C1081.58 40.6628 1081.62 38.6896 1083.03 38.0973L1154.02 8.14834Z" fill="#7F59D9" stroke="#FFF8D2" stroke-width="1.05877"/>
  <path d="M1121 131.306V74.3385L1159.01 92.4578C1160.22 93.0385 1161 94.2677 1161 95.6171V152.585L1122.99 134.466C1121.78 133.885 1121 132.656 1121 131.306Z" fill="#9674EA" stroke="#5823D3" stroke-width="3"/>
  <path d="M1119.5 80.4617L1139 89.9617V94.4617L1119.5 84.9617V80.4617Z" fill="#5823D3"/>
  <path d="M1119.5 104.962L1139 114.462V118.962L1119.5 109.462V104.962Z" fill="#5823D3"/>
  <path d="M1119.5 92.9617L1135.5 100.757V105.257L1119.5 97.4617V92.9617Z" fill="#5823D3"/>
  <path d="M1119.5 117.462L1135.5 125.257V129.757L1119.5 121.962V117.462Z" fill="#5823D3"/>
  <path d="M1119.5 86.9617L1145.5 99.4617V103.962L1119.5 91.4617V86.9617Z" fill="#5823D3"/>
  <path d="M1119.5 111.462L1145.5 123.962V128.462L1119.5 115.962V111.462Z" fill="#5823D3"/>
  <path d="M1119.5 98.9617L1149 112.962V117.462L1119.5 103.462V98.9617Z" fill="#5823D3"/>
  <path d="M1117.08 37.4245L1160.3 17.1624L1205.49 37.4986L1162.27 57.7607L1117.08 37.4245Z" fill="#5E39B7" stroke="#EAE8F6" stroke-width="4"/>
  <path d="M1157.52 57.9722L1205.59 35.7816L1210.29 37.4616L1162.29 59.9615L1157.52 57.9722Z" fill="#FFF8D2"/>
  <path d="M1150.9 54.8997L1198.96 32.7092L1203.06 34.5733L1155.49 56.9493L1150.9 54.8997Z" fill="#FFF8D2"/>
  <path d="M1144.58 51.9705L1192.64 29.7799L1196.75 31.6441L1149.17 54.0201L1144.58 51.9705Z" fill="#FFF8D2"/>
  <path d="M1138.29 49.1027L1186.36 26.9121L1190.46 28.7763L1142.89 51.1523L1138.29 49.1027Z" fill="#FFF8D2"/>
  <path d="M1131.51 46.1906L1179.57 24.0001L1183.67 25.8643L1136.1 48.2403L1131.51 46.1906Z" fill="#FFF8D2"/>
  <path d="M1125.19 43.1665L1173.26 20.976L1177.36 22.8402L1129.79 45.2162L1125.19 43.1665Z" fill="#FFF8D2"/>
  <path d="M1118.54 40.0481L1166.6 17.8576L1170.71 19.7218L1123.13 42.0978L1118.54 40.0481Z" fill="#FFF8D2"/>
  <path d="M1112.29 37.4616L1160.29 14.9615L1164.61 16.9758L1117.04 39.3518L1112.29 37.4616Z" fill="#FFF8D2"/>
  <path d="M1208.42 76.3147C1208.42 73.6096 1209.98 71.1466 1212.42 69.9885L1223.14 64.9143C1225.13 63.9715 1227.42 65.4231 1227.42 67.6255V150.885L1208.42 160V76.3147Z" fill="#9674EA"/>
  <path d="M1211.42 87.0132C1211.42 84.3173 1212.97 81.861 1215.4 80.698L1220.13 78.4383C1222.12 77.4861 1224.42 78.9376 1224.42 81.1448V152.296L1211.42 158.55V87.0132Z" fill="#30107E"/>
  <defs>
  <linearGradient id="paint23_linear" x1="1193.22" y1="172.094" x2="1065.45" y2="131.783" gradientUnits="userSpaceOnUse">
  <stop stop-color="#31107E"/>
  <stop offset="1" stop-color="#8A61ED"/>
  </linearGradient>
  </defs>
</g>
<g class="steps e21">
  <path d="M1441.28 308.729C1445.76 306.874 1450.8 306.883 1455.28 308.753L1650.31 390.18C1652.04 390.903 1652.09 393.34 1650.39 394.127L1454.86 484.445C1449.98 486.7 1444.36 486.687 1439.49 484.412L1245.28 393.677C1243.58 392.883 1243.63 390.447 1245.37 389.73L1441.28 308.729Z" fill="#26047A"/>
  <path d="M1415.36 436.993C1406.06 441.506 1395.21 441.498 1385.92 436.971L1262.91 377.029V401.623C1262.91 405.682 1265.22 409.385 1268.87 411.16L1390.69 470.4C1396.97 473.454 1404.3 473.459 1410.58 470.415L1532.89 411.156C1536.55 409.383 1538.87 405.676 1538.87 401.612V377.029L1415.36 436.993Z" fill="url(#paint24_linear)"/>
  <path d="M1388.62 321.849C1396.63 318.472 1405.66 318.488 1413.65 321.893L1536.06 374.037C1537.96 374.845 1538.01 377.516 1536.14 378.395L1414.13 435.903C1405.42 440.005 1395.34 439.983 1386.66 435.843L1265.52 378.097C1263.66 377.21 1263.72 374.541 1265.62 373.74L1388.62 321.849Z" fill="#7F59D9" stroke="#00FFE3" stroke-width="3.17719"/>
  <path d="M1435.45 438.671L1511.45 401.171V411.171L1435.45 448.671V438.671Z" fill="#04A08F"/>
  <defs>
  <linearGradient id="paint24_linear" x1="1456.29" y1="457.098" x2="1234.91" y2="387.253" gradientUnits="userSpaceOnUse">
  <stop stop-color="#31107E"/>
  <stop offset="1" stop-color="#8A61ED"/>
  </linearGradient>
  </defs>
</g>
<g class="steps e22">
  <path d="M1238.59 217.018C1238.6 214.791 1239.91 212.774 1241.94 211.851L1333.67 170.082C1337.48 168.35 1341.79 171.161 1341.74 175.343L1340.99 241.368C1340.96 243.597 1339.65 245.607 1337.61 246.518L1246.25 287.449C1242.46 289.147 1238.18 286.359 1238.21 282.206L1238.59 217.018Z" fill="#76B7CF" fill-opacity="0.3"/>
  <path d="M1240.01 217.026C1240.02 215.352 1241 213.837 1242.52 213.143L1334.26 171.375C1337.12 170.073 1340.36 172.186 1340.32 175.328L1339.57 241.353C1339.55 243.027 1338.56 244.538 1337.03 245.222L1245.67 286.153C1242.82 287.429 1239.61 285.334 1239.63 282.214L1240.01 217.026Z" stroke="#98FFF3" stroke-opacity="0.5" stroke-width="2.84"/>
  <path d="M1301.83 192.778L1329.1 180.361L1328.96 185.272L1301.81 197.437L1301.83 192.778Z" fill="#22208A" fill-opacity="0.2"/>
  <path d="M1302.23 196.787L1302.25 193.049L1328.66 181.023L1328.55 184.997L1302.23 196.787Z" stroke="#98FFF3" stroke-opacity="0.5" stroke-width="0.84"/>
  <path d="M1301.83 198.986L1329.1 186.569L1328.96 191.481L1301.81 203.646L1301.83 198.986Z" fill="#22208A" fill-opacity="0.2"/>
  <path d="M1302.23 202.996L1302.25 199.257L1328.66 187.231L1328.55 191.205L1302.23 202.996Z" stroke="#98FFF3" stroke-opacity="0.5" stroke-width="0.84"/>
  <path d="M1301.83 205.196L1329.1 192.779L1328.96 197.69L1301.81 209.855L1301.83 205.196Z" fill="#22208A" fill-opacity="0.2"/>
  <path d="M1302.23 209.205L1302.25 205.467L1328.66 193.44L1328.55 197.415L1302.23 209.205Z" stroke="#98FFF3" stroke-opacity="0.5" stroke-width="0.84"/>
  <path d="M1301.83 211.405L1329.1 198.989L1328.96 203.9L1301.81 216.065L1301.83 211.405Z" fill="#22208A" fill-opacity="0.2"/>
  <path d="M1302.23 215.415L1302.25 211.676L1328.66 199.65L1328.55 203.624L1302.23 215.415Z" stroke="#98FFF3" stroke-opacity="0.5" stroke-width="0.84"/>
  <path d="M1250.39 233.274L1264 227.382V277.099L1250 283.382L1250.39 233.274Z" fill="#5823D3" fill-opacity="0.5"/>
  <path d="M1264 210.177L1283 201.382V269.045L1264 277.382V210.177Z" fill="#CF59D9" fill-opacity="0.5"/>
  <path d="M1283 228.216L1297 222V261.702L1283 268V228.216Z" fill="#181599" fill-opacity="0.5"/>
  <path d="M1341.34 307.535C1348.23 310.69 1356.17 310.573 1362.97 307.215L1420.99 278.529L1421.23 351.793L1363.5 384.596C1356.43 388.614 1347.85 388.966 1340.47 385.54L1302.75 368.02V289.86L1341.34 307.535Z" fill="url(#paint25_linear)"/>
  <path d="M1340.99 307.385L1303.76 289.87L1363.4 263.22C1369.65 260.427 1376.78 260.351 1383.08 263.008L1419.99 278.561L1362.52 307.148C1355.75 310.514 1347.82 310.601 1340.99 307.385Z" fill="#7F59D9" stroke="#FFF8D2" stroke-width="0.838559"/>
  <path d="M1281.98 208.21C1281.99 205.982 1283.3 203.965 1285.32 203.042L1406.83 147.721C1410.63 145.989 1414.95 148.8 1414.9 152.982L1413.89 241.688C1413.86 243.917 1412.54 245.928 1410.51 246.838L1289.5 301.047C1285.71 302.745 1281.44 299.957 1281.46 295.804L1281.98 208.21Z" fill="#22208A" fill-opacity="0.2"/>
  <path d="M1283.4 208.218C1283.41 206.544 1284.39 205.028 1285.91 204.335L1407.41 149.014C1410.27 147.712 1413.51 149.825 1413.48 152.967L1412.47 241.673C1412.45 243.347 1411.46 244.858 1409.93 245.542L1288.92 299.751C1286.08 301.026 1282.87 298.932 1282.88 295.811L1283.4 208.218Z" stroke="#98FFF3" stroke-opacity="0.7" stroke-width="2.84"/>
  <path d="M1371.06 174.821L1406.19 158.824L1406.01 165.152L1371.02 180.824L1371.06 174.821Z" fill="#22208A" fill-opacity="0.2"/>
  <path d="M1371.45 180.174L1371.48 175.092L1405.75 159.486L1405.6 164.876L1371.45 180.174Z" stroke="#98FFF3" stroke-opacity="0.7" stroke-width="0.84"/>
  <path d="M1371.06 182.819L1406.19 166.823L1406.01 173.15L1371.02 188.822L1371.06 182.819Z" fill="#22208A" fill-opacity="0.2"/>
  <path d="M1371.45 188.172L1371.48 183.09L1405.75 167.484L1405.6 172.874L1371.45 188.172Z" stroke="#98FFF3" stroke-opacity="0.7" stroke-width="0.84"/>
  <path d="M1371.06 190.819L1406.19 174.823L1406.01 181.15L1371.02 196.822L1371.06 190.819Z" fill="#22208A" fill-opacity="0.2"/>
  <path d="M1371.45 196.172L1371.48 191.09L1405.75 175.484L1405.6 180.874L1371.45 196.172Z" stroke="#98FFF3" stroke-opacity="0.7" stroke-width="0.84"/>
  <path d="M1371.06 198.819L1406.19 182.823L1406.01 189.15L1371.02 204.822L1371.06 198.819Z" fill="#22208A" fill-opacity="0.2"/>
  <path d="M1371.45 204.172L1371.48 199.09L1405.75 183.484L1405.6 188.874L1371.45 204.172Z" stroke="#98FFF3" stroke-opacity="0.7" stroke-width="0.84"/>
  <path d="M1346.43 291.046C1345.22 290.547 1345.18 288.844 1346.37 288.296L1369.92 277.442C1370.3 277.267 1370.73 277.258 1371.12 277.417L1390.63 285.446C1391.83 285.938 1391.88 287.614 1390.72 288.182L1367.86 299.338C1367.47 299.526 1367.03 299.54 1366.63 299.377L1346.43 291.046Z" stroke="#FFF8D2"/>
  <path d="M1297.62 229.933L1315 222.323V286.526L1297.12 294.64L1297.62 229.933Z" fill="#5823D3"/>
  <path d="M1315 200.323L1339 189.042V275.823L1315 286.514V200.323Z" fill="#CF59D9"/>
  <path d="M1339 224.575L1357 216.567V267.709L1339 275.823V224.575Z" fill="#181599"/>
  <path d="M1315.33 317.949C1315.33 316.488 1316.85 315.521 1318.17 316.135L1329.85 321.547C1331.97 322.53 1333.33 324.654 1333.33 326.991V382.159L1315.33 373.818V317.949Z" fill="#30107E"/>
  <path d="M1319.42 331.115C1319.42 330.019 1320.56 329.293 1321.55 329.755L1327.24 332.395C1329.18 333.297 1330.42 335.243 1330.42 337.384V382.198L1319.42 377.089V331.115Z" fill="#764FD4" stroke="#00A592"/>
  <defs>
  <linearGradient id="paint25_linear" x1="1367.32" y1="343.578" x2="1302.75" y2="341.483" gradientUnits="userSpaceOnUse">
  <stop stop-color="#30107E"/>
  <stop offset="1" stop-color="#7750D6"/>
  </linearGradient>
  </defs>
</g>
<g class="steps e23">
  <ellipse rx="4.00014" ry="2.40418" transform="matrix(0.980733 0.195355 -0.195008 0.980802 1374.39 274.14)" fill="#F9D2FF"/>
  <ellipse rx="4.00014" ry="2.40418" transform="matrix(0.980733 0.195355 -0.195008 0.980802 1361.39 290.14)" fill="#F9D2FF"/>
  <path fill-rule="evenodd" clip-rule="evenodd" d="M1409.5 280.186C1421.29 275.259 1441.03 260.364 1430.71 251.074C1425.05 245.98 1421.98 250.498 1417.7 256.793C1414.17 261.978 1409.82 268.369 1402.54 271.587C1392.82 275.879 1384.36 274.406 1379.56 273.57C1379.06 273.482 1378.6 273.402 1378.18 273.336C1377.01 274.165 1376.7 274.79 1376.88 276.242C1381.96 280.453 1399.09 284.54 1409.5 280.186Z" fill="#5934AF"/>
  <ellipse rx="3.00029" ry="4.00332" transform="matrix(0.94654 0.322586 -0.322051 0.946722 1457.13 302.758)" fill="#F9D2FF"/>
  <ellipse cx="1416" cy="331.93" rx="8" ry="17.5162" fill="#8BCAE7"/>
  <ellipse rx="69.5102" ry="28.8734" transform="matrix(0.91753 0.397666 -0.397047 0.917798 1464.24 416.142)"/> <!-- fill="url(#paint_linear)" -->
  <ellipse rx="9.50018" ry="4.00363" transform="matrix(0.989737 0.142901 -0.142642 0.989774 1444.95 387.377)" fill="#5934AF"/>
  <path fill-rule="evenodd" clip-rule="evenodd" d="M1451.5 370.979C1450.91 365.19 1450.19 358.178 1449.68 349.933C1449.18 341.913 1449.61 333.42 1450.01 325.391C1451 305.525 1451.85 288.5 1438.28 288.5C1422.12 288.5 1425.99 308.874 1430.5 332.617C1431.32 336.886 1432.15 341.264 1432.89 345.652C1436.55 367.395 1440.22 382.5 1444.58 388.592C1448.52 390.202 1450.27 390.319 1452.24 388.592C1452.98 385.354 1452.38 379.49 1451.5 370.979Z" fill="#5C99B5"/>
  <ellipse rx="9.50018" ry="4.00363" transform="matrix(0.989737 0.142901 -0.142642 0.989774 1406.66 400.552)" fill="#5934AF"/>
  <path fill-rule="evenodd" clip-rule="evenodd" d="M1418.94 379.488C1419.22 374.351 1419.54 368.373 1420.07 361.568C1420.67 353.867 1422.09 345.826 1423.44 338.164C1426.99 318.002 1430.07 300.455 1416.64 298.587C1401.42 296.468 1402.5 316.252 1403.78 339.634C1404.06 344.709 1404.35 349.954 1404.48 355.182C1405.09 379.251 1406.12 395.208 1409.95 400.629C1412.34 401.63 1413.69 401.719 1416.09 401.011C1417.93 397.955 1418.33 390.736 1418.94 379.488Z" fill="#8BCAE7"/>
  <ellipse rx="12" ry="13.9451" transform="matrix(0.999913 -0.0132042 0.0131797 0.999913 1418.88 232.662)" fill="#F9D2FF"/>
  <path d="M1460.45 292.093C1460.45 320.24 1458.06 327.426 1441.3 331.02C1424.55 334.613 1391.64 353.178 1399.42 292.093C1399.42 265.634 1402.41 248.975 1423.36 246.579C1444.3 244.184 1460.45 263.947 1460.45 292.093Z" fill="#7F59D9"/>
  <path d="M1431.76 228.02C1433.22 234.207 1430.49 240.149 1425.65 241.292C1414.6 241.84 1419.06 237.517 1417.6 231.33C1416.14 225.143 1395.6 226.826 1417.1 218.819C1420.6 217.515 1430.31 221.833 1431.76 228.02Z" fill="#9678DE"/>
  <path fill-rule="evenodd" clip-rule="evenodd" d="M1399.86 289.754C1410.86 283.248 1428.36 265.775 1416.86 257.996C1410.43 253.652 1407.44 259.07 1403.44 266.317C1400.28 272.047 1396.48 278.922 1389.86 283.019C1381.1 288.435 1372.04 288.776 1366.49 288.985C1365.8 289.011 1365.17 289.035 1364.59 289.066C1363.44 290.303 1363.38 291.149 1364.36 292.919C1371.87 295.462 1390.72 295.158 1399.86 289.754Z" fill="#6844BE"/>
  <ellipse cx="1417.09" cy="234.817" rx="4.5" ry="4.50417" fill="#CF59D9"/>
  <path d="M1418.89 231.836C1418.93 222.373 1428.75 219.677 1430.25 224.182" stroke="#CF59D9"/>
  <defs>
  <!-- <linearGradient id="paint_linear" x1="36.2088" y1="16.751" x2="55.0136" y2="37.4972" gradientUnits="userSpaceOnUse"> -->
  <!-- <stop stop-color="#6643B9"/>
  <stop offset="1" stop-color="#6643B9" stop-opacity="0"/>
  </linearGradient> -->
  </defs>
</g>
<g class="steps e1">
  <line y1="-1" x2="334.602" y2="-1" transform="matrix(-0.916935 0.399037 -0.398416 -0.917205 1941.14 464.886)" stroke="#FFF8D2" stroke-opacity="0.5" stroke-width="2"/>
  <line y1="-1" x2="463.004" y2="-1" transform="matrix(-0.922239 0.38662 -0.386012 -0.922494 212.33 281.693)" stroke="#FFF8D2" stroke-opacity="0.5" stroke-width="2"/>
  <line y1="-1.07202" x2="390.91" y2="-1.07202" transform="matrix(-0.901979 -0.431781 0.431131 -0.90229 1986.92 767.192)" stroke="#FFF8D2" stroke-opacity="0.5" stroke-width="2.14404"/>
  <line y1="-1.07202" x2="356.625" y2="-1.07202" transform="matrix(-0.88634 -0.463035 0.462362 -0.886691 212.33 281.693)" stroke="#FFF8D2" stroke-opacity="0.5" stroke-width="2.14404"/>
  <path d="M1599.41 200.532C1603.97 198.402 1609.23 198.313 1613.86 200.288L1679.86 228.401C1681.17 228.961 1681.21 230.813 1679.92 231.423L1613.49 262.732C1608.82 264.93 1603.44 264.992 1598.73 262.902L1533.87 234.135C1532.57 233.559 1532.55 231.721 1533.84 231.12L1599.41 200.532Z" stroke="#FFF8D2" stroke-opacity="0.2"/>
  <path d="M1761.97 199.763C1766.65 197.494 1772.08 197.388 1776.84 199.472L1846.99 230.189C1848.31 230.764 1848.32 232.621 1847.01 233.214L1783.1 262.255C1778.56 264.321 1773.35 264.376 1768.76 262.406L1700.01 232.891C1698.7 232.332 1698.66 230.499 1699.94 229.88L1761.97 199.763Z" stroke="#FFF8D2" stroke-opacity="0.2"/>
  <path d="M1680.86 162.592C1685.45 160.404 1690.76 160.293 1695.45 162.287L1761.36 190.365C1762.67 190.926 1762.71 192.778 1761.42 193.387L1694.85 224.759C1690.27 226.922 1684.97 227.018 1680.31 225.023L1614.91 197.054C1613.6 196.493 1613.57 194.649 1614.85 194.035L1680.86 162.592Z" stroke="#FFF8D2" stroke-opacity="0.2"/>
  <path d="M1681.95 236.315C1686.64 234.036 1692.09 233.932 1696.86 236.032L1767.77 267.243C1769.07 267.817 1769.09 269.66 1767.8 270.261L1694.28 304.488C1689.28 306.818 1683.47 306.687 1678.58 304.133L1615.85 271.398C1614.65 270.769 1614.67 269.035 1615.9 268.441L1681.95 236.315Z" stroke="#FFF8D2" stroke-opacity="0.2"/>
  <path d="M36.1828 799.265C43.2755 795.956 51.4404 795.819 58.6408 798.886L161.152 842.555C163.195 843.425 163.25 846.302 161.24 847.249L58.0533 895.883C50.8111 899.297 42.4427 899.393 35.1239 896.147L-65.6253 851.463C-67.6437 850.567 -67.6708 847.713 -65.6699 846.779L36.1828 799.265Z" stroke="#FFF8D2" stroke-opacity="0.2" stroke-width="1.55333"/>
  <path d="M288.703 798.072C295.964 794.547 304.406 794.381 311.799 797.619L420.767 845.333C422.806 846.226 422.825 849.111 420.799 850.032L321.527 895.142C314.464 898.351 306.377 898.436 299.249 895.376L192.445 849.531C190.42 848.661 190.354 845.815 192.337 844.852L288.703 798.072Z" stroke="#FFF8D2" stroke-opacity="0.2" stroke-width="1.55333"/>
  <path d="M162.705 740.333C169.84 736.933 178.092 736.761 185.364 739.859L287.749 783.474C289.792 784.344 289.846 787.221 287.837 788.168L184.445 836.899C177.318 840.258 169.095 840.407 161.851 837.309L60.2714 793.862C58.2355 792.992 58.1776 790.127 60.1766 789.174L162.705 740.333Z" stroke="#FFF8D2" stroke-opacity="0.2" stroke-width="1.55333"/>
  <path d="M164.4 854.849C171.682 851.308 180.152 851.147 187.563 854.409L297.707 902.89C299.732 903.782 299.762 906.644 297.756 907.577L183.554 960.744C175.781 964.363 166.766 964.159 159.165 960.192L61.7312 909.344C59.8584 908.367 59.8965 905.674 61.7963 904.75L164.4 854.849Z" stroke="#FFF8D2" stroke-opacity="0.2" stroke-width="1.55333"/>
</g>
<g class="steps e24">
  <path d="M1494 523.575L1519 535.586V561.61L1494 549.599V523.575Z" fill="#6742C2"/>
  <path d="M1544 523.575L1519 535.586V561.61L1544 549.599V523.575Z" fill="#381787"/>
  <path d="M1519 512.564L1544 523.575L1519 535.586L1494 523.575L1519 512.564Z" fill="#7F59D9"/>
  <path fill-rule="evenodd" clip-rule="evenodd" d="M1530 462H1507V526C1507 529.314 1512.15 532 1518.5 532C1524.85 532 1530 529.314 1530 526C1530 525.997 1530 525.995 1530 525.992V462Z" fill="url(#paint27_linear)"/>
  <ellipse cx="1518.5" cy="462" rx="11.5" ry="6" fill="#8BCAE7"/>
  <rect x="1507" y="414" width="23" height="48" fill="url(#paint28_linear)"/>
  <defs>
  <linearGradient id="paint27_linear" x1="1530" y1="497" x2="1483" y2="485" gradientUnits="userSpaceOnUse">
  <stop stop-color="#30107E"/>
  <stop offset="1" stop-color="#885FEA"/>
  </linearGradient>
  <linearGradient id="paint28_linear" x1="1518.5" y1="414" x2="1518.5" y2="462" gradientUnits="userSpaceOnUse">
  <stop stop-color="#8BCAE7" stop-opacity="0"/>
  <stop offset="1" stop-color="#8BCAE7" stop-opacity="0.66"/>
  </linearGradient>
  </defs>
</g>
</svg>
