<svg viewBox="0 0 1920 968" fill="none" xmlns="http://www.w3.org/2000/svg"><g class="steps e20"><path transform="rotate(156.482 532.157 206.045) skewX(-.039)" stroke="#FFF8D2" stroke-width="2" d="M0-1h150.501"/><path transform="rotate(-154.419 716.174 27.371) skewX(.041)" stroke="#FFF8D2" stroke-width="2" d="M0-1h152.997"/><path d="M1240.44 293.717a6.133 6.133 0 00-4.78-.008l-21.38 9.021c-.76.321-.79 1.389-.05 1.756l21.1 10.473c1.72.85 3.73.85 5.44 0l21.01-10.419a.965.965 0 00-.05-1.754l-21.29-9.069z" fill="#7F59D9" stroke="#FFF8D2" stroke-width=".552"/><path d="M1240.52 309.207c-1.61.784-3.5.782-5.11-.003l-21.36-10.407v4.27c0 .704.41 1.347 1.04 1.655l21.15 10.285c1.09.53 2.36.531 3.45.003l21.24-10.288a1.844 1.844 0 001.03-1.657v-4.268l-21.44 10.41z" fill="url(#a)"/><path d="M1235.88 289.217a5.555 5.555 0 014.34.008l21.26 9.053c.32.14.33.603.01.756l-21.18 9.984a5.572 5.572 0 01-4.77-.01l-21.03-10.026a.412.412 0 01.01-.756l21.36-9.009z" fill="#7F59D9" stroke="#FFF8D2" stroke-width=".552"/><ellipse cx="1237.5" cy="299" rx="11.5" ry="5" fill="#FFF8D2"/><defs><linearGradient id="a" x1="1247.63" y1="312.698" x2="1209.19" y2="300.572" gradientUnits="userSpaceOnUse"><stop stop-color="#31107E"/><stop offset="1" stop-color="#8A61ED"/></linearGradient></defs></g><g class="steps e17"><path transform="rotate(156.317 527.714 276.856) skewX(-.039)" stroke="#FFF8D2" stroke-width="1.678" d="M0-.839h205.135"/><path transform="rotate(-154.419 597.623 31.839) skewX(.041)" stroke="#FFF8D2" stroke-width="2.144" d="M0-1.072h175.828"/><path d="M993.413 245.717a6.123 6.123 0 00-4.776-.008l-21.384 9.021a.966.966 0 00-.054 1.756l21.108 10.473c1.713.85 3.725.85 5.438 0l21.005-10.419a.965.965 0 00-.05-1.754l-21.287-9.069z" fill="#7F59D9" stroke="#FFF8D2" stroke-width=".552"/><path d="M993.493 261.207a5.844 5.844 0 01-5.111-.003l-21.356-10.407v4.27a1.84 1.84 0 001.036 1.655l21.148 10.285c1.09.53 2.363.531 3.454.003l21.236-10.288a1.853 1.853 0 001.04-1.657v-4.268l-21.447 10.41z" fill="url(#b)"/><path d="M988.851 241.217a5.57 5.57 0 014.346.008l21.253 9.053c.33.14.34.603.01.756l-21.181 9.984a5.57 5.57 0 01-4.769-.01l-21.031-10.026a.414.414 0 01.018-.756l21.354-9.009z" fill="#7F59D9" stroke="#FFF8D2" stroke-width=".552"/><ellipse cx="990.473" cy="251" rx="11.5" ry="5" fill="#FFF8D2"/><path transform="rotate(156.317 575.216 274.706) skewX(-.039)" stroke="#FFF8D2" stroke-width="2" d="M0-1h291.553"/><path d="M1140.44 316.717a6.133 6.133 0 00-4.78-.008l-21.38 9.021c-.76.321-.79 1.389-.05 1.756l21.1 10.473c1.72.85 3.73.85 5.44 0l21.01-10.419a.965.965 0 00-.05-1.754l-21.29-9.069z" fill="#7F59D9" stroke="#FFF8D2" stroke-width=".552"/><path d="M1140.52 332.207c-1.61.784-3.5.782-5.11-.003l-21.36-10.407v4.27c0 .704.41 1.347 1.04 1.655l21.15 10.285c1.09.53 2.36.531 3.45.003l21.24-10.288a1.844 1.844 0 001.03-1.657v-4.268l-21.44 10.41z" fill="url(#c)"/><path d="M1135.88 312.217a5.555 5.555 0 014.34.008l21.26 9.053c.32.14.33.603.01.756l-21.18 9.984a5.572 5.572 0 01-4.77-.01l-21.03-10.026a.412.412 0 01.01-.756l21.36-9.009z" fill="#7F59D9" stroke="#FFF8D2" stroke-width=".552"/><ellipse cx="1137.5" cy="322" rx="11.5" ry="5" fill="#FFF8D2"/><path stroke="#FFF8D2" stroke-width="2" d="M1030.51 375.94l100.92 48.158"/><defs><linearGradient id="b" x1="1000.6" y1="264.698" x2="962.165" y2="252.572" gradientUnits="userSpaceOnUse"><stop stop-color="#31107E"/><stop offset="1" stop-color="#8A61ED"/></linearGradient><linearGradient id="c" x1="1147.63" y1="335.698" x2="1109.19" y2="323.572" gradientUnits="userSpaceOnUse"><stop stop-color="#31107E"/><stop offset="1" stop-color="#8A61ED"/></linearGradient></defs></g><g class="steps e14"><path d="M924.4 403.954a17.383 17.383 0 0113.572.024l86.248 36.743c1.03.438 1.06 1.886.05 2.362l-86.149 40.604a17.39 17.39 0 01-14.894-.033l-85.539-40.778c-1.009-.481-.976-1.928.053-2.362l86.659-36.56z" fill="#2F0B86" stroke="#00FFE3" stroke-width="1.723"/><path d="M938.779 454.258a18.248 18.248 0 01-15.962-.012l-66.694-32.499v13.334c0 2.2 1.256 4.208 3.235 5.171l66.045 32.118a12.35 12.35 0 0010.788.008l66.309-32.129a5.744 5.744 0 003.25-5.174v-13.328l-66.971 32.511z" fill="url(#d)"/><path d="M924.284 391.829a17.385 17.385 0 0113.571.024l66.365 28.271c1.03.438 1.06 1.886.05 2.363l-66.159 31.18a17.382 17.382 0 01-14.893-.033l-65.679-31.309c-1.008-.48-.975-1.927.054-2.362l66.691-28.134z" fill="#7F59D9" stroke="#00FFE3" stroke-width="1.723"/><path d="M938.222 444.445a16.614 16.614 0 01-14.531-.011l-60.714-29.586v1.472a5.234 5.234 0 002.945 4.707l60.123 29.239a11.246 11.246 0 009.821.008l60.368-29.249a5.233 5.233 0 002.952-4.71v-1.467l-60.964 29.597z" fill="url(#e)"/><path d="M938.227 427.125a16.607 16.607 0 01-14.531-.011l-60.714-29.585v15.096a5.235 5.235 0 002.945 4.707l60.124 29.24a11.243 11.243 0 009.82.007l63.321-30.679v-18.371l-60.965 29.596z" fill="url(#f)"/><path d="M924.403 369.899a17.384 17.384 0 0113.455.024l60.356 25.452c1.03.434 1.062 1.883.052 2.363l-59.805 28.409a17.383 17.383 0 01-14.949-.014l-59.807-28.546c-1.01-.482-.974-1.933.059-2.364l60.639-25.324z" fill="#7F59D9" stroke="#00FFE3" stroke-width="1.723"/><path d="M925.481 381.7a14.387 14.387 0 0111.199.02l35.918 15.25-35.389 16.927a14.39 14.39 0 01-12.44-.012l-35.387-17.006 36.099-15.179zm-39.51 13.539a.003.003 0 00.002.001l-.002-.001z" fill="#7F59D9" stroke="#00FFE3" stroke-width="7.72"/><circle cx="941.482" cy="482.653" r="5.5" fill="#00FFE3"/><circle cx="950.982" cy="478.153" r="4" fill="#00FFE3"/><path stroke="#FFF8D2" stroke-width="3" d="M905.76 454.87v8"/><ellipse cx="905.76" cy="453.87" rx="3.5" ry="6" fill="#FFF8D2"/><defs><linearGradient id="d" x1="960.973" y1="465.158" x2="840.944" y2="427.29" gradientUnits="userSpaceOnUse"><stop stop-color="#31107E"/><stop offset="1" stop-color="#8A61ED"/></linearGradient><linearGradient id="e" x1="958.426" y1="454.368" x2="849.159" y2="419.894" gradientUnits="userSpaceOnUse"><stop stop-color="#31107E"/><stop offset="1" stop-color="#8A61ED"/></linearGradient><linearGradient id="f" x1="958.431" y1="450.673" x2="849.164" y2="416.199" gradientUnits="userSpaceOnUse"><stop stop-color="#4B1AC1"/><stop offset="1" stop-color="#8A61ED"/></linearGradient></defs></g><g class="steps e12" stroke="#FFF8D2"><path stroke-width="2" d="M906.872 461.972l-159.475 68.946"/><path transform="rotate(-152.417 529.368 195.596) skewX(.043)" stroke-width="2.144" d="M0-1.072h257.238"/></g><g class="steps e10"><path transform="rotate(156.317 288.112 318.77) skewX(-.039)" stroke="#FFF8D2" stroke-width="2" d="M0-1h291.553"/><path d="M682.44 488.717a6.123 6.123 0 00-4.776-.008l-21.384 9.021c-.761.321-.794 1.389-.054 1.756l21.109 10.473c1.713.85 3.725.85 5.438 0l21.006-10.419a.966.966 0 00-.05-1.754l-21.289-9.069z" fill="#7F59D9" stroke="#FFF8D2" stroke-width=".552"/><path d="M682.52 504.207a5.844 5.844 0 01-5.111-.003l-21.356-10.407v4.27a1.84 1.84 0 001.036 1.655l21.148 10.285c1.09.53 2.363.531 3.454.003l21.235-10.288a1.842 1.842 0 001.038-1.657v-4.268l-21.444 10.41z" fill="url(#g)"/><path d="M677.879 484.217a5.567 5.567 0 014.345.008l21.251 9.053c.33.14.338.603.015.756l-21.184 9.984a5.57 5.57 0 01-4.769-.01l-21.03-10.026a.414.414 0 01.017-.756l21.355-9.009z" fill="#7F59D9" stroke="#00FFE3" stroke-width=".552"/><ellipse cx="679.5" cy="494" rx="11.5" ry="5" fill="#FFF8D2"/><path transform="rotate(157.256 392.245 398.352) skewX(-.038)" stroke="#FFF8D2" stroke-width="2" d="M0-1h333.97"/><path d="M903.44 606.717a6.114 6.114 0 00-4.776-.008l-21.384 9.021c-.762.321-.794 1.388-.054 1.756l21.108 10.473a6.12 6.12 0 005.439 0l21.006-10.419a.966.966 0 00-.05-1.754l-21.289-9.069z" fill="#7F59D9" stroke="#FFF8D2" stroke-width=".552"/><path d="M903.52 622.207a5.84 5.84 0 01-5.111-.004l-21.356-10.406v4.269a1.84 1.84 0 001.036 1.656l21.148 10.285c1.09.53 2.363.531 3.454.002l21.235-10.288a1.84 1.84 0 001.038-1.656v-4.268l-21.444 10.41z" fill="url(#h)"/><path d="M898.879 602.217a5.567 5.567 0 014.345.007l21.251 9.053c.33.141.338.604.015.757l-21.184 9.984a5.566 5.566 0 01-4.769-.011l-21.03-10.025a.414.414 0 01.017-.756l21.355-9.009z" fill="#7F59D9" stroke="#00FFE3" stroke-width=".552"/><ellipse cx="900.5" cy="612" rx="11.5" ry="5" fill="#FFF8D2"/><defs><linearGradient id="g" x1="689.627" y1="507.698" x2="651.193" y2="495.572" gradientUnits="userSpaceOnUse"><stop stop-color="#31107E"/><stop offset="1" stop-color="#8A61ED"/></linearGradient><linearGradient id="h" x1="910.627" y1="625.698" x2="872.193" y2="613.572" gradientUnits="userSpaceOnUse"><stop stop-color="#31107E"/><stop offset="1" stop-color="#8A61ED"/></linearGradient></defs></g><g class="steps e9"><path transform="rotate(-154.419 472.66 322.837) skewX(.041)" stroke="#FFF8D2" stroke-width="2.144" d="M0-1.072h175.828"/><path d="M612.44 732.717a6.114 6.114 0 00-4.776-.008l-21.384 9.021c-.761.321-.794 1.388-.054 1.756l21.109 10.473c1.713.85 3.725.85 5.438 0l21.006-10.419a.966.966 0 00-.05-1.754l-21.289-9.069z" fill="#7F59D9" stroke="#FFF8D2" stroke-width=".552"/><path d="M612.52 748.207a5.84 5.84 0 01-5.111-.004l-21.356-10.406v4.269a1.84 1.84 0 001.036 1.656l21.148 10.285c1.09.53 2.363.531 3.454.002l21.235-10.288a1.84 1.84 0 001.038-1.656v-4.268l-21.444 10.41z" fill="url(#i)"/><path d="M607.879 728.217a5.567 5.567 0 014.345.007l21.251 9.053c.33.141.338.604.015.757l-21.184 9.984a5.566 5.566 0 01-4.769-.011l-21.03-10.025a.414.414 0 01.017-.756l21.355-9.009z" fill="#7F59D9" stroke="#00FFE3" stroke-width=".552"/><ellipse cx="609.5" cy="738" rx="11.5" ry="5" fill="#FFF8D2"/><defs><linearGradient id="i" x1="619.627" y1="751.698" x2="581.193" y2="739.572" gradientUnits="userSpaceOnUse"><stop stop-color="#31107E"/><stop offset="1" stop-color="#8A61ED"/></linearGradient></defs></g><g class="steps e2"><path d="M820.697 912.866a37.922 37.922 0 01-33.173-.025L648.919 845.3v27.711c0 4.574 2.61 8.746 6.723 10.746l137.257 66.751a25.668 25.668 0 0022.419.016l137.816-66.771a11.95 11.95 0 006.74-10.754V845.3l-139.177 67.566z" fill="url(#j)"/><path d="M790.572 783.124a36.134 36.134 0 0128.204.049l137.925 58.755c2.138.911 2.194 3.92.093 4.911l-137.485 64.799a36.127 36.127 0 01-30.952-.068l-136.495-65.067c-2.096-.999-2.028-4.006.112-4.909l138.598-58.47z" fill="#7F59D9" stroke="#00FFE3" stroke-width="3.58"/><path d="M801.2 879.606a7.349 7.349 0 015.736.01l28.051 11.95a.547.547 0 01.019.999l-27.962 13.179a7.347 7.347 0 01-6.295-.014l-27.76-13.234a.547.547 0 01.023-.998l28.188-11.892zM695.2 831.606a7.349 7.349 0 015.736.01l28.051 11.95a.547.547 0 01.019.999l-27.962 13.179a7.347 7.347 0 01-6.295-.014l-27.76-13.234a.547.547 0 01.023-.998l28.188-11.892zM913.2 831.606a7.349 7.349 0 015.736.01l28.051 11.95a.547.547 0 01.019.999l-27.962 13.179a7.347 7.347 0 01-6.295-.014l-27.76-13.234a.547.547 0 01.023-.998l28.188-11.892z" fill="#7F59D9" stroke="#00FFE3" stroke-width=".728"/><path d="M853 910.5l76-37.5v10l-76 37.5v-10z" fill="#04A08F"/><defs><linearGradient id="j" x1="866.821" y1="935.519" x2="617.373" y2="856.819" gradientUnits="userSpaceOnUse"><stop stop-color="#31107E"/><stop offset="1" stop-color="#8A61ED"/></linearGradient></defs></g><g class="steps e4"><path d="M706.06 836.832c-1.562-.754-1.488-3.004.12-3.656l81.143-32.883a44.965 44.965 0 0134.265.199l48.966 20.518c1.598.669 1.646 2.917.077 3.655l-76.725 36.106a44.969 44.969 0 01-38.71-.196l-49.136-23.743z" fill="#523A8E"/><path d="M733.104 835.476a44.998 44.998 0 0039.797.01l76.599-37.739v7.007l-76.455 37.668a45.003 45.003 0 01-40.028-.125l-48.912-24.479A2 2 0 01683 816.03v-5.271l50.104 24.717z" fill="url(#k)"/><path d="M684.277 811.77c-1.171-.566-1.115-2.253.09-2.742l81.143-32.883a44.46 44.46 0 0133.885.197l48.966 20.517c1.198.502 1.234 2.188.058 2.742l-76.726 36.105a44.463 44.463 0 01-38.28-.193l-49.136-23.743z" fill="#7F59D9" stroke="#FFF8D2"/><path d="M701 722.364a3.5 3.5 0 012.179-3.241l89-36.276c2.302-.938 4.821.755 4.821 3.241v88.451a3.5 3.5 0 01-2.179 3.241l-89 36.276c-2.302.938-4.821-.755-4.821-3.241v-88.451z" fill="#482AA2" stroke="#FFF8D2"/><path d="M712.5 742.196l6-2.503v35.033l-6 2.502v-35.032z" fill="#CF59D9"/><path d="M728 731.119l6-2.502v55.117l-6 2.503v-55.118z" fill="#8259D9"/><path d="M740 717.911l6-2.503v38.298l-6 2.503v-38.298z" fill="#441F93"/><path d="M766 728.683l6-2.502v38.298l-6 2.502v-38.298z" fill="#821F93"/><path d="M743.851 809.218c-1.255-.518-1.231-2.305.039-2.788l30.081-11.45c.342-.13.719-.131 1.061-.002l34.599 12.986c1.269.476 1.305 2.258.057 2.786l-30.113 12.735c-.37.157-.786.158-1.157.005l-34.567-14.272z" stroke="#FFF8D2"/><defs><linearGradient id="k" x1="799.675" y1="842.222" x2="668.248" y2="797.184" gradientUnits="userSpaceOnUse"><stop stop-color="#31107E"/><stop offset="1" stop-color="#8A61ED"/></linearGradient></defs></g><g class="steps e3"><path transform="rotate(26.707 -1374.183 2217.741) skewX(.043)" fill="url(#l)" d="M0 0h58.011v22.538H0z"/><path d="M818 838.285l25 12.011v26.024l-25-12.011v-26.024z" fill="#6742C2"/><path d="M868 838.285l-25 12.011v26.024l25-12.011v-26.024z" fill="#381787"/><path d="M843 827.275l25 11.01-25 12.011-25-12.011 25-11.01z" fill="#7F59D9"/><defs><linearGradient id="l" x1="12.931" y1="7.055" x2="25.037" y2="17.764" gradientUnits="userSpaceOnUse"><stop stop-color="#643AC6"/><stop offset="1" stop-color="#643BC6" stop-opacity="0"/></linearGradient></defs></g><g class="steps e5"><ellipse rx="5" ry="3.003" transform="rotate(12.214 -3383.083 4041.745) skewX(.022)" fill="#F9D2FF"/><ellipse rx="5" ry="3.003" transform="rotate(12.214 -3283.031 4092.486) skewX(.022)" fill="#F9D2FF"/><ellipse rx="8.632" ry="4.652" transform="rotate(15.162 -2780.668 3447.274) skewX(.027)" fill="#5934AF"/><path fill-rule="evenodd" clip-rule="evenodd" d="M817.872 792.687c12.616-4.652 26.937-22.602 14.322-23.931-7.197-.758-10.412 5.192-13.448 10.813-2.286 4.231-4.47 8.275-8.177 9.131-4.429 1.024-9.284-.075-12.653-.837a64.087 64.087 0 00-1.916-.414c-1.386.154-1.745.555-1.691 1.79 2.74 3.914 11.503 7.896 23.563 3.448z" fill="#6844BE"/><path fill-rule="evenodd" clip-rule="evenodd" d="M827.457 826.374c5.549 1.42 12.188 3.118 17.634-3.423 9.959-11.963-33.198-27.247-35.854-7.974-2.197 15.937-3.482 27.54-1.233 32.206 1.659 1.452 2.678 1.576 4.651.367.659-1.602 1.062-4.122 1.519-6.984.632-3.956 1.369-8.563 3.03-12.299 1.804-4.054 5.654-3.069 10.253-1.893z" fill="#5C99B5"/><ellipse rx="24.567" ry="34.442" transform="rotate(-.544 84795.733 -87127.226) skewX(-.001)" fill="#724CCD"/><ellipse rx="8.632" ry="4.652" transform="rotate(15.162 -2840.847 3415.647) skewX(.027)" fill="#5934AF"/><path fill-rule="evenodd" clip-rule="evenodd" d="M818.861 835.31c5.733 1.523 12.873 3.419 18.263-3.055 9.96-11.963-33.198-27.247-35.854-7.974-.217 1.577-.439 3.162-.661 4.746-1.646 11.776-3.277 23.44-2.949 30.503.075 1.61 1.307 2.936 4.942 2.939 1.499-4.671 4.538-13.361 5.554-19.048.384-2.149.742-4.153 1.081-5.85.914-4.573 4.763-3.551 9.624-2.261z" fill="#8BCAE7"/><path fill-rule="evenodd" clip-rule="evenodd" d="M810.5 811.26c12.971-4.018 23.847-30.504 10-34.032-8.113-2.067-10.152 7.567-11.958 16.1-1.277 6.03-2.437 11.512-5.542 11.926-2.675.357-6.366.396-10.009.434-4.327.045-8.585.09-10.991.666-1.55 1.018-1.362 1.746-.362 3.148 4.648 2.629 18.274 5.037 28.862 1.758z" fill="#6844BE"/><path d="M854.391 817.942s-5.312 19.273-22.575 19.273c-17.263 0-15.279-6.621-15.279-13.595 0-6.973 7.967-7.31 16.599-3.987 8.632 3.322 21.255-1.691 21.255-1.691z" fill="#8BCAE7"/><ellipse cx="832.48" cy="815.948" rx="22.575" ry="7.31" fill="#724CCD"/><ellipse cx="829" cy="755.708" rx="11" ry="13.512" fill="#F9D2FF"/><path d="M841.148 751.847c.745 5.63-.754 10.892-6.475 11.231-5.721.338-6.889-3.9-5.3-7.505 1.589-3.606-17.854-8.688-2.584-14.393 4.321-.573 13.614 5.038 14.359 10.667z" fill="#9678DE"/><ellipse cx="828.5" cy="755.708" rx="5.5" ry="5.505" fill="#FF6EF9"/><path d="M830.757 751.768c1.839-8.118 9.486-9.135 8.243-4.568" stroke="#FF6EF9"/></g><g class="steps e6"><path d="M512.6 578.268a37.921 37.921 0 0129.56.051l157.629 67.037c3.563 1.515 3.657 6.531.155 8.179l-157.297 74.014a37.924 37.924 0 01-32.441-.071l-156.179-74.327c-3.494-1.663-3.38-6.674.186-8.176L512.6 578.268z" fill="#26047A"/><path d="M474.697 696.666a37.922 37.922 0 01-33.173-.025L302.919 629.1v27.711a11.95 11.95 0 006.723 10.746l137.257 66.751a25.668 25.668 0 0022.419.016l137.816-66.771a11.95 11.95 0 006.74-10.754V629.1l-139.177 67.566z" fill="url(#m)"/><path d="M444.572 566.924a36.134 36.134 0 0128.204.049l137.925 58.755c2.138.911 2.195 3.92.093 4.911l-137.485 64.799a36.134 36.134 0 01-30.952-.068l-136.495-65.067c-2.096-1-2.028-4.007.112-4.909l138.598-58.47z" fill="#7F59D9" stroke="#00FFE3" stroke-width="3.58"/><path d="M444.628 588.896a36.133 36.133 0 0128.2.049l88.276 37.599c2.138.91 2.194 3.92.092 4.91l-87.567 41.266a36.13 36.13 0 01-30.947-.068l-86.901-41.419c-2.096-.999-2.028-4.006.112-4.909l88.735-37.428z" fill="#7F59D9" stroke="#5C34BC" stroke-width="3.58"/><path d="M407 693.5L331 656v10l76 37.5v-10z" fill="#06BFAB"/><defs><linearGradient id="m" x1="520.821" y1="719.319" x2="271.373" y2="640.619" gradientUnits="userSpaceOnUse"><stop stop-color="#31107E"/><stop offset="1" stop-color="#8A61ED"/></linearGradient></defs></g><g class="steps e8"><ellipse cx="446" cy="626" rx="37" ry="17" fill="#6845BC"/><ellipse rx="6.639" ry="3.576" transform="rotate(-149.55 305.49 252.721) skewX(.046)" fill="#5934AF"/><ellipse rx="6.639" ry="3.576" transform="rotate(-149.55 311.222 249.507) skewX(.046)" fill="#5934AF"/><path d="M440.4 600.487c0 13.589.267 23.085-2.167 23.085-2.434 0-3.394-9.256-5.316-18.876-1.922-9.621-6.416-29.725 3.076-28.814 9.492.912 4.407 11.016 4.407 24.605z" fill="#8BCAE7"/><path d="M454.943 595.888c-2.485 13.445-2.869 24.605-5.56 24.22-2.692-.385-3.254-10.631-3.254-24.22 0-13.589-5.084-25.516 4.407-24.605 9.492.912 6.891 11.161 4.407 24.605z" fill="#5C99B5"/><path d="M458.082 564.78c3.075 18.817 5.409 24.333-13.766 28.732-19.174 4.399-24.41-9.621-21.228-28.732 3.181-19.111-22.928-29.7 10.272-35.049 33.199-5.348 21.648 16.232 24.722 35.049z" fill="#724CCD"/><path d="M414.395 556.226c1.923 8.466 11.919 16.932 10.381 19.626-1.538 2.694-16.849-9.016-16.532-20.781.316-11.765 12.303-26.554 18.454-20.781 6.152 5.773-14.225 13.469-12.303 21.936z" fill="#6844BE"/><ellipse cx="437.079" cy="513.894" rx="13.072" ry="13.469" fill="#F9D2FF"/><path d="M453.612 535.059c-3.783-7.813-4.857-17.055-8.074-15.778-3.217 1.277.384 8.852 3.46 19.627 3.076 10.775 14.995 6.927 8.459-3.078-6.536-10.006-.062 7.043-3.845-.771z" fill="#6844BE"/><path d="M449.383 505.813c0 4.25-8.074 8.466-14.995 5.002-6.921-3.463-6.152 10.391-9.612 9.621-3.46-.769-2.691-19.241 7.69-21.166 10.381-1.924 16.917 2.292 16.917 6.543z" fill="#9678DE"/><ellipse cx="427.467" cy="514.279" rx="3.46" ry="3.848" fill="#F9D2FF"/><ellipse cx="429.774" cy="513.124" rx="4.998" ry="5.003" fill="#FF6EF9"/><path d="M431.504 509.328c1.401-9.998 9.805-13.906 14.61-8.466" stroke="#FF6EF9" stroke-width=".769"/></g><g class="steps e7"><path d="M473.5 425.358c0-4.603 4.653-7.748 8.924-6.031l146 58.681a6.5 6.5 0 014.076 6.031v129.279c0 4.682-4.802 7.828-9.095 5.959l-146-63.571a6.498 6.498 0 01-3.905-5.959V425.358z" fill="#4C29A0" fill-opacity=".5" stroke="#FF6EF9"/><path d="M462.5 443.766c0-3.895 3.936-6.556 7.55-5.104l135.5 54.432a5.5 5.5 0 013.45 5.103V617.91c0 3.962-4.062 6.624-7.695 5.043l-135.5-58.967a5.5 5.5 0 01-3.305-5.043V443.766z" fill="#4C29A0" fill-opacity=".5" stroke="#00FFE3" stroke-width="3"/><path d="M540.5 544.599c0-2.878 2.948-4.815 5.59-3.671l44 19.056a4 4 0 012.41 3.671v31.319c0 2.878-2.949 4.814-5.59 3.67l-44-19.056a4 4 0 01-2.41-3.67v-31.319z" fill="#FF6EF9"/><path d="M519.793 509.813l71.714 30.706.206 12.884-71.714-30.706-.206-12.884zM519.793 491.964l71.714 30.707.206 12.883-71.714-30.706-.206-12.884zM519.793 473.948l71.714 30.706.206 12.884-71.714-30.707-.206-12.883z" fill="#6E97FF"/></g><g class="steps e11"><path d="M772 586.064l31.5 15.134v32.79L772 618.854v-32.79z" fill="#6742C2"/><path d="M835 586.064l-31.5 15.134v32.79l31.5-15.134v-32.79z" fill="#381787"/><path d="M803.5 572.191l31.5 13.873-31.5 15.134-31.5-15.134 31.5-13.873z" fill="#7F59D9"/><path fill-rule="evenodd" clip-rule="evenodd" d="M817.36 508.48h-28.98v80.64c0 4.175 6.487 7.56 14.49 7.56 8.002 0 14.49-3.385 14.49-7.56v-80.64z" fill="url(#n)"/><ellipse cx="802.87" cy="508.48" rx="14.49" ry="7.56" fill="#8BCAE7"/><path fill="url(#o)" d="M788.38 448h28.98v60.48h-28.98z"/><defs><linearGradient id="n" x1="817.36" y1="552.58" x2="758.14" y2="537.46" gradientUnits="userSpaceOnUse"><stop stop-color="#30107E"/><stop offset="1" stop-color="#885FEA"/></linearGradient><linearGradient id="o" x1="802.87" y1="448" x2="802.87" y2="508.48" gradientUnits="userSpaceOnUse"><stop stop-color="#8BCAE7" stop-opacity="0"/><stop offset="1" stop-color="#8BCAE7" stop-opacity=".66"/></linearGradient></defs></g><g class="steps e13"><path d="M722 456.01l25 12.011v26.024l-25-12.011V456.01z" fill="#6742C2"/><path d="M772 456.01l-25 12.011v26.024l25-12.011V456.01z" fill="#381787"/><path d="M747 445l25 11.01-25 12.012-25-12.012L747 445z" fill="#7F59D9"/></g><g class="steps e16"><circle cx="930.094" cy="370" r="58" fill="url(#p)"/><circle cx="930.339" cy="367.604" r="37.827" stroke="#EAE8F6" stroke-width=".605"/><path d="M959.149 367.852c0 10.419-3.228 19.841-8.432 26.652-5.204 6.81-12.372 10.996-20.265 10.996-7.894 0-15.062-4.186-20.266-10.996-5.204-6.811-8.432-16.233-8.432-26.652s3.228-19.841 8.432-26.651c5.204-6.81 12.372-10.997 20.266-10.997 7.893 0 15.061 4.187 20.265 10.997 5.204 6.81 8.432 16.232 8.432 26.651z" stroke="#EAE8F6" stroke-width=".605"/><path d="M945.544 367.852c0 10.451-1.719 19.898-4.487 26.721-1.384 3.413-3.025 6.154-4.831 8.038-1.806 1.883-3.757 2.889-5.774 2.889-2.018 0-3.969-1.006-5.775-2.889-1.806-1.884-3.447-4.625-4.831-8.038-2.768-6.823-4.487-16.27-4.487-26.721s1.719-19.898 4.487-26.721c1.384-3.413 3.025-6.154 4.831-8.038 1.806-1.882 3.757-2.889 5.775-2.889 2.017 0 3.968 1.007 5.774 2.889 1.806 1.884 3.447 4.625 4.831 8.038 2.768 6.823 4.487 16.27 4.487 26.721z" stroke="#EAE8F6" stroke-width=".605"/><path d="M967.742 367.494c0 7.492-4.18 14.301-10.991 19.249-6.811 4.947-16.235 8.016-26.657 8.016-10.423 0-19.847-3.069-26.658-8.016-6.811-4.948-10.991-11.757-10.991-19.249 0-7.492 4.18-14.301 10.991-19.249 6.811-4.947 16.235-8.016 26.658-8.016 10.422 0 19.846 3.069 26.657 8.016 6.811 4.948 10.991 11.757 10.991 19.249z" stroke="#EAE8F6" stroke-width=".605"/><path d="M967.742 367.494c0 1.382-.96 2.763-2.852 4.071-1.883 1.302-4.628 2.487-8.046 3.487-6.833 1.998-16.291 3.238-26.75 3.238-10.46 0-19.918-1.24-26.751-3.238-3.418-1-6.163-2.185-8.046-3.487-1.892-1.308-2.852-2.689-2.852-4.071 0-1.382.96-2.763 2.852-4.071 1.883-1.302 4.628-2.487 8.046-3.487 6.833-1.998 16.291-3.238 26.751-3.238 10.459 0 19.917 1.24 26.75 3.238 3.418 1 6.163 2.185 8.046 3.487 1.892 1.308 2.852 2.689 2.852 4.071z" stroke="#EAE8F6" stroke-width=".605"/><path d="M964.161 351.025c0 1.397-.867 2.779-2.555 4.08-1.683 1.299-4.138 2.482-7.198 3.48-6.117 1.996-14.587 3.236-23.956 3.236-9.37 0-17.84-1.24-23.957-3.236-3.06-.998-5.515-2.181-7.198-3.48-1.687-1.301-2.555-2.683-2.555-4.08 0-1.397.868-2.779 2.555-4.081 1.683-1.298 4.138-2.481 7.198-3.479 6.117-1.997 14.587-3.236 23.957-3.236 9.369 0 17.839 1.239 23.956 3.236 3.06.998 5.515 2.181 7.198 3.479 1.688 1.302 2.555 2.684 2.555 4.081z" stroke="#EAE8F6" stroke-width=".605"/><path d="M951.272 337.778c0 .969-.525 1.929-1.557 2.839-1.031.909-2.541 1.742-4.433 2.447-3.78 1.41-9.024 2.288-14.83 2.288-5.807 0-11.05-.878-14.831-2.288-1.892-.705-3.402-1.538-4.433-2.447-1.032-.91-1.557-1.87-1.557-2.839 0-.969.525-1.929 1.557-2.839 1.031-.909 2.541-1.742 4.433-2.447 3.781-1.41 9.024-2.288 14.831-2.288 5.806 0 11.05.878 14.83 2.288 1.892.705 3.402 1.538 4.433 2.447 1.032.91 1.557 1.87 1.557 2.839z" stroke="#EAE8F6" stroke-width=".605"/><defs><radialGradient id="p" cx="0" cy="0" r="1" gradientUnits="userSpaceOnUse" gradientTransform="matrix(0 63.8906 -63.8906 0 930.094 370)"><stop stop-color="#fff"/><stop offset="1" stop-color="#9C78F2" stop-opacity="0"/></radialGradient></defs></g><g class="steps e15"><path d="M937.9 355.477a16.61 16.61 0 01-13.964-.018l-60.79-28.257.291 70 62.698 29.724a11.244 11.244 0 009.609.012l63.402-29.864v-69.872L937.9 355.477z" fill="url(#q)" fill-opacity=".5"/><path d="M939.083 340.724a18.246 18.246 0 01-16.122-.012l-59.815-29.51v16l62.482 30.379a12.351 12.351 0 0010.785.008l62.733-30.387v-16l-60.063 29.522z" fill="url(#r)"/><path d="M924.484 285.024a17.383 17.383 0 0113.616.024l59.304 25.361c1.026.438 1.054 1.883.045 2.361l-59.053 27.94a17.38 17.38 0 01-14.94-.033l-58.623-28.053c-1.006-.482-.973-1.926.054-2.361l59.597-25.239z" fill="#7F59D9" stroke="#00FFE3" stroke-width="1.723"/><path d="M924.41 277.661a17.743 17.743 0 0113.835.025l75.275 32.017c1.32.56 1.35 2.413.06 3.022l-75.115 35.348a17.747 17.747 0 01-15.184-.034l-74.577-35.496c-1.291-.615-1.249-2.467.069-3.022l75.637-31.86z" stroke="#00FFE3"/><circle cx="869" cy="322" r="3" fill="#00FFE3"/><circle cx="875" cy="325" r="2" fill="#00FFE3"/><circle cx="999.483" cy="319.061" r="3" fill="#00FFE3"/><circle cx="993.483" cy="322.061" r="2" fill="#00FFE3"/><path d="M889.454 306.851l43 19.939v7.061l-43-19.939v-7.061z" fill="#6545C1"/><path d="M975.454 307.038l-43 19.752v7.061l43-19.939v-6.874z" fill="#30107E"/><path d="M931.954 289.538l43.5 17.5-43 20-43-20 42.5-17.5z" fill="#7F59D9"/><ellipse cx="932.454" cy="305.538" rx="27" ry="8.5" fill="#00FFE3"/><path d="M885.954 184.038c37.661-25.873 57.914-26.019 93 0l-19.5 122h-54l-19.5-122z" fill="url(#s)"/><defs><linearGradient id="q" x1="958.595" y1="431.847" x2="849.328" y2="397.373" gradientUnits="userSpaceOnUse"><stop stop-color="#8BCAE7"/><stop offset="1" stop-color="#8A61ED"/></linearGradient><linearGradient id="r" x1="958.448" y1="351.152" x2="849.108" y2="317.08" gradientUnits="userSpaceOnUse"><stop stop-color="#31107E"/><stop offset="1" stop-color="#8A61ED"/></linearGradient><linearGradient id="s" x1="930.454" y1="188.038" x2="932.454" y2="306.038" gradientUnits="userSpaceOnUse"><stop stop-color="#00FFE3" stop-opacity="0"/><stop offset="1" stop-color="#00FFE3" stop-opacity=".82"/></linearGradient></defs></g><g class="steps e18"><path d="M1181.36 484.925a17.072 17.072 0 01-14.93-.011l-62.35-30.387v12.467a5.373 5.373 0 003.02 4.835l61.75 30.031a11.555 11.555 0 0010.09.008l62-30.041a5.373 5.373 0 003.04-4.838v-12.462l-62.62 30.398z" fill="url(#t)"/><path d="M1167.67 426.24a16.605 16.605 0 0112.96.023l62.05 26.434c1.23.525 1.27 2.259.06 2.83l-61.86 29.153a16.6 16.6 0 01-14.22-.031l-61.41-29.274c-1.2-.576-1.17-2.309.07-2.829l62.35-26.306z" fill="#7F59D9" stroke="#FFF8D2" stroke-width=".93"/><defs><linearGradient id="t" x1="1202.11" y1="495.117" x2="1089.88" y2="459.709" gradientUnits="userSpaceOnUse"><stop stop-color="#31107E"/><stop offset="1" stop-color="#8A61ED"/></linearGradient></defs></g><g class="steps e19"><path d="M1178.94 404.566a11.457 11.457 0 01-10.02-.007l-41.86-20.397v67.289c0 1.381.79 2.641 2.03 3.245l41.46 20.159a7.752 7.752 0 006.77.005l41.61-20.165a3.603 3.603 0 002.04-3.248v-67.285l-42.03 20.404z" fill="url(#u)"/><path d="M1169.75 365.175a11.15 11.15 0 018.7.015l41.65 17.744c.83.352.85 1.516.04 1.899l-41.52 19.569a11.133 11.133 0 01-9.54-.021l-41.23-19.65c-.81-.386-.78-1.55.05-1.899l41.85-17.657z" fill="#7F59D9" stroke="#FFF8D2" stroke-width=".624"/><path d="M1170.57 374.936a9.139 9.139 0 016.98.011l22.68 9.415-22.49 10.331a9.152 9.152 0 01-7.67-.016l-22.31-10.364 22.81-9.377zm-24.79 8.456s0 0 0 0h0l-.4.867.4-.867z" fill="#FFF8D2" stroke="#30107E" stroke-width="4.62"/><path d="M1135 404.683a1.499 1.499 0 012.15-1.352l23 11.075c.52.25.85.775.85 1.351v38.561a1.498 1.498 0 01-2.15 1.351l-23-11.074a1.5 1.5 0 01-.85-1.352v-38.56z" stroke="#FFF8D2"/><path d="M1193 408.758a.503.503 0 00-.72-.451l-2.5 1.204a.502.502 0 00-.28.45v40.781a.5.5 0 00.72.45l2.5-1.204a.502.502 0 00.28-.45v-40.78zm8.5-4.167c0-.368-.39-.61-.72-.45l-2.5 1.203a.504.504 0 00-.28.451v40.78a.5.5 0 00.72.451l2.5-1.204a.502.502 0 00.28-.45v-40.781zm8.5-3.999a.503.503 0 00-.72-.451l-2.5 1.204a.502.502 0 00-.28.45v40.78a.5.5 0 00.72.451l2.5-1.204a.502.502 0 00.28-.45v-40.78z" fill="#C4C4C4" stroke="#FFF8D2"/><path fill="url(#v)" d="M1155 316h38v69h-38z"/><defs><linearGradient id="u" x1="1192.87" y1="411.407" x2="1117.54" y2="387.641" gradientUnits="userSpaceOnUse"><stop stop-color="#31107E"/><stop offset="1" stop-color="#8A61ED"/></linearGradient><linearGradient id="v" x1="1174" y1="316" x2="1174" y2="385" gradientUnits="userSpaceOnUse"><stop stop-color="#FFF8D2" stop-opacity="0"/><stop offset="1" stop-color="#FFF8D2" stop-opacity=".47"/></linearGradient></defs></g><g class="steps e25"><path d="M1184.16 110.744a25.5 25.5 0 0119.88.035l113.1 48.106c2.39 1.019 2.46 4.391.1 5.5l-112.91 53.137a25.504 25.504 0 01-21.82-.048L1070.4 164.11c-2.35-1.118-2.27-4.488.12-5.498l113.64-47.868z" fill="#26047A"/><path d="M1172.22 190.102a25.505 25.505 0 01-22.31-.017l-93.2-45.418v18.634a8.027 8.027 0 004.52 7.227l92.3 44.887a17.249 17.249 0 0015.07.011l92.68-44.901a8.037 8.037 0 004.53-7.232v-18.626l-93.59 45.435z" fill="url(#w)"/><path d="M1151.76 102.388c6.2-2.612 13.18-2.6 19.37.034l92.75 39.51c1.84.784 1.89 3.377.08 4.23l-92.46 43.575a24.81 24.81 0 01-21.25-.047l-91.78-43.755c-1.81-.861-1.75-3.451.09-4.229l93.2-39.318z" fill="#7F59D9" stroke="#FFF8D2" stroke-width="1.39"/><path stroke="#FFF8D2" stroke-width="3" d="M1094.83 182.625v5.004"/><ellipse cx="1094.83" cy="179.622" rx="3.5" ry="5.005" fill="#FFF8D2"/><defs><linearGradient id="w" x1="1203.24" y1="205.335" x2="1035.49" y2="152.413" gradientUnits="userSpaceOnUse"><stop stop-color="#31107E"/><stop offset="1" stop-color="#8A61ED"/></linearGradient></defs></g><g class="steps e26"><path d="M1169.5 72.825a19.428 19.428 0 01-16.29-.12l-71.6-33.713v101.085a6.12 6.12 0 003.45 5.504l70.3 34.191a13.144 13.144 0 0011.48.008l70.6-34.201a6.122 6.122 0 003.45-5.508V40.493l-71.39 32.332z" fill="url(#x)"/><path d="M1154.02 8.148a18.897 18.897 0 0114.75.026l70.64 30.095c1.41.598 1.44 2.572.06 3.222l-70.42 33.191a18.882 18.882 0 01-16.18-.035l-69.92-33.329c-1.37-.655-1.33-2.628.08-3.22l70.99-29.95z" fill="#7F59D9" stroke="#FFF8D2" stroke-width="1.059"/><path d="M1121 131.306V74.338l38.01 18.12a3.51 3.51 0 011.99 3.16v56.967l-38.01-18.119a3.511 3.511 0 01-1.99-3.16z" fill="#9674EA" stroke="#5823D3" stroke-width="3"/><path d="M1119.5 80.462l19.5 9.5v4.5l-19.5-9.5v-4.5zM1119.5 104.962l19.5 9.5v4.5l-19.5-9.5v-4.5zM1119.5 92.962l16 7.795v4.5l-16-7.795v-4.5zM1119.5 117.462l16 7.795v4.5l-16-7.795v-4.5zM1119.5 86.962l26 12.5v4.5l-26-12.5v-4.5zM1119.5 111.462l26 12.5v4.5l-26-12.5v-4.5zM1119.5 98.962l29.5 14v4.5l-29.5-14v-4.5z" fill="#5823D3"/><path d="M1117.08 37.425l43.22-20.263 45.19 20.337-43.22 20.262-45.19-20.337z" fill="#5E39B7" stroke="#EAE8F6" stroke-width="4"/><path d="M1157.52 57.972l48.07-22.19 4.7 1.68-48 22.5-4.77-1.99zM1150.9 54.9l48.06-22.19 4.1 1.863-47.57 22.376-4.59-2.05zM1144.58 51.97l48.06-22.19 4.11 1.864-47.58 22.376-4.59-2.05zM1138.29 49.103l48.07-22.19 4.1 1.863-47.57 22.376-4.6-2.05zM1131.51 46.19L1179.57 24l4.1 1.864-47.57 22.376-4.59-2.05zM1125.19 43.166l48.07-22.19 4.1 1.864-47.57 22.376-4.6-2.05zM1118.54 40.048l48.06-22.19 4.11 1.864-47.58 22.376-4.59-2.05zM1112.29 37.462l48-22.5 4.32 2.014-47.57 22.376-4.75-1.89z" fill="#FFF8D2"/><path d="M1208.42 76.315a7.005 7.005 0 014-6.326l10.72-5.075c1.99-.943 4.28.51 4.28 2.712v83.259l-19 9.115V76.315z" fill="#9674EA"/><path d="M1211.42 87.013a7.004 7.004 0 013.98-6.315l4.73-2.26c1.99-.952 4.29.5 4.29 2.707v71.151l-13 6.254V87.013z" fill="#30107E"/><defs><linearGradient id="x" x1="1193.22" y1="172.094" x2="1065.45" y2="131.783" gradientUnits="userSpaceOnUse"><stop stop-color="#31107E"/><stop offset="1" stop-color="#8A61ED"/></linearGradient></defs></g><g class="steps e21"><path d="M1441.28 308.729a18.238 18.238 0 0114 .024l195.03 81.427c1.73.723 1.78 3.16.08 3.947l-195.53 90.318a18.233 18.233 0 01-15.37-.033l-194.21-90.735c-1.7-.794-1.65-3.23.09-3.947l195.91-81.001z" fill="#26047A"/><path d="M1415.36 436.993a33.653 33.653 0 01-29.44-.022l-123.01-59.942v24.594c0 4.059 2.31 7.762 5.96 9.537l121.82 59.24a22.769 22.769 0 0019.89.015l122.31-59.259a10.602 10.602 0 005.98-9.544v-24.583l-123.51 59.964z" fill="url(#y)"/><path d="M1388.62 321.849a32.064 32.064 0 0125.03.044l122.41 52.144c1.9.808 1.95 3.479.08 4.358l-122.01 57.508a32.064 32.064 0 01-27.47-.06l-121.14-57.746c-1.86-.887-1.8-3.556.1-4.357l123-51.891z" fill="#7F59D9" stroke="#00FFE3" stroke-width="3.177"/><path d="M1435.45 438.671l76-37.5v10l-76 37.5v-10z" fill="#04A08F"/><defs><linearGradient id="y" x1="1456.29" y1="457.098" x2="1234.91" y2="387.253" gradientUnits="userSpaceOnUse"><stop stop-color="#31107E"/><stop offset="1" stop-color="#8A61ED"/></linearGradient></defs></g><g class="steps e22"><path d="M1238.59 217.018a5.708 5.708 0 013.35-5.167l91.73-41.769c3.81-1.732 8.12 1.079 8.07 5.261l-.75 66.025a5.713 5.713 0 01-3.38 5.15l-91.36 40.931c-3.79 1.698-8.07-1.09-8.04-5.243l.38-65.188z" fill="#76B7CF" fill-opacity=".3"/><path d="M1240.01 217.026a4.296 4.296 0 012.51-3.883l91.74-41.768c2.86-1.302 6.1.811 6.06 3.953l-.75 66.025a4.293 4.293 0 01-2.54 3.869l-91.36 40.931c-2.85 1.276-6.06-.819-6.04-3.939l.38-65.188z" stroke="#98FFF3" stroke-opacity=".5" stroke-width="2.84"/><path d="M1301.83 192.778l27.27-12.417-.14 4.911-27.15 12.165.02-4.659z" fill="#22208A" fill-opacity=".2"/><path d="M1302.23 196.787l.02-3.738 26.41-12.026-.11 3.974-26.32 11.79z" stroke="#98FFF3" stroke-opacity=".5" stroke-width=".84"/><path d="M1301.83 198.986l27.27-12.417-.14 4.912-27.15 12.165.02-4.66z" fill="#22208A" fill-opacity=".2"/><path d="M1302.23 202.996l.02-3.739 26.41-12.026-.11 3.974-26.32 11.791z" stroke="#98FFF3" stroke-opacity=".5" stroke-width=".84"/><path d="M1301.83 205.196l27.27-12.417-.14 4.911-27.15 12.165.02-4.659z" fill="#22208A" fill-opacity=".2"/><path d="M1302.23 209.205l.02-3.738 26.41-12.027-.11 3.975-26.32 11.79z" stroke="#98FFF3" stroke-opacity=".5" stroke-width=".84"/><path d="M1301.83 211.405l27.27-12.416-.14 4.911-27.15 12.165.02-4.66z" fill="#22208A" fill-opacity=".2"/><path d="M1302.23 215.415l.02-3.739 26.41-12.026-.11 3.974-26.32 11.791z" stroke="#98FFF3" stroke-opacity=".5" stroke-width=".84"/><path d="M1250.39 233.274l13.61-5.892v49.717l-14 6.283.39-50.108z" fill="#5823D3" fill-opacity=".5"/><path d="M1264 210.177l19-8.795v67.663l-19 8.337v-67.205z" fill="#CF59D9" fill-opacity=".5"/><path d="M1283 228.216l14-6.216v39.702L1283 268v-39.784z" fill="#181599" fill-opacity=".5"/><path d="M1341.34 307.535a25.169 25.169 0 0021.63-.32l58.02-28.686.24 73.264-57.73 32.803a25.166 25.166 0 01-23.03.944l-37.72-17.52v-78.16l38.59 17.675z" fill="url(#z)"/><path d="M1340.99 307.385l-37.23-17.515 59.64-26.65a24.712 24.712 0 0119.68-.212l36.91 15.553-57.47 28.587a24.711 24.711 0 01-21.53.237z" fill="#7F59D9" stroke="#FFF8D2" stroke-width=".839"/><path d="M1281.98 208.21a5.716 5.716 0 013.34-5.168l121.51-55.321c3.8-1.732 8.12 1.079 8.07 5.261l-1.01 88.706a5.729 5.729 0 01-3.38 5.15l-121.01 54.209c-3.79 1.698-8.06-1.09-8.04-5.243l.52-87.594z" fill="#22208A" fill-opacity=".2"/><path d="M1283.4 208.218c.01-1.674.99-3.19 2.51-3.883l121.5-55.321c2.86-1.302 6.1.811 6.07 3.953l-1.01 88.706a4.293 4.293 0 01-2.54 3.869l-121.01 54.209c-2.84 1.275-6.05-.819-6.04-3.94l.52-87.593z" stroke="#98FFF3" stroke-opacity=".7" stroke-width="2.84"/><path d="M1371.06 174.821l35.13-15.997-.18 6.328-34.99 15.672.04-6.003z" fill="#22208A" fill-opacity=".2"/><path d="M1371.45 180.174l.03-5.082 34.27-15.606-.15 5.39-34.15 15.298z" stroke="#98FFF3" stroke-opacity=".7" stroke-width=".84"/><path d="M1371.06 182.819l35.13-15.996-.18 6.327-34.99 15.672.04-6.003z" fill="#22208A" fill-opacity=".2"/><path d="M1371.45 188.172l.03-5.082 34.27-15.606-.15 5.39-34.15 15.298z" stroke="#98FFF3" stroke-opacity=".7" stroke-width=".84"/><path d="M1371.06 190.819l35.13-15.996-.18 6.327-34.99 15.672.04-6.003z" fill="#22208A" fill-opacity=".2"/><path d="M1371.45 196.172l.03-5.082 34.27-15.606-.15 5.39-34.15 15.298z" stroke="#98FFF3" stroke-opacity=".7" stroke-width=".84"/><path d="M1371.06 198.819l35.13-15.996-.18 6.327-34.99 15.672.04-6.003z" fill="#22208A" fill-opacity=".2"/><path d="M1371.45 204.172l.03-5.082 34.27-15.606-.15 5.39-34.15 15.298z" stroke="#98FFF3" stroke-opacity=".7" stroke-width=".84"/><path d="M1346.43 291.046c-1.21-.499-1.25-2.202-.06-2.75l23.55-10.854a1.5 1.5 0 011.2-.025l19.51 8.029c1.2.492 1.25 2.168.09 2.736l-22.86 11.156c-.39.188-.83.202-1.23.039l-20.2-8.331z" stroke="#FFF8D2"/><path d="M1297.62 229.933l17.38-7.61v64.203l-17.88 8.114.5-64.707z" fill="#5823D3"/><path d="M1315 200.323l24-11.281v86.781l-24 10.691v-86.191z" fill="#CF59D9"/><path d="M1339 224.575l18-8.008v51.142l-18 8.114v-51.248z" fill="#181599"/><path d="M1315.33 317.949c0-1.461 1.52-2.428 2.84-1.814l11.68 5.412a6.004 6.004 0 013.48 5.444v55.168l-18-8.341v-55.869z" fill="#30107E"/><path d="M1319.42 331.115a1.5 1.5 0 012.13-1.36l5.69 2.64a5.5 5.5 0 013.18 4.989v44.814l-11-5.109v-45.974z" fill="#764FD4" stroke="#00A592"/><defs><linearGradient id="z" x1="1367.32" y1="343.578" x2="1302.75" y2="341.483" gradientUnits="userSpaceOnUse"><stop stop-color="#30107E"/><stop offset="1" stop-color="#7750D6"/></linearGradient></defs></g><g class="steps e23"><ellipse rx="4" ry="2.404" transform="rotate(11.265 -702.592 7104.64) skewX(.02)" fill="#F9D2FF"/><ellipse rx="4" ry="2.404" transform="rotate(11.265 -790.205 7046.735) skewX(.02)" fill="#F9D2FF"/><path fill-rule="evenodd" clip-rule="evenodd" d="M1409.5 280.186c11.79-4.927 31.53-19.822 21.21-29.112-5.66-5.094-8.73-.576-13.01 5.719-3.53 5.185-7.88 11.576-15.16 14.794-9.72 4.292-18.18 2.819-22.98 1.983-.5-.088-.96-.168-1.38-.234-1.17.829-1.48 1.454-1.3 2.906 5.08 4.211 22.21 8.298 32.62 3.944z" fill="#5934AF"/><ellipse rx="3" ry="4.003" transform="rotate(18.819 -184.88 4547.667) skewX(.032)" fill="#F9D2FF"/><ellipse cx="1416" cy="331.93" rx="8" ry="17.516" fill="#8BCAE7"/><ellipse rx="69.51" ry="28.873" transform="rotate(23.432 -271.188 3738.325) skewX(.039)"/><ellipse rx="9.5" ry="4.004" transform="rotate(8.216 -1974.422 10253.347) skewX(.015)" fill="#5934AF"/><path fill-rule="evenodd" clip-rule="evenodd" d="M1451.5 370.979c-.59-5.789-1.31-12.801-1.82-21.046-.5-8.02-.07-16.513.33-24.542.99-19.866 1.84-36.891-11.73-36.891-16.16 0-12.29 20.374-7.78 44.117.82 4.269 1.65 8.647 2.39 13.035 3.66 21.743 7.33 36.848 11.69 42.94 3.94 1.61 5.69 1.727 7.66 0 .74-3.238.14-9.102-.74-17.613z" fill="#5C99B5"/><ellipse rx="9.5" ry="4.004" transform="rotate(8.216 -2085.29 9993.361) skewX(.015)" fill="#5934AF"/><path fill-rule="evenodd" clip-rule="evenodd" d="M1418.94 379.488c.28-5.137.6-11.115 1.13-17.92.6-7.701 2.02-15.742 3.37-23.404 3.55-20.162 6.63-37.709-6.8-39.577-15.22-2.119-14.14 17.665-12.86 41.047.28 5.075.57 10.32.7 15.548.61 24.069 1.64 40.026 5.47 45.447 2.39 1.001 3.74 1.09 6.14.382 1.84-3.056 2.24-10.275 2.85-21.523z" fill="#8BCAE7"/><ellipse rx="12" ry="13.945" transform="rotate(-.756 18327.52 -107335.962) skewX(-.001)" fill="#F9D2FF"/><path d="M1460.45 292.093c0 28.147-2.39 35.333-19.15 38.927-16.75 3.593-49.66 22.158-41.88-38.927 0-26.459 2.99-43.118 23.94-45.514 20.94-2.395 37.09 17.368 37.09 45.514z" fill="#7F59D9"/><path d="M1431.76 228.02c1.46 6.187-1.27 12.129-6.11 13.272-11.05.548-6.59-3.775-8.05-9.962-1.46-6.187-22-4.504-.5-12.511 3.5-1.304 13.21 3.014 14.66 9.201z" fill="#9678DE"/><path fill-rule="evenodd" clip-rule="evenodd" d="M1399.86 289.754c11-6.506 28.5-23.979 17-31.758-6.43-4.344-9.42 1.074-13.42 8.321-3.16 5.73-6.96 12.605-13.58 16.702-8.76 5.416-17.82 5.757-23.37 5.966-.69.026-1.32.05-1.9.081-1.15 1.237-1.21 2.083-.23 3.853 7.51 2.543 26.36 2.239 35.5-3.165z" fill="#6844BE"/><ellipse cx="1417.09" cy="234.817" rx="4.5" ry="4.504" fill="#CF59D9"/><path d="M1418.89 231.836c.04-9.463 9.86-12.159 11.36-7.654" stroke="#CF59D9"/></g><g class="steps e1" stroke="#FFF8D2"><path transform="rotate(156.482 922.184 434.48) skewX(-.039)" stroke-opacity=".5" stroke-width="2" d="M0-1h334.602"/><path transform="rotate(157.256 77.837 162.2) skewX(-.038)" stroke-opacity=".5" stroke-width="2" d="M0-1h463.004"/><path transform="rotate(-154.419 1080.542 158.064) skewX(.041)" stroke-opacity=".5" stroke-width="2.144" d="M0-1.072h390.91"/><path transform="rotate(-152.417 140.738 114.786) skewX(.043)" stroke-opacity=".5" stroke-width="2.144" d="M0-1.072h356.625"/><path d="M1599.41 200.532a17.727 17.727 0 0114.45-.244l66 28.113c1.31.56 1.35 2.412.06 3.022l-66.43 31.309a17.741 17.741 0 01-14.76.17l-64.86-28.767c-1.3-.576-1.32-2.414-.03-3.015l65.57-30.588zM1761.97 199.763a17.752 17.752 0 0114.87-.291l70.15 30.717c1.32.575 1.33 2.432.02 3.025l-63.91 29.041a17.74 17.74 0 01-14.34.151l-68.75-29.515c-1.31-.559-1.35-2.392-.07-3.011l62.03-30.117zM1680.86 162.592a17.754 17.754 0 0114.59-.305l65.91 28.078c1.31.561 1.35 2.413.06 3.022l-66.57 31.372a17.73 17.73 0 01-14.54.264l-65.4-27.969c-1.31-.561-1.34-2.405-.06-3.019l66.01-31.443zM1681.95 236.315a17.747 17.747 0 0114.91-.283l70.91 31.211c1.3.574 1.32 2.417.03 3.018l-73.52 34.227c-5 2.33-10.81 2.199-15.7-.355l-62.73-32.735c-1.2-.629-1.18-2.363.05-2.957l66.05-32.126z" stroke-opacity=".2"/><path d="M36.183 799.265a27.567 27.567 0 0122.458-.379l102.511 43.669c2.043.87 2.098 3.747.088 4.694L58.053 895.883a27.565 27.565 0 01-22.93.264l-100.748-44.684c-2.019-.896-2.046-3.75-.045-4.684l101.853-47.514zM288.703 798.072a27.565 27.565 0 0123.096-.453l108.968 47.714c2.039.893 2.058 3.778.032 4.699l-99.272 45.11a27.567 27.567 0 01-22.278.234l-106.804-45.845c-2.025-.87-2.091-3.716-.108-4.679l96.366-46.78zM162.705 740.333a27.562 27.562 0 0122.659-.474l102.385 43.615c2.043.87 2.097 3.747.088 4.694l-103.392 48.731a27.568 27.568 0 01-22.594.41l-101.58-43.447c-2.035-.87-2.093-3.735-.094-4.688l102.528-48.841zM164.4 854.849a27.57 27.57 0 0123.163-.44l110.144 48.481c2.025.892 2.055 3.754.049 4.687l-114.202 53.167a27.566 27.566 0 01-24.389-.552l-97.434-50.848c-1.873-.977-1.834-3.67.065-4.594L164.4 854.849z" stroke-opacity=".2" stroke-width="1.553"/></g><g class="steps e24"><path d="M1494 523.575l25 12.011v26.024l-25-12.011v-26.024z" fill="#6742C2"/><path d="M1544 523.575l-25 12.011v26.024l25-12.011v-26.024z" fill="#381787"/><path d="M1519 512.564l25 11.011-25 12.011-25-12.011 25-11.011z" fill="#7F59D9"/><path fill-rule="evenodd" clip-rule="evenodd" d="M1530 462h-23v64c0 3.314 5.15 6 11.5 6s11.5-2.686 11.5-6v-64z" fill="url(#A)"/><ellipse cx="1518.5" cy="462" rx="11.5" ry="6" fill="#8BCAE7"/><path fill="url(#B)" d="M1507 414h23v48h-23z"/><defs><linearGradient id="A" x1="1530" y1="497" x2="1483" y2="485" gradientUnits="userSpaceOnUse"><stop stop-color="#30107E"/><stop offset="1" stop-color="#885FEA"/></linearGradient><linearGradient id="B" x1="1518.5" y1="414" x2="1518.5" y2="462" gradientUnits="userSpaceOnUse"><stop stop-color="#8BCAE7" stop-opacity="0"/><stop offset="1" stop-color="#8BCAE7" stop-opacity=".66"/></linearGradient></defs></g></svg>