<svg viewBox="0 0 1449 1056" fill="none" xmlns="http://www.w3.org/2000/svg">
<g class="e1">
  <path d="M0 354.957L245.5 451.403V901L0 804.554L0 354.957Z" fill="url(#paint1_linear)" fill-opacity="0.5"/>
  <path d="M491 355.394L245.5 451.84V904.5L491 808.054V355.394Z" fill="url(#paint2_linear)" fill-opacity="0.5"/>
  <path d="M245.5 260L491 355.472L245.5 451.854L0 355.472L245.5 260Z" fill="#400EBC" fill-opacity="0.5"/>
  <defs>
  <linearGradient id="paint1_linear" x1="122.75" y1="354.957" x2="-119.113" y2="1285.65" gradientUnits="userSpaceOnUse">
  <stop stop-color="#4815C8"/>
  <stop offset="0.391351" stop-color="#1B0DA3" stop-opacity="0"/>
  </linearGradient>
  <linearGradient id="paint2_linear" x1="368.25" y1="313.923" x2="442.5" y2="771" gradientUnits="userSpaceOnUse">
  <stop stop-color="#4616BA"/>
  <stop offset="1" stop-color="#2C0A80" stop-opacity="0"/>
  </linearGradient>
  </defs>
</g>
<g class="e2">
  <path d="M406 206.957L651.5 303.403V753L406 656.554V206.957Z" fill="url(#paint3_linear)" fill-opacity="0.5"/>
  <path d="M897 207.394L651.5 303.84V756.5L897 660.054V207.394Z" fill="url(#paint4_linear)" fill-opacity="0.5"/>
  <path d="M651.5 112L897 207.472L651.5 303.854L406 207.472L651.5 112Z" fill="#400EBC" fill-opacity="0.5"/>
  <defs>
  <linearGradient id="paint3_linear" x1="528.75" y1="206.957" x2="286.887" y2="1137.65" gradientUnits="userSpaceOnUse">
  <stop stop-color="#4815C8"/>
  <stop offset="0.391351" stop-color="#1B0DA3" stop-opacity="0"/>
  </linearGradient>
  <linearGradient id="paint4_linear" x1="774.25" y1="165.923" x2="848.5" y2="623" gradientUnits="userSpaceOnUse">
  <stop stop-color="#4616BA"/>
  <stop offset="1" stop-color="#2C0A80" stop-opacity="0"/>
  </linearGradient>
  </defs>
</g>
<g class="e3">
  <path d="M212 994.678L418 1075.61V1452.87L212 1371.94V994.678Z" fill="url(#paint5_linear)" fill-opacity="0.5"/>
  <path d="M624 995.045L418 1075.97V1455.8L624 1374.87V995.045Z" fill="url(#paint6_linear)" fill-opacity="0.5"/>
  <path d="M418 915L624 995.111L418 1075.99L212 995.111L418 915Z" fill="#400EBC" fill-opacity="0.5"/>
  <defs>
  <linearGradient id="paint5_linear" x1="315" y1="994.678" x2="112.052" y2="1775.62" gradientUnits="userSpaceOnUse">
  <stop stop-color="#4815C8"/>
  <stop offset="0.391351" stop-color="#1B0DA3" stop-opacity="0"/>
  </linearGradient>
  <linearGradient id="paint6_linear" x1="521" y1="960.247" x2="583.303" y2="1343.78" gradientUnits="userSpaceOnUse">
  <stop stop-color="#4616BA"/>
  <stop offset="1" stop-color="#2C0A80" stop-opacity="0"/>
  </linearGradient>
  </defs>
</g>
<g class="e5">
  <path d="M1007 238.227L1186.5 308.744V932.063L1007 861.545V238.227Z" fill="url(#paint7_linear)"/>
  <path d="M1366 238.227L1186.5 308.744V932.063L1366 861.545V238.227Z" fill="url(#paint8_linear)"/>
  <path d="M1007 238.227L1186.5 171L1366 238.227L1186.5 309.045L1007 238.227Z" fill="#B146C2"/>
  <defs>
  <linearGradient id="paint7_linear" x1="1096.75" y1="238.227" x2="884.295" y2="878.397" gradientUnits="userSpaceOnUse">
  <stop offset="0.00520833" stop-color="#D959BD"/>
  <stop offset="0.331248" stop-color="#A159D9"/>
  <stop offset="0.809463" stop-color="#270970"/>
  </linearGradient>
  <linearGradient id="paint8_linear" x1="1276.25" y1="238.227" x2="1475.38" y2="787.945" gradientUnits="userSpaceOnUse">
  <stop stop-color="#CB5DDC"/>
  <stop offset="0.337093" stop-color="#882798"/>
  <stop offset="0.92425" stop-color="#280A71"/>
  </linearGradient>
  </defs>
</g>
<g class="e9">
  <path d="M1120 536.153L1207.5 570.528V874.374L1120 839.999V536.153Z" fill="url(#paint9_linear)"/>
  <path d="M1295 536.153L1207.5 570.528V874.374L1295 839.999V536.153Z" fill="url(#paint10_linear)" fill-opacity="0.9"/>
  <path d="M1207.5 502.309L1295 536.337L1207.5 570.688L1120 536.337L1207.5 502.309Z" fill="#2D6DA0" fill-opacity="0.9"/>
  <defs>
  <linearGradient id="paint9_linear" x1="1163.75" y1="536.153" x2="1077.55" y2="867.864" gradientUnits="userSpaceOnUse">
  <stop stop-color="#218297"/>
  <stop offset="0.817708" stop-color="#270970"/>
  </linearGradient>
  <linearGradient id="paint10_linear" x1="1251.25" y1="536.153" x2="1348.47" y2="874.67" gradientUnits="userSpaceOnUse">
  <stop stop-color="#1C688C"/>
  <stop offset="0.755208" stop-color="#270970"/>
  </linearGradient>
  </defs>
</g>
<g class="e14">
  <path d="M1078.5 51L1107 63V247.5L1078 235.5L1078.5 51Z" fill="#CBBBFF"/>
  <path d="M1233 11.5L1107 63V247.5L1233.5 196L1233 11.5Z" fill="#BDD1DF"/>
  <path d="M1221.52 39.985C1221.55 35.7076 1217.22 32.7753 1213.26 34.3884L1119.74 72.4677C1117.48 73.3878 1116 75.5847 1116 78.0247V153.06C1116 157.326 1120.33 160.229 1124.27 158.613L1217.3 120.525C1219.54 119.608 1221.01 117.434 1221.03 115.012L1221.52 39.985Z" fill="#8FB2CB"/>
  <path d="M1156.08 72L1116 88.4252V95.4358L1156.08 78.9358V72Z" fill="#4E2E9C"/>
  <path d="M1170 76.9358L1116 98.9358V105.946L1170 83.8716V76.9358Z" fill="#4E2E9C"/>
  <path d="M1161 90.1667L1116 108.5V115.511L1161 97.1025V90.1667Z" fill="#4E2E9C"/>
  <path d="M1170 101.564L1116 123.564V130.575L1170 108.5V101.564Z" fill="#4E2E9C"/>
  <path d="M1194.5 91.571L1171.5 100.936V107.946L1194.5 98.5068V91.571Z" fill="#4E2E9C"/>
  <path d="M1212.5 84.1572L1196 90.8543V97.8648L1212.5 91.093V84.1572Z" fill="#4E2E9C"/>
  <path d="M1138 123.878L1121.5 130.575V137.585L1138 130.813V123.878Z" fill="#4E2E9C"/>
  <path d="M1162.5 113.5L1139 123.5V130.511L1162.5 120.436V113.5Z" fill="#4E2E9C"/>
  <path d="M1205.5 95.5207L1163.5 113.093V120.104L1205.5 102.456V95.5207Z" fill="#4E2E9C"/>
  <path d="M1132 155.5L1162 168V250.662L1131.71 238.163L1132 155.5Z" fill="#CBBBFF"/>
  <path d="M1138.18 188.977C1138.18 188.267 1138.9 187.785 1139.56 188.055L1152.9 193.54C1154.78 194.311 1156 196.137 1156 198.165V247.124L1138 239.827L1138.18 188.977Z" fill="#8FB2CB" stroke="#3414AE" stroke-width="2"/>
  <path d="M1078.5 51L1202.5 0L1233 11.5L1107 63L1078.5 51Z" fill="#D8D8D8"/>
  <path d="M1234 138.5L1162 168V250.741L1234.28 219.741L1234 138.5Z" fill="#BDD1DF"/>
  <path d="M1221.81 158L1174 177.449V232L1222 211.562L1221.81 158Z" fill="#8FB2CB"/>
  <path d="M1132 155.5L1201.78 126.357L1234.21 138.571L1162 168L1132 155.5Z" fill="#D8D8D8"/>
  <path d="M1148.31 155.834C1146.69 155.144 1146.69 152.847 1148.31 152.155L1176.02 140.319C1176.5 140.114 1177.04 140.105 1177.53 140.292L1187.34 144.073C1189.03 144.722 1189.06 147.092 1187.4 147.786L1158.87 159.676C1158.37 159.883 1157.81 159.881 1157.31 159.67L1148.31 155.834Z" fill="#3414AE"/>
  <path d="M1183.29 140.823C1181.67 140.134 1181.66 137.845 1183.28 137.147L1200.02 129.909C1200.5 129.701 1201.04 129.69 1201.53 129.878L1211.34 133.658C1213.03 134.306 1213.06 136.676 1211.4 137.37L1193.87 144.676C1193.37 144.883 1192.81 144.881 1192.31 144.669L1183.29 140.823Z" fill="#3414AE"/>
</g>
<g class="e7">
  <path d="M1386 573.309L1298.5 607.684V995.34L1386 960.965V573.309Z" fill="url(#paint11_linear)" fill-opacity="0.9"/>
  <path d="M1211 573.153L1298.5 607.528V993.184L1211 958.809V573.153Z" fill="url(#paint12_linear)"/>
  <path d="M1298.5 539.309L1386 573.337L1298.5 607.688L1211 573.337L1298.5 539.309Z" fill="#3932A6" fill-opacity="0.9"/>
  <defs>
  <linearGradient id="paint11_linear" x1="1342.25" y1="573.309" x2="1439.47" y2="911.826" gradientUnits="userSpaceOnUse">
  <stop stop-color="#3C38AD"/>
  <stop offset="0.755208" stop-color="#270970"/>
  </linearGradient>
  <linearGradient id="paint12_linear" x1="1254.75" y1="573.153" x2="1168.55" y2="904.864" gradientUnits="userSpaceOnUse">
  <stop stop-color="#4348C2"/>
  <stop offset="0.817708" stop-color="#270970"/>
  </linearGradient>
  </defs>
</g>
<g class="e16">
  <path d="M1100.07 135.068C1100.05 137.693 1099.45 140.017 1098.54 141.647C1097.61 143.312 1096.49 144.044 1095.51 144.037C1094.52 144.03 1093.42 143.284 1092.51 141.606C1091.62 139.964 1091.05 137.632 1091.07 135.007C1091.09 132.381 1091.69 130.057 1092.6 128.428C1093.53 126.762 1094.64 126.031 1095.63 126.037C1096.61 126.044 1097.72 126.791 1098.63 128.469C1099.51 130.11 1100.09 132.442 1100.07 135.068Z" fill="#3974A7" stroke="#2BCDBA" stroke-width="2"/>
  <path d="M1353.07 612.068C1353.05 614.693 1352.45 617.017 1351.54 618.647C1350.61 620.312 1349.49 621.044 1348.51 621.037C1347.52 621.03 1346.42 620.284 1345.51 618.606C1344.62 616.964 1344.05 614.632 1344.07 612.007C1344.09 609.381 1344.69 607.057 1345.6 605.428C1346.53 603.762 1347.64 603.031 1348.63 603.037C1349.61 603.044 1350.72 603.791 1351.63 605.469C1352.51 607.11 1353.09 609.442 1353.07 612.068Z" fill="#3974A7" stroke="#2BCDBA" stroke-width="2"/>
  <path d="M1095.42 135.722L1074.22 145.691C1073.17 146.186 1072.5 147.243 1072.5 148.405L1072.5 266L1072.5 305L1124 324L1330.52 403.771C1333.22 404.813 1335 407.408 1335 410.3L1335 485.5L1357 556.5L1428.11 583.813C1429.75 584.445 1429.83 586.745 1428.24 587.492L1369.8 614.792C1366.09 616.522 1361.84 616.666 1358.03 615.191L1348.5 611.5" stroke="#2BCDBA" stroke-width="2" stroke-linecap="round"/>
</g>
<g class="e11">
  <path d="M1207.5 429L1267.5 405V534.5L1207.5 559V429Z" fill="url(#paint13_linear)"/>
  <path d="M1236.5 511H1243.5V544.5L1236.5 547.153V511Z" fill="#455AD6"/>
  <path d="M1216.5 446.529C1216.5 444.07 1218 441.859 1220.29 440.952L1257.76 426.086C1259.08 425.565 1260.5 426.533 1260.5 427.945V515.138C1260.5 517.582 1259.02 519.782 1256.75 520.7L1219.25 535.886C1217.94 536.419 1216.5 535.451 1216.5 534.032V446.529Z" fill="#0D2072"/>
  <path d="M1216.5 448.5L1236 440.764V443.719L1216.5 451.818V448.5Z" fill="#2BCDBA"/>
  <path d="M1216.5 453.737L1245.5 442V444.954L1216.5 457.054V453.737Z" fill="#2BCDBA"/>
  <path d="M1216.5 459.182L1245.5 447.446V450.4L1216.5 462.5V459.182Z" fill="#2BCDBA"/>
  <path d="M1216.5 464.737L1251 450.4V453.354L1216.5 468.054V464.737Z" fill="#2BCDBA"/>
  <path d="M1216.5 470L1234.55 462.5V465.454L1216.5 473.318V470Z" fill="#2BCDBA"/>
  <path d="M1216.5 475.737L1245.5 464V466.954L1216.5 479.054V475.737Z" fill="#2BCDBA"/>
  <path d="M1216.5 481.182L1245.5 469.446V472.4L1216.5 484.5V481.182Z" fill="#2BCDBA"/>
  <path d="M1216.5 486.737L1251 472.4V475.354L1216.5 490.054V486.737Z" fill="#2BCDBA"/>
  <path d="M1216.5 492L1234.55 484.5V487.454L1216.5 495.318V492Z" fill="#2BCDBA"/>
  <path d="M1207.5 429L1147.5 405V534.5L1207.5 559V429Z" fill="url(#paint14_linear)"/>
  <path d="M1201.5 382.272C1205.03 380.815 1208.98 380.791 1212.53 382.204L1266.87 403.856C1268.34 404.441 1268.33 406.523 1266.85 407.088L1212.24 427.995C1208.86 429.286 1205.13 429.289 1201.76 428.004L1148.09 407.557C1146.62 406.998 1146.59 404.931 1148.04 404.332L1201.5 382.272Z" fill="#455AD6"/>
  <path d="M1210.18 410.893C1208.42 411.533 1206.49 411.532 1204.73 410.89L1174.93 400V405.614C1174.93 406.667 1175.59 407.607 1176.58 407.967L1205.61 418.55C1206.8 418.983 1208.1 418.983 1209.29 418.552L1238.44 407.966C1239.43 407.606 1240.09 406.665 1240.09 405.612V400L1210.18 410.893Z" fill="url(#paint15_linear)"/>
  <path d="M1204.61 387.633C1206.47 386.905 1208.54 386.905 1210.4 387.633L1239.66 399.084C1240.47 399.401 1240.45 400.552 1239.63 400.843L1210.17 411.342C1208.44 411.957 1206.56 411.957 1204.83 411.342L1175.37 400.843C1174.55 400.552 1174.53 399.401 1175.34 399.084L1204.61 387.633Z" fill="#243BBE"/>
  <ellipse cx="1207" cy="399" rx="13.5" ry="5" fill="#2BCDBA"/>
  <path d="M1190.39 354.99L1195.8 355.107L1197.9 359.731L1192.49 359.614L1190.39 354.99Z" fill="#6742C2"/>
  <path d="M1199.27 350.956L1195.8 355.107L1197.9 359.731L1201.37 355.58L1199.27 350.956Z" fill="#381787"/>
  <path d="M1193.94 351.017L1199.27 350.956L1195.8 355.107L1190.39 354.99L1193.94 351.017Z" fill="#7F59D9"/>
  <path d="M1217.66 357.197L1218.43 362.554L1214.22 365.383L1213.45 360.026L1217.66 357.197Z" fill="#6742C2"/>
  <path d="M1223.1 365.299L1218.43 362.554L1214.22 365.383L1218.88 368.128L1223.1 365.299Z" fill="#381787"/>
  <path d="M1222.17 360.051L1223.1 365.299L1218.43 362.554L1217.66 357.197L1222.17 360.051Z" fill="#7F59D9"/>
  <path d="M1204.75 377.519L1206.54 382.626L1202.95 386.216L1201.16 381.11L1204.75 377.519Z" fill="#6742C2"/>
  <path d="M1211.65 384.418L1206.54 382.626L1202.95 386.217L1208.06 388.009L1211.65 384.418Z" fill="#381787"/>
  <path d="M1209.72 379.449L1211.65 384.418L1206.54 382.626L1204.75 377.519L1209.72 379.449Z" fill="#7F59D9"/>
  <path d="M1178.5 327H1234L1220.5 399H1193.5L1178.5 327Z" fill="url(#paint16_linear)"/>
  <rect x="1157.5" y="410" width="3" height="11" fill="#455AD6"/>
  <path d="M1161.5 423.031C1161.5 421.804 1160.75 420.701 1159.61 420.246L1157.37 419.349C1156.71 419.086 1156 419.57 1156 420.277V523.044C1156 524.233 1156.7 525.309 1157.79 525.789L1160.1 526.806C1160.76 527.098 1161.5 526.614 1161.5 525.891V423.031Z" fill="#2BCDBA"/>
  <rect x="1157.5" y="424" width="2" height="25" fill="#350DAD"/>
  <rect x="1157.5" y="451" width="2" height="25" fill="#350DAD"/>
  <rect x="1157.5" y="478" width="2" height="45" fill="#350DAD"/>
  <rect x="1189.5" y="423" width="3" height="10" fill="#455AD6"/>
  <path d="M1194 434.231C1194 433.004 1193.25 431.901 1192.11 431.446L1189.87 430.549C1189.21 430.286 1188.5 430.77 1188.5 431.477V534.244C1188.5 535.433 1189.2 536.509 1190.29 536.989L1192.6 538.006C1193.26 538.298 1194 537.814 1194 537.091V434.231Z" fill="#2BCDBA"/>
  <rect x="1190" y="435.2" width="2" height="25" fill="#350DAD"/>
  <rect x="1190" y="462.2" width="2" height="25" fill="#350DAD"/>
  <rect x="1190" y="489.2" width="2" height="45" fill="#350DAD"/>
  <defs>
  <linearGradient id="paint13_linear" x1="1267.5" y1="466" x2="1186" y2="462" gradientUnits="userSpaceOnUse">
  <stop stop-color="#3700AB"/>
  <stop offset="0.996496" stop-color="#2B67BA"/>
  </linearGradient>
  <linearGradient id="paint14_linear" x1="1185.5" y1="477.5" x2="1104" y2="485" gradientUnits="userSpaceOnUse">
  <stop stop-color="#350DAD"/>
  <stop offset="0.620117" stop-color="#2D54B7"/>
  </linearGradient>
  <linearGradient id="paint15_linear" x1="1220.59" y1="414.941" x2="1168.33" y2="398.437" gradientUnits="userSpaceOnUse">
  <stop stop-color="#350CAD"/>
  <stop offset="1" stop-color="#2F47B5"/>
  </linearGradient>
  <linearGradient id="paint16_linear" x1="1206.25" y1="327" x2="1206.25" y2="399" gradientUnits="userSpaceOnUse">
  <stop stop-color="#2BCDBA" stop-opacity="0"/>
  <stop offset="1" stop-color="#2BCDBA" stop-opacity="0.78"/>
  </linearGradient>
  </defs>
</g>
<g class="e6">
  <path d="M837 405.025L972 458.061V926.852L837 873.816V405.025Z" fill="url(#paint17_linear)"/>
  <path d="M1107 405.025L972 458.061V926.852L1107 873.816V405.025Z" fill="url(#paint18_linear)" fill-opacity="0.9"/>
  <path d="M972 352.809L1107 405.309L972 458.309L837 405.309L972 352.809Z" fill="#3B98B7" fill-opacity="0.9"/>
  <defs>
  <linearGradient id="paint17_linear" x1="904.5" y1="405.025" x2="771.5" y2="916.809" gradientUnits="userSpaceOnUse">
  <stop stop-color="#43ACC2"/>
  <stop offset="0.817708" stop-color="#270970"/>
  </linearGradient>
  <linearGradient id="paint18_linear" x1="1039.5" y1="405.025" x2="1189.5" y2="927.309" gradientUnits="userSpaceOnUse">
  <stop stop-color="#3E8EB4"/>
  <stop offset="0.755208" stop-color="#270970"/>
  </linearGradient>
  </defs>
</g>
<g class="e8">
  <path d="M1029 573.153L1116.5 607.528V945.184L1029 910.809V573.153Z" fill="url(#paint19_linear)"/>
  <path d="M1204 573.309L1116.5 607.684V953.309L1204 918.934V573.309Z" fill="url(#paint20_linear)" fill-opacity="0.9"/>
  <path d="M1116.5 539.309L1204 573.337L1116.5 607.688L1029 573.337L1116.5 539.309Z" fill="#5F25A4" fill-opacity="0.9"/>
  <defs>
  <linearGradient id="paint19_linear" x1="1072.75" y1="573.153" x2="986.546" y2="904.864" gradientUnits="userSpaceOnUse">
  <stop stop-color="#8A44E2"/>
  <stop offset="0.817708" stop-color="#270970"/>
  </linearGradient>
  <linearGradient id="paint20_linear" x1="1160.25" y1="558.528" x2="1257.47" y2="897.045" gradientUnits="userSpaceOnUse">
  <stop stop-color="#712EB5"/>
  <stop offset="0.837859" stop-color="#270970"/>
  </linearGradient>
  </defs>
</g>
<g class="e13">
  <path d="M902 319L1006 368.001V431.501L902 386.5V319Z" fill="#BDD1DF"/>
  <path d="M916 338.725C916 336.526 918.286 335.074 920.276 336.009L990.276 368.906C991.328 369.4 992 370.458 992 371.621V411.438C992 413.595 989.792 415.047 987.811 414.192L917.811 383.981C916.712 383.507 916 382.424 916 381.227V338.725Z" fill="#E580FF"/>
  <path d="M941 306.5L1049 354.001L1006 368.001L902 319L941 306.5Z" fill="#D8D8D8"/>
  <path d="M941 199.5L1049 242.001V354.001L941 306.5V199.5Z" fill="#BDD1DF"/>
  <path d="M948.5 220.344C948.5 216.818 952.052 214.4 955.333 215.693L1035.83 247.413C1037.74 248.166 1039 250.011 1039 252.065V332.344C1039 335.952 1035.29 338.373 1031.99 336.922L993.75 320.131L951.49 301.574C949.673 300.777 948.5 298.98 948.5 296.996V220.344Z" fill="#E680FF"/>
  <path d="M949 221L1005 243.183V250L949 227.781V221Z" fill="#C726B9"/>
  <path d="M949 230.219L1010.5 254.5V261.317L949 237V230.219Z" fill="#C726B9"/>
  <path d="M949 239.219L975 249.463V256.28L949 246V239.219Z" fill="#C726B9"/>
  <path d="M949 247.719L1005 269.902V276.719L949 254.5V247.719Z" fill="#C726B9"/>
  <path d="M998.27 299.707L1030.83 313.228L1030.77 317.218L998.205 303.676L998.27 299.707Z" fill="#C726B9"/>
  <path d="M998.181 305.103L1033.94 319.905L1033.88 323.895L998.116 309.072L998.181 305.103Z" fill="#C726B9"/>
  <path d="M998.095 310.371L1013.21 316.616L1013.15 320.606L998.03 314.339L998.095 310.371Z" fill="#C726B9"/>
  <path d="M998.013 315.345L1030.58 328.866L1030.51 332.857L997.948 319.314L998.013 315.345Z" fill="#C726B9"/>
  <path d="M981.5 185L1088 227.5L1049 242L941 199.5L981.5 185Z" fill="#D8D8D8"/>
  <path fill-rule="evenodd" clip-rule="evenodd" d="M1006 368.001V431.501L1087 399.501L1088 227.5L1049 242.001V354.001L1006 368.001Z" fill="#CBBBFF"/>
  <path d="M972.702 336.959C971.912 337.247 971.045 337.246 970.255 336.958L956.868 332.065V334.588C956.868 335.06 957.164 335.483 957.608 335.645L970.652 340.399C971.186 340.594 971.771 340.594 972.305 340.4L985.402 335.644C985.847 335.482 986.143 335.06 986.143 334.587V332.065L972.702 336.959Z" fill="url(#paint21_linear)"/>
  <path d="M992.702 345.959C991.912 346.247 991.045 346.246 990.255 345.958L976.868 341.065V343.588C976.868 344.06 977.164 344.483 977.608 344.645L990.652 349.399C991.186 349.594 991.771 349.594 992.305 349.4L1005.4 344.644C1005.85 344.482 1006.14 344.06 1006.14 343.587V341.065L992.702 345.959Z" fill="url(#paint22_linear)"/>
  <path d="M1013.7 355.959C1012.91 356.247 1012.05 356.246 1011.26 355.958L997.868 351.065V353.588C997.868 354.06 998.164 354.483 998.608 354.645L1011.65 359.399C1012.19 359.594 1012.77 359.594 1013.3 359.4L1026.4 354.644C1026.85 354.482 1027.14 354.06 1027.14 353.587V351.065L1013.7 355.959Z" fill="url(#paint23_linear)"/>
  <path d="M951.702 328.959C950.912 329.247 950.045 329.246 949.255 328.958L935.868 324.065V326.588C935.868 327.06 936.164 327.483 936.608 327.645L949.652 332.399C950.186 332.594 950.771 332.594 951.305 332.4L964.402 327.644C964.847 327.482 965.143 327.06 965.143 326.587V324.065L951.702 328.959Z" fill="url(#paint24_linear)"/>
  <path d="M970.2 326.509C971.036 326.182 971.965 326.182 972.801 326.509L985.949 331.654C986.312 331.796 986.304 332.313 985.937 332.444L972.699 337.161C971.924 337.437 971.077 337.437 970.302 337.161L957.063 332.444C956.696 332.313 956.688 331.796 957.051 331.654L970.2 326.509Z" fill="#243BBE"/>
  <path d="M990.2 335.509C991.036 335.182 991.965 335.182 992.801 335.509L1005.95 340.654C1006.31 340.796 1006.3 341.313 1005.94 341.444L992.699 346.161C991.924 346.437 991.077 346.437 990.302 346.161L977.063 341.444C976.696 341.313 976.688 340.796 977.051 340.654L990.2 335.509Z" fill="#243BBE"/>
  <path d="M1011.2 345.509C1012.04 345.182 1012.97 345.182 1013.8 345.509L1026.95 350.654C1027.31 350.796 1027.3 351.313 1026.94 351.444L1013.7 356.161C1012.92 356.437 1012.08 356.437 1011.3 356.161L998.063 351.444C997.696 351.313 997.688 350.796 998.051 350.654L1011.2 345.509Z" fill="#243BBE"/>
  <path d="M949.2 318.509C950.036 318.182 950.965 318.182 951.801 318.509L964.949 323.654C965.312 323.796 965.304 324.313 964.937 324.444L951.699 329.161C950.924 329.437 950.077 329.437 949.302 329.161L936.063 324.444C935.696 324.313 935.688 323.796 936.051 323.654L949.2 318.509Z" fill="#243BBE"/>
  <path d="M1063 271.329C1063 270.067 1063.79 268.94 1064.97 268.509L1071.97 265.964C1073.93 265.252 1076 266.701 1076 268.783V367.399C1076 368.66 1075.21 369.787 1074.03 370.218L1067.03 372.764C1065.07 373.475 1063 372.026 1063 369.944V271.329Z" fill="#3974A7"/>
  <path d="M1066.5 294.644C1066.5 293.592 1067.16 292.653 1068.15 292.294L1069.15 291.931C1070.78 291.339 1072.5 292.547 1072.5 294.281V344.356C1072.5 345.408 1071.84 346.347 1070.85 346.706L1069.85 347.069C1068.22 347.661 1066.5 346.453 1066.5 344.719V294.644Z" fill="#CBBBFF" stroke="#3414AE"/>
  <defs>
  <linearGradient id="paint21_linear" x1="977.383" y1="338.778" x2="953.902" y2="331.363" gradientUnits="userSpaceOnUse">
  <stop stop-color="#350CAD"/>
  <stop offset="1" stop-color="#2F47B5"/>
  </linearGradient>
  <linearGradient id="paint22_linear" x1="997.383" y1="347.778" x2="973.902" y2="340.363" gradientUnits="userSpaceOnUse">
  <stop stop-color="#350CAD"/>
  <stop offset="1" stop-color="#2F47B5"/>
  </linearGradient>
  <linearGradient id="paint23_linear" x1="1018.38" y1="357.778" x2="994.902" y2="350.363" gradientUnits="userSpaceOnUse">
  <stop stop-color="#350CAD"/>
  <stop offset="1" stop-color="#2F47B5"/>
  </linearGradient>
  <linearGradient id="paint24_linear" x1="956.383" y1="330.778" x2="932.902" y2="323.363" gradientUnits="userSpaceOnUse">
  <stop stop-color="#350CAD"/>
  <stop offset="1" stop-color="#2F47B5"/>
  </linearGradient>
  </defs>
</g>
<g class="e10">
  <path d="M1117 465L1177 441V570.5L1117 595V465Z" fill="url(#paint25_linear)"/>
  <path d="M1146 547H1153V580.5L1146 583.153V547Z" fill="#455AD6"/>
  <path d="M1126 482.529C1126 480.07 1127.5 477.859 1129.79 476.952L1167.26 462.086C1168.58 461.565 1170 462.533 1170 463.945V551.139C1170 553.583 1168.52 555.782 1166.25 556.7L1128.75 571.886C1127.44 572.419 1126 571.451 1126 570.033V482.529Z" fill="#0D2072"/>
  <path d="M1126 484.501L1145.5 476.765V479.719L1126 487.818V484.501Z" fill="#2BCDBA"/>
  <path d="M1126 489.737L1155 478V480.954L1126 493.055V489.737Z" fill="#2BCDBA"/>
  <path d="M1126 495.182L1155 483.446V486.4L1126 498.5V495.182Z" fill="#2BCDBA"/>
  <path d="M1126 500.737L1160.5 486.4V489.354L1126 504.055V500.737Z" fill="#2BCDBA"/>
  <path d="M1126 506L1144.05 498.5V501.454L1126 509.318V506Z" fill="#2BCDBA"/>
  <path d="M1126 511.737L1155 500V502.954L1126 515.055V511.737Z" fill="#2BCDBA"/>
  <path d="M1126 517.182L1155 505.446V508.4L1126 520.5V517.182Z" fill="#2BCDBA"/>
  <path d="M1126 522.737L1160.5 508.4V511.354L1126 526.055V522.737Z" fill="#2BCDBA"/>
  <path d="M1126 528L1144.05 520.5V523.454L1126 531.318V528Z" fill="#2BCDBA"/>
  <path d="M1117 465L1057 441V570.5L1117 595V465Z" fill="url(#paint26_linear)"/>
  <path d="M1111 418.272C1114.53 416.815 1118.48 416.791 1122.03 418.204L1176.37 439.856C1177.84 440.441 1177.83 442.524 1176.35 443.088L1121.74 463.996C1118.36 465.287 1114.63 465.29 1111.26 464.004L1057.59 443.557C1056.12 442.998 1056.09 440.931 1057.54 440.332L1111 418.272Z" fill="#455AD6"/>
  <path d="M1119.68 446.893C1117.92 447.534 1115.99 447.532 1114.23 446.89L1084.43 436V441.615C1084.43 442.667 1085.09 443.607 1086.08 443.967L1115.11 454.55C1116.3 454.983 1117.6 454.984 1118.79 454.552L1147.94 443.966C1148.93 443.606 1149.59 442.666 1149.59 441.612V436L1119.68 446.893Z" fill="url(#paint27_linear)"/>
  <path d="M1114.11 423.633C1115.97 422.905 1118.04 422.905 1119.9 423.633L1149.16 435.085C1149.97 435.401 1149.95 436.552 1149.13 436.844L1119.67 447.342C1117.94 447.957 1116.06 447.957 1114.33 447.342L1084.87 436.844C1084.05 436.552 1084.03 435.401 1084.84 435.085L1114.11 423.633Z" fill="#243BBE"/>
  <ellipse cx="1116.5" cy="435" rx="13.5" ry="5" fill="#2BCDBA"/>
  <path d="M1099.89 390.99L1105.3 391.107L1107.4 395.731L1101.99 395.614L1099.89 390.99Z" fill="#6742C2"/>
  <path d="M1108.77 386.957L1105.3 391.108L1107.4 395.731L1110.87 391.58L1108.77 386.957Z" fill="#381787"/>
  <path d="M1103.44 387.017L1108.77 386.956L1105.3 391.107L1099.89 390.99L1103.44 387.017Z" fill="#7F59D9"/>
  <path d="M1127.16 393.197L1127.93 398.554L1123.72 401.383L1122.95 396.026L1127.16 393.197Z" fill="#6742C2"/>
  <path d="M1132.6 401.299L1127.93 398.554L1123.72 401.383L1128.38 404.128L1132.6 401.299Z" fill="#381787"/>
  <path d="M1131.67 396.051L1132.6 401.299L1127.93 398.554L1127.16 393.197L1131.67 396.051Z" fill="#7F59D9"/>
  <path d="M1114.25 413.519L1116.04 418.626L1112.45 422.217L1110.66 417.11L1114.25 413.519Z" fill="#6742C2"/>
  <path d="M1121.15 420.418L1116.04 418.626L1112.45 422.217L1117.56 424.009L1121.15 420.418Z" fill="#381787"/>
  <path d="M1119.22 415.45L1121.15 420.418L1116.04 418.626L1114.25 413.519L1119.22 415.45Z" fill="#7F59D9"/>
  <path d="M1088 363H1143.5L1130 435H1103L1088 363Z" fill="url(#paint28_linear)"/>
  <rect x="1067" y="446" width="3" height="11" fill="#455AD6"/>
  <path d="M1071 459.031C1071 457.805 1070.25 456.702 1069.11 456.246L1066.87 455.349C1066.21 455.086 1065.5 455.57 1065.5 456.277V559.044C1065.5 560.233 1066.2 561.31 1067.29 561.789L1069.6 562.806C1070.26 563.098 1071 562.614 1071 561.891V459.031Z" fill="#2BCDBA"/>
  <rect x="1067" y="460" width="2" height="25" fill="#350DAD"/>
  <rect x="1067" y="487" width="2" height="25" fill="#350DAD"/>
  <rect x="1067" y="514" width="2" height="45" fill="#350DAD"/>
  <rect x="1099" y="459" width="3" height="10" fill="#455AD6"/>
  <path d="M1103.5 470.231C1103.5 469.005 1102.75 467.902 1101.61 467.446L1099.37 466.549C1098.71 466.286 1098 466.77 1098 467.477V570.244C1098 571.433 1098.7 572.51 1099.79 572.989L1102.1 574.006C1102.76 574.298 1103.5 573.814 1103.5 573.091V470.231Z" fill="#2BCDBA"/>
  <rect x="1099.5" y="471.2" width="2" height="25" fill="#350DAD"/>
  <rect x="1099.5" y="498.2" width="2" height="25" fill="#350DAD"/>
  <rect x="1099.5" y="525.2" width="2" height="45" fill="#350DAD"/>
  <defs>
  <linearGradient id="paint25_linear" x1="1177" y1="502" x2="1095.5" y2="498" gradientUnits="userSpaceOnUse">
  <stop stop-color="#3700AB"/>
  <stop offset="0.996496" stop-color="#2B67BA"/>
  </linearGradient>
  <linearGradient id="paint26_linear" x1="1095" y1="513.5" x2="1013.5" y2="521" gradientUnits="userSpaceOnUse">
  <stop stop-color="#350DAD"/>
  <stop offset="0.620117" stop-color="#2D54B7"/>
  </linearGradient>
  <linearGradient id="paint27_linear" x1="1130.09" y1="450.941" x2="1077.83" y2="434.437" gradientUnits="userSpaceOnUse">
  <stop stop-color="#350CAD"/>
  <stop offset="1" stop-color="#2F47B5"/>
  </linearGradient>
  <linearGradient id="paint28_linear" x1="1115.75" y1="363" x2="1115.75" y2="435" gradientUnits="userSpaceOnUse">
  <stop stop-color="#2BCDBA" stop-opacity="0"/>
  <stop offset="1" stop-color="#2BCDBA" stop-opacity="0.78"/>
  </linearGradient>
  </defs>
</g>
<g class="e4">
  <path d="M1063 777.094L1177 821.88V1261.8L1063 1217.01V777.094Z" fill="url(#paint29_linear)"/>
  <path d="M1291 777.297L1177 822.083V1272.38L1291 1227.6V777.297Z" fill="url(#paint30_linear)" fill-opacity="0.9"/>
  <path d="M1177 733L1291 777.333L1177 822.089L1063 777.333L1177 733Z" fill="#5F25A4" fill-opacity="0.9"/>
  <defs>
  <linearGradient id="paint29_linear" x1="1120" y1="777.094" x2="1007.69" y2="1209.27" gradientUnits="userSpaceOnUse">
  <stop stop-color="#8A44E2"/>
  <stop offset="0.817708" stop-color="#270970"/>
  </linearGradient>
  <linearGradient id="paint30_linear" x1="1234" y1="758.04" x2="1360.67" y2="1199.08" gradientUnits="userSpaceOnUse">
  <stop stop-color="#712EB5"/>
  <stop offset="0.837859" stop-color="#270970"/>
  </linearGradient>
  </defs>
</g>
<g class="e15">
  <path d="M1022.35 400.351C1022.26 402.975 1021.59 405.28 1020.63 406.882C1019.65 408.52 1018.52 409.219 1017.53 409.184C1016.55 409.149 1015.47 408.371 1014.61 406.667C1013.77 405.001 1013.26 402.653 1013.36 400.029C1013.45 397.405 1014.12 395.1 1015.08 393.497C1016.06 391.86 1017.19 391.16 1018.17 391.196C1019.16 391.231 1020.24 392.009 1021.1 393.712C1021.94 395.379 1022.44 397.726 1022.35 400.351Z" fill="#3974A7" stroke="#FF00E9" stroke-width="2"/>
  <path d="M1067.35 598.206C1067.34 600.832 1066.75 603.158 1065.84 604.79C1064.92 606.458 1063.81 607.193 1062.82 607.19C1061.84 607.186 1060.73 606.443 1059.82 604.768C1058.92 603.129 1058.34 600.799 1058.35 598.174C1058.36 595.548 1058.96 593.222 1059.86 591.59C1060.79 589.922 1061.9 589.186 1062.89 589.19C1063.87 589.194 1064.98 589.937 1065.89 591.612C1066.78 593.251 1067.36 595.58 1067.35 598.206Z" fill="#4E1697" stroke="#FF00E9" stroke-width="2"/>
  <path d="M1018.48 399.871L1038.75 405.814C1042.16 406.814 1044.5 409.94 1044.5 413.491L1044.5 530.534C1044.5 534.15 1042.34 537.415 1039 538.823L1025.2 544.66C1021.13 546.382 1018.48 550.372 1018.48 554.792L1018.48 609.105C1018.48 611.931 1021.33 613.866 1023.96 612.822L1062.5 597.5" stroke="#FF00E9" stroke-width="3" stroke-linecap="round"/>
</g>
<g class="e12">
  <path d="M1298.5 467L1358.5 443V572.5L1298.5 597V467Z" fill="url(#paint31_linear)"/>
  <path d="M1327.5 549H1334.5V582.5L1327.5 585.153V549Z" fill="#455AD6"/>
  <path d="M1307.5 484.529C1307.5 482.07 1309 479.859 1311.29 478.952L1348.76 464.086C1350.08 463.565 1351.5 464.533 1351.5 465.945V553.138C1351.5 555.582 1350.02 557.782 1347.75 558.7L1310.25 573.886C1308.94 574.419 1307.5 573.451 1307.5 572.032V484.529Z" fill="#0D2072"/>
  <path d="M1307.5 486.5L1327 478.764V481.719L1307.5 489.818V486.5Z" fill="#2BCDBA"/>
  <path d="M1307.5 491.737L1336.5 480V482.954L1307.5 495.054V491.737Z" fill="#2BCDBA"/>
  <path d="M1307.5 497.182L1336.5 485.446V488.4L1307.5 500.5V497.182Z" fill="#2BCDBA"/>
  <path d="M1307.5 502.737L1342 488.4V491.354L1307.5 506.054V502.737Z" fill="#2BCDBA"/>
  <path d="M1307.5 508L1325.55 500.5V503.454L1307.5 511.318V508Z" fill="#2BCDBA"/>
  <path d="M1307.5 513.737L1336.5 502V504.954L1307.5 517.054V513.737Z" fill="#2BCDBA"/>
  <path d="M1307.5 519.182L1336.5 507.446V510.4L1307.5 522.5V519.182Z" fill="#2BCDBA"/>
  <path d="M1307.5 524.737L1342 510.4V513.354L1307.5 528.054V524.737Z" fill="#2BCDBA"/>
  <path d="M1307.5 530L1325.55 522.5V525.454L1307.5 533.318V530Z" fill="#2BCDBA"/>
  <path d="M1298.5 467L1238.5 443V572.5L1298.5 597V467Z" fill="url(#paint32_linear)"/>
  <path d="M1292.5 420.272C1296.03 418.815 1299.98 418.791 1303.53 420.204L1357.87 441.856C1359.34 442.441 1359.33 444.523 1357.85 445.088L1303.24 465.995C1299.86 467.286 1296.13 467.289 1292.76 466.004L1239.09 445.557C1237.62 444.998 1237.59 442.931 1239.04 442.332L1292.5 420.272Z" fill="#455AD6"/>
  <path d="M1301.18 448.893C1299.42 449.533 1297.49 449.532 1295.73 448.89L1265.93 438V443.614C1265.93 444.667 1266.59 445.607 1267.58 445.967L1296.61 456.55C1297.8 456.983 1299.1 456.983 1300.29 456.552L1329.44 445.966C1330.43 445.606 1331.09 444.665 1331.09 443.612V438L1301.18 448.893Z" fill="url(#paint33_linear)"/>
  <path d="M1295.61 425.633C1297.47 424.905 1299.54 424.905 1301.4 425.633L1330.66 437.084C1331.47 437.401 1331.45 438.552 1330.63 438.843L1301.17 449.342C1299.44 449.957 1297.56 449.957 1295.83 449.342L1266.37 438.843C1265.55 438.552 1265.53 437.401 1266.34 437.084L1295.61 425.633Z" fill="#243BBE"/>
  <ellipse cx="1298" cy="437" rx="13.5" ry="5" fill="#2BCDBA"/>
  <path d="M1281.39 392.99L1286.8 393.107L1288.9 397.731L1283.49 397.614L1281.39 392.99Z" fill="#6742C2"/>
  <path d="M1290.27 388.956L1286.8 393.107L1288.9 397.731L1292.37 393.58L1290.27 388.956Z" fill="#381787"/>
  <path d="M1284.94 389.017L1290.27 388.956L1286.8 393.107L1281.39 392.99L1284.94 389.017Z" fill="#7F59D9"/>
  <path d="M1308.66 395.197L1309.43 400.554L1305.22 403.383L1304.45 398.026L1308.66 395.197Z" fill="#6742C2"/>
  <path d="M1314.1 403.299L1309.43 400.554L1305.22 403.383L1309.88 406.128L1314.1 403.299Z" fill="#381787"/>
  <path d="M1313.17 398.051L1314.1 403.299L1309.43 400.554L1308.66 395.197L1313.17 398.051Z" fill="#7F59D9"/>
  <path d="M1295.75 415.519L1297.54 420.626L1293.95 424.216L1292.16 419.11L1295.75 415.519Z" fill="#6742C2"/>
  <path d="M1302.65 422.418L1297.54 420.626L1293.95 424.217L1299.06 426.009L1302.65 422.418Z" fill="#381787"/>
  <path d="M1300.72 417.449L1302.65 422.418L1297.54 420.626L1295.75 415.519L1300.72 417.449Z" fill="#7F59D9"/>
  <path d="M1269.5 365H1325L1311.5 437H1284.5L1269.5 365Z" fill="url(#paint34_linear)"/>
  <rect x="1248.5" y="448" width="3" height="11" fill="#455AD6"/>
  <path d="M1252.5 461.031C1252.5 459.804 1251.75 458.701 1250.61 458.246L1248.37 457.349C1247.71 457.086 1247 457.57 1247 458.277V561.044C1247 562.233 1247.7 563.309 1248.79 563.789L1251.1 564.806C1251.76 565.098 1252.5 564.614 1252.5 563.891V461.031Z" fill="#2BCDBA"/>
  <rect x="1248.5" y="462" width="2" height="25" fill="#350DAD"/>
  <rect x="1248.5" y="489" width="2" height="25" fill="#350DAD"/>
  <rect x="1248.5" y="516" width="2" height="45" fill="#350DAD"/>
  <rect x="1280.5" y="461" width="3" height="10" fill="#455AD6"/>
  <path d="M1285 472.231C1285 471.004 1284.25 469.901 1283.11 469.446L1280.87 468.549C1280.21 468.286 1279.5 468.77 1279.5 469.477V572.244C1279.5 573.433 1280.2 574.509 1281.29 574.989L1283.6 576.006C1284.26 576.298 1285 575.814 1285 575.091V472.231Z" fill="#2BCDBA"/>
  <rect x="1281" y="473.2" width="2" height="25" fill="#350DAD"/>
  <rect x="1281" y="500.2" width="2" height="25" fill="#350DAD"/>
  <rect x="1281" y="527.2" width="2" height="45" fill="#350DAD"/>
  <defs>
  <linearGradient id="paint31_linear" x1="1358.5" y1="504" x2="1277" y2="500" gradientUnits="userSpaceOnUse">
  <stop stop-color="#3700AB"/>
  <stop offset="0.996496" stop-color="#2B67BA"/>
  </linearGradient>
  <linearGradient id="paint32_linear" x1="1276.5" y1="515.5" x2="1195" y2="523" gradientUnits="userSpaceOnUse">
  <stop stop-color="#350DAD"/>
  <stop offset="0.620117" stop-color="#2D54B7"/>
  </linearGradient>
  <linearGradient id="paint33_linear" x1="1311.59" y1="452.941" x2="1259.33" y2="436.437" gradientUnits="userSpaceOnUse">
  <stop stop-color="#350CAD"/>
  <stop offset="1" stop-color="#2F47B5"/>
  </linearGradient>
  <linearGradient id="paint34_linear" x1="1297.25" y1="365" x2="1297.25" y2="437" gradientUnits="userSpaceOnUse">
  <stop stop-color="#2BCDBA" stop-opacity="0"/>
  <stop offset="1" stop-color="#2BCDBA" stop-opacity="0.78"/>
  </linearGradient>
  </defs>
</g>
<g class="e18">
  <ellipse cx="1218" cy="258" rx="42" ry="18" fill="#9B33AB"/>
  <path d="M1220 178H1231C1230.26 211.634 1229.81 230.03 1228 250.5H1223C1220.8 223.136 1220.53 206.906 1220 178Z" fill="#F9D2FF"/>
  <path d="M1202.5 125C1194.5 138.5 1176.5 145.5 1175 142C1173.5 138.5 1189.16 135.317 1193.5 122.501C1197.84 109.684 1198 93.5008 1205 94.5005C1212 95.5002 1210.5 111.5 1202.5 125Z" fill="white"/>
  <ellipse cx="1218" cy="71.5" rx="12" ry="14.5" fill="#F9D2FF"/>
  <path d="M1212.42 250.791C1213.44 247.437 1217.17 245.731 1220.37 247.149L1222.98 248.305C1224.47 250.02 1226.58 248.915 1228.64 248.305C1228.64 248.305 1228.85 253.843 1225.85 254.866C1223.49 255.668 1216.33 253.536 1213.35 252.576C1212.6 252.336 1212.19 251.541 1212.42 250.791Z" fill="#270970"/>
  <path d="M1207 185H1218C1217.26 218.634 1216.81 237.03 1215 257.5H1210C1207.8 230.136 1207.53 213.906 1207 185Z" fill="#F9D2FF"/>
  <path d="M1199.44 257.535C1200.46 254.181 1204.18 252.475 1207.39 253.893L1210 255.049C1211.49 256.764 1213.6 255.659 1215.66 255.049C1215.66 255.049 1215.87 260.587 1212.86 261.61C1210.51 262.412 1203.35 260.28 1200.36 259.32C1199.61 259.08 1199.21 258.285 1199.44 257.535Z" fill="#270970"/>
  <path d="M1230.14 131.94C1230.14 160.44 1247.21 200.94 1219.21 206.44C1191.21 211.94 1202.14 152.44 1203.14 131.94C1204.14 111.44 1183.64 95.4404 1218.14 85.94C1252.64 76.4396 1230.14 103.44 1230.14 131.94Z" fill="white"/>
  <path d="M1230 67C1230 73.0751 1231.52 84.5 1226 84.5C1220.48 84.5 1214 78.0751 1214 72C1214 65.9249 1200 61 1220 56C1225.52 56 1230 60.9249 1230 67Z" fill="#9B33AB"/>
  <path d="M1217.5 79.9996C1215 76.4993 1229.5 69.9992 1230 75.9994C1230.5 81.9997 1233 80.9994 1236 84.4996C1239 87.9999 1236 94.9994 1237 99.4996C1238 104 1246.01 100.676 1243.75 107.838C1241.5 115 1241 106 1237 112C1233 117.999 1233.5 110.5 1230.5 109.5C1227.5 108.499 1227.5 106.5 1225.5 103C1223.5 99.4996 1223.5 96.9999 1226.82 94.4996C1230.15 91.9994 1220.5 90.4999 1219 86.9996C1217.5 83.4994 1220 83.4999 1217.5 79.9996Z" fill="#9B33AB"/>
</g>
<g class="e17">
  <ellipse cx="927" cy="414" rx="42" ry="18" fill="#267295"/>
  <path d="M896 340H914L911.5 407H901L896 340Z" fill="#9B33AB"/>
  <path d="M900.118 406.387L901.084 406.001C903.584 407.158 910.084 406.387 911.798 401.72L916.105 399.999C920.251 398.343 924.954 400.361 926.61 404.506C927.209 406.005 926.558 407.717 925.111 408.433C912.569 414.639 907.772 416.269 904.579 415.613C904.269 415.55 903.97 415.432 903.685 415.295C897.391 412.268 897.095 410.235 900.118 406.387Z" fill="#054665"/>
  <path d="M914 341H932L929.5 417H919L914 341Z" fill="#9B33AB"/>
  <path d="M937.5 315.5C937.5 337.5 946.5 360.5 912.5 351C878.5 341.5 889.5 325 889.5 304C889.5 283 864.5 240.5 917.5 252C970.5 263.5 937.5 293.499 937.5 315.5Z" fill="white"/>
  <ellipse cx="923.458" cy="227.202" rx="18" ry="24.5934" transform="rotate(11.2665 923.458 227.202)" fill="#F9D2FF"/>
  <path d="M951.5 302.1C957 324.099 976.319 330.115 970.433 333.162C964.548 336.209 950.156 330.219 940 310.601C922.5 296 925.5 265.1 938.5 265.1C951.5 265.101 946 280.101 951.5 302.1Z" fill="white"/>
  <path d="M918.033 416.728L919 416.342C921.5 417.499 928 416.728 929.714 412.061L934.021 410.34C938.166 408.684 942.869 410.702 944.526 414.847C945.125 416.347 944.474 418.058 943.026 418.774C930.485 424.98 925.687 426.61 922.494 425.954C922.184 425.891 921.886 425.773 921.601 425.636C915.306 422.609 915.01 420.576 918.033 416.728Z" fill="#054665"/>
  <path d="M943 220C919 229.5 930.993 242.5 920.5 242.5C910.007 242.5 901.5 242.5 905 220C905 210.059 913.507 202 924 202C934.493 202 967 210.5 943 220Z" fill="#704BCA"/>
</g>
</svg>
