<svg viewBox="0 0 1449 1056" fill="none" xmlns="http://www.w3.org/2000/svg"><g class="e1"><path d="M0 354.957l245.5 96.446V901L0 804.554V354.957z" fill="url(#a)" fill-opacity=".5"/><path d="M491 355.394L245.5 451.84V904.5L491 808.054v-452.66z" fill="url(#b)" fill-opacity=".5"/><path d="M245.5 260L491 355.472l-245.5 96.382L0 355.472 245.5 260z" fill="#400EBC" fill-opacity=".5"/><defs><linearGradient id="a" x1="122.75" y1="354.957" x2="-119.113" y2="1285.65" gradientUnits="userSpaceOnUse"><stop stop-color="#4815C8"/><stop offset=".391" stop-color="#1B0DA3" stop-opacity="0"/></linearGradient><linearGradient id="b" x1="368.25" y1="313.923" x2="442.5" y2="771" gradientUnits="userSpaceOnUse"><stop stop-color="#4616BA"/><stop offset="1" stop-color="#2C0A80" stop-opacity="0"/></linearGradient></defs></g><g class="e2"><path d="M406 206.957l245.5 96.446V753L406 656.554V206.957z" fill="url(#c)" fill-opacity=".5"/><path d="M897 207.394L651.5 303.84V756.5L897 660.054v-452.66z" fill="url(#d)" fill-opacity=".5"/><path d="M651.5 112L897 207.472l-245.5 96.382L406 207.472 651.5 112z" fill="#400EBC" fill-opacity=".5"/><defs><linearGradient id="c" x1="528.75" y1="206.957" x2="286.887" y2="1137.65" gradientUnits="userSpaceOnUse"><stop stop-color="#4815C8"/><stop offset=".391" stop-color="#1B0DA3" stop-opacity="0"/></linearGradient><linearGradient id="d" x1="774.25" y1="165.923" x2="848.5" y2="623" gradientUnits="userSpaceOnUse"><stop stop-color="#4616BA"/><stop offset="1" stop-color="#2C0A80" stop-opacity="0"/></linearGradient></defs></g><g class="e3"><path d="M212 994.678l206 80.932v377.26l-206-80.93V994.678z" fill="url(#e)" fill-opacity=".5"/><path d="M624 995.045l-206 80.925v379.83l206-80.93V995.045z" fill="url(#f)" fill-opacity=".5"/><path d="M418 915l206 80.111-206 80.879-206-80.879L418 915z" fill="#400EBC" fill-opacity=".5"/><defs><linearGradient id="e" x1="315" y1="994.678" x2="112.052" y2="1775.62" gradientUnits="userSpaceOnUse"><stop stop-color="#4815C8"/><stop offset=".391" stop-color="#1B0DA3" stop-opacity="0"/></linearGradient><linearGradient id="f" x1="521" y1="960.247" x2="583.303" y2="1343.78" gradientUnits="userSpaceOnUse"><stop stop-color="#4616BA"/><stop offset="1" stop-color="#2C0A80" stop-opacity="0"/></linearGradient></defs></g><g class="e5"><path d="M1007 238.227l179.5 70.517v623.319L1007 861.545V238.227z" fill="url(#g)"/><path d="M1366 238.227l-179.5 70.517v623.319l179.5-70.518V238.227z" fill="url(#h)"/><path d="M1007 238.227L1186.5 171l179.5 67.227-179.5 70.818-179.5-70.818z" fill="#B146C2"/><defs><linearGradient id="g" x1="1096.75" y1="238.227" x2="884.295" y2="878.397" gradientUnits="userSpaceOnUse"><stop offset=".005" stop-color="#D959BD"/><stop offset=".331" stop-color="#A159D9"/><stop offset=".809" stop-color="#270970"/></linearGradient><linearGradient id="h" x1="1276.25" y1="238.227" x2="1475.38" y2="787.945" gradientUnits="userSpaceOnUse"><stop stop-color="#CB5DDC"/><stop offset=".337" stop-color="#882798"/><stop offset=".924" stop-color="#280A71"/></linearGradient></defs></g><g class="e9"><path d="M1120 536.153l87.5 34.375v303.846l-87.5-34.375V536.153z" fill="url(#i)"/><path d="M1295 536.153l-87.5 34.375v303.846l87.5-34.375V536.153z" fill="url(#j)" fill-opacity=".9"/><path d="M1207.5 502.309l87.5 34.028-87.5 34.351-87.5-34.351 87.5-34.028z" fill="#2D6DA0" fill-opacity=".9"/><defs><linearGradient id="i" x1="1163.75" y1="536.153" x2="1077.55" y2="867.864" gradientUnits="userSpaceOnUse"><stop stop-color="#218297"/><stop offset=".818" stop-color="#270970"/></linearGradient><linearGradient id="j" x1="1251.25" y1="536.153" x2="1348.47" y2="874.67" gradientUnits="userSpaceOnUse"><stop stop-color="#1C688C"/><stop offset=".755" stop-color="#270970"/></linearGradient></defs></g><g class="e14"><path d="M1078.5 51l28.5 12v184.5l-29-12 .5-184.5z" fill="#CBBBFF"/><path d="M1233 11.5L1107 63v184.5l126.5-51.5-.5-184.5z" fill="#BDD1DF"/><path d="M1221.52 39.985c.03-4.277-4.3-7.21-8.26-5.597l-93.52 38.08a6.002 6.002 0 00-3.74 5.557v75.035c0 4.266 4.33 7.169 8.27 5.553l93.03-38.088a6.01 6.01 0 003.73-5.513l.49-75.027z" fill="#8FB2CB"/><path d="M1156.08 72L1116 88.425v7.01l40.08-16.5V72zM1170 76.936l-54 22v7.01l54-22.074v-6.936zM1161 90.167l-45 18.333v7.011l45-18.408v-6.936zM1170 101.564l-54 22v7.011l54-22.075v-6.936zM1194.5 91.571l-23 9.365v7.01l23-9.44v-6.935zM1212.5 84.157l-16.5 6.697v7.01l16.5-6.771v-6.936zM1138 123.878l-16.5 6.697v7.01l16.5-6.772v-6.935zM1162.5 113.5l-23.5 10v7.011l23.5-10.075V113.5zM1205.5 95.52l-42 17.573v7.011l42-17.648v-6.935z" fill="#4E2E9C"/><path d="M1132 155.5l30 12.5v82.662l-30.29-12.499.29-82.663z" fill="#CBBBFF"/><path d="M1138.18 188.977c0-.71.72-1.192 1.38-.922l13.34 5.485a4.993 4.993 0 013.1 4.625v48.959l-18-7.297.18-50.85z" fill="#8FB2CB" stroke="#3414AE" stroke-width="2"/><path d="M1078.5 51l124-51 30.5 11.5L1107 63l-28.5-12z" fill="#D8D8D8"/><path d="M1234 138.5l-72 29.5v82.741l72.28-31-.28-81.241z" fill="#BDD1DF"/><path d="M1221.81 158L1174 177.449V232l48-20.438-.19-53.562z" fill="#8FB2CB"/><path d="M1132 155.5l69.78-29.143 32.43 12.214L1162 168l-30-12.5z" fill="#D8D8D8"/><path d="M1148.31 155.834c-1.62-.69-1.62-2.987 0-3.679l27.71-11.836a2.012 2.012 0 011.51-.027l9.81 3.781c1.69.649 1.72 3.019.06 3.713l-28.53 11.89a2.02 2.02 0 01-1.56-.006l-9-3.836zM1183.29 140.823c-1.62-.689-1.63-2.978-.01-3.676l16.74-7.238a1.994 1.994 0 011.51-.031l9.81 3.78c1.69.648 1.72 3.018.06 3.712l-17.53 7.306c-.5.207-1.06.205-1.56-.007l-9.02-3.846z" fill="#3414AE"/></g><g class="e7"><path d="M1386 573.309l-87.5 34.375V995.34l87.5-34.375V573.309z" fill="url(#k)" fill-opacity=".9"/><path d="M1211 573.153l87.5 34.375v385.656l-87.5-34.375V573.153z" fill="url(#l)"/><path d="M1298.5 539.309l87.5 34.028-87.5 34.351-87.5-34.351 87.5-34.028z" fill="#3932A6" fill-opacity=".9"/><defs><linearGradient id="k" x1="1342.25" y1="573.309" x2="1439.47" y2="911.826" gradientUnits="userSpaceOnUse"><stop stop-color="#3C38AD"/><stop offset=".755" stop-color="#270970"/></linearGradient><linearGradient id="l" x1="1254.75" y1="573.153" x2="1168.55" y2="904.864" gradientUnits="userSpaceOnUse"><stop stop-color="#4348C2"/><stop offset=".818" stop-color="#270970"/></linearGradient></defs></g><g class="e16" stroke="#2BCDBA" stroke-width="2"><path d="M1100.07 135.068c-.02 2.625-.62 4.949-1.53 6.579-.93 1.665-2.05 2.397-3.03 2.39-.99-.007-2.09-.753-3-2.431-.89-1.642-1.46-3.974-1.44-6.599.02-2.626.62-4.95 1.53-6.579.93-1.666 2.04-2.397 3.03-2.391.98.007 2.09.754 3 2.432.88 1.641 1.46 3.973 1.44 6.599zM1353.07 612.068c-.02 2.625-.62 4.949-1.53 6.579-.93 1.665-2.05 2.397-3.03 2.39-.99-.007-2.09-.753-3-2.431-.89-1.642-1.46-3.974-1.44-6.599.02-2.626.62-4.95 1.53-6.579.93-1.666 2.04-2.397 3.03-2.391.98.007 2.09.754 3 2.432.88 1.641 1.46 3.973 1.44 6.599z" fill="#3974A7"/><path d="M1095.42 135.722l-21.2 9.969a3 3 0 00-1.72 2.714V305l51.5 19 206.52 79.771a7 7 0 014.48 6.529v75.2l22 71 71.11 27.313c1.64.632 1.72 2.932.13 3.679l-58.44 27.3a15.019 15.019 0 01-11.77.399l-9.53-3.691" stroke-linecap="round"/></g><g class="e11"><path d="M1207.5 429l60-24v129.5l-60 24.5V429z" fill="url(#m)"/><path d="M1236.5 511h7v33.5l-7 2.653V511z" fill="#455AD6"/><path d="M1216.5 446.529c0-2.459 1.5-4.67 3.79-5.577l37.47-14.866a2 2 0 012.74 1.859v87.193a5.997 5.997 0 01-3.75 5.562l-37.5 15.186c-1.31.533-2.75-.435-2.75-1.854v-87.503z" fill="#0D2072"/><path d="M1216.5 448.5l19.5-7.736v2.955l-19.5 8.099V448.5zM1216.5 453.737l29-11.737v2.954l-29 12.1v-3.317zM1216.5 459.182l29-11.736v2.954l-29 12.1v-3.318zM1216.5 464.737L1251 450.4v2.954l-34.5 14.7v-3.317zM1216.5 470l18.05-7.5v2.954l-18.05 7.864V470zM1216.5 475.737l29-11.737v2.954l-29 12.1v-3.317zM1216.5 481.182l29-11.736v2.954l-29 12.1v-3.318zM1216.5 486.737L1251 472.4v2.954l-34.5 14.7v-3.317zM1216.5 492l18.05-7.5v2.954l-18.05 7.864V492z" fill="#2BCDBA"/><path d="M1207.5 429l-60-24v129.5l60 24.5V429z" fill="url(#n)"/><path d="M1201.5 382.272a14.669 14.669 0 0111.03-.068l54.34 21.652c1.47.585 1.46 2.667-.02 3.232l-54.61 20.907a14.695 14.695 0 01-10.48.009l-53.67-20.447c-1.47-.559-1.5-2.626-.05-3.225l53.46-22.06z" fill="#455AD6"/><path d="M1210.18 410.893c-1.76.64-3.69.639-5.45-.003l-29.8-10.89v5.614c0 1.053.66 1.993 1.65 2.353l29.03 10.583c1.19.433 2.49.433 3.68.002l29.15-10.586a2.506 2.506 0 001.65-2.354V400l-29.91 10.893z" fill="url(#o)"/><path d="M1204.61 387.633a7.948 7.948 0 015.79 0l29.26 11.451c.81.317.79 1.468-.03 1.759l-29.46 10.499a7.958 7.958 0 01-5.34 0l-29.46-10.499c-.82-.291-.84-1.442-.03-1.759l29.27-11.451z" fill="#243BBE"/><ellipse cx="1207" cy="399" rx="13.5" ry="5" fill="#2BCDBA"/><path d="M1190.39 354.99l5.41.117 2.1 4.624-5.41-.117-2.1-4.624z" fill="#6742C2"/><path d="M1199.27 350.956l-3.47 4.151 2.1 4.624 3.47-4.151-2.1-4.624z" fill="#381787"/><path d="M1193.94 351.017l5.33-.061-3.47 4.151-5.41-.117 3.55-3.973z" fill="#7F59D9"/><path d="M1217.66 357.197l.77 5.357-4.21 2.829-.77-5.357 4.21-2.829z" fill="#6742C2"/><path d="M1223.1 365.299l-4.67-2.745-4.21 2.829 4.66 2.745 4.22-2.829z" fill="#381787"/><path d="M1222.17 360.051l.93 5.248-4.67-2.745-.77-5.357 4.51 2.854z" fill="#7F59D9"/><path d="M1204.75 377.519l1.79 5.107-3.59 3.59-1.79-5.106 3.59-3.591z" fill="#6742C2"/><path d="M1211.65 384.418l-5.11-1.792-3.59 3.591 5.11 1.792 3.59-3.591z" fill="#381787"/><path d="M1209.72 379.449l1.93 4.969-5.11-1.792-1.79-5.107 4.97 1.93z" fill="#7F59D9"/><path d="M1178.5 327h55.5l-13.5 72h-27l-15-72z" fill="url(#p)"/><path fill="#455AD6" d="M1157.5 410h3v11h-3z"/><path d="M1161.5 423.031a3 3 0 00-1.89-2.785l-2.24-.897a.998.998 0 00-1.37.928v102.767c0 1.189.7 2.265 1.79 2.745l2.31 1.017a.997.997 0 001.4-.915v-102.86z" fill="#2BCDBA"/><path fill="#350DAD" d="M1157.5 424h2v25h-2zM1157.5 451h2v25h-2zM1157.5 478h2v45h-2z"/><path fill="#455AD6" d="M1189.5 423h3v10h-3z"/><path d="M1194 434.231a3 3 0 00-1.89-2.785l-2.24-.897a.998.998 0 00-1.37.928v102.767c0 1.189.7 2.265 1.79 2.745l2.31 1.017a.997.997 0 001.4-.915v-102.86z" fill="#2BCDBA"/><path fill="#350DAD" d="M1190 435.2h2v25h-2zM1190 462.2h2v25h-2zM1190 489.2h2v45h-2z"/><defs><linearGradient id="m" x1="1267.5" y1="466" x2="1186" y2="462" gradientUnits="userSpaceOnUse"><stop stop-color="#3700AB"/><stop offset=".996" stop-color="#2B67BA"/></linearGradient><linearGradient id="n" x1="1185.5" y1="477.5" x2="1104" y2="485" gradientUnits="userSpaceOnUse"><stop stop-color="#350DAD"/><stop offset=".62" stop-color="#2D54B7"/></linearGradient><linearGradient id="o" x1="1220.59" y1="414.941" x2="1168.33" y2="398.437" gradientUnits="userSpaceOnUse"><stop stop-color="#350CAD"/><stop offset="1" stop-color="#2F47B5"/></linearGradient><linearGradient id="p" x1="1206.25" y1="327" x2="1206.25" y2="399" gradientUnits="userSpaceOnUse"><stop stop-color="#2BCDBA" stop-opacity="0"/><stop offset="1" stop-color="#2BCDBA" stop-opacity=".78"/></linearGradient></defs></g><g class="e6"><path d="M837 405.025l135 53.036v468.791l-135-53.036V405.025z" fill="url(#q)"/><path d="M1107 405.025l-135 53.036v468.791l135-53.036V405.025z" fill="url(#r)" fill-opacity=".9"/><path d="M972 352.809l135 52.5-135 53-135-53 135-52.5z" fill="#3B98B7" fill-opacity=".9"/><defs><linearGradient id="q" x1="904.5" y1="405.025" x2="771.5" y2="916.809" gradientUnits="userSpaceOnUse"><stop stop-color="#43ACC2"/><stop offset=".818" stop-color="#270970"/></linearGradient><linearGradient id="r" x1="1039.5" y1="405.025" x2="1189.5" y2="927.309" gradientUnits="userSpaceOnUse"><stop stop-color="#3E8EB4"/><stop offset=".755" stop-color="#270970"/></linearGradient></defs></g><g class="e8"><path d="M1029 573.153l87.5 34.375v337.656l-87.5-34.375V573.153z" fill="url(#s)"/><path d="M1204 573.309l-87.5 34.375v345.625l87.5-34.375V573.309z" fill="url(#t)" fill-opacity=".9"/><path d="M1116.5 539.309l87.5 34.028-87.5 34.351-87.5-34.351 87.5-34.028z" fill="#5F25A4" fill-opacity=".9"/><defs><linearGradient id="s" x1="1072.75" y1="573.153" x2="986.546" y2="904.864" gradientUnits="userSpaceOnUse"><stop stop-color="#8A44E2"/><stop offset=".818" stop-color="#270970"/></linearGradient><linearGradient id="t" x1="1160.25" y1="558.528" x2="1257.47" y2="897.045" gradientUnits="userSpaceOnUse"><stop stop-color="#712EB5"/><stop offset=".838" stop-color="#270970"/></linearGradient></defs></g><g class="e13"><path d="M902 319l104 49.001v63.5L902 386.5V319z" fill="#BDD1DF"/><path d="M916 338.725c0-2.199 2.286-3.651 4.276-2.716l70 32.897a3 3 0 011.724 2.715v39.817c0 2.157-2.208 3.609-4.189 2.754l-70-30.211a3 3 0 01-1.811-2.754v-42.502z" fill="#E580FF"/><path d="M941 306.5l108 47.501-43 14L902 319l39-12.5z" fill="#D8D8D8"/><path d="M941 199.5l108 42.501v112L941 306.5v-107z" fill="#BDD1DF"/><path d="M948.5 220.344c0-3.526 3.552-5.944 6.833-4.651l80.497 31.72a5.004 5.004 0 013.17 4.652v80.279c0 3.608-3.71 6.029-7.01 4.578l-38.24-16.791-42.26-18.557a4.999 4.999 0 01-2.99-4.578v-76.652z" fill="#E680FF"/><path d="M949 221l56 22.183V250l-56-22.219V221zM949 230.219l61.5 24.281v6.817L949 237v-6.781zM949 239.219l26 10.244v6.817L949 246v-6.781zM949 247.719l56 22.183v6.817L949 254.5v-6.781zM998.27 299.707l32.56 13.521-.06 3.99-32.565-13.542.065-3.969zM998.181 305.103l35.759 14.802-.06 3.99-35.764-14.823.065-3.969zM998.095 310.371l15.115 6.245-.06 3.99-15.12-6.267.065-3.968zM998.013 315.345l32.567 13.521-.07 3.991-32.562-13.543.065-3.969z" fill="#C726B9"/><path d="M981.5 185l106.5 42.5-39 14.5-108-42.5 40.5-14.5z" fill="#D8D8D8"/><path fill-rule="evenodd" clip-rule="evenodd" d="M1006 368.001v63.5l81-32 1-172.001-39 14.501v112l-43 14z" fill="#CBBBFF"/><path d="M972.702 336.959a3.573 3.573 0 01-2.447-.001l-13.387-4.893v2.523c0 .472.296.895.74 1.057l13.044 4.754a2.414 2.414 0 001.653.001l13.097-4.756c.445-.162.741-.584.741-1.057v-2.522l-13.441 4.894z" fill="url(#u)"/><path d="M992.702 345.959a3.573 3.573 0 01-2.447-.001l-13.387-4.893v2.523c0 .472.296.895.74 1.057l13.044 4.754a2.414 2.414 0 001.653.001l13.095-4.756c.45-.162.74-.584.74-1.057v-2.522l-13.438 4.894z" fill="url(#v)"/><path d="M1013.7 355.959c-.79.288-1.65.287-2.44-.001l-13.392-4.893v2.523c0 .472.296.895.74 1.057l13.042 4.754c.54.195 1.12.195 1.65.001l13.1-4.756c.45-.162.74-.584.74-1.057v-2.522l-13.44 4.894z" fill="url(#w)"/><path d="M951.702 328.959a3.573 3.573 0 01-2.447-.001l-13.387-4.893v2.523c0 .472.296.895.74 1.057l13.044 4.754a2.414 2.414 0 001.653.001l13.097-4.756c.445-.162.741-.584.741-1.057v-2.522l-13.441 4.894z" fill="url(#x)"/><path d="M970.2 326.509a3.57 3.57 0 012.601 0l13.148 5.145a.422.422 0 01-.012.79l-13.238 4.717a3.573 3.573 0 01-2.397 0l-13.239-4.717a.422.422 0 01-.012-.79l13.149-5.145zM990.2 335.509a3.57 3.57 0 012.601 0l13.149 5.145c.36.142.35.659-.01.79l-13.241 4.717a3.573 3.573 0 01-2.397 0l-13.239-4.717a.422.422 0 01-.012-.79l13.149-5.145zM1011.2 345.509a3.568 3.568 0 012.6 0l13.15 5.145c.36.142.35.659-.01.79l-13.24 4.717c-.78.276-1.62.276-2.4 0l-13.237-4.717a.422.422 0 01-.012-.79l13.149-5.145zM949.2 318.509a3.57 3.57 0 012.601 0l13.148 5.145a.422.422 0 01-.012.79l-13.238 4.717a3.573 3.573 0 01-2.397 0l-13.239-4.717a.422.422 0 01-.012-.79l13.149-5.145z" fill="#243BBE"/><path d="M1063 271.329c0-1.262.79-2.389 1.97-2.82l7-2.545c1.96-.712 4.03.737 4.03 2.819v98.616c0 1.261-.79 2.388-1.97 2.819l-7 2.546c-1.96.711-4.03-.738-4.03-2.82v-98.615z" fill="#3974A7"/><path d="M1066.5 294.644a2.5 2.5 0 011.65-2.35l1-.363a2.498 2.498 0 013.35 2.35v50.075a2.5 2.5 0 01-1.65 2.35l-1 .363a2.498 2.498 0 01-3.35-2.35v-50.075z" fill="#CBBBFF" stroke="#3414AE"/><defs><linearGradient id="u" x1="977.383" y1="338.778" x2="953.902" y2="331.363" gradientUnits="userSpaceOnUse"><stop stop-color="#350CAD"/><stop offset="1" stop-color="#2F47B5"/></linearGradient><linearGradient id="v" x1="997.383" y1="347.778" x2="973.902" y2="340.363" gradientUnits="userSpaceOnUse"><stop stop-color="#350CAD"/><stop offset="1" stop-color="#2F47B5"/></linearGradient><linearGradient id="w" x1="1018.38" y1="357.778" x2="994.902" y2="350.363" gradientUnits="userSpaceOnUse"><stop stop-color="#350CAD"/><stop offset="1" stop-color="#2F47B5"/></linearGradient><linearGradient id="x" x1="956.383" y1="330.778" x2="932.902" y2="323.363" gradientUnits="userSpaceOnUse"><stop stop-color="#350CAD"/><stop offset="1" stop-color="#2F47B5"/></linearGradient></defs></g><g class="e10"><path d="M1117 465l60-24v129.5l-60 24.5V465z" fill="url(#y)"/><path d="M1146 547h7v33.5l-7 2.653V547z" fill="#455AD6"/><path d="M1126 482.529c0-2.459 1.5-4.67 3.79-5.577l37.47-14.866a2 2 0 012.74 1.859v87.194a5.995 5.995 0 01-3.75 5.561l-37.5 15.186c-1.31.533-2.75-.435-2.75-1.853v-87.504z" fill="#0D2072"/><path d="M1126 484.501l19.5-7.736v2.954l-19.5 8.099v-3.317zM1126 489.737L1155 478v2.954l-29 12.101v-3.318zM1126 495.182l29-11.736v2.954l-29 12.1v-3.318zM1126 500.737l34.5-14.337v2.954l-34.5 14.701v-3.318zM1126 506l18.05-7.5v2.954l-18.05 7.864V506zM1126 511.737L1155 500v2.954l-29 12.101v-3.318zM1126 517.182l29-11.736v2.954l-29 12.1v-3.318zM1126 522.737l34.5-14.337v2.954l-34.5 14.701v-3.318zM1126 528l18.05-7.5v2.954l-18.05 7.864V528z" fill="#2BCDBA"/><path d="M1117 465l-60-24v129.5l60 24.5V465z" fill="url(#z)"/><path d="M1111 418.272a14.669 14.669 0 0111.03-.068l54.34 21.652c1.47.585 1.46 2.668-.02 3.232l-54.61 20.908a14.69 14.69 0 01-10.48.008l-53.67-20.447c-1.47-.559-1.5-2.626-.05-3.225l53.46-22.06z" fill="#455AD6"/><path d="M1119.68 446.893a7.958 7.958 0 01-5.45-.003l-29.8-10.89v5.615c0 1.052.66 1.992 1.65 2.352l29.03 10.583a5.38 5.38 0 003.68.002l29.15-10.586c.99-.36 1.65-1.3 1.65-2.354V436l-29.91 10.893z" fill="url(#A)"/><path d="M1114.11 423.633a7.948 7.948 0 015.79 0l29.26 11.452c.81.316.79 1.467-.03 1.759l-29.46 10.498a7.958 7.958 0 01-5.34 0l-29.46-10.498c-.82-.292-.84-1.443-.03-1.759l29.27-11.452z" fill="#243BBE"/><ellipse cx="1116.5" cy="435" rx="13.5" ry="5" fill="#2BCDBA"/><path d="M1099.89 390.99l5.41.117 2.1 4.624-5.41-.117-2.1-4.624z" fill="#6742C2"/><path d="M1108.77 386.957l-3.47 4.151 2.1 4.623 3.47-4.151-2.1-4.623z" fill="#381787"/><path d="M1103.44 387.017l5.33-.061-3.47 4.151-5.41-.117 3.55-3.973z" fill="#7F59D9"/><path d="M1127.16 393.197l.77 5.357-4.21 2.829-.77-5.357 4.21-2.829z" fill="#6742C2"/><path d="M1132.6 401.299l-4.67-2.745-4.21 2.829 4.66 2.745 4.22-2.829z" fill="#381787"/><path d="M1131.67 396.051l.93 5.248-4.67-2.745-.77-5.357 4.51 2.854z" fill="#7F59D9"/><path d="M1114.25 413.519l1.79 5.107-3.59 3.591-1.79-5.107 3.59-3.591z" fill="#6742C2"/><path d="M1121.15 420.418l-5.11-1.792-3.59 3.591 5.11 1.792 3.59-3.591z" fill="#381787"/><path d="M1119.22 415.45l1.93 4.968-5.11-1.792-1.79-5.107 4.97 1.931z" fill="#7F59D9"/><path d="M1088 363h55.5l-13.5 72h-27l-15-72z" fill="url(#B)"/><path fill="#455AD6" d="M1067 446h3v11h-3z"/><path d="M1071 459.031c0-1.226-.75-2.329-1.89-2.785l-2.24-.897a.998.998 0 00-1.37.928v102.767c0 1.189.7 2.266 1.79 2.745l2.31 1.017a.997.997 0 001.4-.915v-102.86z" fill="#2BCDBA"/><path fill="#350DAD" d="M1067 460h2v25h-2zM1067 487h2v25h-2zM1067 514h2v45h-2z"/><path fill="#455AD6" d="M1099 459h3v10h-3z"/><path d="M1103.5 470.231c0-1.226-.75-2.329-1.89-2.785l-2.24-.897a.998.998 0 00-1.37.928v102.767c0 1.189.7 2.266 1.79 2.745l2.31 1.017a.997.997 0 001.4-.915v-102.86z" fill="#2BCDBA"/><path fill="#350DAD" d="M1099.5 471.2h2v25h-2zM1099.5 498.2h2v25h-2zM1099.5 525.2h2v45h-2z"/><defs><linearGradient id="y" x1="1177" y1="502" x2="1095.5" y2="498" gradientUnits="userSpaceOnUse"><stop stop-color="#3700AB"/><stop offset=".996" stop-color="#2B67BA"/></linearGradient><linearGradient id="z" x1="1095" y1="513.5" x2="1013.5" y2="521" gradientUnits="userSpaceOnUse"><stop stop-color="#350DAD"/><stop offset=".62" stop-color="#2D54B7"/></linearGradient><linearGradient id="A" x1="1130.09" y1="450.941" x2="1077.83" y2="434.437" gradientUnits="userSpaceOnUse"><stop stop-color="#350CAD"/><stop offset="1" stop-color="#2F47B5"/></linearGradient><linearGradient id="B" x1="1115.75" y1="363" x2="1115.75" y2="435" gradientUnits="userSpaceOnUse"><stop stop-color="#2BCDBA" stop-opacity="0"/><stop offset="1" stop-color="#2BCDBA" stop-opacity=".78"/></linearGradient></defs></g><g class="e4"><path d="M1063 777.094l114 44.786v439.92l-114-44.79V777.094z" fill="url(#C)"/><path d="M1291 777.297l-114 44.786v450.297l114-44.78V777.297z" fill="url(#D)" fill-opacity=".9"/><path d="M1177 733l114 44.333-114 44.756-114-44.756L1177 733z" fill="#5F25A4" fill-opacity=".9"/><defs><linearGradient id="C" x1="1120" y1="777.094" x2="1007.69" y2="1209.27" gradientUnits="userSpaceOnUse"><stop stop-color="#8A44E2"/><stop offset=".818" stop-color="#270970"/></linearGradient><linearGradient id="D" x1="1234" y1="758.04" x2="1360.67" y2="1199.08" gradientUnits="userSpaceOnUse"><stop stop-color="#712EB5"/><stop offset=".838" stop-color="#270970"/></linearGradient></defs></g><g class="e15" stroke="#FF00E9"><path d="M1022.35 400.351c-.09 2.624-.76 4.929-1.72 6.531-.98 1.638-2.11 2.337-3.1 2.302-.98-.035-2.06-.813-2.92-2.517-.84-1.666-1.35-4.014-1.25-6.638.09-2.624.76-4.929 1.72-6.532.98-1.637 2.11-2.337 3.09-2.301.99.035 2.07.813 2.93 2.516.84 1.667 1.34 4.014 1.25 6.639z" fill="#3974A7" stroke-width="2"/><path d="M1067.35 598.206c-.01 2.626-.6 4.952-1.51 6.584-.92 1.668-2.03 2.403-3.02 2.4-.98-.004-2.09-.747-3-2.422-.9-1.639-1.48-3.969-1.47-6.594.01-2.626.61-4.952 1.51-6.584.93-1.668 2.04-2.404 3.03-2.4.98.004 2.09.747 3 2.422.89 1.639 1.47 3.968 1.46 6.594z" fill="#4E1697" stroke-width="2"/><path d="M1018.48 399.871l20.27 5.943a8 8 0 015.75 7.677v117.043a8.99 8.99 0 01-5.5 8.289l-13.8 5.837a11.006 11.006 0 00-6.72 10.132v54.313c0 2.826 2.85 4.761 5.48 3.717l38.54-15.322" stroke-width="3" stroke-linecap="round"/></g><g class="e12"><path d="M1298.5 467l60-24v129.5l-60 24.5V467z" fill="url(#E)"/><path d="M1327.5 549h7v33.5l-7 2.653V549z" fill="#455AD6"/><path d="M1307.5 484.529c0-2.459 1.5-4.67 3.79-5.577l37.47-14.866a2 2 0 012.74 1.859v87.193a5.997 5.997 0 01-3.75 5.562l-37.5 15.186c-1.31.533-2.75-.435-2.75-1.854v-87.503z" fill="#0D2072"/><path d="M1307.5 486.5l19.5-7.736v2.955l-19.5 8.099V486.5zM1307.5 491.737l29-11.737v2.954l-29 12.1v-3.317zM1307.5 497.182l29-11.736v2.954l-29 12.1v-3.318zM1307.5 502.737L1342 488.4v2.954l-34.5 14.7v-3.317zM1307.5 508l18.05-7.5v2.954l-18.05 7.864V508zM1307.5 513.737l29-11.737v2.954l-29 12.1v-3.317zM1307.5 519.182l29-11.736v2.954l-29 12.1v-3.318zM1307.5 524.737L1342 510.4v2.954l-34.5 14.7v-3.317zM1307.5 530l18.05-7.5v2.954l-18.05 7.864V530z" fill="#2BCDBA"/><path d="M1298.5 467l-60-24v129.5l60 24.5V467z" fill="url(#F)"/><path d="M1292.5 420.272a14.669 14.669 0 0111.03-.068l54.34 21.652c1.47.585 1.46 2.667-.02 3.232l-54.61 20.907a14.695 14.695 0 01-10.48.009l-53.67-20.447c-1.47-.559-1.5-2.626-.05-3.225l53.46-22.06z" fill="#455AD6"/><path d="M1301.18 448.893c-1.76.64-3.69.639-5.45-.003l-29.8-10.89v5.614c0 1.053.66 1.993 1.65 2.353l29.03 10.583c1.19.433 2.49.433 3.68.002l29.15-10.586a2.506 2.506 0 001.65-2.354V438l-29.91 10.893z" fill="url(#G)"/><path d="M1295.61 425.633a7.948 7.948 0 015.79 0l29.26 11.451c.81.317.79 1.468-.03 1.759l-29.46 10.499a7.958 7.958 0 01-5.34 0l-29.46-10.499c-.82-.291-.84-1.442-.03-1.759l29.27-11.451z" fill="#243BBE"/><ellipse cx="1298" cy="437" rx="13.5" ry="5" fill="#2BCDBA"/><path d="M1281.39 392.99l5.41.117 2.1 4.624-5.41-.117-2.1-4.624z" fill="#6742C2"/><path d="M1290.27 388.956l-3.47 4.151 2.1 4.624 3.47-4.151-2.1-4.624z" fill="#381787"/><path d="M1284.94 389.017l5.33-.061-3.47 4.151-5.41-.117 3.55-3.973z" fill="#7F59D9"/><path d="M1308.66 395.197l.77 5.357-4.21 2.829-.77-5.357 4.21-2.829z" fill="#6742C2"/><path d="M1314.1 403.299l-4.67-2.745-4.21 2.829 4.66 2.745 4.22-2.829z" fill="#381787"/><path d="M1313.17 398.051l.93 5.248-4.67-2.745-.77-5.357 4.51 2.854z" fill="#7F59D9"/><path d="M1295.75 415.519l1.79 5.107-3.59 3.59-1.79-5.106 3.59-3.591z" fill="#6742C2"/><path d="M1302.65 422.418l-5.11-1.792-3.59 3.591 5.11 1.792 3.59-3.591z" fill="#381787"/><path d="M1300.72 417.449l1.93 4.969-5.11-1.792-1.79-5.107 4.97 1.93z" fill="#7F59D9"/><path d="M1269.5 365h55.5l-13.5 72h-27l-15-72z" fill="url(#H)"/><path fill="#455AD6" d="M1248.5 448h3v11h-3z"/><path d="M1252.5 461.031a3 3 0 00-1.89-2.785l-2.24-.897a.998.998 0 00-1.37.928v102.767c0 1.189.7 2.265 1.79 2.745l2.31 1.017a.997.997 0 001.4-.915v-102.86z" fill="#2BCDBA"/><path fill="#350DAD" d="M1248.5 462h2v25h-2zM1248.5 489h2v25h-2zM1248.5 516h2v45h-2z"/><path fill="#455AD6" d="M1280.5 461h3v10h-3z"/><path d="M1285 472.231a3 3 0 00-1.89-2.785l-2.24-.897a.998.998 0 00-1.37.928v102.767c0 1.189.7 2.265 1.79 2.745l2.31 1.017a.997.997 0 001.4-.915v-102.86z" fill="#2BCDBA"/><path fill="#350DAD" d="M1281 473.2h2v25h-2zM1281 500.2h2v25h-2zM1281 527.2h2v45h-2z"/><defs><linearGradient id="E" x1="1358.5" y1="504" x2="1277" y2="500" gradientUnits="userSpaceOnUse"><stop stop-color="#3700AB"/><stop offset=".996" stop-color="#2B67BA"/></linearGradient><linearGradient id="F" x1="1276.5" y1="515.5" x2="1195" y2="523" gradientUnits="userSpaceOnUse"><stop stop-color="#350DAD"/><stop offset=".62" stop-color="#2D54B7"/></linearGradient><linearGradient id="G" x1="1311.59" y1="452.941" x2="1259.33" y2="436.437" gradientUnits="userSpaceOnUse"><stop stop-color="#350CAD"/><stop offset="1" stop-color="#2F47B5"/></linearGradient><linearGradient id="H" x1="1297.25" y1="365" x2="1297.25" y2="437" gradientUnits="userSpaceOnUse"><stop stop-color="#2BCDBA" stop-opacity="0"/><stop offset="1" stop-color="#2BCDBA" stop-opacity=".78"/></linearGradient></defs></g><g class="e18"><ellipse cx="1218" cy="258" rx="42" ry="18" fill="#9B33AB"/><path d="M1220 178h11c-.74 33.634-1.19 52.03-3 72.5h-5c-2.2-27.364-2.47-43.594-3-72.5z" fill="#F9D2FF"/><path d="M1202.5 125c-8 13.5-26 20.5-27.5 17s14.16-6.683 18.5-19.499c4.34-12.817 4.5-29 11.5-28s5.5 16.999-2.5 30.499z" fill="#fff"/><ellipse cx="1218" cy="71.5" rx="12" ry="14.5" fill="#F9D2FF"/><path d="M1212.42 250.791c1.02-3.354 4.75-5.06 7.95-3.642l2.61 1.156c1.49 1.715 3.6.61 5.66 0 0 0 .21 5.538-2.79 6.561-2.36.802-9.52-1.33-12.5-2.29a1.43 1.43 0 01-.93-1.785z" fill="#270970"/><path d="M1207 185h11c-.74 33.634-1.19 52.03-3 72.5h-5c-2.2-27.364-2.47-43.594-3-72.5z" fill="#F9D2FF"/><path d="M1199.44 257.535a5.839 5.839 0 017.95-3.642l2.61 1.156c1.49 1.715 3.6.61 5.66 0 0 0 .21 5.538-2.8 6.561-2.35.802-9.51-1.33-12.5-2.29a1.424 1.424 0 01-.92-1.785z" fill="#270970"/><path d="M1230.14 131.94c0 28.5 17.07 69-10.93 74.5s-17.07-54-16.07-74.5-19.5-36.5 15-46 12 17.5 12 46z" fill="#fff"/><path d="M1230 67c0 6.075 1.52 17.5-4 17.5s-12-6.425-12-12.5-14-11 6-16c5.52 0 10 4.925 10 11z" fill="#9B33AB"/><path d="M1217.5 80c-2.5-3.5 12-10 12.5-4s3 5 6 8.5 0 10.5 1 15 9.01 1.176 6.75 8.338C1241.5 115 1241 106 1237 112c-4 5.999-3.5-1.5-6.5-2.5-3-1.001-3-3-5-6.5s-2-6 1.32-8.5c3.33-2.5-6.32-4-7.82-7.5s1-3.5-1.5-7z" fill="#9B33AB"/></g><g class="e17"><ellipse cx="927" cy="414" rx="42" ry="18" fill="#267295"/><path d="M896 340h18l-2.5 67H901l-5-67z" fill="#9B33AB"/><path d="M900.118 406.387l.966-.386c2.5 1.157 9 .386 10.714-4.281l4.307-1.721a8.083 8.083 0 0110.505 4.507 3.1 3.1 0 01-1.499 3.927c-12.542 6.206-17.339 7.836-20.532 7.18a3.857 3.857 0 01-.894-.318c-6.294-3.027-6.59-5.06-3.567-8.908z" fill="#054665"/><path d="M914 341h18l-2.5 76H919l-5-76z" fill="#9B33AB"/><path d="M937.5 315.5c0 22 9 45-25 35.5s-23-26-23-47-25-63.5 28-52 20 41.499 20 63.5z" fill="#fff"/><ellipse cx="923.458" cy="227.202" rx="18" ry="24.593" transform="rotate(11.267 923.458 227.202)" fill="#F9D2FF"/><path d="M951.5 302.1c5.5 21.999 24.819 28.015 18.933 31.062-5.885 3.047-20.277-2.943-30.433-22.561C922.5 296 925.5 265.1 938.5 265.1c13 .001 7.5 15.001 13 37z" fill="#fff"/><path d="M918.033 416.728l.967-.386c2.5 1.157 9 .386 10.714-4.281l4.307-1.721a8.084 8.084 0 0110.505 4.507 3.098 3.098 0 01-1.5 3.927c-12.541 6.206-17.339 7.836-20.532 7.18a3.85 3.85 0 01-.893-.318c-6.295-3.027-6.591-5.06-3.568-8.908z" fill="#054665"/><path d="M943 220c-24 9.5-12.007 22.5-22.5 22.5s-19 0-15.5-22.5c0-9.941 8.507-18 19-18s43 8.5 19 18z" fill="#704BCA"/></g></svg>