<svg width="786" height="607" fill="none" xmlns="http://www.w3.org/2000/svg"><g class="e1" stroke="#4C29A0" stroke-width="2.056"><path d="M217.915 575.281H13.706"/><circle r="6.853" transform="matrix(-1 0 0 1 7.88 575.966)"/></g><g class="e2" stroke="#4C29A0" stroke-width="2.056"><path d="M283.7 525.256H79.491"/><circle r="6.853" transform="matrix(-1 0 0 1 72.98 525.942)"/></g><g class="e3" stroke="#4C29A0" stroke-width="2.056"><path d="M389.057 203.578h92.685l173.199 156.24"/><circle r="6.853" transform="matrix(-1 0 0 1 382.036 203.625)"/></g><g class="e4" stroke="#4C29A0" stroke-width="2.056"><path d="M704.796 196.671V59.618"/><circle r="6.853" transform="matrix(-1 0 0 1 704.796 52.423)"/></g><g class="e5" stroke="#4C29A0" stroke-width="2.056"><path d="M754.82 152.814V15.076"/><circle r="6.853" transform="matrix(-1 0 0 1 754.82 7.88)"/></g><g class="e8"><rect x="-.685" y=".685" width="134.997" height="134.997" rx="18.502" transform="matrix(-1 0 0 1 693.489 378.952)" fill="#4C29A0" stroke="#9C6EFF" stroke-width="1.371"/><rect width="92.511" height="92.511" rx="11.649" transform="matrix(-1 0 0 1 672.931 400.881)" fill="#270970"/><path d="M659.226 391.287a2.056 2.056 0 00-2.056-2.056h-3.426c-1.136 0-2.056.92-2.056 2.056v9.593h7.538v-9.593zM644.835 391.287c0-1.136-.92-2.056-2.056-2.056h-3.426c-1.135 0-2.056.92-2.056 2.056v9.593h7.538v-9.593zM630.445 391.287a2.056 2.056 0 00-2.056-2.056h-3.427c-1.135 0-2.055.92-2.055 2.056v9.593h7.538v-9.593zM616.054 391.287c0-1.136-.92-2.056-2.056-2.056h-3.426c-1.135 0-2.056.92-2.056 2.056v9.593h7.538v-9.593zM601.663 391.287c0-1.136-.92-2.056-2.055-2.056h-3.427c-1.135 0-2.055.92-2.055 2.056v9.593h7.537v-9.593zM570.827 414.586c-1.136 0-2.056.92-2.056 2.056v3.426c0 1.135.92 2.056 2.056 2.056h9.593v-7.538h-9.593zM570.827 428.977c-1.136 0-2.056.92-2.056 2.055v3.427c0 1.135.92 2.055 2.056 2.055h9.593v-7.537h-9.593zM570.827 443.367a2.056 2.056 0 00-2.056 2.056v3.426c0 1.136.92 2.056 2.056 2.056h9.593v-7.538h-9.593zM570.827 457.758c-1.136 0-2.056.92-2.056 2.056v3.426c0 1.135.92 2.056 2.056 2.056h9.593v-7.538h-9.593zM570.827 472.148a2.056 2.056 0 00-2.056 2.056v3.427c0 1.135.92 2.055 2.056 2.055h9.593v-7.538h-9.593zM682.525 411.16c1.135 0 2.056.92 2.056 2.055v3.427a2.057 2.057 0 01-2.056 2.056h-9.594v-7.538h9.594zM682.525 425.55c1.135 0 2.056.921 2.056 2.056v3.426a2.056 2.056 0 01-2.056 2.056h-9.594v-7.538h9.594zM682.525 439.941c1.135 0 2.056.92 2.056 2.056v3.426a2.057 2.057 0 01-2.056 2.056h-9.594v-7.538h9.594zM682.525 454.332c1.135 0 2.056.92 2.056 2.055v3.427a2.056 2.056 0 01-2.056 2.055h-9.594v-7.537h9.594zM682.525 468.722c1.135 0 2.056.921 2.056 2.056v3.426a2.056 2.056 0 01-2.056 2.056h-9.594v-7.538h9.594zM594.125 502.984c0 1.136.921 2.056 2.056 2.056h3.427c1.135 0 2.055-.92 2.055-2.056v-9.593h-7.538v9.593zM608.516 502.985c0 1.136.921 2.056 2.056 2.056h3.426c1.136 0 2.056-.92 2.056-2.056v-9.594h-7.538v9.594zM622.907 502.985c0 1.136.92 2.056 2.055 2.056h3.427c1.135 0 2.056-.92 2.056-2.056v-9.594h-7.538v9.594zM637.297 502.985c0 1.136.921 2.056 2.056 2.056h3.426c1.136 0 2.056-.92 2.056-2.056v-9.594h-7.538v9.594zM651.688 502.985c0 1.136.92 2.056 2.056 2.056h3.426c1.135 0 2.056-.92 2.056-2.056v-9.594h-7.538v9.594z" fill="#270970"/></g><path d="M655.499 384.059V239.798l99.635-87.814M562.228 475.989l-214.456-.001-130.543 99.636" stroke="#4C29A0" stroke-width="2.056"/></svg>