<svg style="z-index: -1" viewBox="0 0 875 548" fill="none" xmlns="http://www.w3.org/2000/svg">

  <!-- platform shadow -->
  <path id="platformShadow" style = "transition: .3s" d="M325.953 165.605C333.924 162.244 342.918 162.259 350.878 165.649L648.973 292.575C652.145 293.925 652.23 298.391 649.11 299.861L350.392 440.586C341.727 444.668 331.687 444.646 323.039 440.526L26.338 299.156C23.227 297.673 23.3288 293.211 26.5042 291.872L325.953 165.605Z" fill="#270970"/>
  <!-- platform -->
  <g id="platform">
  <path d="M326.129 126.028C334.011 122.702 342.905 122.718 350.775 126.071L666.401 260.552C669.275 261.776 669.351 265.821 666.526 267.153L350.183 416.282C341.615 420.321 331.686 420.299 323.136 416.222L8.92409 266.408C6.10614 265.064 6.19838 261.022 9.07467 259.809L326.129 126.028Z" fill="#6741C2" stroke="#EAE8F6" stroke-width="0.749452"/>
  <mask id="path-1-inside-1" fill="white">
  <path fill-rule="evenodd" clip-rule="evenodd" d="M431.665 292.278L398.203 275.456L396.409 279.024L429.574 296.104H459.52L459.52 296.104L459.52 296.104H459.553V296.091L487.183 284.784L485.482 281.172L459.553 292.292V292.278L431.665 292.278Z"/>
  </mask>
  <path fill-rule="evenodd" clip-rule="evenodd" d="M431.665 292.278L398.203 275.456L396.409 279.024L429.574 296.104H459.52L459.52 296.104L459.52 296.104H459.553V296.091L487.183 284.784L485.482 281.172L459.553 292.292V292.278L431.665 292.278Z" fill="#EAE8F6"/>
  <path d="M398.203 275.456L398.741 274.386L397.67 273.848L397.132 274.918L398.203 275.456ZM431.665 292.278L431.127 293.348L431.381 293.476H431.665V292.278ZM396.409 279.024L395.339 278.486L394.806 279.546L395.861 280.089L396.409 279.024ZM429.574 296.104L429.025 297.169L429.283 297.302H429.574V296.104ZM459.52 296.104L460 295.007L459.771 294.906H459.52V296.104ZM459.52 296.104L459.04 297.202L459.502 297.404L459.969 297.215L459.52 296.104ZM459.52 296.104V294.906H459.288L459.072 294.994L459.52 296.104ZM459.553 296.104V297.302H460.751V296.104H459.553ZM459.553 296.091L459.099 294.982L458.355 295.287V296.091H459.553ZM487.183 284.784L487.637 285.893L488.804 285.415L488.267 284.274L487.183 284.784ZM485.482 281.172L486.566 280.662L486.073 279.615L485.01 280.071L485.482 281.172ZM459.553 292.292H458.355V294.109L460.025 293.393L459.553 292.292ZM459.553 292.278H460.751V291.08L459.553 291.08V292.278ZM397.665 276.527L431.127 293.348L432.203 291.208L398.741 274.386L397.665 276.527ZM397.479 279.562L399.273 275.994L397.132 274.918L395.339 278.486L397.479 279.562ZM430.122 295.039L396.958 277.959L395.861 280.089L429.025 297.169L430.122 295.039ZM459.52 294.906H429.574V297.302H459.52V294.906ZM460 295.007L460 295.007L459.04 297.202L459.04 297.202L460 295.007ZM459.072 294.994L459.072 294.994L459.969 297.215L459.969 297.215L459.072 294.994ZM459.553 294.906H459.52V297.302H459.553V294.906ZM458.355 296.091V296.104H460.751V296.091H458.355ZM486.729 283.676L459.099 294.982L460.007 297.2L487.637 285.893L486.729 283.676ZM484.399 281.682L486.099 285.295L488.267 284.274L486.566 280.662L484.399 281.682ZM460.025 293.393L485.954 282.273L485.01 280.071L459.081 291.191L460.025 293.393ZM458.355 292.278V292.292H460.751V292.278H458.355ZM431.665 293.476L459.553 293.476V291.08L431.665 291.08V293.476Z" fill="#30107E" mask="url(#path-1-inside-1)"/>
  <mask id="path-3-inside-2" fill="white">
  <path fill-rule="evenodd" clip-rule="evenodd" d="M434.649 229.4C435.061 228.792 435.283 228.124 435.267 227.425C435.208 224.78 431.764 222.711 427.575 222.805C423.386 222.899 420.039 225.12 420.098 227.765C420.157 230.411 423.601 232.48 427.79 232.386C428.837 232.362 429.832 232.206 430.734 231.943L460.506 247.276L463.181 243.743L434.649 229.4Z"/>
  </mask>
  <path fill-rule="evenodd" clip-rule="evenodd" d="M434.649 229.4C435.061 228.792 435.283 228.124 435.267 227.425C435.208 224.78 431.764 222.711 427.575 222.805C423.386 222.899 420.039 225.12 420.098 227.765C420.157 230.411 423.601 232.48 427.79 232.386C428.837 232.362 429.832 232.206 430.734 231.943L460.506 247.276L463.181 243.743L434.649 229.4Z" fill="#EAE8F6"/>
  <path d="M435.267 227.425L433.67 227.461V227.461L435.267 227.425ZM434.649 229.4L433.327 228.504L432.307 230.01L433.932 230.827L434.649 229.4ZM427.575 222.805L427.611 224.402L427.575 222.805ZM420.098 227.765L421.695 227.73L420.098 227.765ZM427.79 232.386L427.826 233.982H427.826L427.79 232.386ZM430.734 231.943L431.466 230.523L430.899 230.231L430.288 230.409L430.734 231.943ZM460.506 247.276L459.775 248.696L460.969 249.311L461.78 248.24L460.506 247.276ZM463.181 243.743L464.454 244.707L465.612 243.178L463.898 242.316L463.181 243.743ZM433.67 227.461C433.678 227.783 433.58 228.131 433.327 228.504L435.972 230.296C436.542 229.454 436.888 228.465 436.864 227.39L433.67 227.461ZM427.611 224.402C429.451 224.361 431.052 224.799 432.147 225.457C433.264 226.128 433.657 226.88 433.67 227.461L436.864 227.39C436.818 225.326 435.46 223.721 433.792 222.719C432.104 221.705 429.888 221.156 427.54 221.208L427.611 224.402ZM421.695 227.73C421.682 227.148 422.042 226.379 423.127 225.659C424.191 224.953 425.771 224.443 427.611 224.402L427.54 221.208C425.191 221.261 423.002 221.909 421.361 222.997C419.739 224.073 418.455 225.737 418.501 227.801L421.695 227.73ZM427.754 230.789C425.914 230.83 424.313 230.392 423.218 229.734C422.102 229.063 421.708 228.311 421.695 227.73L418.501 227.801C418.548 229.865 419.905 231.47 421.573 232.472C423.262 233.486 425.477 234.035 427.826 233.982L427.754 230.789ZM430.288 230.409C429.523 230.632 428.667 230.768 427.754 230.789L427.826 233.982C429.008 233.956 430.141 233.779 431.181 233.476L430.288 230.409ZM461.238 245.856L431.466 230.523L430.003 233.363L459.775 248.696L461.238 245.856ZM461.908 242.779L459.233 246.312L461.78 248.24L464.454 244.707L461.908 242.779ZM433.932 230.827L462.464 245.17L463.898 242.316L435.367 227.973L433.932 230.827Z" fill="#30107E" mask="url(#path-3-inside-2)"/>
  <mask id="path-5-inside-3" fill="white">
  <path fill-rule="evenodd" clip-rule="evenodd" d="M200.144 318.287C199.795 318.835 199.602 319.434 199.6 320.062C199.59 322.708 202.98 324.865 207.17 324.879C211.359 324.894 214.763 322.76 214.772 320.114C214.782 317.468 211.392 315.311 207.202 315.296C205.975 315.292 204.814 315.472 203.787 315.796L163.571 290.514L162.208 294.805L200.144 318.287Z"/>
  </mask>
  <path fill-rule="evenodd" clip-rule="evenodd" d="M200.144 318.287C199.795 318.835 199.602 319.434 199.6 320.062C199.59 322.708 202.98 324.865 207.17 324.879C211.359 324.894 214.763 322.76 214.772 320.114C214.782 317.468 211.392 315.311 207.202 315.296C205.975 315.292 204.814 315.472 203.787 315.796L163.571 290.514L162.208 294.805L200.144 318.287Z" fill="#EAE8F6"/>
  <path d="M200.144 318.287L201.491 319.145L202.361 317.781L200.985 316.929L200.144 318.287ZM199.6 320.062L201.197 320.067V320.067L199.6 320.062ZM214.772 320.114L216.37 320.119V320.119L214.772 320.114ZM207.202 315.296L207.208 313.699L207.202 315.296ZM203.787 315.796L202.937 317.148L203.563 317.541L204.267 317.319L203.787 315.796ZM163.571 290.514L164.421 289.162L162.673 288.064L162.048 290.031L163.571 290.514ZM162.208 294.805L160.686 294.322L160.309 295.508L161.367 296.163L162.208 294.805ZM198.798 317.428C198.305 318.201 198.006 319.092 198.002 320.056L201.197 320.067C201.198 319.776 201.285 319.469 201.491 319.145L198.798 317.428ZM198.002 320.056C197.995 322.121 199.311 323.76 200.952 324.805C202.614 325.862 204.815 326.468 207.164 326.476L207.175 323.282C205.335 323.276 203.745 322.796 202.667 322.11C201.569 321.411 201.195 320.649 201.197 320.067L198.002 320.056ZM207.164 326.476C209.514 326.484 211.718 325.894 213.387 324.848C215.036 323.814 216.363 322.184 216.37 320.119L213.175 320.108C213.173 320.69 212.794 321.45 211.691 322.141C210.608 322.82 209.015 323.288 207.175 323.282L207.164 326.476ZM216.37 320.119C216.377 318.055 215.061 316.415 213.42 315.371C211.758 314.313 209.557 313.707 207.208 313.699L207.197 316.894C209.037 316.9 210.627 317.38 211.705 318.066C212.803 318.765 213.177 319.526 213.175 320.108L216.37 320.119ZM207.208 313.699C205.823 313.694 204.498 313.897 203.307 314.273L204.267 317.319C205.13 317.047 206.126 316.89 207.197 316.894L207.208 313.699ZM204.637 314.444L164.421 289.162L162.721 291.867L202.937 317.148L204.637 314.444ZM162.048 290.031L160.686 294.322L163.73 295.289L165.093 290.998L162.048 290.031ZM161.367 296.163L199.304 319.645L200.985 316.929L163.049 293.447L161.367 296.163Z" fill="#31107E" mask="url(#path-5-inside-3)"/>
  <mask id="path-7-inside-4" fill="white">
  <path fill-rule="evenodd" clip-rule="evenodd" d="M157.244 231.975L197.685 215.023C197.431 214.556 197.288 214.055 197.278 213.532C197.228 210.886 200.583 208.677 204.773 208.597C208.962 208.517 212.398 210.598 212.449 213.244C212.499 215.889 209.144 218.099 204.954 218.178C203.762 218.201 202.63 218.048 201.62 217.758L159.97 235.557L157.244 231.975ZM453.187 323.776C454.197 324.067 455.329 324.219 456.521 324.197C460.711 324.117 464.066 321.908 464.016 319.262C463.965 316.616 460.529 314.536 456.34 314.616C452.15 314.695 448.795 316.904 448.845 319.55C448.855 320.074 448.998 320.575 449.252 321.042L408.811 337.993L411.537 341.575L453.187 323.776Z"/>
  </mask>
  <path fill-rule="evenodd" clip-rule="evenodd" d="M157.244 231.975L197.685 215.023C197.431 214.556 197.288 214.055 197.278 213.532C197.228 210.886 200.583 208.677 204.773 208.597C208.962 208.517 212.398 210.598 212.449 213.244C212.499 215.889 209.144 218.099 204.954 218.178C203.762 218.201 202.63 218.048 201.62 217.758L159.97 235.557L157.244 231.975ZM453.187 323.776C454.197 324.067 455.329 324.219 456.521 324.197C460.711 324.117 464.066 321.908 464.016 319.262C463.965 316.616 460.529 314.536 456.34 314.616C452.15 314.695 448.795 316.904 448.845 319.55C448.855 320.074 448.998 320.575 449.252 321.042L408.811 337.993L411.537 341.575L453.187 323.776Z" fill="#EAE8F6"/>
  <path d="M197.685 215.023L198.303 216.496L199.935 215.812L199.088 214.258L197.685 215.023ZM157.244 231.975L156.626 230.502L154.723 231.299L155.973 232.942L157.244 231.975ZM197.278 213.532L195.681 213.562L197.278 213.532ZM204.773 208.597L204.742 207L204.742 207L204.773 208.597ZM212.449 213.244L214.045 213.213L212.449 213.244ZM204.954 218.178L204.924 216.581L204.924 216.581L204.954 218.178ZM201.62 217.758L202.062 216.223L201.515 216.065L200.992 216.289L201.62 217.758ZM159.97 235.557L158.699 236.524L159.453 237.515L160.598 237.025L159.97 235.557ZM453.187 323.776L453.629 322.241L453.082 322.084L452.559 322.308L453.187 323.776ZM456.521 324.197L456.491 322.6L456.491 322.6L456.521 324.197ZM464.016 319.262L462.419 319.293L464.016 319.262ZM448.845 319.55L450.442 319.52L450.442 319.52L448.845 319.55ZM449.252 321.042L449.87 322.515L451.502 321.831L450.655 320.277L449.252 321.042ZM408.811 337.993L408.193 336.52L406.29 337.318L407.54 338.96L408.811 337.993ZM411.537 341.575L410.266 342.543L411.02 343.533L412.165 343.044L411.537 341.575ZM197.068 213.55L156.626 230.502L157.861 233.447L198.303 216.496L197.068 213.55ZM195.681 213.562C195.697 214.364 195.916 215.115 196.283 215.788L199.088 214.258C198.945 213.998 198.88 213.746 198.875 213.501L195.681 213.562ZM204.742 207C202.393 207.045 200.202 207.685 198.557 208.768C196.932 209.838 195.642 211.498 195.681 213.562L198.875 213.501C198.864 212.92 199.227 212.152 200.314 211.436C201.381 210.733 202.963 210.229 204.803 210.194L204.742 207ZM214.045 213.213C214.006 211.149 212.654 209.54 210.99 208.532C209.305 207.512 207.091 206.956 204.742 207L204.803 210.194C206.643 210.159 208.242 210.603 209.336 211.265C210.449 211.939 210.841 212.692 210.852 213.274L214.045 213.213ZM204.985 219.775C207.334 219.73 209.524 219.09 211.17 218.007C212.795 216.937 214.085 215.277 214.045 213.213L210.852 213.274C210.863 213.856 210.5 214.623 209.413 215.339C208.346 216.042 206.764 216.546 204.924 216.581L204.985 219.775ZM201.178 219.292C202.348 219.629 203.639 219.801 204.985 219.775L204.924 216.581C203.884 216.601 202.912 216.468 202.062 216.223L201.178 219.292ZM160.598 237.025L202.248 219.226L200.992 216.289L159.343 234.088L160.598 237.025ZM155.973 232.942L158.699 236.524L161.241 234.589L158.514 231.007L155.973 232.942ZM452.745 325.311C453.915 325.648 455.206 325.819 456.552 325.794L456.491 322.6C455.451 322.62 454.479 322.486 453.629 322.241L452.745 325.311ZM456.552 325.794C458.901 325.749 461.091 325.109 462.737 324.026C464.362 322.956 465.652 321.296 465.612 319.232L462.419 319.293C462.43 319.874 462.067 320.642 460.98 321.358C459.913 322.061 458.331 322.565 456.491 322.6L456.552 325.794ZM465.612 319.232C465.573 317.168 464.221 315.558 462.557 314.551C460.872 313.531 458.658 312.974 456.309 313.019L456.37 316.212C458.21 316.178 459.809 316.622 460.903 317.283C462.016 317.957 462.408 318.711 462.419 319.293L465.612 319.232ZM456.309 313.019C453.96 313.063 451.77 313.703 450.124 314.787C448.499 315.857 447.209 317.516 447.248 319.58L450.442 319.52C450.431 318.938 450.794 318.17 451.881 317.454C452.948 316.752 454.53 316.247 456.37 316.212L456.309 313.019ZM447.248 319.58C447.264 320.382 447.483 321.134 447.85 321.807L450.655 320.277C450.512 320.016 450.447 319.765 450.442 319.52L447.248 319.58ZM448.635 319.569L408.193 336.52L409.428 339.466L449.87 322.515L448.635 319.569ZM407.54 338.96L410.266 342.543L412.808 340.608L410.082 337.026L407.54 338.96ZM412.165 343.044L453.815 325.245L452.559 322.308L410.91 340.107L412.165 343.044Z" fill="#31107E" mask="url(#path-7-inside-4)"/>
  <mask id="path-9-inside-5" fill="white">
  <path fill-rule="evenodd" clip-rule="evenodd" d="M250.143 213.238C251.167 213.501 252.312 213.619 253.512 213.558C257.697 213.346 260.98 211.031 260.846 208.388C260.712 205.746 257.211 203.775 253.027 203.988C248.842 204.2 245.559 206.515 245.693 209.158C245.719 209.68 245.878 210.177 246.147 210.636L184.468 238.822L187.766 242.106L250.143 213.238Z"/>
  </mask>
  <path fill-rule="evenodd" clip-rule="evenodd" d="M250.143 213.238C251.167 213.501 252.312 213.619 253.512 213.558C257.697 213.346 260.98 211.031 260.846 208.388C260.712 205.746 257.211 203.775 253.027 203.988C248.842 204.2 245.559 206.515 245.693 209.158C245.719 209.68 245.878 210.177 246.147 210.636L184.468 238.822L187.766 242.106L250.143 213.238Z" fill="#EAE8F6"/>
  <path d="M250.143 213.238L250.539 211.691L249.988 211.549L249.472 211.788L250.143 213.238ZM253.512 213.558L253.431 211.963L253.512 213.558ZM253.027 203.988L253.108 205.583L253.027 203.988ZM245.693 209.158L247.288 209.077L247.288 209.077L245.693 209.158ZM246.147 210.636L246.811 212.088L248.42 211.353L247.524 209.827L246.147 210.636ZM184.468 238.822L183.804 237.369L181.708 238.328L183.341 239.954L184.468 238.822ZM187.766 242.106L186.639 243.238L187.428 244.023L188.437 243.556L187.766 242.106ZM249.746 214.785C250.933 215.089 252.239 215.222 253.593 215.153L253.431 211.963C252.385 212.016 251.402 211.912 250.539 211.691L249.746 214.785ZM253.593 215.153C255.94 215.034 258.109 214.325 259.719 213.19C261.309 212.069 262.546 210.369 262.441 208.307L259.251 208.469C259.281 209.05 258.943 209.829 257.879 210.579C256.834 211.316 255.269 211.87 253.431 211.963L253.593 215.153ZM262.441 208.307C262.337 206.246 260.934 204.68 259.239 203.725C257.522 202.759 255.292 202.273 252.946 202.393L253.108 205.583C254.946 205.489 256.558 205.883 257.672 206.509C258.807 207.148 259.222 207.888 259.251 208.469L262.441 208.307ZM252.946 202.393C250.599 202.512 248.43 203.221 246.82 204.356C245.23 205.477 243.993 207.177 244.098 209.239L247.288 209.077C247.258 208.496 247.596 207.717 248.66 206.967C249.705 206.23 251.269 205.676 253.108 205.583L252.946 202.393ZM244.098 209.239C244.138 210.039 244.381 210.783 244.77 211.444L247.524 209.827C247.374 209.571 247.3 209.322 247.288 209.077L244.098 209.239ZM245.483 209.183L183.804 237.369L185.132 240.275L246.811 212.088L245.483 209.183ZM183.341 239.954L186.639 243.238L188.893 240.974L185.595 237.69L183.341 239.954ZM188.437 243.556L250.813 214.687L249.472 211.788L187.096 240.657L188.437 243.556Z" fill="#31107E" mask="url(#path-9-inside-5)"/>
  <mask id="path-11-inside-6" fill="white">
  <path fill-rule="evenodd" clip-rule="evenodd" d="M229.405 281.778L195.95 264.96L194.157 268.527L227.533 285.723L227.612 285.607L257.081 285.594V285.723L284.931 274.288L283.23 270.675L257.081 281.73V281.731L229.405 281.778Z"/>
  </mask>
  <path fill-rule="evenodd" clip-rule="evenodd" d="M229.405 281.778L195.95 264.96L194.157 268.527L227.533 285.723L227.612 285.607L257.081 285.594V285.723L284.931 274.288L283.23 270.675L257.081 281.73V281.731L229.405 281.778Z" fill="#EAE8F6"/>
  <path d="M195.95 264.96L196.488 263.89L195.418 263.352L194.88 264.422L195.95 264.96ZM229.405 281.778L228.867 282.848L229.122 282.976L229.407 282.976L229.405 281.778ZM194.157 268.527L193.087 267.989L192.554 269.049L193.608 269.592L194.157 268.527ZM227.533 285.723L226.985 286.788L227.931 287.275L228.526 286.393L227.533 285.723ZM227.612 285.607L227.611 284.409L226.975 284.41L226.619 284.937L227.612 285.607ZM257.081 285.594H258.279V284.395L257.08 284.396L257.081 285.594ZM257.081 285.723H255.883V287.51L257.536 286.831L257.081 285.723ZM284.931 274.288L285.386 275.396L286.551 274.917L286.015 273.778L284.931 274.288ZM283.23 270.675L284.314 270.165L283.824 269.124L282.764 269.572L283.23 270.675ZM257.081 281.73L256.614 280.627L255.883 280.936V281.73H257.081ZM257.081 281.731L257.083 282.929L258.279 282.926V281.731H257.081ZM195.412 266.03L228.867 282.848L229.943 280.708L196.488 263.89L195.412 266.03ZM195.227 269.065L197.021 265.498L194.88 264.422L193.087 267.989L195.227 269.065ZM228.082 284.658L194.706 267.462L193.608 269.592L226.985 286.788L228.082 284.658ZM226.619 284.937L226.541 285.053L228.526 286.393L228.604 286.277L226.619 284.937ZM227.612 286.805L257.081 286.792L257.08 284.396L227.611 284.409L227.612 286.805ZM255.883 285.594V285.723H258.279V285.594H255.883ZM257.536 286.831L285.386 275.396L284.476 273.18L256.626 284.615L257.536 286.831ZM286.015 273.778L284.314 270.165L282.146 271.185L283.847 274.798L286.015 273.778ZM282.764 269.572L256.614 280.627L257.547 282.833L283.697 271.778L282.764 269.572ZM255.883 281.73V281.731H258.279V281.73H255.883ZM257.079 280.533L229.403 280.58L229.407 282.976L257.083 282.929L257.079 280.533Z" fill="#331282" mask="url(#path-11-inside-6)"/>
  </g>
  <!-- platform lines -->
  <!-- <g id="platformLines" style = "transition:opacity .3s">

  </g> -->
  <!-- platformCircle -->
  <!-- <g id="platformCircle" style = "transition:opacity .3s">
    <g filter="url(#filter0_f)">
    <path d="M337.738 216.646C357.555 216.646 375.589 213.4 388.743 208.08C395.314 205.422 400.765 202.206 404.606 198.534C408.451 194.856 410.807 190.587 410.807 185.9C410.807 181.214 408.451 176.945 404.606 173.267C400.765 169.595 395.314 166.379 388.743 163.721C375.589 158.401 357.555 155.155 337.738 155.155C317.92 155.155 299.886 158.401 286.732 163.721C280.161 166.379 274.71 169.595 270.87 173.267C267.024 176.945 264.668 181.214 264.668 185.9C264.668 190.587 267.024 194.856 270.87 198.534C274.71 202.206 280.161 205.422 286.732 208.08C299.886 213.4 317.92 216.646 337.738 216.646Z" stroke="#EAE8F6" stroke-width="3.99289"/>
    </g>
    <ellipse cx="337.737" cy="195.483" rx="53.5047" ry="17.5687" fill="#30107E"/>
    <path d="M406.016 185.901C406.016 188.266 404.877 191 401.807 193.999C398.719 197.014 393.982 199.969 387.706 202.561C375.18 207.735 357.516 211.056 337.738 211.056C317.959 211.056 300.295 207.735 287.769 202.561C281.493 199.969 276.756 197.014 273.668 193.999C270.598 191 269.459 188.266 269.459 185.901C269.459 183.536 270.598 180.801 273.668 177.802C276.756 174.787 281.493 171.832 287.769 169.24C300.295 164.066 317.959 160.745 337.738 160.745C357.516 160.745 375.18 164.066 387.706 169.24C393.982 171.832 398.719 174.787 401.807 177.802C404.877 180.801 406.016 183.536 406.016 185.901Z" stroke="url(#paint0_linear)" stroke-width="10.3815"/>
    <ellipse cx="337.338" cy="179.911" rx="24.3566" ry="7.58649" fill="#6742C3"/>
    <defs>
    <filter id="filter0_f" x="259.477" y="149.964" width="156.521" height="71.872" filterUnits="userSpaceOnUse" color-interpolation-filters="sRGB">
    <feFlood flood-opacity="0" result="BackgroundImageFix"/>
    <feBlend mode="normal" in="SourceGraphic" in2="BackgroundImageFix" result="shape"/>
    <feGaussianBlur stdDeviation="1.59716" result="effect1_foregroundBlur"/>
    </filter>
    <linearGradient id="paint0_linear" x1="337.738" y1="155.555" x2="337.738" y2="216.247" gradientUnits="userSpaceOnUse">
    <stop stop-color="#EAE8F6" stop-opacity="0"/>
    <stop offset="1" stop-color="#EAE8F6"/>
    </linearGradient>
    </defs>
  </g> -->
  <!-- block 1 -->
  <g id="block1" style="transition: .3s">
  <path d="M423.316 259.637L511.827 221.661L600.338 259.637L511.827 302.64L423.316 259.637Z" fill="#49269D" stroke="#EAE8F6" stroke-width="1.43744"/>
  <path d="M448.74 71.8568L511.827 101.933V287.204L448.74 257.127V71.8568Z" fill="#673BCE"/>
  <path d="M451.535 87.0344L512.227 116.025L511.827 141.979L451.535 114.585V87.0344Z" fill="#A492D4"/>
  <path d="M451.535 123.611L512.227 152.602L511.827 178.556L451.535 151.162V123.611Z" fill="#A492D4"/>
  <path d="M451.535 160.346L512.227 189.337L511.827 215.29L451.535 187.897V160.346Z" fill="#A492D4"/>
  <path d="M451.535 113.23L512.227 141.023L511.827 142.62L451.535 115.226V113.23Z" fill="#EAE8F6"/>
  <path d="M451.535 149.807L512.227 177.599L511.827 179.197L451.535 151.803V149.807Z" fill="#EAE8F6"/>
  <path d="M451.535 186.542L512.227 214.334L511.827 215.931L451.535 188.538V186.542Z" fill="#EAE8F6"/>
  <path d="M574.915 71.8568L511.827 101.933V287.204L574.915 257.127V71.8568Z" fill="#30107E"/>
  <path d="M532.59 105.244L511.827 115.856V141.979L532.59 131.597V105.244Z" fill="#A492D4"/>
  <path d="M532.59 141.821L511.827 152.433V178.556L532.59 168.174V141.821Z" fill="#A492D4"/>
  <path d="M532.59 178.556L511.827 189.168V215.29L532.59 204.909V178.556Z" fill="#A492D4"/>
  <path d="M532.59 130.399L511.827 140.837V142.62L532.59 132.238V130.399Z" fill="#EAE8F6"/>
  <path d="M532.59 166.976L511.827 177.414V179.197L532.59 168.815V166.976Z" fill="#EAE8F6"/>
  <path d="M532.59 203.711L511.827 214.149V215.931L532.59 205.55V203.711Z" fill="#EAE8F6"/>
  <path d="M511.827 44.7052L574.915 71.8569L511.827 102.602L448.74 71.8569L511.827 44.7052Z" fill="#A687ED"/>
  <path d="M468.704 67.4292L512.227 88.1783V95.526L468.704 74.7769V67.4292Z" fill="#EAE8F6"/>
  <path d="M555.749 67.4292L512.227 88.1783V95.526L555.749 74.7769V67.4292Z" fill="#EAE8F6"/>
  <path d="M512.227 46.1493L562.138 67.4961L512.227 91.6683L462.315 67.4961L512.227 46.1493Z" fill="url(#paint0_linear)"/>
  <path fill-rule="evenodd" clip-rule="evenodd" d="M511.827 303.439L421.588 259.599V264.956L511.827 309.839V303.439ZM511.827 303.439L602.067 259.599V264.956L511.827 309.839V303.439Z" fill="url(#paint1_linear)"/>
  <path d="M456.725 202.933C456.725 201.173 458.56 200.014 460.149 200.77L501.675 220.499C502.511 220.896 503.043 221.738 503.043 222.663V272.683C503.043 274.443 501.209 275.602 499.619 274.847L458.093 255.117C457.258 254.72 456.725 253.878 456.725 252.953V202.933Z" fill="#673BCE" stroke="#30107E" stroke-width="1.59716"/>
  <path d="M553.753 245.633V219.739L532.191 229.983V255.877L553.753 245.633Z" fill="#673BCE" stroke="#30107E" stroke-width="2.39573"/>
  <defs>
  <linearGradient id="paint0_linear" x1="532.266" y1="83.2611" x2="449.25" y2="62.8214" gradientUnits="userSpaceOnUse">
  <stop stop-color="#31107E"/>
  <stop offset="1" stop-color="#8A61ED"/>
  </linearGradient>
  <linearGradient id="paint1_linear" x1="548.058" y1="300.56" x2="411.141" y2="245.337" gradientUnits="userSpaceOnUse">
  <stop stop-color="#31107E"/>
  <stop offset="1" stop-color="#8A61ED"/>
  </linearGradient>
  </defs>
  </g>
  <!-- block 2 -->
  <g id="block2" style="transition: .3s">
    <path d="M249.226 344.932L337.737 306.956L426.248 344.932L337.737 387.935L249.226 344.932Z" fill="#31107E" stroke="#EAE8F6" stroke-width="1.43744"/>
    <path d="M274.65 215.448L337.737 245.524V375.962L274.65 345.885V215.448Z" fill="#673BCE"/>
    <path d="M277.445 230.626L338.137 259.616L337.737 285.57L277.445 258.176V230.626Z" fill="#A492D4"/>
    <path d="M277.445 267.203L338.137 296.193L337.737 322.147L277.445 294.753V267.203Z" fill="#A492D4"/>
    <path d="M277.445 303.937L338.137 332.928L337.737 358.881L277.445 331.488V303.937Z" fill="#A492D4"/>
    <path d="M277.445 256.821L338.137 284.614L337.737 286.211L277.445 258.817V256.821Z" fill="#EAE8F6"/>
    <path d="M277.445 293.398L338.137 321.191L337.737 322.788L277.445 295.394V293.398Z" fill="#EAE8F6"/>
    <path d="M277.445 330.133L338.137 357.925L337.737 359.522L277.445 332.129V330.133Z" fill="#EAE8F6"/>
    <path d="M400.825 215.448L337.737 245.524V375.962L400.825 345.885V215.448Z" fill="#30107E"/>
    <path d="M358.5 248.835L337.737 259.447V285.57L358.5 275.188V248.835Z" fill="#A492D4"/>
    <path d="M358.5 285.412L337.737 296.024V322.147L358.5 311.765V285.412Z" fill="#A492D4"/>
    <path d="M358.5 322.147L337.737 332.759V358.881L358.5 348.5V322.147Z" fill="#A492D4"/>
    <path d="M358.5 273.99L337.737 284.428V286.211L358.5 275.829V273.99Z" fill="#EAE8F6"/>
    <path d="M358.5 310.567L337.737 321.005V322.788L358.5 312.406V310.567Z" fill="#EAE8F6"/>
    <path d="M358.5 347.302L337.737 357.74V359.522L358.5 349.141V347.302Z" fill="#EAE8F6"/>
    <path d="M337.737 188.296L400.825 215.448L337.737 246.193L274.65 215.448L337.737 188.296Z" fill="#A687ED"/>
    <path d="M294.614 211.02L338.137 231.769V239.117L294.614 218.368V211.02Z" fill="#EAE8F6"/>
    <path d="M381.659 211.02L338.136 231.769V239.117L381.659 218.368V211.02Z" fill="#EAE8F6"/>
    <path d="M338.136 189.74L388.048 211.087L338.136 235.259L288.225 211.087L338.136 189.74Z" fill="#8A61ED"/>
    <path d="M247.498 344.894L337.737 388.734L337.737 395.134L247.498 350.251L247.498 344.894Z" fill="#573C9B"/>
    <path d="M427.977 344.894L337.738 388.734L337.738 395.134L427.977 350.251L427.977 344.894Z" fill="#573C9B"/>
  </g>
  <!-- block 3 -->
  <g id="block3" style="transition: .3s">
    <path d="M82.7793 264.618L158.375 232.183L233.97 264.618L158.375 301.345L82.7793 264.618Z" fill="url(#paint100_linear)" stroke="#EAE8F6" stroke-width="1.3496"/>
    <path d="M158.375 220.239L219.313 246.385L158.375 275.991L97.4373 246.385L158.375 220.239Z" fill="url(#paint101_linear)"/>
    <path d="M114.934 239.124L158.457 259.873V267.22L114.934 246.471V239.124Z" fill="#EAE8F6"/>
    <path d="M201.979 239.124L158.456 259.873V267.22L201.979 246.471V239.124Z" fill="#EAE8F6"/>
    <path d="M158.457 217.844L208.368 239.19L158.457 263.363L108.545 239.19L158.457 217.844Z" fill="url(#paint102_linear)"/>
    <path fill-rule="evenodd" clip-rule="evenodd" d="M158.379 275.98L97.4414 246.383L97.4373 264.417L158.375 294.726L158.379 275.98ZM158.375 302.095L81.1567 264.582V269.165L158.375 307.572L158.375 302.095Z" fill="url(#paint103_linear)"/>
    <path d="M235.593 264.582L158.375 302.095L158.375 307.572L235.593 269.165L235.593 264.582Z" fill="#573C9B"/>
    <path d="M219.312 246.383L158.367 275.984L158.375 294.726L219.313 264.417L219.312 246.383Z" fill="#573C9B"/>
    <defs>
    <linearGradient id="paint100_linear" x1="189.378" y1="289.047" x2="60.8974" y2="257.514" gradientUnits="userSpaceOnUse">
    <stop stop-color="#31107E"/>
    <stop offset="1" stop-color="#8A61ED"/>
    </linearGradient>
    <linearGradient id="paint101_linear" x1="182.841" y1="265.694" x2="81.4493" y2="240.808" gradientUnits="userSpaceOnUse">
    <stop stop-color="#31107E"/>
    <stop offset="1" stop-color="#8A61ED"/>
    </linearGradient>
    <linearGradient id="paint102_linear" x1="178.496" y1="254.955" x2="95.4804" y2="234.516" gradientUnits="userSpaceOnUse">
    <stop stop-color="#31107E"/>
    <stop offset="1" stop-color="#8A61ED"/>
    </linearGradient>
    <linearGradient id="paint103_linear" x1="146.354" y1="303.345" x2="112.235" y2="296.619" gradientUnits="userSpaceOnUse">
    <stop stop-color="#31107E"/>
    <stop offset="1" stop-color="#8A61ED"/>
    </linearGradient>
    </defs>
  </g>
  <!-- planet -->
  <!-- <g id="planet">
    <circle cx="338.536" cy="119.1" r="73.4692" fill="url(#paint10_linear)"/>
    <path d="M389.688 67.149C375.811 53.2727 357.362 45.6304 337.738 45.6304C318.113 45.6304 299.664 53.2727 285.787 67.149C271.911 81.0257 264.268 99.4752 264.268 119.1C264.268 138.724 271.911 157.173 285.787 171.05C299.664 184.926 318.113 192.569 337.738 192.569C357.362 192.569 375.811 184.926 389.688 171.05C403.564 157.173 411.207 138.724 411.207 119.1C411.207 99.4752 403.564 81.0257 389.688 67.149ZM404.977 104.11L385.599 98.6828C384.819 98.4644 383.981 98.6724 383.394 99.2301C382.806 99.7881 382.556 100.614 382.734 101.404L384.309 108.393C384.755 110.373 386.025 112.083 387.792 113.083C389.47 114.032 391.465 114.267 393.312 113.742V117.231C393.312 118.828 392.546 120.348 391.263 121.298L379.533 129.987L369.187 110.026C368.602 108.898 367.214 108.457 366.086 109.042C364.957 109.626 364.517 111.015 365.101 112.143L375.588 132.376C377.811 136.663 382.361 139.221 387.176 138.888L387.712 138.852L386.94 143.098L372.914 156.314C372.668 156.546 372.477 156.828 372.353 157.142L361.947 183.44C359.367 183.921 356.728 183.49 354.408 182.19C351.792 180.724 349.914 178.331 349.119 175.452C348.122 171.841 348.014 170.625 348.014 170.269V159.183C348.014 158.231 347.428 157.377 346.539 157.036L344.094 156.095C340.852 154.849 337.986 152.762 335.804 150.06L331.551 144.795C331.024 144.142 330.184 143.828 329.357 143.976L312.333 147.015C309.4 147.539 306.432 146.279 304.772 143.805L302.986 141.145C299.957 136.631 299.63 130.829 302.133 126.003L306.036 118.479C306.214 118.137 306.303 117.754 306.294 117.369L306.23 114.526C306.174 112.009 307.932 109.866 310.411 109.428L325.65 106.737C328.177 106.292 330.747 106.826 332.886 108.242L341.684 114.065C342.274 114.456 343.012 114.553 343.684 114.328L358.1 109.509C358.401 109.408 358.678 109.246 358.913 109.034L360.998 107.149C362.877 105.451 363.949 103.026 363.938 100.493C363.928 97.961 362.837 95.5437 360.944 93.8614C360.349 93.3329 359.524 93.1491 358.761 93.3752L347.329 96.7662L340.245 90.2812C338.87 89.0223 336.945 88.6815 335.221 89.3929C333.497 90.1039 332.372 91.7028 332.285 93.5654C332.284 93.5795 332.284 93.5939 332.283 93.6081L330.024 91.6055C329.898 91.4939 329.76 91.3966 329.614 91.315C325.95 89.2833 321.426 89.8334 318.355 92.6832L314.77 96.0103C314.587 96.1799 314.433 96.3781 314.314 96.5971L310.776 103.1L306.372 101.876C305.292 101.576 304.527 100.622 304.467 99.5031L304.291 96.2238C304.217 94.8382 305.24 93.6381 306.619 93.4915L310.986 93.0277C312.156 92.9034 313.044 91.9163 313.044 90.7398V84.9829L321.886 78.3099C322.934 77.5188 323.797 76.5399 324.45 75.4L327.464 70.139C327.911 69.3574 327.862 68.3865 327.337 67.6546C326.812 66.9226 325.909 66.564 325.024 66.738L314.223 68.858V68.2905C314.223 66.0066 315.243 63.8744 317.02 62.4406L331.16 51.0367L340.555 56.4468C341.671 57.09 342.969 57.2523 344.21 56.9054C345.45 56.5581 346.475 55.7449 347.096 54.6157L349.001 51.1478C363.114 53.4561 376.122 60.0908 386.435 70.4031C395.832 79.8011 402.178 91.4377 404.977 104.11ZM337.567 99.0601L336.904 93.6973C336.918 93.6789 336.94 93.6617 336.976 93.6467C337.065 93.6096 337.104 93.6446 337.138 93.6755L345.182 101.039C345.778 101.585 346.616 101.777 347.39 101.548L358.662 98.2046C359.099 98.884 359.333 99.6749 359.337 100.512C359.342 101.757 358.836 102.901 357.913 103.735L356.185 105.297L343.288 109.608L335.426 104.404C333.019 102.811 330.239 101.982 327.402 101.982C326.554 101.982 325.7 102.056 324.85 102.206L315.613 103.837L318.176 99.127L321.485 96.056C323.037 94.6155 325.298 94.297 327.179 95.2324L333.758 101.064C334.474 101.698 335.508 101.823 336.355 101.378C337.201 100.933 337.684 100.01 337.567 99.0601ZM339.011 50.2474C340.716 50.2781 342.41 50.3707 344.093 50.5235L343.062 52.4C343.054 52.4141 343.031 52.4567 342.969 52.4739C342.906 52.4914 342.865 52.4668 342.851 52.4589L339.011 50.2474ZM289.04 167.797C276.033 154.789 268.87 137.495 268.87 119.1C268.87 100.704 276.033 83.4101 289.04 70.4025C298.459 60.9841 310.126 54.6326 322.83 51.8429L314.131 58.8585C311.265 61.1703 309.621 64.6081 309.621 68.2902V71.6538C309.621 72.3416 309.929 72.9934 310.46 73.4306C310.991 73.8677 311.691 74.0441 312.365 73.9116L320.967 72.2235L320.457 73.1128C320.115 73.71 319.663 74.2229 319.114 74.6371L309.357 82.0002C308.781 82.4349 308.442 83.115 308.442 83.8368V88.6704L306.133 88.9158C302.318 89.3211 299.491 92.6393 299.696 96.4698L299.872 99.7491C300.038 102.843 302.154 105.479 305.14 106.309L305.751 106.479C303.165 108.274 301.555 111.278 301.63 114.628L301.681 116.883L298.049 123.883C294.771 130.202 295.199 137.799 299.166 143.709L300.951 146.369C303.628 150.357 308.413 152.389 313.142 151.545L328.827 148.745L332.225 152.952C334.914 156.281 338.447 158.853 342.442 160.39L343.413 160.763V170.269C343.413 171.045 343.544 172.552 344.684 176.678C345.808 180.75 348.463 184.133 352.159 186.204C352.274 186.269 352.392 186.324 352.508 186.385C347.71 187.428 342.765 187.967 337.738 187.967C319.342 187.967 302.048 180.804 289.04 167.797ZM386.435 167.797C380.923 173.308 374.639 177.766 367.83 181.079L376.443 159.313L390.647 145.929C391.004 145.591 391.245 145.149 391.333 144.665L392.768 136.766C392.895 136.068 392.692 135.35 392.219 134.821C391.745 134.292 391.055 134.011 390.346 134.059L386.861 134.299C385.38 134.4 383.94 134.061 382.697 133.37L394.002 124.996C396.451 123.182 397.914 120.28 397.914 117.231V110.565C397.914 109.826 397.559 109.132 396.96 108.699C396.361 108.267 395.591 108.148 394.89 108.38L392.161 109.284C391.453 109.517 390.706 109.444 390.058 109.078C389.41 108.711 388.962 108.108 388.798 107.381L388.071 104.154L405.893 109.145C406.364 112.414 406.606 115.738 406.606 119.1C406.605 137.495 399.442 154.789 386.435 167.797Z" fill="url(#paint10_linear)"/>
    <path d="M299.722 75.6999L302.248 77.2506L300.868 83.461C300.593 84.7012 301.375 85.9301 302.615 86.2059C302.783 86.2433 302.951 86.2611 303.116 86.2611C304.171 86.2611 305.122 85.5313 305.36 84.4589L307.095 76.6472C307.308 75.6889 306.89 74.7011 306.053 74.1876L302.129 71.7786C301.047 71.1139 299.63 71.4525 298.965 72.5354C298.301 73.6186 298.639 75.0352 299.722 75.6999Z" fill="url(#paint20_linear)"/>
    <path d="M351.44 91.8574H358.256C358.748 91.8574 359.228 91.6991 359.624 91.4065L363.442 88.5818C364.464 87.8263 364.679 86.3854 363.923 85.3639C363.168 84.3424 361.727 84.127 360.706 84.8826L357.497 87.256H351.44C350.169 87.256 349.139 88.2861 349.139 89.5567C349.139 90.8273 350.169 91.8574 351.44 91.8574Z" fill="url(#paint30_linear)"/>
    <path d="M371.21 88.0879C371.66 88.7054 372.36 89.033 373.071 89.033C373.541 89.033 374.015 88.8891 374.424 88.591C375.451 87.8422 375.676 86.4032 374.927 85.3764L368.644 76.7614C367.895 75.7346 366.456 75.5095 365.429 76.2583C364.403 77.0071 364.178 78.4461 364.926 79.4728L371.21 88.0879Z" fill="url(#paint40_linear)"/>
    <g filter="url(#filter0_ff)">
    <ellipse cx="336.14" cy="79.1706" rx="72.6706" ry="23.9573" fill="#EAE8F6" fill-opacity="0.5"/>
    </g>
    <defs>
    <filter id="filter0_ff" x="208.368" y="0.111359" width="255.545" height="158.118" filterUnits="userSpaceOnUse" color-interpolation-filters="sRGB">
    <feFlood flood-opacity="0" result="BackgroundImageFix"/>
    <feBlend mode="normal" in="SourceGraphic" in2="BackgroundImageFix" result="shape"/>
    <feGaussianBlur stdDeviation="27.5509" result="effect1_foregroundBlur"/>
    </filter>
    <linearGradient id="paint10_linear" x1="338.536" y1="45.6304" x2="338.536" y2="192.569" gradientUnits="userSpaceOnUse">
    <stop stop-color="#EAE8F6" stop-opacity="0.71"/>
    <stop offset="1" stop-color="#C4C4C4" stop-opacity="0"/>
    </linearGradient>
    <linearGradient id="paint10_linear" x1="337.738" y1="45.6304" x2="337.738" y2="192.569" gradientUnits="userSpaceOnUse">
    <stop stop-color="white"/>
    <stop offset="1" stop-color="#30107E" stop-opacity="0"/>
    </linearGradient>
    <linearGradient id="paint20_linear" x1="302.888" y1="71.4382" x2="302.888" y2="86.2611" gradientUnits="userSpaceOnUse">
    <stop stop-color="white"/>
    <stop offset="1" stop-color="#30107E" stop-opacity="0"/>
    </linearGradient>
    <linearGradient id="paint30_linear" x1="356.757" y1="84.4314" x2="356.757" y2="91.8574" gradientUnits="userSpaceOnUse">
    <stop stop-color="white"/>
    <stop offset="1" stop-color="#30107E" stop-opacity="0"/>
    </linearGradient>
    <linearGradient id="paint40_linear" x1="369.927" y1="75.8162" x2="369.927" y2="89.033" gradientUnits="userSpaceOnUse">
    <stop stop-color="white"/>
    <stop offset="1" stop-color="#30107E" stop-opacity="0"/>
    </linearGradient>
    </defs> -->
  <!-- </g> -->
</svg>
