<svg style="z-index:-1" viewBox="0 0 875 548" fill="none" xmlns="http://www.w3.org/2000/svg"><path style="transition:.3s" d="M325.953 165.605a31.94 31.94 0 0124.925.044l298.095 126.926c3.172 1.35 3.257 5.816.137 7.286L350.392 440.586a31.945 31.945 0 01-27.353-.06L26.338 299.156c-3.111-1.483-3.01-5.945.166-7.284l299.449-126.267z" fill="#270970"/><path d="M326.129 126.028a31.568 31.568 0 0124.646.043l315.626 134.481c2.874 1.224 2.95 5.269.125 6.601L350.183 416.282a31.567 31.567 0 01-27.047-.06L8.924 266.408c-2.818-1.344-2.726-5.386.15-6.599L326.13 126.028z" fill="#6741C2" stroke="#EAE8F6" stroke-width=".749"/><mask id="a" fill="#fff"><path fill-rule="evenodd" clip-rule="evenodd" d="M431.665 292.278l-33.462-16.822-1.794 3.568 33.165 17.08H459.553v-.013l27.63-11.307-1.701-3.612-25.929 11.12v-.014h-27.888z"/></mask><path fill-rule="evenodd" clip-rule="evenodd" d="M431.665 292.278l-33.462-16.822-1.794 3.568 33.165 17.08H459.553v-.013l27.63-11.307-1.701-3.612-25.929 11.12v-.014h-27.888z" fill="#EAE8F6"/><path d="M398.203 275.456l.538-1.07-1.071-.538-.538 1.07 1.071.538zm33.462 16.822l-.538 1.07.254.128h.284v-1.198zm-35.256-13.254l-1.07-.538-.533 1.06 1.055.543.548-1.065zm33.165 17.08l-.549 1.065.258.133h.291v-1.198zm29.946 0l.48-1.097-.229-.101h-.251v1.198zm0 0l-.48 1.098.462.202.467-.189-.449-1.111zm0 0v-1.198h-.232l-.216.088.448 1.11zm.033 0v1.198h1.198v-1.198h-1.198zm0-.013l-.454-1.109-.744.305v.804h1.198zm27.63-11.307l.454 1.109 1.167-.478-.537-1.141-1.084.51zm-1.701-3.612l1.084-.51-.493-1.047-1.063.456.472 1.101zm-25.929 11.12h-1.198v1.817l1.67-.716-.472-1.101zm0-.014h1.198v-1.198h-1.198v1.198zm-61.888-15.751l33.462 16.821 1.076-2.14-33.462-16.822-1.076 2.141zm-.186 3.035l1.794-3.568-2.141-1.076-1.793 3.568 2.14 1.076zm32.643 15.477l-33.164-17.08-1.097 2.13 33.164 17.08 1.097-2.13zm29.398-.133h-29.946v2.396h29.946v-2.396zm.48.101l-.96 2.195.96-2.195zm-.928-.013l.897 2.221-.897-2.221zm.481-.088h-.033v2.396h.033v-2.396zm-1.198 1.185v.013h2.396v-.013h-2.396zm28.374-12.415l-27.63 11.306.908 2.218 27.63-11.307-.908-2.217zm-2.33-1.994l1.7 3.613 2.168-1.021-1.701-3.612-2.167 1.02zm-24.374 11.711l25.929-11.12-.944-2.202-25.929 11.12.944 2.202zm-1.67-1.115v.014h2.396v-.014h-2.396zm-26.69 1.198h27.888v-2.396h-27.888v2.396z" fill="#30107E" mask="url(#a)"/><mask id="b" fill="#fff"><path fill-rule="evenodd" clip-rule="evenodd" d="M434.649 229.4c.412-.608.634-1.276.618-1.975-.059-2.645-3.503-4.714-7.692-4.62-4.189.094-7.536 2.315-7.477 4.96.059 2.646 3.503 4.715 7.692 4.621a11.495 11.495 0 002.944-.443l29.772 15.333 2.675-3.533-28.532-14.343z"/></mask><path fill-rule="evenodd" clip-rule="evenodd" d="M434.649 229.4c.412-.608.634-1.276.618-1.975-.059-2.645-3.503-4.714-7.692-4.62-4.189.094-7.536 2.315-7.477 4.96.059 2.646 3.503 4.715 7.692 4.621a11.495 11.495 0 002.944-.443l29.772 15.333 2.675-3.533-28.532-14.343z" fill="#EAE8F6"/><path d="M435.267 227.425l-1.597.036 1.597-.036zm-.618 1.975l-1.322-.896-1.02 1.506 1.625.817.717-1.427zm-7.074-6.595l.036 1.597-.036-1.597zm-7.477 4.96l1.597-.035-1.597.035zm7.692 4.621l.036 1.596-.036-1.596zm2.944-.443l.732-1.42-.567-.292-.611.178.446 1.534zm29.772 15.333l-.731 1.42 1.194.615.811-1.071-1.274-.964zm2.675-3.533l1.273.964 1.158-1.529-1.714-.862-.717 1.427zm-29.511-16.282c.008.322-.09.67-.343 1.043l2.645 1.792c.57-.842.916-1.831.892-2.906l-3.194.071zm-6.059-3.059c1.84-.041 3.441.397 4.536 1.055 1.117.671 1.51 1.423 1.523 2.004l3.194-.071c-.046-2.064-1.404-3.669-3.072-4.671-1.688-1.014-3.904-1.563-6.252-1.511l.071 3.194zm-5.916 3.328c-.013-.582.347-1.351 1.432-2.071 1.064-.706 2.644-1.216 4.484-1.257l-.071-3.194c-2.349.053-4.538.701-6.179 1.789-1.622 1.076-2.906 2.74-2.86 4.804l3.194-.071zm6.059 3.059c-1.84.041-3.441-.397-4.536-1.055-1.116-.671-1.51-1.423-1.523-2.004l-3.194.071c.047 2.064 1.404 3.669 3.072 4.671 1.689 1.014 3.904 1.563 6.253 1.51l-.072-3.193zm2.534-.38a9.901 9.901 0 01-2.534.38l.072 3.193a13.054 13.054 0 003.355-.506l-.893-3.067zm30.95 15.447l-29.772-15.333-1.463 2.84 29.772 15.333 1.463-2.84zm.67-3.077l-2.675 3.533 2.547 1.928 2.674-3.533-2.546-1.928zm-27.976-11.952l28.532 14.343 1.434-2.854-28.531-14.343-1.435 2.854z" fill="#30107E" mask="url(#b)"/><mask id="c" fill="#fff"><path fill-rule="evenodd" clip-rule="evenodd" d="M200.144 318.287c-.349.548-.542 1.147-.544 1.775-.01 2.646 3.38 4.803 7.57 4.817 4.189.015 7.593-2.119 7.602-4.765.01-2.646-3.38-4.803-7.57-4.818a11.287 11.287 0 00-3.415.5l-40.216-25.282-1.363 4.291 37.936 23.482z"/></mask><path fill-rule="evenodd" clip-rule="evenodd" d="M200.144 318.287c-.349.548-.542 1.147-.544 1.775-.01 2.646 3.38 4.803 7.57 4.817 4.189.015 7.593-2.119 7.602-4.765.01-2.646-3.38-4.803-7.57-4.818a11.287 11.287 0 00-3.415.5l-40.216-25.282-1.363 4.291 37.936 23.482z" fill="#EAE8F6"/><path d="M200.144 318.287l1.347.858.87-1.364-1.376-.852-.841 1.358zm-.544 1.775l1.597.005-1.597-.005zm15.172.052l1.598.005-1.598-.005zm-7.57-4.818l.006-1.597-.006 1.597zm-3.415.5l-.85 1.352.626.393.704-.222-.48-1.523zm-40.216-25.282l.85-1.352-1.748-1.098-.625 1.967 1.523.483zm-1.363 4.291l-1.522-.483-.377 1.186 1.058.655.841-1.358zm36.59 22.623c-.493.773-.792 1.664-.796 2.628l3.195.011c.001-.291.088-.598.294-.922l-2.693-1.717zm-.796 2.628c-.007 2.065 1.309 3.704 2.95 4.749 1.662 1.057 3.863 1.663 6.212 1.671l.011-3.194c-1.84-.006-3.43-.486-4.508-1.172-1.098-.699-1.472-1.461-1.47-2.043l-3.195-.011zm9.162 6.42c2.35.008 4.554-.582 6.223-1.628 1.649-1.034 2.976-2.664 2.983-4.729l-3.195-.011c-.002.582-.381 1.342-1.484 2.033-1.083.679-2.676 1.147-4.516 1.141l-.011 3.194zm9.206-6.357c.007-2.064-1.309-3.704-2.95-4.748-1.662-1.058-3.863-1.664-6.212-1.672l-.011 3.195c1.84.006 3.43.486 4.508 1.172 1.098.699 1.472 1.46 1.47 2.042l3.195.011zm-9.162-6.42a12.858 12.858 0 00-3.901.574l.96 3.046a9.683 9.683 0 012.93-.425l.011-3.195zm-2.571.745l-40.216-25.282-1.7 2.705 40.216 25.281 1.7-2.704zm-42.589-24.413l-1.362 4.291 3.044.967 1.363-4.291-3.045-.967zm-.681 6.132l37.937 23.482 1.681-2.716-37.936-23.482-1.682 2.716z" fill="#31107E" mask="url(#c)"/><mask id="d" fill="#fff"><path fill-rule="evenodd" clip-rule="evenodd" d="M157.244 231.975l40.441-16.952a3.23 3.23 0 01-.407-1.491c-.05-2.646 3.305-4.855 7.495-4.935 4.189-.08 7.625 2.001 7.676 4.647.05 2.645-3.305 4.855-7.495 4.934a11.345 11.345 0 01-3.334-.42l-41.65 17.799-2.726-3.582zm295.943 91.801c1.01.291 2.142.443 3.334.421 4.19-.08 7.545-2.289 7.495-4.935-.051-2.646-3.487-4.726-7.676-4.646-4.19.079-7.545 2.288-7.495 4.934a3.23 3.23 0 00.407 1.492l-40.441 16.951 2.726 3.582 41.65-17.799z"/></mask><path fill-rule="evenodd" clip-rule="evenodd" d="M157.244 231.975l40.441-16.952a3.23 3.23 0 01-.407-1.491c-.05-2.646 3.305-4.855 7.495-4.935 4.189-.08 7.625 2.001 7.676 4.647.05 2.645-3.305 4.855-7.495 4.934a11.345 11.345 0 01-3.334-.42l-41.65 17.799-2.726-3.582zm295.943 91.801c1.01.291 2.142.443 3.334.421 4.19-.08 7.545-2.289 7.495-4.935-.051-2.646-3.487-4.726-7.676-4.646-4.19.079-7.545 2.288-7.495 4.934a3.23 3.23 0 00.407 1.492l-40.441 16.951 2.726 3.582 41.65-17.799z" fill="#EAE8F6"/><path d="M197.685 215.023l.618 1.473 1.632-.684-.847-1.554-1.403.765zm-40.441 16.952l-.618-1.473-1.903.797 1.25 1.643 1.271-.967zm40.034-18.443l-1.597.03 1.597-.03zm7.495-4.935l-.031-1.597.031 1.597zm7.676 4.647l1.596-.031-1.596.031zm-7.495 4.934l-.03-1.597.03 1.597zm-3.334-.42l.442-1.535-.547-.158-.523.224.628 1.469zm-41.65 17.799l-1.271.967.754.991 1.145-.49-.628-1.468zm293.217 88.219l.442-1.535-.547-.157-.523.224.628 1.468zm3.334.421l-.03-1.597.03 1.597zm7.495-4.935l-1.597.031 1.597-.031zm-15.171.288l1.597-.03-1.597.03zm.407 1.492l.618 1.473 1.632-.684-.847-1.554-1.403.765zm-40.441 16.951l-.618-1.473-1.903.798 1.25 1.642 1.271-.967zm2.726 3.582l-1.271.968.754.99 1.145-.489-.628-1.469zM197.068 213.55l-40.442 16.952 1.235 2.945 40.442-16.951-1.235-2.946zm-1.387.012c.016.802.235 1.553.602 2.226l2.805-1.53a1.621 1.621 0 01-.213-.757l-3.194.061zm9.061-6.562c-2.349.045-4.54.685-6.185 1.768-1.625 1.07-2.915 2.73-2.876 4.794l3.194-.061c-.011-.581.352-1.349 1.439-2.065 1.067-.703 2.649-1.207 4.489-1.242l-.061-3.194zm9.303 6.213c-.039-2.064-1.391-3.673-3.055-4.681-1.685-1.02-3.899-1.576-6.248-1.532l.061 3.194c1.84-.035 3.439.409 4.533 1.071 1.113.674 1.505 1.427 1.516 2.009l3.193-.061zm-9.06 6.562c2.349-.045 4.539-.685 6.185-1.768 1.625-1.07 2.915-2.73 2.875-4.794l-3.193.061c.011.582-.352 1.349-1.439 2.065-1.067.703-2.649 1.207-4.489 1.242l.061 3.194zm-3.807-.483c1.17.337 2.461.509 3.807.483l-.061-3.194a9.716 9.716 0 01-2.862-.358l-.884 3.069zm-40.58 17.733l41.65-17.799-1.256-2.937-41.649 17.799 1.255 2.937zm-4.625-4.083l2.726 3.582 2.542-1.935-2.727-3.582-2.541 1.935zm296.772 92.369c1.17.337 2.461.508 3.807.483l-.061-3.194a9.715 9.715 0 01-2.862-.359l-.884 3.07zm3.807.483c2.349-.045 4.539-.685 6.185-1.768 1.625-1.07 2.915-2.73 2.875-4.794l-3.193.061c.011.581-.352 1.349-1.439 2.065-1.067.703-2.649 1.207-4.489 1.242l.061 3.194zm9.06-6.562c-.039-2.064-1.391-3.674-3.055-4.681-1.685-1.02-3.899-1.577-6.248-1.532l.061 3.193c1.84-.034 3.439.41 4.533 1.071 1.113.674 1.505 1.428 1.516 2.01l3.193-.061zm-9.303-6.213c-2.349.044-4.539.684-6.185 1.768-1.625 1.07-2.915 2.729-2.876 4.793l3.194-.06c-.011-.582.352-1.35 1.439-2.066 1.067-.702 2.649-1.207 4.489-1.242l-.061-3.193zm-9.061 6.561c.016.802.235 1.554.602 2.227l2.805-1.53a1.624 1.624 0 01-.213-.757l-3.194.06zm1.387-.011l-40.442 16.951 1.235 2.946 40.442-16.951-1.235-2.946zM407.54 338.96l2.726 3.583 2.542-1.935-2.726-3.582-2.542 1.934zm4.625 4.084l41.65-17.799-1.256-2.937-41.649 17.799 1.255 2.937z" fill="#31107E" mask="url(#d)"/><mask id="e" fill="#fff"><path fill-rule="evenodd" clip-rule="evenodd" d="M250.143 213.238c1.024.263 2.169.381 3.369.32 4.185-.212 7.468-2.527 7.334-5.17-.134-2.642-3.635-4.613-7.819-4.4-4.185.212-7.468 2.527-7.334 5.17.026.522.185 1.019.454 1.478l-61.679 28.186 3.298 3.284 62.377-28.868z"/></mask><path fill-rule="evenodd" clip-rule="evenodd" d="M250.143 213.238c1.024.263 2.169.381 3.369.32 4.185-.212 7.468-2.527 7.334-5.17-.134-2.642-3.635-4.613-7.819-4.4-4.185.212-7.468 2.527-7.334 5.17.026.522.185 1.019.454 1.478l-61.679 28.186 3.298 3.284 62.377-28.868z" fill="#EAE8F6"/><path d="M250.143 213.238l.396-1.547-.551-.142-.516.239.671 1.45zm3.369.32l-.081-1.595.081 1.595zm-.485-9.57l.081 1.595-.081-1.595zm-7.334 5.17l1.595-.081-1.595.081zm.454 1.478l.664 1.452 1.609-.735-.896-1.526-1.377.809zm-61.679 28.186l-.664-1.453-2.096.959 1.633 1.626 1.127-1.132zm3.298 3.284l-1.127 1.132.789.785 1.009-.467-.671-1.45zm61.98-27.321c1.187.304 2.493.437 3.847.368l-.162-3.19a9.74 9.74 0 01-2.892-.272l-.793 3.094zm3.847.368c2.347-.119 4.516-.828 6.126-1.963 1.59-1.121 2.827-2.821 2.722-4.883l-3.19.162c.03.581-.308 1.36-1.372 2.11-1.045.737-2.61 1.291-4.448 1.384l.162 3.19zm8.848-6.846c-.104-2.061-1.507-3.627-3.202-4.582-1.717-.966-3.947-1.452-6.293-1.332l.162 3.19c1.838-.094 3.45.3 4.564.926 1.135.639 1.55 1.379 1.579 1.96l3.19-.162zm-9.495-5.914c-2.347.119-4.516.828-6.126 1.963-1.59 1.121-2.827 2.821-2.722 4.883l3.19-.162c-.03-.581.308-1.36 1.372-2.11 1.045-.737 2.609-1.291 4.448-1.384l-.162-3.19zm-8.848 6.846c.04.8.283 1.544.672 2.205l2.754-1.617a1.626 1.626 0 01-.236-.75l-3.19.162zm1.385-.056l-61.679 28.186 1.328 2.906 61.679-28.187-1.328-2.905zm-62.142 30.771l3.298 3.284 2.254-2.264-3.298-3.284-2.254 2.264zm5.096 3.602l62.376-28.869-1.341-2.899-62.376 28.869 1.341 2.899z" fill="#31107E" mask="url(#e)"/><mask id="f" fill="#fff"><path fill-rule="evenodd" clip-rule="evenodd" d="M229.405 281.778L195.95 264.96l-1.793 3.567 33.376 17.196.079-.116 29.469-.013v.129l27.85-11.435-1.701-3.613-26.149 11.055v.001l-27.676.047z"/></mask><path fill-rule="evenodd" clip-rule="evenodd" d="M229.405 281.778L195.95 264.96l-1.793 3.567 33.376 17.196.079-.116 29.469-.013v.129l27.85-11.435-1.701-3.613-26.149 11.055v.001l-27.676.047z" fill="#EAE8F6"/><path d="M195.95 264.96l.538-1.07-1.07-.538-.538 1.07 1.07.538zm33.455 16.818l-.538 1.07.255.128h.285l-.002-1.198zm-35.248-13.251l-1.07-.538-.533 1.06 1.054.543.549-1.065zm33.376 17.196l-.548 1.065.946.487.595-.882-.993-.67zm.079-.116l-.001-1.198-.636.001-.356.527.993.67zm29.469-.013h1.198v-1.199l-1.199.001.001 1.198zm0 .129h-1.198v1.787l1.653-.679-.455-1.108zm27.85-11.435l.455 1.108 1.165-.479-.536-1.139-1.084.51zm-1.701-3.613l1.084-.51-.49-1.041-1.06.448.466 1.103zm-26.149 11.055l-.467-1.103-.731.309v.794h1.198zm0 .001l.002 1.198 1.196-.003v-1.195h-1.198zm-61.669-15.701l33.455 16.818 1.076-2.14-33.455-16.818-1.076 2.14zm-.185 3.035l1.794-3.567-2.141-1.076-1.793 3.567 2.14 1.076zm32.855 15.593l-33.376-17.196-1.098 2.13 33.377 17.196 1.097-2.13zm-1.463.279l-.078.116 1.985 1.34.078-.116-1.985-1.34zm.993 1.868l29.469-.013-.001-2.396-29.469.013.001 2.396zm28.271-1.211v.129h2.396v-.129h-2.396zm1.653 1.237l27.85-11.435-.91-2.216-27.85 11.435.91 2.216zm28.479-13.053l-1.701-3.613-2.168 1.02 1.701 3.613 2.168-1.02zm-3.251-4.206l-26.15 11.055.933 2.206 26.15-11.055-.933-2.206zm-26.881 12.158v.001h2.396v-.001h-2.396zm1.196-1.197l-27.676.047.004 2.396 27.676-.047-.004-2.396z" fill="#331282" mask="url(#f)"/><g style="transition:.3s"><path d="M423.316 259.637l88.511-37.976 88.511 37.976-88.511 43.003-88.511-43.003z" fill="#49269D" stroke="#EAE8F6" stroke-width="1.437"/><path d="M448.74 71.857l63.087 30.076v185.271l-63.087-30.077V71.857z" fill="#673BCE"/><path d="M451.535 87.034l60.692 28.991-.4 25.954-60.292-27.394v-27.55zM451.535 123.611l60.692 28.991-.4 25.954-60.292-27.394v-27.551zM451.535 160.346l60.692 28.991-.4 25.953-60.292-27.393v-27.551z" fill="#A492D4"/><path d="M451.535 113.23l60.692 27.793-.4 1.597-60.292-27.394v-1.996zM451.535 149.807l60.692 27.792-.4 1.598-60.292-27.394v-1.996zM451.535 186.542l60.692 27.792-.4 1.597-60.292-27.393v-1.996z" fill="#EAE8F6"/><path d="M574.915 71.857l-63.088 30.076v185.271l63.088-30.077V71.857z" fill="#30107E"/><path d="M532.59 105.244l-20.763 10.612v26.123l20.763-10.382v-26.353zM532.59 141.821l-20.763 10.612v26.123l20.763-10.382v-26.353zM532.59 178.556l-20.763 10.612v26.122l20.763-10.381v-26.353z" fill="#A492D4"/><path d="M532.59 130.399l-20.763 10.438v1.783l20.763-10.382v-1.839zM532.59 166.976l-20.763 10.438v1.783l20.763-10.382v-1.839zM532.59 203.711l-20.763 10.438v1.782l20.763-10.381v-1.839z" fill="#EAE8F6"/><path d="M511.827 44.705l63.088 27.152-63.088 30.745-63.087-30.745 63.087-27.152z" fill="#A687ED"/><path d="M468.704 67.43l43.523 20.748v7.348l-43.523-20.75V67.43zM555.749 67.43l-43.522 20.748v7.348l43.522-20.75V67.43z" fill="#EAE8F6"/><path d="M512.227 46.15l49.911 21.346-49.911 24.172-49.912-24.172 49.912-21.347z" fill="url(#g)"/><path fill-rule="evenodd" clip-rule="evenodd" d="M511.827 303.439l-90.239-43.84v5.357l90.239 44.883v-6.4zm0 0l90.24-43.84v5.357l-90.24 44.883v-6.4z" fill="url(#h)"/><path d="M456.725 202.933c0-1.76 1.835-2.919 3.424-2.163l41.526 19.729a2.395 2.395 0 011.368 2.164v50.02c0 1.76-1.834 2.919-3.424 2.164l-41.526-19.73a2.397 2.397 0 01-1.368-2.164v-50.02z" fill="#673BCE" stroke="#30107E" stroke-width="1.597"/><path d="M553.753 245.633v-25.894l-21.562 10.244v25.894l21.562-10.244z" fill="#673BCE" stroke="#30107E" stroke-width="2.396"/><defs><linearGradient id="g" x1="532.266" y1="83.261" x2="449.25" y2="62.821" gradientUnits="userSpaceOnUse"><stop stop-color="#31107E"/><stop offset="1" stop-color="#8A61ED"/></linearGradient><linearGradient id="h" x1="548.058" y1="300.56" x2="411.141" y2="245.337" gradientUnits="userSpaceOnUse"><stop stop-color="#31107E"/><stop offset="1" stop-color="#8A61ED"/></linearGradient></defs></g><g style="transition:.3s"><path d="M249.226 344.932l88.511-37.976 88.511 37.976-88.511 43.003-88.511-43.003z" fill="#31107E" stroke="#EAE8F6" stroke-width="1.437"/><path d="M274.65 215.448l63.087 30.076v130.438l-63.087-30.077V215.448z" fill="#673BCE"/><path d="M277.445 230.626l60.692 28.99-.4 25.954-60.292-27.394v-27.55zM277.445 267.203l60.692 28.99-.4 25.954-60.292-27.394v-27.55zM277.445 303.937l60.692 28.991-.4 25.953-60.292-27.393v-27.551z" fill="#A492D4"/><path d="M277.445 256.821l60.692 27.793-.4 1.597-60.292-27.394v-1.996zM277.445 293.398l60.692 27.793-.4 1.597-60.292-27.394v-1.996zM277.445 330.133l60.692 27.792-.4 1.597-60.292-27.393v-1.996z" fill="#EAE8F6"/><path d="M400.825 215.448l-63.088 30.076v130.438l63.088-30.077V215.448z" fill="#30107E"/><path d="M358.5 248.835l-20.763 10.612v26.123l20.763-10.382v-26.353zM358.5 285.412l-20.763 10.612v26.123l20.763-10.382v-26.353zM358.5 322.147l-20.763 10.612v26.122L358.5 348.5v-26.353z" fill="#A492D4"/><path d="M358.5 273.99l-20.763 10.438v1.783l20.763-10.382v-1.839zM358.5 310.567l-20.763 10.438v1.783l20.763-10.382v-1.839zM358.5 347.302l-20.763 10.438v1.782l20.763-10.381v-1.839z" fill="#EAE8F6"/><path d="M337.737 188.296l63.088 27.152-63.088 30.745-63.087-30.745 63.087-27.152z" fill="#A687ED"/><path d="M294.614 211.02l43.523 20.749v7.348l-43.523-20.749v-7.348z" fill="#EAE8F6"/><path d="M381.659 211.02l-43.523 20.749v7.348l43.523-20.749v-7.348z" fill="#EAE8F6"/><path d="M338.136 189.74l49.912 21.347-49.912 24.172-49.911-24.172 49.911-21.347z" fill="#8A61ED"/><path d="M247.498 344.894l90.239 43.84v6.4l-90.239-44.883v-5.357zM427.977 344.894l-90.239 43.84v6.4l90.239-44.883v-5.357z" fill="#573C9B"/></g><g style="transition:.3s"><path d="M82.78 264.618l75.595-32.435 75.595 32.435-75.595 36.727-75.596-36.727z" fill="url(#i)" stroke="#EAE8F6" stroke-width="1.35"/><path d="M158.375 220.239l60.938 26.146-60.938 29.606-60.938-29.606 60.938-26.146z" fill="url(#j)"/><path d="M114.934 239.124l43.523 20.749v7.347l-43.523-20.749v-7.347z" fill="#EAE8F6"/><path d="M201.979 239.124l-43.523 20.749v7.347l43.523-20.749v-7.347z" fill="#EAE8F6"/><path d="M158.457 217.844l49.911 21.346-49.911 24.173-49.912-24.173 49.912-21.346z" fill="url(#k)"/><path fill-rule="evenodd" clip-rule="evenodd" d="M158.379 275.98l-60.938-29.597-.004 18.034 60.938 30.309.004-18.746zm-.004 26.115l-77.218-37.513v4.583l77.218 38.407v-5.477z" fill="url(#l)"/><path d="M235.593 264.582l-77.218 37.513v5.477l77.218-38.407v-4.583zM219.312 246.383l-60.945 29.601.008 18.742 60.938-30.309-.001-18.034z" fill="#573C9B"/><defs><linearGradient id="i" x1="189.378" y1="289.047" x2="60.897" y2="257.514" gradientUnits="userSpaceOnUse"><stop stop-color="#31107E"/><stop offset="1" stop-color="#8A61ED"/></linearGradient><linearGradient id="j" x1="182.841" y1="265.694" x2="81.449" y2="240.808" gradientUnits="userSpaceOnUse"><stop stop-color="#31107E"/><stop offset="1" stop-color="#8A61ED"/></linearGradient><linearGradient id="k" x1="178.496" y1="254.955" x2="95.48" y2="234.516" gradientUnits="userSpaceOnUse"><stop stop-color="#31107E"/><stop offset="1" stop-color="#8A61ED"/></linearGradient><linearGradient id="l" x1="146.354" y1="303.345" x2="112.235" y2="296.619" gradientUnits="userSpaceOnUse"><stop stop-color="#31107E"/><stop offset="1" stop-color="#8A61ED"/></linearGradient></defs></g></svg>