<svg viewBox="0 0 1188 1188" fill="none" xmlns="http://www.w3.org/2000/svg">
<g id="lines" style="transition: .3s">
  <line x1="596.774" y1="619.446" x2="527.774" y2="584.446" stroke="#EAE8F6"/>
  <path d="M440.781 704.449L309 639.5" stroke="#EAE8F6"/>
  <path d="M545.144 502.708L628.683 467.51L711.855 502.896C712.24 503.06 712.251 503.601 711.872 503.78L631.481 541.621C629.419 542.591 627.031 542.586 624.973 541.606L545.124 503.591C544.746 503.411 544.758 502.87 545.144 502.708Z" stroke="#EAE8F6" stroke-width="0.94"/>
  <path d="M522.115 489.795L569.606 469.511L616.884 489.902C617.266 490.067 617.276 490.605 616.901 490.784L572.635 511.907C570.552 512.9 568.131 512.895 566.053 511.892L522.095 490.677C521.72 490.496 521.733 489.958 522.115 489.795Z" stroke="#EAE8F6" stroke-width="0.94"/>
  <line x1="344.202" y1="579.458" x2="285.202" y2="605.458" stroke="#EAE8F6"/>
  <line x1="706.202" y1="449.458" x2="647.202" y2="475.458" stroke="#EAE8F6"/>
  <path d="M510.738 655.38L662.332 591.509L813.262 655.722C814.264 656.148 814.291 657.559 813.305 658.023L667.568 726.624C663.726 728.432 659.275 728.422 655.441 726.597L510.685 657.68C509.702 657.212 509.734 655.803 510.738 655.38Z" stroke="#EAE8F6" stroke-width="0.938483"/>
  <path d="M774.859 651.352C778.511 649.812 782.631 649.82 786.278 651.372L839.527 674.034C840.901 674.619 840.938 676.555 839.586 677.191L786.508 702.185C782.537 704.055 777.938 704.045 773.976 702.158L721.279 677.06C719.93 676.418 719.975 674.484 721.351 673.904L774.859 651.352Z" fill="#351585"/>
  <path d="M774.942 644.534C778.502 643.02 782.526 643.027 786.081 644.554L856.939 674.985C857.936 675.414 857.963 676.817 856.983 677.283L786.201 710.916C782.333 712.754 777.841 712.744 773.981 710.889L703.695 677.11C702.718 676.641 702.75 675.238 703.748 674.814L774.942 644.534Z" stroke="#EAE8F6" stroke-width="0.938483"/>
  <path d="M775.04 632.663C778.577 631.172 782.567 631.179 786.099 632.683L883.953 674.354C884.955 674.781 884.981 676.191 883.997 676.655L786.071 722.794C782.226 724.606 777.772 724.596 773.935 722.768L676.681 676.422C675.699 675.954 675.731 674.545 676.734 674.122L775.04 632.663Z" stroke="#542FAB" stroke-width="0.938483"/>
  <path d="M125.121 626.278L230.229 581.511L334.878 626.519C335.261 626.683 335.271 627.222 334.895 627.401L232.941 675.915C230.863 676.904 228.448 676.899 226.374 675.901L125.101 627.16C124.726 626.98 124.738 626.441 125.121 626.278Z" stroke="#EAE8F6" stroke-width="0.94"/>
  <path d="M718.859 384.352C722.511 382.813 726.631 382.82 730.278 384.372L783.527 407.034C784.901 407.619 784.938 409.555 783.586 410.191L730.508 435.185C726.537 437.055 721.938 437.045 717.976 435.158L665.279 410.061C663.93 409.418 663.975 407.484 665.351 406.904L718.859 384.352Z" fill="#351585"/>
  <path d="M718.942 377.534C722.502 376.02 726.526 376.027 730.08 377.554L800.939 407.986C801.936 408.414 801.962 409.817 800.982 410.283L730.201 443.916C726.332 445.754 721.841 445.744 717.98 443.889L647.695 410.11C646.718 409.641 646.75 408.238 647.748 407.814L718.942 377.534Z" stroke="#EAE8F6" stroke-width="0.938483"/>
  <path d="M719.04 365.663C722.577 364.172 726.567 364.179 730.099 365.683L827.953 407.355C828.955 407.781 828.981 409.191 827.997 409.655L730.071 455.795C726.226 457.606 721.772 457.596 717.935 455.768L620.681 409.422C619.699 408.954 619.731 407.545 620.734 407.122L719.04 365.663Z" stroke="#542FAB" stroke-width="0.938483"/>
  <path d="M126.859 601.352C130.512 599.813 134.632 599.82 138.279 601.372L191.527 624.034C192.902 624.619 192.938 626.555 191.586 627.191L138.508 652.185C134.537 654.055 129.938 654.045 125.976 652.158L73.279 627.061C71.9307 626.418 71.9748 624.484 73.351 623.904L126.859 601.352Z" fill="#351585"/>
  <path d="M126.942 594.534C130.502 593.02 134.526 593.027 138.081 594.554L208.939 624.986C209.936 625.414 209.963 626.817 208.983 627.283L138.201 660.916C134.333 662.754 129.841 662.745 125.981 660.889L55.6953 627.111C54.718 626.641 54.7502 625.238 55.748 624.814L126.942 594.534Z" stroke="#EAE8F6" stroke-width="0.938483"/>
  <path d="M127.04 582.663C130.577 581.172 134.567 581.179 138.099 582.683L235.953 624.355C236.955 624.781 236.981 626.191 235.997 626.655L138.071 672.795C134.226 674.606 129.772 674.596 125.935 672.768L28.6813 626.422C27.699 625.954 27.7312 624.545 28.7337 624.122L127.04 582.663Z" stroke="#542FAB" stroke-width="0.938483"/>
  <path d="M579.219 537.82C579.219 557.025 563.767 574.57 538.424 587.35C513.115 600.113 478.109 608.024 439.41 608.024C400.71 608.024 365.704 600.113 340.395 587.35C315.052 574.57 299.6 557.025 299.6 537.82C299.6 518.614 315.052 501.069 340.395 488.289C365.704 475.526 400.71 467.615 439.41 467.615C478.109 467.615 513.115 475.526 538.424 488.289C563.767 501.069 579.219 518.614 579.219 537.82Z" fill="#512DA8" stroke="#EAE8F6" stroke-width="1.20008"/>
  <path d="M3.74243 825.926L230.494 730.509L456.257 826.439C457.26 826.865 457.286 828.277 456.3 828.741L235.319 932.63C231.48 934.435 227.035 934.425 223.204 932.604L3.69003 828.226C2.7065 827.759 2.73863 826.348 3.74243 825.926Z" stroke="#EAE8F6" stroke-width="0.938483"/>
  <path d="M99.7424 929.926L326.494 834.509L552.257 930.439C553.26 930.865 553.286 932.277 552.3 932.741L331.319 1036.63C327.48 1038.43 323.035 1038.43 319.204 1036.6L99.69 932.226C98.7065 931.759 98.7386 930.348 99.7424 929.926Z" stroke="#EAE8F6" stroke-width="0.938483"/>
</g>
<!--  -->
<g id="computer" style="transition: .3s">
  <path d="M520.668 737.788L520.668 738.626C520.668 739.027 520.428 739.39 520.058 739.547L460 765L460 763L520.668 737.788Z" fill="#512DA8"/>
  <path d="M380 725.5L460 763L460 765L380 727L380 725.5Z" fill="#512DA8"/>
  <path d="M441.11 701.456C442.949 700.688 445.028 700.739 446.826 701.598L519.979 736.535C520.759 736.907 520.73 738.028 519.932 738.36L460.128 763.233L382 726.167L441.11 701.456Z" fill="#754DD3"/>
  <path d="M380 725.5L460 763.5L412 702.5L327.668 661.934L380 725.5Z" fill="#351585"/>
  <path d="M461.954 713.025L484.638 723.533L474.5 728L451.816 717.492L461.954 713.025Z" fill="#522EA9"/>
  <path d="M328 662L394 632.5L541.5 718.5L460 764L412 702.5L328 662Z" fill="url(#paint12_linear)"/>
  <defs>
  <linearGradient id="paint12_linear" x1="351" y1="712.5" x2="402" y2="652.5" gradientUnits="userSpaceOnUse">
  <stop stop-color="#EAE8F6" stop-opacity="0.42"/>
  <stop offset="1" stop-color="#C4C4C4" stop-opacity="0"/>
  </linearGradient>
  </defs>
</g>
<!--  -->
<g id="smallBlocks" style="transition: .3s">
  <path d="M138.633 625.27C134.579 627.236 129.848 627.233 125.797 625.261L72.1223 599.13V609.846C72.1223 611.618 73.1339 613.234 74.7273 614.008L127.877 639.832C130.615 641.162 133.812 641.165 136.552 639.838L189.918 614.006C191.515 613.233 192.529 611.615 192.529 609.841V599.13L138.633 625.27Z" fill="url(#paint0_linear)"/>
  <path d="M138.633 613.32C134.579 615.286 129.848 615.282 125.797 613.31L72.1223 587.179V597.895C72.1223 599.667 73.1339 601.283 74.7273 602.057L127.877 627.881C130.615 629.212 133.812 629.214 136.552 627.888L189.918 602.056C191.515 601.283 192.529 599.665 192.529 597.891V587.179L138.633 613.32Z" fill="url(#paint1_linear)"/>
  <path d="M138.633 601.796C134.579 603.762 129.848 603.759 125.797 601.787L72.1223 575.655V586.372C72.1223 588.143 73.1339 589.759 74.7273 590.534L127.877 616.358C130.615 617.688 133.812 617.69 136.552 616.364L189.918 590.532C191.515 589.759 192.529 588.141 192.529 586.367V575.655L138.633 601.796Z" fill="url(#paint2_linear)"/>
  <path d="M126.708 550.962C130.371 549.418 134.503 549.426 138.161 550.982L191.568 573.712C192.947 574.299 192.984 576.24 191.628 576.879L138.391 601.947C134.409 603.823 129.795 603.812 125.822 601.92L72.9674 576.748C71.615 576.104 71.6593 574.164 73.0396 573.582L126.708 550.962Z" fill="#5A35B5"/>
  <path d="M128.843 560.626C130.981 559.726 133.392 559.73 135.526 560.638L166.69 573.901C167.495 574.244 167.516 575.377 166.725 575.749L135.66 590.377C133.337 591.471 130.645 591.465 128.326 590.361L97.4848 575.673C96.6957 575.297 96.7215 574.165 97.5269 573.825L128.843 560.626Z" fill="#EAE8F6"/>
  <path d="M786.633 675.27C782.579 677.236 777.848 677.233 773.797 675.261L720.122 649.13V659.846C720.122 661.618 721.134 663.234 722.727 664.008L775.877 689.832C778.615 691.162 781.811 691.164 784.551 689.838L837.918 664.006C839.515 663.233 840.529 661.615 840.529 659.841V649.13L786.633 675.27Z" fill="url(#paint3_linear)"/>
  <path d="M786.633 663.32C782.579 665.286 777.848 665.282 773.797 663.31L720.122 637.179V650.792L775.877 677.881C778.615 679.211 781.811 679.214 784.551 677.888L840.529 650.792V637.179L786.633 663.32Z" fill="url(#paint4_linear)"/>
  <path d="M786.157 651.249C782.104 653.215 777.373 653.212 773.322 651.24L719.647 625.109L720 638.5L775.347 665.755C778.115 667.118 781.36 667.119 784.128 665.755L840.5 638L840.054 625.109L786.157 651.249Z" fill="url(#paint5_linear)"/>
  <path d="M774.233 600.415C777.896 598.872 782.028 598.879 785.686 600.435L839.093 623.166C840.472 623.752 840.509 625.694 839.153 626.332L785.916 651.401C781.934 653.276 777.32 653.266 773.346 651.373L720.492 626.201C719.14 625.557 719.184 623.617 720.564 623.035L774.233 600.415Z" fill="#5A35B5"/>
  <path d="M776.396 610.409C778.533 609.509 780.945 609.513 783.079 610.421L814.243 623.684C815.048 624.027 815.069 625.16 814.278 625.532L783.213 640.16C780.89 641.254 778.198 641.248 775.879 640.144L745.038 625.456C744.249 625.08 744.275 623.948 745.08 623.608L776.396 610.409Z" fill="#EAE8F6"/>
  <path d="M730.633 408.27C726.579 410.236 721.848 410.233 717.797 408.261L664.122 382.13V392.846C664.122 394.618 665.134 396.234 666.727 397.008L719.877 422.832C722.615 424.162 725.811 424.164 728.551 422.838L781.918 397.006C783.515 396.233 784.529 394.615 784.529 392.841V382.13L730.633 408.27Z" fill="url(#paint6_linear)"/>
  <path d="M730.632 396.32C726.579 398.286 721.847 398.282 717.797 396.31L664.122 370.179V380.895C664.122 382.667 665.133 384.283 666.727 385.057L719.877 410.881C722.615 412.212 725.811 412.214 728.551 410.888L781.917 385.056C783.514 384.283 784.529 382.665 784.529 380.891V370.179L730.632 396.32Z" fill="url(#paint7_linear)"/>
  <path d="M730.632 384.796C726.579 386.762 721.847 386.758 717.797 384.787L664.122 358.655V369.372C664.122 371.143 665.133 372.759 666.727 373.534L719.877 399.357C722.615 400.688 725.811 400.69 728.551 399.364L781.917 373.532C783.514 372.759 784.529 371.141 784.529 369.367V358.655L730.632 384.796Z" fill="url(#paint8_linear)"/>
  <path d="M718.707 333.962C722.37 332.418 726.503 332.426 730.161 333.982L783.568 356.712C784.947 357.299 784.984 359.24 783.628 359.879L730.391 384.947C726.408 386.823 721.795 386.812 717.821 384.92L664.967 359.748C663.615 359.103 663.659 357.164 665.039 356.582L718.707 333.962Z" fill="#5A35B5"/>
  <path d="M720.843 343.626C722.98 342.725 725.391 342.73 727.526 343.638L758.69 356.901C759.494 357.244 759.516 358.377 758.725 358.749L727.66 373.377C725.336 374.471 722.644 374.465 720.326 373.361L689.484 358.672C688.695 358.297 688.721 357.165 689.526 356.825L720.843 343.626Z" fill="#EAE8F6"/>
  <defs>
  <linearGradient id="paint0_linear" x1="156.497" y1="634.032" x2="59.9235" y2="603.535" gradientUnits="userSpaceOnUse">
  <stop stop-color="#31107E"/>
  <stop offset="1" stop-color="#8A61ED"/>
  </linearGradient>
  <linearGradient id="paint1_linear" x1="156.497" y1="622.081" x2="59.9235" y2="591.584" gradientUnits="userSpaceOnUse">
  <stop stop-color="#512DA8"/>
  <stop offset="1" stop-color="#8A61ED"/>
  </linearGradient>
  <linearGradient id="paint2_linear" x1="156.497" y1="610.557" x2="59.9235" y2="580.06" gradientUnits="userSpaceOnUse">
  <stop stop-color="#31107E"/>
  <stop offset="1" stop-color="#8A61ED"/>
  </linearGradient>
  <linearGradient id="paint3_linear" x1="804.497" y1="684.032" x2="707.923" y2="653.535" gradientUnits="userSpaceOnUse">
  <stop stop-color="#31107E"/>
  <stop offset="1" stop-color="#8A61ED"/>
  </linearGradient>
  <linearGradient id="paint4_linear" x1="804.497" y1="672.081" x2="707.923" y2="641.584" gradientUnits="userSpaceOnUse">
  <stop stop-color="#512DA8"/>
  <stop offset="1" stop-color="#8A61ED"/>
  </linearGradient>
  <linearGradient id="paint5_linear" x1="804.022" y1="660.011" x2="707.448" y2="629.514" gradientUnits="userSpaceOnUse">
  <stop stop-color="#31107E"/>
  <stop offset="1" stop-color="#8A61ED"/>
  </linearGradient>
  <linearGradient id="paint6_linear" x1="748.497" y1="417.032" x2="651.923" y2="386.535" gradientUnits="userSpaceOnUse">
  <stop stop-color="#31107E"/>
  <stop offset="1" stop-color="#8A61ED"/>
  </linearGradient>
  <linearGradient id="paint7_linear" x1="748.497" y1="405.081" x2="651.923" y2="374.584" gradientUnits="userSpaceOnUse">
  <stop stop-color="#512DA8"/>
  <stop offset="1" stop-color="#8A61ED"/>
  </linearGradient>
  <linearGradient id="paint8_linear" x1="748.497" y1="393.557" x2="651.923" y2="363.06" gradientUnits="userSpaceOnUse">
  <stop stop-color="#31107E"/>
  <stop offset="1" stop-color="#8A61ED"/>
  </linearGradient>
  </defs>
</g>
<!-- smallLight 1 -->
<g id="smallLight" style="transition:transform .3s">
  <path d="M77.4041 486H183.057L166.998 575.594H97.6895L77.4041 486Z" fill="url(#paint9_linear)"/>
  <path d="M125.288 491.919L131.554 490.638L128.401 496.315L121.999 497.405L125.288 491.919Z" fill="#734CCF"/>
  <path d="M122 497.405L128.401 496.315L131.92 501.283L125.518 502.374L122 497.405Z" fill="#6742C2"/>
  <path d="M131.555 490.638L128.401 496.315L131.92 501.283L135.074 495.606L131.555 490.638Z" fill="#381787"/>
  <path d="M173.799 500.146L176.571 507.153L169.339 504.659L166.761 497.456L173.799 500.146Z" fill="#734CCF"/>
  <path d="M166.761 497.456L169.339 504.659L164.296 509.761L161.718 502.557L166.761 497.456Z" fill="#6742C2"/>
  <path d="M176.572 507.153L169.339 504.659L164.296 509.761L171.529 512.255L176.572 507.153Z" fill="#381787"/>
  <path d="M151.36 532.994L147.08 536.046L147.557 530.73L152.002 527.777L151.36 532.994Z" fill="#734CCF"/>
  <path d="M152.003 527.776L147.557 530.729L143.257 528.17L147.703 525.217L152.003 527.776Z" fill="#6742C2"/>
  <path d="M147.08 536.045L147.557 530.729L143.257 528.17L142.78 533.485L147.08 536.045Z" fill="#381787"/>
  <path d="M105.708 520.546L98.262 521.701L102.292 515.198L109.887 514.275L105.708 520.546Z" fill="#734CCF"/>
  <path d="M109.887 514.275L102.292 515.198L98.4306 509.153L106.025 508.23L109.887 514.275Z" fill="#6742C2"/>
  <path d="M98.2617 521.701L102.292 515.198L98.4307 509.153L94.4003 515.656L98.2617 521.701Z" fill="#381787"/>
  <defs>
  <linearGradient id="paint9_linear" x1="130.231" y1="486" x2="130.231" y2="575.594" gradientUnits="userSpaceOnUse">
  <stop stop-color="#C4C4C4" stop-opacity="0"/>
  <stop offset="1" stop-color="#EAE8F6" stop-opacity="0.64"/>
  </linearGradient>
  </defs>
</g>
<!-- smallLight 2 -->
<g id="smallLight" style="transition:transform .3s">
  <path d="M725.404 536H831.057L814.998 625.594H745.689L725.404 536Z" fill="url(#paint10_linear)"/>
  <path d="M773.288 541.919L779.554 540.638L776.401 546.315L769.999 547.405L773.288 541.919Z" fill="#734CCF"/>
  <path d="M769.999 547.405L776.401 546.315L779.92 551.283L773.518 552.374L769.999 547.405Z" fill="#6742C2"/>
  <path d="M779.555 540.638L776.401 546.315L779.92 551.283L783.074 545.606L779.555 540.638Z" fill="#381787"/>
  <path d="M821.8 550.146L824.572 557.153L817.34 554.659L814.762 547.456L821.8 550.146Z" fill="#734CCF"/>
  <path d="M814.761 547.456L817.339 554.659L812.296 559.761L809.718 552.557L814.761 547.456Z" fill="#6742C2"/>
  <path d="M824.572 557.153L817.339 554.659L812.297 559.761L819.529 562.255L824.572 557.153Z" fill="#381787"/>
  <path d="M799.361 582.993L795.08 586.045L795.557 580.729L800.003 577.776L799.361 582.993Z" fill="#734CCF"/>
  <path d="M800.003 577.776L795.557 580.729L791.257 578.169L795.703 575.216L800.003 577.776Z" fill="#6742C2"/>
  <path d="M795.08 586.045L795.557 580.729L791.257 578.169L790.781 583.485L795.08 586.045Z" fill="#381787"/>
  <path d="M753.708 570.546L746.262 571.701L750.292 565.198L757.887 564.275L753.708 570.546Z" fill="#734CCF"/>
  <path d="M757.887 564.275L750.292 565.198L746.431 559.153L754.026 558.23L757.887 564.275Z" fill="#6742C2"/>
  <path d="M746.262 571.701L750.293 565.198L746.431 559.153L742.401 565.656L746.262 571.701Z" fill="#381787"/>
  <defs>
  <linearGradient id="paint10_linear" x1="778.23" y1="536" x2="778.23" y2="625.594" gradientUnits="userSpaceOnUse">
  <stop stop-color="#C4C4C4" stop-opacity="0"/>
  <stop offset="1" stop-color="#EAE8F6" stop-opacity="0.64"/>
  </linearGradient>
  </defs>
</g>
<!-- smallLight 3 -->
<g id="smallLight" style="transition:transform .3s">
  <path d="M669.404 269H775.057L758.998 358.594H689.689L669.404 269Z" fill="url(#paint11_linear)"/>
  <path d="M717.288 274.919L723.554 273.638L720.401 279.315L713.999 280.405L717.288 274.919Z" fill="#734CCF"/>
  <path d="M714 280.405L720.401 279.315L723.92 284.283L717.518 285.374L714 280.405Z" fill="#6742C2"/>
  <path d="M723.555 273.638L720.401 279.315L723.92 284.283L727.074 278.607L723.555 273.638Z" fill="#381787"/>
  <path d="M765.799 283.146L768.571 290.153L761.339 287.659L758.761 280.456L765.799 283.146Z" fill="#734CCF"/>
  <path d="M758.761 280.456L761.339 287.659L756.296 292.761L753.718 285.557L758.761 280.456Z" fill="#6742C2"/>
  <path d="M768.572 290.153L761.339 287.659L756.296 292.761L763.529 295.255L768.572 290.153Z" fill="#381787"/>
  <path d="M743.361 315.993L739.08 319.045L739.557 313.729L744.003 310.776L743.361 315.993Z" fill="#734CCF"/>
  <path d="M744.003 310.776L739.557 313.729L735.257 311.17L739.703 308.217L744.003 310.776Z" fill="#6742C2"/>
  <path d="M739.08 319.045L739.557 313.729L735.257 311.17L734.78 316.485L739.08 319.045Z" fill="#381787"/>
  <path d="M697.708 303.546L690.262 304.701L694.292 298.198L701.887 297.275L697.708 303.546Z" fill="#734CCF"/>
  <path d="M701.887 297.275L694.292 298.198L690.431 292.153L698.025 291.23L701.887 297.275Z" fill="#6742C2"/>
  <path d="M690.262 304.701L694.292 298.198L690.431 292.153L686.4 298.656L690.262 304.701Z" fill="#381787"/>
  <defs>
  <linearGradient id="paint11_linear" x1="722.23" y1="269" x2="722.23" y2="358.594" gradientUnits="userSpaceOnUse">
  <stop stop-color="#C4C4C4" stop-opacity="0"/>
  <stop offset="1" stop-color="#EAE8F6" stop-opacity="0.64"/>
  </linearGradient>
  </defs>
</g>
<!--  -->
<g id="lightAround" style="transition: .3s">
  <g filter="url(#filter30_f)">
  <ellipse cx="439.41" cy="537.219" rx="118.808" ry="53.4036" fill="#EAE8F6"/>
  </g>
  <path d="M321 424H556V544C465.247 606.737 413.746 604.279 321 544V424Z" fill="url(#paint30_linear)"/>
  <defs>
  <filter id="filter30_f" x="316.602" y="479.816" width="245.616" height="114.807" filterUnits="userSpaceOnUse" color-interpolation-filters="sRGB">
  <feFlood flood-opacity="0" result="BackgroundImageFix"/>
  <feBlend mode="normal" in="SourceGraphic" in2="BackgroundImageFix" result="shape"/>
  <feGaussianBlur stdDeviation="2" result="effect1_foregroundBlur"/>
  </filter>
  <linearGradient id="paint30_linear" x1="438.5" y1="424" x2="438.5" y2="590.136" gradientUnits="userSpaceOnUse">
  <stop stop-color="#E9E7F5" stop-opacity="0"/>
  <stop offset="1" stop-color="#E9E7F5" stop-opacity="0.39"/>
  </linearGradient>
  </defs>
</g>
<!--  -->
<g id="bigBlock" style="transition: .3s">
  <path d="M449.025 553.833C442.767 556.868 435.462 556.863 429.208 553.818L346.339 513.474V530.019C346.339 532.754 347.901 535.249 350.361 536.445L432.419 576.314C436.646 578.368 441.582 578.372 445.812 576.324L528.205 536.442C530.67 535.249 532.236 532.751 532.236 530.012V513.474L449.025 553.833Z" fill="url(#paint21_linear)"/>
  <path d="M430.614 475.35C436.269 472.966 442.65 472.977 448.297 475.381L530.753 510.474C532.882 511.38 532.938 514.377 530.845 515.363L448.652 554.066C442.504 556.961 435.381 556.946 429.246 554.024L347.644 515.16C345.556 514.166 345.624 511.171 347.755 510.273L430.614 475.35Z" fill="#5A35B5"/>
  <path d="M449.025 535.382C442.767 538.417 435.462 538.412 429.208 535.367L346.339 495.023V511.568C346.339 514.304 347.901 516.799 350.361 517.994L432.419 557.864C436.646 559.917 441.582 559.921 445.812 557.873L528.205 517.991C530.67 516.798 532.236 514.3 532.236 511.561V495.023L449.025 535.382Z" fill="url(#paint13_linear)"/>
  <path d="M430.614 456.899C436.269 454.516 442.65 454.527 448.297 456.93L530.753 492.023C532.882 492.929 532.938 495.926 530.845 496.912L448.652 535.616C442.504 538.511 435.381 538.495 429.246 535.573L347.644 496.709C345.556 495.715 345.624 492.72 347.755 491.822L430.614 456.899Z" fill="#5A35B5"/>
  <path d="M449.025 517.59C442.767 520.626 435.462 520.62 429.208 517.576L346.339 477.232V493.777C346.339 496.512 347.901 499.007 350.361 500.202L432.419 540.072C436.646 542.126 441.582 542.129 445.812 540.082L528.205 500.2C530.67 499.006 532.236 496.508 532.236 493.769V477.232L449.025 517.59Z" fill="url(#paint14_linear)"/>
  <path d="M430.614 439.108C436.269 436.724 442.65 436.735 448.297 439.139L530.753 474.232C532.882 475.138 532.938 478.135 530.845 479.121L448.652 517.824C442.504 520.719 435.381 520.704 429.246 517.782L347.644 478.918C345.556 477.924 345.624 474.929 347.755 474.031L430.614 439.108Z" fill="#5A35B5"/>
  <path d="M433.911 454.028C437.211 452.637 440.934 452.644 444.229 454.046L492.343 474.524C493.586 475.052 493.619 476.801 492.397 477.376L444.436 499.961C440.849 501.65 436.693 501.641 433.113 499.936L385.497 477.258C384.278 476.678 384.318 474.93 385.562 474.406L433.911 454.028Z" fill="#EAE8F6"/>
  <path d="M449.025 517.747C442.767 520.782 435.462 520.777 429.208 517.732L346.339 477.388V493.933C346.339 496.668 347.901 499.163 350.361 500.359L432.419 540.228C436.646 542.282 441.582 542.286 445.812 540.238L528.205 500.356C530.67 499.163 532.236 496.665 532.236 493.926V477.388L449.025 517.747Z" fill="url(#paint15_linear)"/>
  <path d="M430.614 439.264C436.269 436.88 442.65 436.892 448.297 439.295L530.753 474.388C532.882 475.294 532.938 478.291 530.845 479.277L448.652 517.98C442.504 520.876 435.381 520.86 429.246 517.938L347.644 479.074C345.556 478.08 345.624 475.085 347.755 474.187L430.614 439.264Z" fill="#5A35B5"/>
  <path d="M449.025 499.296C442.767 502.332 435.462 502.326 429.208 499.282L346.339 458.937V475.483C346.339 478.218 347.901 480.713 350.361 481.908L432.419 521.778C436.646 523.832 441.582 523.835 445.812 521.788L528.205 481.906C530.67 480.712 532.236 478.214 532.236 475.475V458.937L449.025 499.296Z" fill="url(#paint16_linear)"/>
  <path d="M430.614 420.814C436.269 418.43 442.65 418.441 448.297 420.844L530.753 455.938C532.882 456.844 532.938 459.841 530.845 460.826L448.652 499.53C442.504 502.425 435.381 502.409 429.246 499.487L347.644 460.624C345.556 459.629 345.624 456.635 347.755 455.736L430.614 420.814Z" fill="#5A35B5"/>
  <path d="M449.025 481.505C442.767 484.54 435.462 484.534 429.208 481.49L346.339 441.146V457.691C346.339 460.426 347.901 462.921 350.361 464.117L432.419 503.986C436.646 506.04 441.582 506.044 445.812 503.996L528.205 464.114C530.67 462.92 532.236 460.423 532.236 457.684V441.146L449.025 481.505Z" fill="url(#paint17_linear)"/>
  <path d="M430.614 403.022C436.269 400.638 442.65 400.649 448.297 403.053L530.753 438.146C532.882 439.052 532.938 442.049 530.845 443.035L448.652 481.738C442.504 484.633 435.381 484.618 429.246 481.696L347.644 442.832C345.556 441.838 345.624 438.843 347.755 437.945L430.614 403.022Z" fill="#5A35B5"/>
  <path d="M433.911 417.942C437.211 416.552 440.934 416.558 444.229 417.96L492.344 438.438C493.586 438.967 493.619 440.715 492.398 441.291L444.437 463.875C440.849 465.564 436.693 465.555 433.113 463.85L385.497 441.172C384.279 440.592 384.319 438.845 385.562 438.32L433.911 417.942Z" fill="#EAE8F6"/>
  <path d="M449.025 484.179C442.767 487.214 435.462 487.208 429.208 484.164L346.339 443.82V460.365C346.339 463.1 347.901 465.595 350.361 466.791L432.419 506.66C436.646 508.714 441.582 508.718 445.812 506.67L528.205 466.788C530.67 465.594 532.236 463.097 532.236 460.358V443.82L449.025 484.179Z" fill="url(#paint18_linear)"/>
  <path d="M430.614 405.696C436.269 403.312 442.65 403.323 448.297 405.727L530.753 440.82C532.882 441.726 532.938 444.723 530.845 445.709L448.652 484.412C442.504 487.307 435.381 487.292 429.246 484.37L347.644 445.506C345.556 444.512 345.624 441.517 347.755 440.619L430.614 405.696Z" fill="#5A35B5"/>
  <path d="M449.025 465.728C442.767 468.763 435.462 468.758 429.208 465.713L346.339 425.369V441.914C346.339 444.649 347.901 447.145 350.361 448.34L432.419 488.21C436.646 490.263 441.582 490.267 445.812 488.219L528.205 448.337C530.67 447.144 532.236 444.646 532.236 441.907V425.369L449.025 465.728Z" fill="url(#paint19_linear)"/>
  <path d="M430.614 387.245C436.269 384.862 442.65 384.873 448.297 387.276L530.753 422.369C532.882 423.275 532.938 426.272 530.845 427.258L448.652 465.962C442.504 468.857 435.381 468.841 429.246 465.919L347.644 427.055C345.556 426.061 345.624 423.066 347.755 422.168L430.614 387.245Z" fill="#5A35B5"/>
  <path d="M449.025 447.936C442.767 450.972 435.462 450.966 429.208 447.922L346.339 407.577V424.123C346.339 426.858 347.901 429.353 350.361 430.548L432.419 470.418C436.646 472.472 441.582 472.475 445.812 470.428L528.205 430.546C530.67 429.352 532.236 426.854 532.236 424.115V407.577L449.025 447.936Z" fill="url(#paint20_linear)"/>
  <path d="M430.614 369.454C436.269 367.07 442.65 367.081 448.297 369.485L530.753 404.578C532.882 405.484 532.938 408.481 530.845 409.466L448.652 448.17C442.504 451.065 435.381 451.049 429.246 448.128L347.644 409.264C345.556 408.269 345.624 405.275 347.755 404.377L430.614 369.454Z" fill="#5A35B5"/>
  <g filter="url(#filter0_f)">
  <path d="M433.911 384.374C437.212 382.983 440.934 382.99 444.23 384.392L492.344 404.87C493.586 405.398 493.619 407.147 492.398 407.722L444.437 430.306C440.849 431.996 436.693 431.987 433.113 430.282L385.497 407.604C384.279 407.024 384.319 405.276 385.562 404.752L433.911 384.374Z" fill="#EAE8F6"/>
  </g>
  <defs>
  <filter id="filter0_f" x="382.606" y="381.336" width="112.689" height="52.2312" filterUnits="userSpaceOnUse" color-interpolation-filters="sRGB">
  <feFlood flood-opacity="0" result="BackgroundImageFix"/>
  <feBlend mode="normal" in="SourceGraphic" in2="BackgroundImageFix" result="shape"/>
  <feGaussianBlur stdDeviation="1" result="effect1_foregroundBlur"/>
  </filter>
  <linearGradient id="paint21_linear" x1="476.607" y1="567.36" x2="327.505" y2="520.275" gradientUnits="userSpaceOnUse">
  <stop stop-color="#31107E"/>
  <stop offset="1" stop-color="#8A61ED"/>
  </linearGradient>
  <linearGradient id="paint13_linear" x1="476.607" y1="548.909" x2="327.505" y2="501.824" gradientUnits="userSpaceOnUse">
  <stop stop-color="#512DA8"/>
  <stop offset="1" stop-color="#8A61ED"/>
  </linearGradient>
  <linearGradient id="paint14_linear" x1="476.607" y1="531.117" x2="327.505" y2="484.033" gradientUnits="userSpaceOnUse">
  <stop stop-color="#31107E"/>
  <stop offset="1" stop-color="#8A61ED"/>
  </linearGradient>
  <linearGradient id="paint15_linear" x1="476.607" y1="531.274" x2="327.505" y2="484.189" gradientUnits="userSpaceOnUse">
  <stop stop-color="#31107E"/>
  <stop offset="1" stop-color="#8A61ED"/>
  </linearGradient>
  <linearGradient id="paint16_linear" x1="476.607" y1="512.823" x2="327.505" y2="465.739" gradientUnits="userSpaceOnUse">
  <stop stop-color="#512DA8"/>
  <stop offset="1" stop-color="#8A61ED"/>
  </linearGradient>
  <linearGradient id="paint17_linear" x1="476.607" y1="495.031" x2="327.505" y2="447.947" gradientUnits="userSpaceOnUse">
  <stop stop-color="#31107E"/>
  <stop offset="1" stop-color="#8A61ED"/>
  </linearGradient>
  <linearGradient id="paint18_linear" x1="476.607" y1="497.705" x2="327.505" y2="450.621" gradientUnits="userSpaceOnUse">
  <stop stop-color="#31107E"/>
  <stop offset="1" stop-color="#8A61ED"/>
  </linearGradient>
  <linearGradient id="paint19_linear" x1="476.607" y1="479.255" x2="327.505" y2="432.17" gradientUnits="userSpaceOnUse">
  <stop stop-color="#512DA8"/>
  <stop offset="1" stop-color="#8A61ED"/>
  </linearGradient>
  <linearGradient id="paint20_linear" x1="476.607" y1="461.463" x2="327.505" y2="414.379" gradientUnits="userSpaceOnUse">
  <stop stop-color="#31107E"/>
  <stop offset="1" stop-color="#8A61ED"/>
  </linearGradient>
  </defs>
</g>
<!--  -->
<g id="planet" style="transition: .3s">
  <circle cx="439" cy="364" r="81" fill="url(#paint0_radial)"/>
  <circle cx="439.342" cy="360.653" r="52.8267" fill="#9C78F2" stroke="#EAE8F6" stroke-width="0.845226"/>
  <path d="M479.577 361C479.577 375.551 475.07 388.709 467.802 398.22C460.534 407.731 450.524 413.577 439.5 413.577C428.476 413.577 418.466 407.731 411.198 398.22C403.93 388.709 399.423 375.551 399.423 361C399.423 346.449 403.93 333.291 411.198 323.78C418.466 314.269 428.476 308.423 439.5 308.423C450.524 308.423 460.534 314.269 467.802 323.78C475.07 333.291 479.577 346.449 479.577 361Z" fill="#9C78F2" stroke="#EAE8F6" stroke-width="0.845226"/>
  <path d="M460.577 361C460.577 375.595 458.177 388.789 454.311 398.318C452.378 403.084 450.087 406.912 447.564 409.542C445.042 412.172 442.317 413.577 439.5 413.577C436.683 413.577 433.958 412.172 431.436 409.542C428.913 406.912 426.622 403.084 424.689 398.318C420.823 388.789 418.423 375.595 418.423 361C418.423 346.405 420.823 333.211 424.689 323.682C426.622 318.916 428.913 315.088 431.436 312.458C433.958 309.828 436.683 308.423 439.5 308.423C442.317 308.423 445.042 309.828 447.564 312.458C450.087 315.088 452.378 318.916 454.311 323.682C458.177 333.211 460.577 346.405 460.577 361Z" fill="#9C78F2" stroke="#EAE8F6" stroke-width="0.845226"/>
  <path d="M491.577 360.5C491.577 370.963 485.74 380.472 476.228 387.382C466.717 394.291 453.556 398.577 439 398.577C424.444 398.577 411.283 394.291 401.772 387.382C392.26 380.472 386.423 370.963 386.423 360.5C386.423 350.037 392.26 340.528 401.772 333.618C411.283 326.709 424.444 322.423 439 322.423C453.556 322.423 466.717 326.709 476.228 333.618C485.74 340.528 491.577 350.037 491.577 360.5Z" stroke="#EAE8F6" stroke-width="0.845226"/>
  <path d="M491.577 360.5C491.577 362.43 490.237 364.359 487.595 366.186C484.965 368.004 481.132 369.658 476.358 371.055C466.815 373.845 453.607 375.577 439 375.577C424.393 375.577 411.185 373.845 401.642 371.055C396.868 369.658 393.035 368.004 390.405 366.186C387.763 364.359 386.423 362.43 386.423 360.5C386.423 358.57 387.763 356.641 390.405 354.814C393.035 352.996 396.868 351.342 401.642 349.945C411.185 347.155 424.393 345.423 439 345.423C453.607 345.423 466.815 347.155 476.358 349.945C481.132 351.342 484.965 352.996 487.595 354.814C490.237 356.641 491.577 358.57 491.577 360.5Z" stroke="#EAE8F6" stroke-width="0.845226"/>
  <path d="M486.577 337.5C486.577 339.451 485.366 341.381 483.009 343.199C480.658 345.012 477.23 346.664 472.956 348.058C464.413 350.846 452.585 352.577 439.5 352.577C426.415 352.577 414.587 350.846 406.044 348.058C401.77 346.664 398.342 345.012 395.991 343.199C393.634 341.381 392.423 339.451 392.423 337.5C392.423 335.549 393.634 333.619 395.991 331.801C398.342 329.988 401.77 328.336 406.044 326.942C414.587 324.154 426.415 322.423 439.5 322.423C452.585 322.423 464.413 324.154 472.956 326.942C477.23 328.336 480.658 329.988 483.009 331.801C485.366 333.619 486.577 335.549 486.577 337.5Z" stroke="#EAE8F6" stroke-width="0.845226"/>
  <path d="M468.577 319C468.577 320.354 467.843 321.694 466.402 322.965C464.962 324.234 462.854 325.397 460.212 326.382C454.932 328.351 447.609 329.577 439.5 329.577C431.391 329.577 424.068 328.351 418.788 326.382C416.146 325.397 414.038 324.234 412.598 322.965C411.157 321.694 410.423 320.354 410.423 319C410.423 317.646 411.157 316.306 412.598 315.035C414.038 313.766 416.146 312.603 418.788 311.618C424.068 309.649 431.391 308.423 439.5 308.423C447.609 308.423 454.932 309.649 460.212 311.618C462.854 312.603 464.962 313.766 466.402 315.035C467.843 316.306 468.577 317.646 468.577 319Z" stroke="#EAE8F6" stroke-width="0.845226"/>
  <defs>
  <radialGradient id="paint0_radial" cx="0" cy="0" r="1" gradientUnits="userSpaceOnUse" gradientTransform="translate(439 364) rotate(90) scale(89.2266)">
  <stop stop-color="white"/>
  <stop offset="1" stop-color="#9C78F2" stop-opacity="0"/>
  </radialGradient>
  </defs>
</g>
</svg>
