<svg viewBox="0 0 1188 1188" fill="none" xmlns="http://www.w3.org/2000/svg"><g style="transition:.3s"><path stroke="#EAE8F6" d="M596.774 619.446l-69-35M440.781 704.449L309 639.5"/><path d="M545.144 502.708l83.539-35.198 83.172 35.386a.484.484 0 01.017.884l-80.391 37.841a7.606 7.606 0 01-6.508-.015l-79.849-38.015a.484.484 0 01.02-.883z" stroke="#EAE8F6" stroke-width=".94"/><path d="M522.115 489.795l47.491-20.284 47.278 20.391a.485.485 0 01.017.882l-44.266 21.123a7.61 7.61 0 01-6.582-.015l-43.958-21.215a.485.485 0 01.02-.882z" stroke="#EAE8F6" stroke-width=".94"/><path stroke="#EAE8F6" d="M344.202 579.458l-59 26M706.202 449.458l-59 26"/><path d="M510.738 655.38l151.594-63.871 150.93 64.213c1.002.426 1.029 1.837.043 2.301l-145.737 68.601a14.175 14.175 0 01-12.127-.027L510.685 657.68c-.983-.468-.951-1.877.053-2.3z" stroke="#EAE8F6" stroke-width=".938"/><path d="M774.859 651.352a14.637 14.637 0 0111.419.02l53.249 22.662c1.374.585 1.411 2.521.059 3.157l-53.078 24.994a14.639 14.639 0 01-12.532-.027l-52.697-25.098c-1.349-.642-1.304-2.576.072-3.156l53.508-22.552z" fill="#351585"/><path d="M774.942 644.534a14.17 14.17 0 0111.139.02l70.858 30.431c.997.429 1.024 1.832.044 2.298l-70.782 33.633a14.171 14.171 0 01-12.22-.027l-70.286-33.779c-.977-.469-.945-1.872.053-2.296l71.194-30.28z" stroke="#EAE8F6" stroke-width=".938"/><path d="M775.04 632.663a14.173 14.173 0 0111.059.02l97.854 41.671c1.002.427 1.028 1.837.044 2.301l-97.926 46.139a14.17 14.17 0 01-12.136-.026l-97.254-46.346c-.982-.468-.95-1.877.053-2.3l98.306-41.459z" stroke="#542FAB" stroke-width=".938"/><path d="M125.121 626.278l105.108-44.767 104.649 45.008a.484.484 0 01.017.882l-101.954 48.514a7.607 7.607 0 01-6.567-.014L125.101 627.16a.484.484 0 01.02-.882z" stroke="#EAE8F6" stroke-width=".94"/><path d="M718.859 384.352a14.641 14.641 0 0111.419.02l53.249 22.662c1.374.585 1.411 2.521.059 3.157l-53.078 24.994a14.639 14.639 0 01-12.532-.027l-52.697-25.097c-1.349-.643-1.304-2.577.072-3.157l53.508-22.552z" fill="#351585"/><path d="M718.942 377.534a14.168 14.168 0 0111.138.02l70.859 30.432c.997.428 1.023 1.831.043 2.297l-70.781 33.633a14.173 14.173 0 01-12.221-.027l-70.285-33.779c-.977-.469-.945-1.872.053-2.296l71.194-30.28z" stroke="#EAE8F6" stroke-width=".938"/><path d="M719.04 365.663a14.173 14.173 0 0111.059.02l97.854 41.672c1.002.426 1.028 1.836.044 2.3l-97.926 46.14a14.173 14.173 0 01-12.136-.027l-97.254-46.346c-.982-.468-.95-1.877.053-2.3l98.306-41.459z" stroke="#542FAB" stroke-width=".938"/><path d="M126.859 601.352a14.644 14.644 0 0111.42.02l53.248 22.662c1.375.585 1.411 2.521.059 3.157l-53.078 24.994a14.639 14.639 0 01-12.532-.027l-52.697-25.097c-1.348-.643-1.304-2.577.072-3.157l53.508-22.552z" fill="#351585"/><path d="M126.942 594.534a14.17 14.17 0 0111.139.02l70.858 30.432c.997.428 1.024 1.831.044 2.297l-70.782 33.633a14.168 14.168 0 01-12.22-.027l-70.286-33.778c-.977-.47-.945-1.873.053-2.297l71.194-30.28z" stroke="#EAE8F6" stroke-width=".938"/><path d="M127.04 582.663a14.173 14.173 0 0111.059.02l97.854 41.672c1.002.426 1.028 1.836.044 2.3l-97.926 46.14a14.173 14.173 0 01-12.136-.027l-97.254-46.346c-.982-.468-.95-1.877.053-2.3l98.306-41.459z" stroke="#542FAB" stroke-width=".938"/><path d="M579.219 537.82c0 19.205-15.452 36.75-40.795 49.53-25.309 12.763-60.315 20.674-99.014 20.674-38.7 0-73.706-7.911-99.015-20.674-25.343-12.78-40.795-30.325-40.795-49.53 0-19.206 15.452-36.751 40.795-49.531 25.309-12.763 60.315-20.674 99.015-20.674 38.699 0 73.705 7.911 99.014 20.674 25.343 12.78 40.795 30.325 40.795 49.531z" fill="#512DA8" stroke="#EAE8F6" stroke-width="1.2"/><path d="M3.742 825.926l226.752-95.417 225.763 95.93c1.003.426 1.029 1.838.043 2.302L235.319 932.63a14.173 14.173 0 01-12.115-.026L3.69 828.226c-.983-.467-.951-1.878.052-2.3z" stroke="#EAE8F6" stroke-width=".938"/><path d="M99.742 929.926l226.752-95.417 225.763 95.93c1.003.426 1.029 1.838.043 2.302L331.319 1036.63a14.158 14.158 0 01-12.115-.03L99.69 932.226c-.983-.467-.951-1.878.052-2.3z" stroke="#EAE8F6" stroke-width=".938"/></g><g style="transition:.3s"><path d="M520.668 737.788v.838a1 1 0 01-.61.921L460 765v-2l60.668-25.212zM380 725.5l80 37.5v2l-80-38v-1.5z" fill="#512DA8"/><path d="M441.11 701.456a7.001 7.001 0 015.716.142l73.153 34.937c.78.372.751 1.493-.047 1.825l-59.804 24.873L382 726.167l59.11-24.711z" fill="#754DD3"/><path d="M380 725.5l80 38-48-61-84.332-40.566L380 725.5z" fill="#351585"/><path d="M461.954 713.025l22.684 10.508L474.5 728l-22.684-10.508 10.138-4.467z" fill="#522EA9"/><path d="M328 662l66-29.5 147.5 86L460 764l-48-61.5-84-40.5z" fill="url(#a)"/><defs><linearGradient id="a" x1="351" y1="712.5" x2="402" y2="652.5" gradientUnits="userSpaceOnUse"><stop stop-color="#EAE8F6" stop-opacity=".42"/><stop offset="1" stop-color="#C4C4C4" stop-opacity="0"/></linearGradient></defs></g><g style="transition:.3s"><path d="M138.633 625.27a14.685 14.685 0 01-12.836-.009L72.122 599.13v10.716a4.627 4.627 0 002.605 4.162l53.15 25.824a9.94 9.94 0 008.675.006l53.366-25.832a4.627 4.627 0 002.611-4.165V599.13l-53.896 26.14z" fill="url(#b)"/><path d="M138.633 613.32a14.685 14.685 0 01-12.836-.01l-53.675-26.131v10.716a4.627 4.627 0 002.605 4.162l53.15 25.824a9.94 9.94 0 008.675.007l53.366-25.832a4.627 4.627 0 002.611-4.165v-10.712l-53.896 26.141z" fill="url(#c)"/><path d="M138.633 601.796a14.685 14.685 0 01-12.836-.009l-53.675-26.132v10.717a4.629 4.629 0 002.605 4.162l53.15 25.824a9.943 9.943 0 008.675.006l53.366-25.832a4.627 4.627 0 002.611-4.165v-10.712l-53.896 26.141z" fill="url(#d)"/><path d="M126.708 550.962a14.686 14.686 0 0111.453.02l53.407 22.73c1.379.587 1.416 2.528.06 3.167l-53.237 25.068a14.682 14.682 0 01-12.569-.027l-52.855-25.172c-1.352-.644-1.308-2.584.073-3.166l53.668-22.62z" fill="#5A35B5"/><path d="M128.843 560.626a8.573 8.573 0 016.683.012l31.164 13.263c.805.343.826 1.476.035 1.848l-31.065 14.628a8.57 8.57 0 01-7.334-.016l-30.841-14.688c-.79-.376-.763-1.508.042-1.848l31.316-13.199z" fill="#EAE8F6"/><path d="M786.633 675.27a14.685 14.685 0 01-12.836-.009l-53.675-26.131v10.716a4.627 4.627 0 002.605 4.162l53.15 25.824a9.94 9.94 0 008.674.006l53.367-25.832a4.627 4.627 0 002.611-4.165V649.13l-53.896 26.14z" fill="url(#e)"/><path d="M786.633 663.32a14.685 14.685 0 01-12.836-.01l-53.675-26.131v13.613l55.755 27.089a9.94 9.94 0 008.674.007l55.978-27.096v-13.613l-53.896 26.141z" fill="url(#f)"/><path d="M786.157 651.249a14.683 14.683 0 01-12.835-.009l-53.675-26.131L720 638.5l55.347 27.255a9.936 9.936 0 008.781 0L840.5 638l-.446-12.891-53.897 26.14z" fill="url(#g)"/><path d="M774.233 600.415a14.69 14.69 0 0111.453.02l53.407 22.731c1.379.586 1.416 2.528.06 3.166l-53.237 25.069a14.684 14.684 0 01-12.57-.028l-52.854-25.172c-1.352-.644-1.308-2.584.072-3.166l53.669-22.62z" fill="#5A35B5"/><path d="M776.396 610.409a8.573 8.573 0 016.683.012l31.164 13.263c.805.343.826 1.476.035 1.848l-31.065 14.628a8.57 8.57 0 01-7.334-.016l-30.841-14.688c-.789-.376-.763-1.508.042-1.848l31.316-13.199z" fill="#EAE8F6"/><path d="M730.633 408.27a14.685 14.685 0 01-12.836-.009l-53.675-26.131v10.716a4.627 4.627 0 002.605 4.162l53.15 25.824a9.94 9.94 0 008.674.006l53.367-25.832a4.627 4.627 0 002.611-4.165V382.13l-53.896 26.14z" fill="url(#h)"/><path d="M730.632 396.32a14.683 14.683 0 01-12.835-.01l-53.675-26.131v10.716a4.626 4.626 0 002.605 4.162l53.15 25.824a9.937 9.937 0 008.674.007l53.366-25.832a4.628 4.628 0 002.612-4.165v-10.712l-53.897 26.141z" fill="url(#i)"/><path d="M730.632 384.796a14.686 14.686 0 01-12.835-.009l-53.675-26.132v10.717a4.628 4.628 0 002.605 4.162l53.15 25.823a9.937 9.937 0 008.674.007l53.366-25.832a4.628 4.628 0 002.612-4.165v-10.712l-53.897 26.141z" fill="url(#j)"/><path d="M718.707 333.962a14.688 14.688 0 0111.454.02l53.407 22.73c1.379.587 1.416 2.528.06 3.167l-53.237 25.068a14.684 14.684 0 01-12.57-.027l-52.854-25.172c-1.352-.645-1.308-2.584.072-3.166l53.668-22.62z" fill="#5A35B5"/><path d="M720.843 343.626a8.569 8.569 0 016.683.012l31.164 13.263c.804.343.826 1.476.035 1.848l-31.065 14.628a8.57 8.57 0 01-7.334-.016l-30.842-14.689c-.789-.375-.763-1.507.042-1.847l31.317-13.199z" fill="#EAE8F6"/><defs><linearGradient id="b" x1="156.497" y1="634.032" x2="59.923" y2="603.535" gradientUnits="userSpaceOnUse"><stop stop-color="#31107E"/><stop offset="1" stop-color="#8A61ED"/></linearGradient><linearGradient id="c" x1="156.497" y1="622.081" x2="59.923" y2="591.584" gradientUnits="userSpaceOnUse"><stop stop-color="#512DA8"/><stop offset="1" stop-color="#8A61ED"/></linearGradient><linearGradient id="d" x1="156.497" y1="610.557" x2="59.923" y2="580.06" gradientUnits="userSpaceOnUse"><stop stop-color="#31107E"/><stop offset="1" stop-color="#8A61ED"/></linearGradient><linearGradient id="e" x1="804.497" y1="684.032" x2="707.923" y2="653.535" gradientUnits="userSpaceOnUse"><stop stop-color="#31107E"/><stop offset="1" stop-color="#8A61ED"/></linearGradient><linearGradient id="f" x1="804.497" y1="672.081" x2="707.923" y2="641.584" gradientUnits="userSpaceOnUse"><stop stop-color="#512DA8"/><stop offset="1" stop-color="#8A61ED"/></linearGradient><linearGradient id="g" x1="804.022" y1="660.011" x2="707.448" y2="629.514" gradientUnits="userSpaceOnUse"><stop stop-color="#31107E"/><stop offset="1" stop-color="#8A61ED"/></linearGradient><linearGradient id="h" x1="748.497" y1="417.032" x2="651.923" y2="386.535" gradientUnits="userSpaceOnUse"><stop stop-color="#31107E"/><stop offset="1" stop-color="#8A61ED"/></linearGradient><linearGradient id="i" x1="748.497" y1="405.081" x2="651.923" y2="374.584" gradientUnits="userSpaceOnUse"><stop stop-color="#512DA8"/><stop offset="1" stop-color="#8A61ED"/></linearGradient><linearGradient id="j" x1="748.497" y1="393.557" x2="651.923" y2="363.06" gradientUnits="userSpaceOnUse"><stop stop-color="#31107E"/><stop offset="1" stop-color="#8A61ED"/></linearGradient></defs></g><g style="transition:transform .3s"><path d="M77.404 486h105.653l-16.059 89.594H97.69L77.403 486z" fill="url(#k)"/><path d="M125.288 491.919l6.266-1.281-3.153 5.677-6.402 1.09 3.289-5.486z" fill="#734CCF"/><path d="M122 497.405l6.401-1.09 3.519 4.968-6.402 1.091-3.518-4.969z" fill="#6742C2"/><path d="M131.555 490.638l-3.154 5.677 3.519 4.968 3.154-5.677-3.519-4.968z" fill="#381787"/><path d="M173.799 500.146l2.772 7.007-7.232-2.494-2.578-7.203 7.038 2.69z" fill="#734CCF"/><path d="M166.761 497.456l2.578 7.203-5.043 5.102-2.578-7.204 5.043-5.101z" fill="#6742C2"/><path d="M176.572 507.153l-7.233-2.494-5.043 5.102 7.233 2.494 5.043-5.102z" fill="#381787"/><path d="M151.36 532.994l-4.28 3.052.477-5.316 4.445-2.953-.642 5.217z" fill="#734CCF"/><path d="M152.003 527.776l-4.446 2.953-4.3-2.559 4.446-2.953 4.3 2.559z" fill="#6742C2"/><path d="M147.08 536.045l.477-5.316-4.3-2.559-.477 5.315 4.3 2.56z" fill="#381787"/><path d="M105.708 520.546l-7.446 1.155 4.03-6.503 7.595-.923-4.179 6.271z" fill="#734CCF"/><path d="M109.887 514.275l-7.595.923-3.861-6.045 7.594-.923 3.862 6.045z" fill="#6742C2"/><path d="M98.262 521.701l4.03-6.503-3.861-6.045-4.03 6.503 3.86 6.045z" fill="#381787"/><defs><linearGradient id="k" x1="130.231" y1="486" x2="130.231" y2="575.594" gradientUnits="userSpaceOnUse"><stop stop-color="#C4C4C4" stop-opacity="0"/><stop offset="1" stop-color="#EAE8F6" stop-opacity=".64"/></linearGradient></defs></g><g style="transition:transform .3s"><path d="M725.404 536h105.653l-16.059 89.594h-69.309L725.404 536z" fill="url(#l)"/><path d="M773.288 541.919l6.266-1.281-3.153 5.677-6.402 1.09 3.289-5.486z" fill="#734CCF"/><path d="M769.999 547.405l6.402-1.09 3.519 4.968-6.402 1.091-3.519-4.969z" fill="#6742C2"/><path d="M779.555 540.638l-3.154 5.677 3.519 4.968 3.154-5.677-3.519-4.968z" fill="#381787"/><path d="M821.8 550.146l2.772 7.007-7.232-2.494-2.578-7.203 7.038 2.69z" fill="#734CCF"/><path d="M814.761 547.456l2.578 7.203-5.043 5.102-2.578-7.204 5.043-5.101z" fill="#6742C2"/><path d="M824.572 557.153l-7.233-2.494-5.042 5.102 7.232 2.494 5.043-5.102z" fill="#381787"/><path d="M799.361 582.993l-4.281 3.052.477-5.316 4.446-2.953-.642 5.217z" fill="#734CCF"/><path d="M800.003 577.776l-4.446 2.953-4.3-2.56 4.446-2.953 4.3 2.56z" fill="#6742C2"/><path d="M795.08 586.045l.477-5.316-4.3-2.56-.476 5.316 4.299 2.56z" fill="#381787"/><path d="M753.708 570.546l-7.446 1.155 4.03-6.503 7.595-.923-4.179 6.271z" fill="#734CCF"/><path d="M757.887 564.275l-7.595.923-3.861-6.045 7.595-.923 3.861 6.045z" fill="#6742C2"/><path d="M746.262 571.701l4.031-6.503-3.862-6.045-4.03 6.503 3.861 6.045z" fill="#381787"/><defs><linearGradient id="l" x1="778.23" y1="536" x2="778.23" y2="625.594" gradientUnits="userSpaceOnUse"><stop stop-color="#C4C4C4" stop-opacity="0"/><stop offset="1" stop-color="#EAE8F6" stop-opacity=".64"/></linearGradient></defs></g><g style="transition:transform .3s"><path d="M669.404 269h105.653l-16.059 89.594h-69.309L669.404 269z" fill="url(#m)"/><path d="M717.288 274.919l6.266-1.281-3.153 5.677-6.402 1.09 3.289-5.486z" fill="#734CCF"/><path d="M714 280.405l6.401-1.09 3.519 4.968-6.402 1.091-3.518-4.969z" fill="#6742C2"/><path d="M723.555 273.638l-3.154 5.677 3.519 4.968 3.154-5.676-3.519-4.969z" fill="#381787"/><path d="M765.799 283.146l2.772 7.007-7.232-2.494-2.578-7.203 7.038 2.69z" fill="#734CCF"/><path d="M758.761 280.456l2.578 7.203-5.043 5.102-2.578-7.204 5.043-5.101z" fill="#6742C2"/><path d="M768.572 290.153l-7.233-2.494-5.043 5.102 7.233 2.494 5.043-5.102z" fill="#381787"/><path d="M743.361 315.993l-4.281 3.052.477-5.316 4.446-2.953-.642 5.217z" fill="#734CCF"/><path d="M744.003 310.776l-4.446 2.953-4.3-2.559 4.446-2.953 4.3 2.559z" fill="#6742C2"/><path d="M739.08 319.045l.477-5.316-4.3-2.559-.477 5.315 4.3 2.56z" fill="#381787"/><path d="M697.708 303.546l-7.446 1.155 4.03-6.503 7.595-.923-4.179 6.271z" fill="#734CCF"/><path d="M701.887 297.275l-7.595.923-3.861-6.045 7.594-.923 3.862 6.045z" fill="#6742C2"/><path d="M690.262 304.701l4.03-6.503-3.861-6.045-4.031 6.503 3.862 6.045z" fill="#381787"/><defs><linearGradient id="m" x1="722.23" y1="269" x2="722.23" y2="358.594" gradientUnits="userSpaceOnUse"><stop stop-color="#C4C4C4" stop-opacity="0"/><stop offset="1" stop-color="#EAE8F6" stop-opacity=".64"/></linearGradient></defs></g><g style="transition:.3s"><g filter="url(#n)"><ellipse cx="439.41" cy="537.219" rx="118.808" ry="53.404" fill="#EAE8F6"/></g><path d="M321 424h235v120c-90.753 62.737-142.254 60.279-235 0V424z" fill="url(#o)"/><defs><linearGradient id="o" x1="438.5" y1="424" x2="438.5" y2="590.136" gradientUnits="userSpaceOnUse"><stop stop-color="#E9E7F5" stop-opacity="0"/><stop offset="1" stop-color="#E9E7F5" stop-opacity=".39"/></linearGradient><filter id="n" x="316.602" y="479.816" width="245.616" height="114.807" filterUnits="userSpaceOnUse" color-interpolation-filters="sRGB"><feFlood flood-opacity="0" result="BackgroundImageFix"/><feBlend in="SourceGraphic" in2="BackgroundImageFix" result="shape"/><feGaussianBlur stdDeviation="2" result="effect1_foregroundBlur"/></filter></defs></g><g style="transition:.3s"><path d="M449.025 553.833a22.67 22.67 0 01-19.817-.015l-82.869-40.344v16.545a7.146 7.146 0 004.022 6.426l82.058 39.869a15.345 15.345 0 0013.393.01l82.393-39.882a7.143 7.143 0 004.031-6.43v-16.538l-83.211 40.359z" fill="url(#p)"/><path d="M430.614 475.35a22.667 22.667 0 0117.683.031l82.456 35.093c2.129.906 2.185 3.903.092 4.889l-82.193 38.703a22.67 22.67 0 01-19.406-.042l-81.602-38.864c-2.088-.994-2.02-3.989.111-4.887l82.859-34.923z" fill="#5A35B5"/><path d="M449.025 535.382a22.67 22.67 0 01-19.817-.015l-82.869-40.344v16.545a7.144 7.144 0 004.022 6.426l82.058 39.87a15.349 15.349 0 0013.393.009l82.393-39.882a7.143 7.143 0 004.031-6.43v-16.538l-83.211 40.359z" fill="url(#q)"/><path d="M430.614 456.899a22.675 22.675 0 0117.683.031l82.456 35.093c2.129.906 2.185 3.903.092 4.889l-82.193 38.704a22.67 22.67 0 01-19.406-.043l-81.602-38.864c-2.088-.994-2.02-3.989.111-4.887l82.859-34.923z" fill="#5A35B5"/><path d="M449.025 517.59a22.67 22.67 0 01-19.817-.014l-82.869-40.344v16.545a7.143 7.143 0 004.022 6.425l82.058 39.87a15.349 15.349 0 0013.393.01l82.393-39.882a7.146 7.146 0 004.031-6.431v-16.537l-83.211 40.358z" fill="url(#r)"/><path d="M430.614 439.108a22.667 22.667 0 0117.683.031l82.456 35.093c2.129.906 2.185 3.903.092 4.889l-82.193 38.703a22.67 22.67 0 01-19.406-.042l-81.602-38.864c-2.088-.994-2.02-3.989.111-4.887l82.859-34.923z" fill="#5A35B5"/><path d="M433.911 454.028a13.23 13.23 0 0110.318.018l48.114 20.478c1.243.528 1.276 2.277.054 2.852l-47.961 22.585a13.228 13.228 0 01-11.323-.025l-47.616-22.678c-1.219-.58-1.179-2.328.065-2.852l48.349-20.378z" fill="#EAE8F6"/><path d="M449.025 517.747a22.67 22.67 0 01-19.817-.015l-82.869-40.344v16.545a7.146 7.146 0 004.022 6.426l82.058 39.869a15.345 15.345 0 0013.393.01l82.393-39.882a7.143 7.143 0 004.031-6.43v-16.538l-83.211 40.359z" fill="url(#s)"/><path d="M430.614 439.264a22.671 22.671 0 0117.683.031l82.456 35.093c2.129.906 2.185 3.903.092 4.889l-82.193 38.703a22.667 22.667 0 01-19.406-.042l-81.602-38.864c-2.088-.994-2.02-3.989.111-4.887l82.859-34.923z" fill="#5A35B5"/><path d="M449.025 499.296a22.67 22.67 0 01-19.817-.014l-82.869-40.345v16.546a7.143 7.143 0 004.022 6.425l82.058 39.87a15.349 15.349 0 0013.393.01l82.393-39.882a7.146 7.146 0 004.031-6.431v-16.538l-83.211 40.359z" fill="url(#t)"/><path d="M430.614 420.814a22.671 22.671 0 0117.683.03l82.456 35.094c2.129.906 2.185 3.903.092 4.888l-82.193 38.704a22.67 22.67 0 01-19.406-.043l-81.602-38.863c-2.088-.995-2.02-3.989.111-4.888l82.859-34.922z" fill="#5A35B5"/><path d="M449.025 481.505a22.674 22.674 0 01-19.817-.015l-82.869-40.344v16.545a7.146 7.146 0 004.022 6.426l82.058 39.869a15.345 15.345 0 0013.393.01l82.393-39.882a7.145 7.145 0 004.031-6.43v-16.538l-83.211 40.359z" fill="url(#u)"/><path d="M430.614 403.022a22.667 22.667 0 0117.683.031l82.456 35.093c2.129.906 2.185 3.903.092 4.889l-82.193 38.703a22.67 22.67 0 01-19.406-.042l-81.602-38.864c-2.088-.994-2.02-3.989.111-4.887l82.859-34.923z" fill="#5A35B5"/><path d="M433.911 417.942a13.234 13.234 0 0110.318.018l48.115 20.478c1.242.529 1.275 2.277.054 2.853l-47.961 22.584a13.23 13.23 0 01-11.324-.025l-47.616-22.678c-1.218-.58-1.178-2.327.065-2.852l48.349-20.378z" fill="#EAE8F6"/><path d="M449.025 484.179a22.674 22.674 0 01-19.817-.015l-82.869-40.344v16.545a7.146 7.146 0 004.022 6.426l82.058 39.869a15.345 15.345 0 0013.393.01l82.393-39.882a7.145 7.145 0 004.031-6.43V443.82l-83.211 40.359z" fill="url(#v)"/><path d="M430.614 405.696a22.667 22.667 0 0117.683.031l82.456 35.093c2.129.906 2.185 3.903.092 4.889l-82.193 38.703a22.67 22.67 0 01-19.406-.042l-81.602-38.864c-2.088-.994-2.02-3.989.111-4.887l82.859-34.923z" fill="#5A35B5"/><path d="M449.025 465.728a22.67 22.67 0 01-19.817-.015l-82.869-40.344v16.545a7.145 7.145 0 004.022 6.426l82.058 39.87a15.349 15.349 0 0013.393.009l82.393-39.882a7.143 7.143 0 004.031-6.43v-16.538l-83.211 40.359z" fill="url(#w)"/><path d="M430.614 387.245a22.675 22.675 0 0117.683.031l82.456 35.093c2.129.906 2.185 3.903.092 4.889l-82.193 38.704a22.67 22.67 0 01-19.406-.043l-81.602-38.864c-2.088-.994-2.02-3.989.111-4.887l82.859-34.923z" fill="#5A35B5"/><path d="M449.025 447.936a22.67 22.67 0 01-19.817-.014l-82.869-40.345v16.546a7.143 7.143 0 004.022 6.425l82.058 39.87a15.349 15.349 0 0013.393.01l82.393-39.882a7.146 7.146 0 004.031-6.431v-16.538l-83.211 40.359z" fill="url(#x)"/><path d="M430.614 369.454a22.667 22.667 0 0117.683.031l82.456 35.093c2.129.906 2.185 3.903.092 4.888l-82.193 38.704a22.674 22.674 0 01-19.406-.042l-81.602-38.864c-2.088-.995-2.02-3.989.111-4.887l82.859-34.923z" fill="#5A35B5"/><g filter="url(#y)"><path d="M433.911 384.374a13.232 13.232 0 0110.319.018l48.114 20.478c1.242.528 1.275 2.277.054 2.852l-47.961 22.584a13.227 13.227 0 01-11.324-.024l-47.616-22.678c-1.218-.58-1.178-2.328.065-2.852l48.349-20.378z" fill="#EAE8F6"/></g><defs><linearGradient id="p" x1="476.607" y1="567.36" x2="327.505" y2="520.275" gradientUnits="userSpaceOnUse"><stop stop-color="#31107E"/><stop offset="1" stop-color="#8A61ED"/></linearGradient><linearGradient id="q" x1="476.607" y1="548.909" x2="327.505" y2="501.824" gradientUnits="userSpaceOnUse"><stop stop-color="#512DA8"/><stop offset="1" stop-color="#8A61ED"/></linearGradient><linearGradient id="r" x1="476.607" y1="531.117" x2="327.505" y2="484.033" gradientUnits="userSpaceOnUse"><stop stop-color="#31107E"/><stop offset="1" stop-color="#8A61ED"/></linearGradient><linearGradient id="s" x1="476.607" y1="531.274" x2="327.505" y2="484.189" gradientUnits="userSpaceOnUse"><stop stop-color="#31107E"/><stop offset="1" stop-color="#8A61ED"/></linearGradient><linearGradient id="t" x1="476.607" y1="512.823" x2="327.505" y2="465.739" gradientUnits="userSpaceOnUse"><stop stop-color="#512DA8"/><stop offset="1" stop-color="#8A61ED"/></linearGradient><linearGradient id="u" x1="476.607" y1="495.031" x2="327.505" y2="447.947" gradientUnits="userSpaceOnUse"><stop stop-color="#31107E"/><stop offset="1" stop-color="#8A61ED"/></linearGradient><linearGradient id="v" x1="476.607" y1="497.705" x2="327.505" y2="450.621" gradientUnits="userSpaceOnUse"><stop stop-color="#31107E"/><stop offset="1" stop-color="#8A61ED"/></linearGradient><linearGradient id="w" x1="476.607" y1="479.255" x2="327.505" y2="432.17" gradientUnits="userSpaceOnUse"><stop stop-color="#512DA8"/><stop offset="1" stop-color="#8A61ED"/></linearGradient><linearGradient id="x" x1="476.607" y1="461.463" x2="327.505" y2="414.379" gradientUnits="userSpaceOnUse"><stop stop-color="#31107E"/><stop offset="1" stop-color="#8A61ED"/></linearGradient><filter id="y" x="382.606" y="381.336" width="112.689" height="52.231" filterUnits="userSpaceOnUse" color-interpolation-filters="sRGB"><feFlood flood-opacity="0" result="BackgroundImageFix"/><feBlend in="SourceGraphic" in2="BackgroundImageFix" result="shape"/><feGaussianBlur stdDeviation="1" result="effect1_foregroundBlur"/></filter></defs></g><g style="transition:.3s"><circle cx="439" cy="364" r="81" fill="url(#z)"/><circle cx="439.342" cy="360.653" r="52.827" fill="#9C78F2" stroke="#EAE8F6" stroke-width=".845"/><path d="M479.577 361c0 14.551-4.507 27.709-11.775 37.22-7.268 9.511-17.278 15.357-28.302 15.357-11.024 0-21.034-5.846-28.302-15.357-7.268-9.511-11.775-22.669-11.775-37.22 0-14.551 4.507-27.709 11.775-37.22 7.268-9.511 17.278-15.357 28.302-15.357 11.024 0 21.034 5.846 28.302 15.357 7.268 9.511 11.775 22.669 11.775 37.22z" fill="#9C78F2" stroke="#EAE8F6" stroke-width=".845"/><path d="M460.577 361c0 14.595-2.4 27.789-6.266 37.318-1.933 4.766-4.224 8.594-6.747 11.224-2.522 2.63-5.247 4.035-8.064 4.035s-5.542-1.405-8.064-4.035c-2.523-2.63-4.814-6.458-6.747-11.224-3.866-9.529-6.266-22.723-6.266-37.318 0-14.595 2.4-27.789 6.266-37.318 1.933-4.766 4.224-8.594 6.747-11.224 2.522-2.63 5.247-4.035 8.064-4.035s5.542 1.405 8.064 4.035c2.523 2.63 4.814 6.458 6.747 11.224 3.866 9.529 6.266 22.723 6.266 37.318z" fill="#9C78F2" stroke="#EAE8F6" stroke-width=".845"/><path d="M491.577 360.5c0 10.463-5.837 19.972-15.349 26.882-9.511 6.909-22.672 11.195-37.228 11.195-14.556 0-27.717-4.286-37.228-11.195-9.512-6.91-15.349-16.419-15.349-26.882 0-10.463 5.837-19.972 15.349-26.882 9.511-6.909 22.672-11.195 37.228-11.195 14.556 0 27.717 4.286 37.228 11.195 9.512 6.91 15.349 16.419 15.349 26.882z" stroke="#EAE8F6" stroke-width=".845"/><path d="M491.577 360.5c0 1.93-1.34 3.859-3.982 5.686-2.63 1.818-6.463 3.472-11.237 4.869-9.543 2.79-22.751 4.522-37.358 4.522-14.607 0-27.815-1.732-37.358-4.522-4.774-1.397-8.607-3.051-11.237-4.869-2.642-1.827-3.982-3.756-3.982-5.686 0-1.93 1.34-3.859 3.982-5.686 2.63-1.818 6.463-3.472 11.237-4.869 9.543-2.79 22.751-4.522 37.358-4.522 14.607 0 27.815 1.732 37.358 4.522 4.774 1.397 8.607 3.051 11.237 4.869 2.642 1.827 3.982 3.756 3.982 5.686z" stroke="#EAE8F6" stroke-width=".845"/><path d="M486.577 337.5c0 1.951-1.211 3.881-3.568 5.699-2.351 1.813-5.779 3.465-10.053 4.859-8.543 2.788-20.371 4.519-33.456 4.519-13.085 0-24.913-1.731-33.456-4.519-4.274-1.394-7.702-3.046-10.053-4.859-2.357-1.818-3.568-3.748-3.568-5.699 0-1.951 1.211-3.881 3.568-5.699 2.351-1.813 5.779-3.465 10.053-4.859 8.543-2.788 20.371-4.519 33.456-4.519 13.085 0 24.913 1.731 33.456 4.519 4.274 1.394 7.702 3.046 10.053 4.859 2.357 1.818 3.568 3.748 3.568 5.699z" stroke="#EAE8F6" stroke-width=".845"/><path d="M468.577 319c0 1.354-.734 2.694-2.175 3.965-1.44 1.269-3.548 2.432-6.19 3.417-5.28 1.969-12.603 3.195-20.712 3.195s-15.432-1.226-20.712-3.195c-2.642-.985-4.75-2.148-6.19-3.417-1.441-1.271-2.175-2.611-2.175-3.965 0-1.354.734-2.694 2.175-3.965 1.44-1.269 3.548-2.432 6.19-3.417 5.28-1.969 12.603-3.195 20.712-3.195s15.432 1.226 20.712 3.195c2.642.985 4.75 2.148 6.19 3.417 1.441 1.271 2.175 2.611 2.175 3.965z" stroke="#EAE8F6" stroke-width=".845"/><defs><radialGradient id="z" cx="0" cy="0" r="1" gradientUnits="userSpaceOnUse" gradientTransform="rotate(90 37.5 401.5) scale(89.2266)"><stop stop-color="#fff"/><stop offset="1" stop-color="#9C78F2" stop-opacity="0"/></radialGradient></defs></g></svg>