<svg viewBox="0 0 941 1069" fill="none" xmlns="http://www.w3.org/2000/svg"><path style="transition:.3s" d="M395.916 617.005a54.742 54.742 0 0142.698.074l199.102 84.738c5.14 2.187 5.277 9.424.222 11.804l-198.467 93.455a54.74 54.74 0 01-46.858-.102l-197.039-93.842c-5.042-2.401-4.877-9.633.269-11.801l200.073-84.326z" fill="#270970"/><g style="transition:.3s"><path d="M440.372 699.512a54.742 54.742 0 01-47.85-.035l-200.1-97.417v39.951a17.249 17.249 0 009.712 15.515l198.141 96.271a37.056 37.056 0 0032.338.024l198.949-96.302a17.248 17.248 0 009.734-15.526V602.06l-200.924 97.452z" fill="url(#a)"/><path d="M395.916 510.005a54.742 54.742 0 0142.698.074l199.102 84.738c5.14 2.187 5.277 9.424.222 11.804l-198.467 93.455a54.74 54.74 0 01-46.858-.102l-197.039-93.842c-5.042-2.401-4.877-9.633.269-11.801l200.073-84.326z" fill="#7F59D9"/><defs><linearGradient id="a" x1="506.971" y1="732.174" x2="146.945" y2="618.482" gradientUnits="userSpaceOnUse"><stop stop-color="#31107E"/><stop offset="1" stop-color="#8A61ED"/></linearGradient></defs></g><g style="transition:.3s"><circle cx="410" cy="489" r="254" fill="url(#b)"/><path d="M335 327.191l79 37.663v232l-79-37.663v-232z" fill="#673BCE"/><path d="M340 530.251V348.574l67.256 32.064v181.677L340 530.251z" fill="#A492D4" stroke="#30107E" stroke-width="3"/><path d="M341 357.128l35.128 16.747v4.494L341 361.622v-4.494zM341 364.697l49 22.994v4.495l-49-22.995v-4.494zM348.393 375.673l39.424 18.5v4.494l-39.424-18.5v-4.494zM341 379.697l29.846 14.006v4.494L341 384.191v-4.494zM374.81 395.697l15.846 7.437v4.494l-15.846-7.437v-4.494zM348.393 390.703l20 9.5v4.494l-20-9.5v-4.494zM348.393 397.697l20 9.5v4.494l-20-9.499v-4.495zM348.393 404.197l15.847 7.437v4.494l-15.847-7.437v-4.494zM341 407.185l35.128 16.506v4.495L341 411.68v-4.495zM341 415.191l35.128 16.748v4.494L341 419.686v-4.495zM341 422.761l49 22.994v4.494l-49-22.994v-4.494zM348.393 433.737l39.424 18.5v4.494l-39.424-18.5v-4.494zM341 437.761l29.846 14.006v4.494L341 442.255v-4.494zM374.81 453.761l15.846 7.436v4.494l-15.846-7.436v-4.494zM348.393 448.767l20 9.5v4.494l-20-9.5v-4.494zM348.393 455.761l20 9.5v4.494l-20-9.5v-4.494zM348.393 462.261l15.847 7.436v4.494l-15.847-7.436v-4.494zM341 465.249l35.128 16.506v4.494L341 469.743v-4.494zM493 327.191l-79 37.663v232l79-37.663v-232z" fill="#30107E"/><path d="M414 293.191l79 34-79 38.5-79-38.5 79-34z" fill="#A687ED"/><path d="M360 321.647l54.5 25.983v9.201L360 330.848v-9.201z" fill="#805CD5"/><path d="M469 321.647l-54.5 25.983v9.201l54.5-25.983v-9.201z" fill="#30107E"/><path d="M414.5 298.191l54.5 23.456-54.5 26.56-54.5-26.56 54.5-23.456z" fill="#503199"/><path d="M411.01 342.511l48.064-22.191 4.105 1.864-47.576 22.376-4.593-2.049zM404.381 339.438l48.064-22.19 4.105 1.864-47.576 22.376-4.593-2.05zM398.066 336.509l48.064-22.191 4.105 1.865-47.576 22.376-4.593-2.05zM391.779 333.641l48.063-22.19 4.106 1.864-47.577 22.376-4.592-2.05zM384.991 330.729l48.064-22.19 4.105 1.864-47.576 22.376-4.593-2.05zM378.68 327.705l48.064-22.19 4.105 1.864-47.576 22.376-4.593-2.05zM372.027 324.587l48.063-22.191 4.106 1.864-47.577 22.376-4.592-2.049zM365.929 321.841l48.063-22.191 4.106 1.864-47.577 22.376-4.592-2.049z" fill="#EAE8F6"/><path d="M420 390.191l68-33 .029 21.704L420 412.191v-22zM420 422.191l68-33 .029 21.849L420 444.191v-22zM419.999 455.191l68-33 .03 21.849L420 477.191l-.001-22zM419.999 488.192l68.03-32.803-.029 21.803-68.001 32.999v-21.999z" fill="#A492D4"/><path d="M226 372.191l79 37.663v232l-79-37.663v-232z" fill="#673BCE"/><path d="M231 575.251V393.574l67.256 32.064v181.677L231 575.251z" fill="#A492D4" stroke="#30107E" stroke-width="3"/><path d="M232 402.128l35.128 16.747v4.494L232 406.622v-4.494zM232 409.697l49 22.994v4.495l-49-22.995v-4.494zM239.393 420.673l39.424 18.5v4.494l-39.424-18.5v-4.494zM232 424.697l29.846 14.006v4.494L232 429.191v-4.494zM265.81 440.697l15.846 7.437v4.494l-15.846-7.437v-4.494zM239.393 435.703l20 9.5v4.494l-20-9.5v-4.494zM239.393 442.697l20 9.5v4.494l-20-9.499v-4.495zM239.393 449.197l15.847 7.437v4.494l-15.847-7.437v-4.494zM232 452.185l35.128 16.506v4.495L232 456.68v-4.495zM232 460.191l35.128 16.748v4.494L232 464.686v-4.495zM232 467.761l49 22.994v4.494l-49-22.994v-4.494zM239.393 478.737l39.424 18.5v4.494l-39.424-18.5v-4.494zM232 482.761l29.846 14.006v4.494L232 487.255v-4.494zM265.81 498.761l15.846 7.436v4.494l-15.846-7.436v-4.494zM239.393 493.767l20 9.5v4.494l-20-9.5v-4.494zM239.393 500.761l20 9.5v4.494l-20-9.5v-4.494zM239.393 507.261l15.847 7.436v4.494l-15.847-7.436v-4.494zM232 510.249l35.128 16.506v4.494L232 514.743v-4.494zM384 372.191l-79 37.663v232l79-37.663v-232z" fill="#30107E"/><path d="M305 338.191l79 34-79 38.5-79-38.5 79-34z" fill="#A687ED"/><path d="M251 366.647l54.5 25.983v9.201L251 375.848v-9.201z" fill="#805CD5"/><path d="M360 366.647l-54.5 25.983v9.201l54.5-25.983v-9.201z" fill="#30107E"/><path d="M305.5 343.191l54.5 23.456-54.5 26.56-54.5-26.56 54.5-23.456z" fill="#503199"/><path d="M302.01 387.511l48.064-22.191 4.105 1.864-47.576 22.376-4.593-2.049zM295.381 384.438l48.064-22.19 4.105 1.864-47.576 22.376-4.593-2.05zM289.066 381.509l48.064-22.191 4.105 1.865-47.576 22.376-4.593-2.05zM282.779 378.641l48.063-22.19 4.106 1.864-47.577 22.376-4.592-2.05zM275.991 375.729l48.064-22.19 4.105 1.864-47.576 22.376-4.593-2.05zM269.68 372.705l48.064-22.19 4.105 1.864-47.576 22.376-4.593-2.05zM263.027 369.587l48.063-22.191 4.106 1.864-47.577 22.376-4.592-2.049zM256.929 366.841l48.063-22.191 4.106 1.864-47.577 22.376-4.592-2.049z" fill="#EAE8F6"/><path d="M311 435.191l68-33 .029 21.704L311 457.191v-22zM311 467.191l68-33 .029 21.849L311 489.191v-22zM310.999 500.191l68-33 .03 21.849L311 522.191l-.001-22zM310.999 533.192l68.03-32.803-.029 21.803-68.001 32.999v-21.999z" fill="#A492D4"/><path d="M443 372.191l79 37.663v232l-79-37.663v-232z" fill="#673BCE"/><path d="M448 575.251V393.574l67.256 32.064v181.677L448 575.251z" fill="#A492D4" stroke="#30107E" stroke-width="3"/><path d="M449 402.128l35.128 16.747v4.494L449 406.622v-4.494zM449 409.697l49 22.994v4.495l-49-22.995v-4.494zM456.393 420.673l39.424 18.5v4.494l-39.424-18.5v-4.494zM449 424.697l29.846 14.006v4.494L449 429.191v-4.494zM482.81 440.697l15.846 7.437v4.494l-15.846-7.437v-4.494zM456.393 435.703l20 9.5v4.494l-20-9.5v-4.494zM456.393 442.697l20 9.5v4.494l-20-9.499v-4.495zM456.393 449.197l15.847 7.437v4.494l-15.847-7.437v-4.494zM449 452.185l35.128 16.506v4.495L449 456.68v-4.495zM449 460.191l35.128 16.748v4.494L449 464.686v-4.495zM449 467.761l49 22.994v4.494l-49-22.994v-4.494zM456.393 478.737l39.424 18.5v4.494l-39.424-18.5v-4.494zM449 482.761l29.846 14.006v4.494L449 487.255v-4.494zM482.81 498.761l15.846 7.436v4.494l-15.846-7.436v-4.494zM456.393 493.767l20 9.5v4.494l-20-9.5v-4.494zM456.393 500.761l20 9.5v4.494l-20-9.5v-4.494zM456.393 507.261l15.847 7.436v4.494l-15.847-7.436v-4.494zM449 510.249l35.128 16.506v4.494L449 514.743v-4.494zM601 372.191l-79 37.663v232l79-37.663v-232z" fill="#30107E"/><path d="M522 338.191l79 34-79 38.5-79-38.5 79-34z" fill="#A687ED"/><path d="M468 366.647l54.5 25.983v9.201L468 375.848v-9.201z" fill="#805CD5"/><path d="M577 366.647l-54.5 25.983v9.201l54.5-25.983v-9.201z" fill="#30107E"/><path d="M522.5 343.191l54.5 23.456-54.5 26.56-54.5-26.56 54.5-23.456z" fill="#503199"/><path d="M519.01 387.511l48.064-22.191 4.105 1.864-47.576 22.376-4.593-2.049zM512.381 384.438l48.064-22.19 4.105 1.864-47.576 22.376-4.593-2.05zM506.066 381.509l48.064-22.191 4.105 1.865-47.576 22.376-4.593-2.05zM499.779 378.641l48.063-22.19 4.106 1.864-47.577 22.376-4.592-2.05zM492.991 375.729l48.064-22.19 4.105 1.864-47.576 22.376-4.593-2.05zM486.68 372.705l48.064-22.19 4.105 1.864-47.576 22.376-4.593-2.05zM480.027 369.587l48.063-22.191 4.106 1.864-47.577 22.376-4.592-2.049zM473.929 366.841l48.063-22.191 4.106 1.864-47.577 22.376-4.592-2.049z" fill="#EAE8F6"/><path d="M528 435.191l68-33 .029 21.704L528 457.191v-22zM528 467.191l68-33 .029 21.849L528 489.191v-22zM527.999 500.191l68-33 .03 21.849L528 522.191l-.001-22zM527.999 533.192l68.03-32.803-.029 21.803-68.001 32.999v-21.999z" fill="#A492D4"/><path d="M336 420.191l79 37.663v232l-79-37.663v-232z" fill="#673BCE"/><path d="M341 623.251V441.574l67.256 32.064v181.677L341 623.251z" fill="#A492D4" stroke="#30107E" stroke-width="3"/><path d="M342 450.128l35.128 16.747v4.494L342 454.622v-4.494zM342 457.697l49 22.995v4.494l-49-22.994v-4.495zM349.393 468.673l39.424 18.5v4.494l-39.424-18.5v-4.494zM342 472.697l29.846 14.006v4.494L342 477.192v-4.495zM375.81 488.697l15.846 7.437v4.494l-15.846-7.436v-4.495zM349.393 483.703l20 9.5v4.494l-20-9.5v-4.494zM349.393 490.697l20 9.5v4.495l-20-9.5v-4.495zM349.393 497.197l15.847 7.437v4.494l-15.847-7.436v-4.495zM342 500.186l35.128 16.506v4.494L342 504.68v-4.494zM342 508.192l35.128 16.747v4.494L342 512.686v-4.494zM342 515.761l49 22.994v4.494l-49-22.994v-4.494zM349.393 526.737l39.424 18.5v4.494l-39.424-18.5v-4.494zM342 530.761l29.846 14.006v4.494L342 535.255v-4.494zM375.81 546.761l15.846 7.436v4.495l-15.846-7.437v-4.494zM349.393 541.767l20 9.5v4.494l-20-9.5v-4.494zM349.393 548.761l20 9.5v4.494l-20-9.5v-4.494zM349.393 555.261l15.847 7.436v4.495l-15.847-7.437v-4.494zM342 558.249l35.128 16.506v4.494L342 562.743v-4.494zM494 420.191l-79 37.663v232l79-37.663v-232z" fill="#30107E"/><path d="M415 386.192l79 34-79 38.5-79-38.5 79-34z" fill="#A687ED"/><path d="M361 414.647l54.5 25.983v9.201L361 423.848v-9.201z" fill="#805CD5"/><path d="M470 414.647l-54.5 25.983v9.201l54.5-25.983v-9.201z" fill="#30107E"/><path d="M415.5 391.192l54.5 23.455-54.5 26.56-54.5-26.56 54.5-23.455z" fill="#503199"/><path d="M412.01 435.511l48.064-22.191 4.105 1.864-47.576 22.376-4.593-2.049zM405.381 432.438l48.064-22.19 4.105 1.864-47.576 22.376-4.593-2.05zM399.066 429.509l48.064-22.191 4.105 1.865-47.576 22.376-4.593-2.05zM392.779 426.641l48.063-22.19 4.106 1.864-47.577 22.376-4.592-2.05zM385.991 423.729l48.064-22.19 4.105 1.864-47.576 22.376-4.593-2.05zM379.68 420.705l48.064-22.19 4.105 1.864-47.576 22.376-4.593-2.05zM373.027 417.587l48.063-22.191 4.106 1.864-47.577 22.376-4.592-2.049zM366.929 414.841l48.063-22.191 4.106 1.864-47.577 22.376-4.592-2.049z" fill="#EAE8F6"/><path d="M421 483.191l68-33 .029 21.704L421 505.191v-22zM421 515.191l68-33 .029 21.849L421 537.191v-22zM420.999 548.191l68-33 .03 21.849L421 570.191l-.001-22zM420.999 581.192l68.03-32.803-.029 21.803-68.001 33v-22z" fill="#A492D4"/><defs><radialGradient id="b" cx="0" cy="0" r="1" gradientUnits="userSpaceOnUse" gradientTransform="matrix(0 254 -254 0 410 489)"><stop stop-color="#EAE8F6"/><stop offset="1" stop-color="#C4C4C4" stop-opacity="0"/></radialGradient></defs></g><g style="transition:.3s"><path d="M362.5 707c0 4.33-1.208 8.229-3.134 11.03-1.928 2.805-4.54 4.47-7.366 4.47-2.826 0-5.438-1.665-7.366-4.47-1.926-2.801-3.134-6.7-3.134-11.03 0-4.33 1.208-8.229 3.134-11.03 1.928-2.805 4.54-4.47 7.366-4.47 2.826 0 5.438 1.665 7.366 4.47 1.926 2.801 3.134 6.7 3.134 11.03z" fill="#6749AE" stroke="#351B74"/><path d="M318.044 718.247h.5-.5zm4.346-37.817l-.189-.463.189.463zm39.92-16.893l-40.109 16.43.379.926 40.11-16.43-.38-.926zm-44.766 23.371v31.339h1v-31.339h-1zm6.507 35.367l29.323-14.617-.447-.895-29.322 14.617.446.895zm-6.507-4.028c0 3.343 3.515 5.519 6.507 4.028l-.446-.895c-2.327 1.16-5.061-.533-5.061-3.133h-1zm4.657-38.28a7.501 7.501 0 00-4.657 6.941h1a6.5 6.5 0 014.036-6.015l-.379-.926z" fill="#EAE8F6"/><ellipse cx="351.5" cy="708" rx="3.5" ry="6" fill="#EAE8F6"/><path d="M263.5 658c0 4.33-1.208 8.229-3.134 11.03-1.928 2.805-4.54 4.47-7.366 4.47-2.826 0-5.438-1.665-7.366-4.47-1.926-2.801-3.134-6.7-3.134-11.03 0-4.33 1.208-8.229 3.134-11.03 1.928-2.805 4.54-4.47 7.366-4.47 2.826 0 5.438 1.665 7.366 4.47 1.926 2.801 3.134 6.7 3.134 11.03z" fill="#6749AE" stroke="#351B74"/><path d="M219.043 669.247h.5-.5zm34.905-52.047l-30.943 13.708.405.915 30.943-13.709-.405-.914zm-35.405 20.566v31.481h1v-31.481h-1zm6.508 35.509l29.322-14.617-.446-.895-29.322 14.617.446.895zm-6.508-4.028c0 3.343 3.516 5.519 6.508 4.028l-.446-.895c-2.327 1.16-5.062-.533-5.062-3.133h-1zm4.462-38.339a7.502 7.502 0 00-4.462 6.858h1a6.5 6.5 0 013.867-5.943l-.405-.915z" fill="#EAE8F6"/><ellipse cx="252.5" cy="659" rx="3.5" ry="6" fill="#EAE8F6"/></g></svg>