<svg viewBox="0 0 941 1069" fill="none" xmlns="http://www.w3.org/2000/svg">
<!--  -->
<path id="shadow" style="transition: .3s" d="M395.916 617.005C409.572 611.249 424.978 611.276 438.614 617.079L637.716 701.817C642.856 704.004 642.993 711.241 637.938 713.621L439.471 807.076C424.626 814.067 407.428 814.029 392.613 806.974L195.574 713.132C190.532 710.731 190.697 703.499 195.843 701.331L395.916 617.005Z" fill="#270970"/>
<!--  -->
<g id="platform" style="transition: .3s">
  <path d="M440.372 699.512C425.261 706.841 407.622 706.828 392.522 699.477L192.422 602.06V642.011C192.422 648.615 196.193 654.64 202.134 657.526L400.275 753.797C410.482 758.756 422.399 758.765 432.613 753.821L631.562 657.519C637.515 654.638 641.296 648.607 641.296 641.993V602.06L440.372 699.512Z" fill="url(#paint0_linear)"/>
  <path d="M395.916 510.005C409.572 504.249 424.978 504.276 438.614 510.079L637.716 594.817C642.856 597.004 642.993 604.241 637.938 606.621L439.471 700.076C424.626 707.067 407.428 707.029 392.613 699.974L195.574 606.132C190.532 603.731 190.697 596.499 195.843 594.331L395.916 510.005Z" fill="#7F59D9"/>
  <defs>
  <linearGradient id="paint0_linear" x1="506.971" y1="732.174" x2="146.945" y2="618.482" gradientUnits="userSpaceOnUse">
  <stop stop-color="#31107E"/>
  <stop offset="1" stop-color="#8A61ED"/>
  </linearGradient>
  </defs>
</g>
<!--  -->
<g id="block" style="transition: .3s">
  <circle cx="410" cy="489" r="254" fill="url(#paint0_radial)"/>
  <path d="M335 327.191L414 364.854V596.854L335 559.191V327.191Z" fill="#673BCE"/>
  <path d="M340 530.251V348.574L407.256 380.638V562.315L340 530.251Z" fill="#A492D4" stroke="#30107E" stroke-width="3"/>
  <path d="M341 357.128L376.128 373.875V378.369L341 361.622V357.128Z" fill="#30107E"/>
  <path d="M341 364.697L390 387.691V392.186L341 369.191V364.697Z" fill="#30107E"/>
  <path d="M348.393 375.673L387.817 394.173V398.667L348.393 380.167V375.673Z" fill="#30107E"/>
  <path d="M341 379.697L370.846 393.703V398.197L341 384.191V379.697Z" fill="#30107E"/>
  <path d="M374.81 395.697C380.998 398.601 384.468 400.23 390.656 403.134V407.628L374.81 400.191V395.697Z" fill="#30107E"/>
  <path d="M348.393 390.703L368.393 400.203V404.697L348.393 395.197V390.703Z" fill="#30107E"/>
  <path d="M348.393 397.697L368.393 407.197V411.691L348.393 402.192V397.697Z" fill="#30107E"/>
  <path d="M348.393 404.197C354.582 407.101 358.051 408.73 364.24 411.634V416.128L348.393 408.691V404.197Z" fill="#30107E"/>
  <path d="M341 407.185L376.128 423.691V428.186L341 411.68V407.185Z" fill="#30107E"/>
  <path d="M341 415.191L376.128 431.939V436.433L341 419.686V415.191Z" fill="#30107E"/>
  <path d="M341 422.761L390 445.755V450.249L341 427.255V422.761Z" fill="#30107E"/>
  <path d="M348.393 433.737L387.817 452.237V456.731L348.393 438.231V433.737Z" fill="#30107E"/>
  <path d="M341 437.761L370.846 451.767V456.261L341 442.255V437.761Z" fill="#30107E"/>
  <path d="M374.81 453.761C380.998 456.665 384.468 458.293 390.656 461.197V465.691L374.81 458.255V453.761Z" fill="#30107E"/>
  <path d="M348.393 448.767L368.393 458.267V462.761L348.393 453.261V448.767Z" fill="#30107E"/>
  <path d="M348.393 455.761L368.393 465.261V469.755L348.393 460.255V455.761Z" fill="#30107E"/>
  <path d="M348.393 462.261C354.582 465.165 358.051 466.793 364.24 469.697V474.191L348.393 466.755V462.261Z" fill="#30107E"/>
  <path d="M341 465.249L376.128 481.755V486.249L341 469.743V465.249Z" fill="#30107E"/>
  <path d="M493 327.191L414 364.854V596.854L493 559.191V327.191Z" fill="#30107E"/>
  <path d="M414 293.191L493 327.191L414 365.691L335 327.191L414 293.191Z" fill="#A687ED"/>
  <path d="M360 321.647L414.5 347.63V356.831L360 330.848V321.647Z" fill="#805CD5"/>
  <path d="M469 321.647L414.5 347.63V356.831L469 330.848V321.647Z" fill="#30107E"/>
  <path d="M414.5 298.191L469 321.647L414.5 348.207L360 321.647L414.5 298.191Z" fill="#503199"/>
  <path d="M411.01 342.511L459.074 320.32L463.179 322.184L415.603 344.56L411.01 342.511Z" fill="#EAE8F6"/>
  <path d="M404.381 339.438L452.445 317.248L456.55 319.112L408.974 341.488L404.381 339.438Z" fill="#EAE8F6"/>
  <path d="M398.066 336.509L446.13 314.318L450.235 316.183L402.659 338.559L398.066 336.509Z" fill="#EAE8F6"/>
  <path d="M391.779 333.641L439.842 311.451L443.948 313.315L396.371 335.691L391.779 333.641Z" fill="#EAE8F6"/>
  <path d="M384.991 330.729L433.055 308.539L437.16 310.403L389.584 332.779L384.991 330.729Z" fill="#EAE8F6"/>
  <path d="M378.68 327.705L426.744 305.515L430.849 307.379L383.273 329.755L378.68 327.705Z" fill="#EAE8F6"/>
  <path d="M372.027 324.587L420.09 302.396L424.196 304.26L376.619 326.636L372.027 324.587Z" fill="#EAE8F6"/>
  <path d="M365.929 321.841L413.992 299.65L418.098 301.514L370.521 323.89L365.929 321.841Z" fill="#EAE8F6"/>
  <path d="M420 390.191L488 357.191L488.029 378.895L420 412.191L420 390.191Z" fill="#A492D4"/>
  <path d="M420 422.191L488 389.191L488.029 411.04L420 444.191L420 422.191Z" fill="#A492D4"/>
  <path d="M419.999 455.191L487.999 422.191L488.029 444.04L420 477.191L419.999 455.191Z" fill="#A492D4"/>
  <path d="M419.999 488.192L488.029 455.389L488 477.192L419.999 510.191L419.999 488.192Z" fill="#A492D4"/>
  <path d="M226 372.191L305 409.854V641.854L226 604.191V372.191Z" fill="#673BCE"/>
  <path d="M231 575.251V393.574L298.256 425.638V607.315L231 575.251Z" fill="#A492D4" stroke="#30107E" stroke-width="3"/>
  <path d="M232 402.128L267.128 418.875V423.369L232 406.622V402.128Z" fill="#30107E"/>
  <path d="M232 409.697L281 432.691V437.186L232 414.191V409.697Z" fill="#30107E"/>
  <path d="M239.393 420.673L278.817 439.173V443.667L239.393 425.167V420.673Z" fill="#30107E"/>
  <path d="M232 424.697L261.846 438.703V443.197L232 429.191V424.697Z" fill="#30107E"/>
  <path d="M265.81 440.697C271.998 443.601 275.468 445.23 281.656 448.134V452.628L265.81 445.191V440.697Z" fill="#30107E"/>
  <path d="M239.393 435.703L259.393 445.203V449.697L239.393 440.197V435.703Z" fill="#30107E"/>
  <path d="M239.393 442.697L259.393 452.197V456.691L239.393 447.192V442.697Z" fill="#30107E"/>
  <path d="M239.393 449.197C245.582 452.101 249.051 453.73 255.24 456.634V461.128L239.393 453.691V449.197Z" fill="#30107E"/>
  <path d="M232 452.185L267.128 468.691V473.186L232 456.68V452.185Z" fill="#30107E"/>
  <path d="M232 460.191L267.128 476.939V481.433L232 464.686V460.191Z" fill="#30107E"/>
  <path d="M232 467.761L281 490.755V495.249L232 472.255V467.761Z" fill="#30107E"/>
  <path d="M239.393 478.737L278.817 497.237V501.731L239.393 483.231V478.737Z" fill="#30107E"/>
  <path d="M232 482.761L261.846 496.767V501.261L232 487.255V482.761Z" fill="#30107E"/>
  <path d="M265.81 498.761C271.998 501.665 275.468 503.293 281.656 506.197V510.691L265.81 503.255V498.761Z" fill="#30107E"/>
  <path d="M239.393 493.767L259.393 503.267V507.761L239.393 498.261V493.767Z" fill="#30107E"/>
  <path d="M239.393 500.761L259.393 510.261V514.755L239.393 505.255V500.761Z" fill="#30107E"/>
  <path d="M239.393 507.261C245.582 510.165 249.051 511.793 255.24 514.697V519.191L239.393 511.755V507.261Z" fill="#30107E"/>
  <path d="M232 510.249L267.128 526.755V531.249L232 514.743V510.249Z" fill="#30107E"/>
  <path d="M384 372.191L305 409.854V641.854L384 604.191V372.191Z" fill="#30107E"/>
  <path d="M305 338.191L384 372.191L305 410.691L226 372.191L305 338.191Z" fill="#A687ED"/>
  <path d="M251 366.647L305.5 392.63V401.831L251 375.848V366.647Z" fill="#805CD5"/>
  <path d="M360 366.647L305.5 392.63V401.831L360 375.848V366.647Z" fill="#30107E"/>
  <path d="M305.5 343.191L360 366.647L305.5 393.207L251 366.647L305.5 343.191Z" fill="#503199"/>
  <path d="M302.01 387.511L350.074 365.32L354.179 367.184L306.603 389.56L302.01 387.511Z" fill="#EAE8F6"/>
  <path d="M295.381 384.438L343.445 362.248L347.55 364.112L299.974 386.488L295.381 384.438Z" fill="#EAE8F6"/>
  <path d="M289.066 381.509L337.13 359.318L341.235 361.183L293.659 383.559L289.066 381.509Z" fill="#EAE8F6"/>
  <path d="M282.779 378.641L330.842 356.451L334.948 358.315L287.371 380.691L282.779 378.641Z" fill="#EAE8F6"/>
  <path d="M275.991 375.729L324.055 353.539L328.16 355.403L280.584 377.779L275.991 375.729Z" fill="#EAE8F6"/>
  <path d="M269.68 372.705L317.744 350.515L321.849 352.379L274.273 374.755L269.68 372.705Z" fill="#EAE8F6"/>
  <path d="M263.027 369.587L311.09 347.396L315.196 349.26L267.619 371.636L263.027 369.587Z" fill="#EAE8F6"/>
  <path d="M256.929 366.841L304.992 344.65L309.098 346.514L261.521 368.89L256.929 366.841Z" fill="#EAE8F6"/>
  <path d="M311 435.191L379 402.191L379.029 423.895L311 457.191L311 435.191Z" fill="#A492D4"/>
  <path d="M311 467.191L379 434.191L379.029 456.04L311 489.191L311 467.191Z" fill="#A492D4"/>
  <path d="M310.999 500.191L378.999 467.191L379.029 489.04L311 522.191L310.999 500.191Z" fill="#A492D4"/>
  <path d="M310.999 533.192L379.029 500.389L379 522.192L310.999 555.191L310.999 533.192Z" fill="#A492D4"/>
  <path d="M443 372.191L522 409.854V641.854L443 604.191V372.191Z" fill="#673BCE"/>
  <path d="M448 575.251V393.574L515.256 425.638V607.315L448 575.251Z" fill="#A492D4" stroke="#30107E" stroke-width="3"/>
  <path d="M449 402.128L484.128 418.875V423.369L449 406.622V402.128Z" fill="#30107E"/>
  <path d="M449 409.697L498 432.691V437.186L449 414.191V409.697Z" fill="#30107E"/>
  <path d="M456.393 420.673L495.817 439.173V443.667L456.393 425.167V420.673Z" fill="#30107E"/>
  <path d="M449 424.697L478.846 438.703V443.197L449 429.191V424.697Z" fill="#30107E"/>
  <path d="M482.81 440.697C488.998 443.601 492.468 445.23 498.656 448.134V452.628L482.81 445.191V440.697Z" fill="#30107E"/>
  <path d="M456.393 435.703L476.393 445.203V449.697L456.393 440.197V435.703Z" fill="#30107E"/>
  <path d="M456.393 442.697L476.393 452.197V456.691L456.393 447.192V442.697Z" fill="#30107E"/>
  <path d="M456.393 449.197C462.582 452.101 466.051 453.73 472.24 456.634V461.128L456.393 453.691V449.197Z" fill="#30107E"/>
  <path d="M449 452.185L484.128 468.691V473.186L449 456.68V452.185Z" fill="#30107E"/>
  <path d="M449 460.191L484.128 476.939V481.433L449 464.686V460.191Z" fill="#30107E"/>
  <path d="M449 467.761L498 490.755V495.249L449 472.255V467.761Z" fill="#30107E"/>
  <path d="M456.393 478.737L495.817 497.237V501.731L456.393 483.231V478.737Z" fill="#30107E"/>
  <path d="M449 482.761L478.846 496.767V501.261L449 487.255V482.761Z" fill="#30107E"/>
  <path d="M482.81 498.761C488.998 501.665 492.468 503.293 498.656 506.197V510.691L482.81 503.255V498.761Z" fill="#30107E"/>
  <path d="M456.393 493.767L476.393 503.267V507.761L456.393 498.261V493.767Z" fill="#30107E"/>
  <path d="M456.393 500.761L476.393 510.261V514.755L456.393 505.255V500.761Z" fill="#30107E"/>
  <path d="M456.393 507.261C462.582 510.165 466.051 511.793 472.24 514.697V519.191L456.393 511.755V507.261Z" fill="#30107E"/>
  <path d="M449 510.249L484.128 526.755V531.249L449 514.743V510.249Z" fill="#30107E"/>
  <path d="M601 372.191L522 409.854V641.854L601 604.191V372.191Z" fill="#30107E"/>
  <path d="M522 338.191L601 372.191L522 410.691L443 372.191L522 338.191Z" fill="#A687ED"/>
  <path d="M468 366.647L522.5 392.63V401.831L468 375.848V366.647Z" fill="#805CD5"/>
  <path d="M577 366.647L522.5 392.63V401.831L577 375.848V366.647Z" fill="#30107E"/>
  <path d="M522.5 343.191L577 366.647L522.5 393.207L468 366.647L522.5 343.191Z" fill="#503199"/>
  <path d="M519.01 387.511L567.074 365.32L571.179 367.184L523.603 389.56L519.01 387.511Z" fill="#EAE8F6"/>
  <path d="M512.381 384.438L560.445 362.248L564.55 364.112L516.974 386.488L512.381 384.438Z" fill="#EAE8F6"/>
  <path d="M506.066 381.509L554.13 359.318L558.235 361.183L510.659 383.559L506.066 381.509Z" fill="#EAE8F6"/>
  <path d="M499.779 378.641L547.842 356.451L551.948 358.315L504.371 380.691L499.779 378.641Z" fill="#EAE8F6"/>
  <path d="M492.991 375.729L541.055 353.539L545.16 355.403L497.584 377.779L492.991 375.729Z" fill="#EAE8F6"/>
  <path d="M486.68 372.705L534.744 350.515L538.849 352.379L491.273 374.755L486.68 372.705Z" fill="#EAE8F6"/>
  <path d="M480.027 369.587L528.09 347.396L532.196 349.26L484.619 371.636L480.027 369.587Z" fill="#EAE8F6"/>
  <path d="M473.929 366.841L521.992 344.65L526.098 346.514L478.521 368.89L473.929 366.841Z" fill="#EAE8F6"/>
  <path d="M528 435.191L596 402.191L596.029 423.895L528 457.191L528 435.191Z" fill="#A492D4"/>
  <path d="M528 467.191L596 434.191L596.029 456.04L528 489.191L528 467.191Z" fill="#A492D4"/>
  <path d="M527.999 500.191L595.999 467.191L596.029 489.04L528 522.191L527.999 500.191Z" fill="#A492D4"/>
  <path d="M527.999 533.192L596.029 500.389L596 522.192L527.999 555.191L527.999 533.192Z" fill="#A492D4"/>
  <path d="M336 420.191L415 457.854V689.854L336 652.191V420.191Z" fill="#673BCE"/>
  <path d="M341 623.251V441.574L408.256 473.638V655.315L341 623.251Z" fill="#A492D4" stroke="#30107E" stroke-width="3"/>
  <path d="M342 450.128L377.128 466.875V471.369L342 454.622V450.128Z" fill="#30107E"/>
  <path d="M342 457.697L391 480.692V485.186L342 462.192V457.697Z" fill="#30107E"/>
  <path d="M349.393 468.673L388.817 487.173V491.667L349.393 473.167V468.673Z" fill="#30107E"/>
  <path d="M342 472.697L371.846 486.703V491.197L342 477.192V472.697Z" fill="#30107E"/>
  <path d="M375.81 488.697C381.998 491.601 385.468 493.23 391.656 496.134V500.628L375.81 493.192V488.697Z" fill="#30107E"/>
  <path d="M349.393 483.703L369.393 493.203V497.697L349.393 488.197V483.703Z" fill="#30107E"/>
  <path d="M349.393 490.697L369.393 500.197V504.692L349.393 495.192V490.697Z" fill="#30107E"/>
  <path d="M349.393 497.197C355.582 500.101 359.051 501.73 365.24 504.634V509.128L349.393 501.692V497.197Z" fill="#30107E"/>
  <path d="M342 500.186L377.128 516.692V521.186L342 504.68V500.186Z" fill="#30107E"/>
  <path d="M342 508.192L377.128 524.939V529.433L342 512.686V508.192Z" fill="#30107E"/>
  <path d="M342 515.761L391 538.755V543.249L342 520.255V515.761Z" fill="#30107E"/>
  <path d="M349.393 526.737L388.817 545.237V549.731L349.393 531.231V526.737Z" fill="#30107E"/>
  <path d="M342 530.761L371.846 544.767V549.261L342 535.255V530.761Z" fill="#30107E"/>
  <path d="M375.81 546.761C381.998 549.665 385.468 551.293 391.656 554.197V558.692L375.81 551.255V546.761Z" fill="#30107E"/>
  <path d="M349.393 541.767L369.393 551.267V555.761L349.393 546.261V541.767Z" fill="#30107E"/>
  <path d="M349.393 548.761L369.393 558.261V562.755L349.393 553.255V548.761Z" fill="#30107E"/>
  <path d="M349.393 555.261C355.582 558.165 359.051 559.793 365.24 562.697V567.192L349.393 559.755V555.261Z" fill="#30107E"/>
  <path d="M342 558.249L377.128 574.755V579.249L342 562.743V558.249Z" fill="#30107E"/>
  <path d="M494 420.191L415 457.854V689.854L494 652.191V420.191Z" fill="#30107E"/>
  <path d="M415 386.192L494 420.192L415 458.692L336 420.192L415 386.192Z" fill="#A687ED"/>
  <path d="M361 414.647L415.5 440.63V449.831L361 423.848V414.647Z" fill="#805CD5"/>
  <path d="M470 414.647L415.5 440.63V449.831L470 423.848V414.647Z" fill="#30107E"/>
  <path d="M415.5 391.192L470 414.647L415.5 441.207L361 414.647L415.5 391.192Z" fill="#503199"/>
  <path d="M412.01 435.511L460.074 413.32L464.179 415.184L416.603 437.56L412.01 435.511Z" fill="#EAE8F6"/>
  <path d="M405.381 432.438L453.445 410.248L457.55 412.112L409.974 434.488L405.381 432.438Z" fill="#EAE8F6"/>
  <path d="M399.066 429.509L447.13 407.318L451.235 409.183L403.659 431.559L399.066 429.509Z" fill="#EAE8F6"/>
  <path d="M392.779 426.641L440.842 404.451L444.948 406.315L397.371 428.691L392.779 426.641Z" fill="#EAE8F6"/>
  <path d="M385.991 423.729L434.055 401.539L438.16 403.403L390.584 425.779L385.991 423.729Z" fill="#EAE8F6"/>
  <path d="M379.68 420.705L427.744 398.515L431.849 400.379L384.273 422.755L379.68 420.705Z" fill="#EAE8F6"/>
  <path d="M373.027 417.587L421.09 395.396L425.196 397.26L377.619 419.636L373.027 417.587Z" fill="#EAE8F6"/>
  <path d="M366.929 414.841L414.992 392.65L419.098 394.514L371.521 416.89L366.929 414.841Z" fill="#EAE8F6"/>
  <path d="M421 483.191L489 450.191L489.029 471.895L421 505.191L421 483.191Z" fill="#A492D4"/>
  <path d="M421 515.191L489 482.191L489.029 504.04L421 537.191L421 515.191Z" fill="#A492D4"/>
  <path d="M420.999 548.191L488.999 515.191L489.029 537.04L421 570.191L420.999 548.191Z" fill="#A492D4"/>
  <path d="M420.999 581.192L489.029 548.389L489 570.192L420.999 603.192L420.999 581.192Z" fill="#A492D4"/>
  <defs>
  <radialGradient id="paint0_radial" cx="0" cy="0" r="1" gradientUnits="userSpaceOnUse" gradientTransform="translate(410 489) rotate(90) scale(254)">
  <stop stop-color="#EAE8F6"/>
  <stop offset="1" stop-color="#C4C4C4" stop-opacity="0"/>
  </radialGradient>
  </defs>
</g>
<!--  -->
<g id="wires" style="transition: .3s">
  <path d="M362.5 707C362.5 711.33 361.292 715.229 359.366 718.03C357.438 720.835 354.826 722.5 352 722.5C349.174 722.5 346.562 720.835 344.634 718.03C342.708 715.229 341.5 711.33 341.5 707C341.5 702.67 342.708 698.771 344.634 695.97C346.562 693.165 349.174 691.5 352 691.5C354.826 691.5 357.438 693.165 359.366 695.97C361.292 698.771 362.5 702.67 362.5 707Z" fill="#6749AE" stroke="#351B74"/>
  <path d="M318.044 718.247L318.544 718.247L318.044 718.247ZM322.39 680.43L322.201 679.967L322.39 680.43ZM362.31 663.537L322.201 679.967L322.58 680.893L362.69 664.463L362.31 663.537ZM317.544 686.908L317.544 718.247L318.544 718.247L318.544 686.908L317.544 686.908ZM324.051 722.275L353.374 707.658L352.927 706.763L323.605 721.38L324.051 722.275ZM317.544 718.247C317.544 721.59 321.059 723.766 324.051 722.275L323.605 721.38C321.278 722.54 318.544 720.847 318.544 718.247L317.544 718.247ZM322.201 679.967C319.384 681.121 317.544 683.864 317.544 686.908L318.544 686.908C318.544 684.27 320.138 681.893 322.58 680.893L322.201 679.967Z" fill="#EAE8F6"/>
  <ellipse cx="351.5" cy="708" rx="3.5" ry="6" fill="#EAE8F6"/>
  <path d="M263.5 658C263.5 662.33 262.292 666.229 260.366 669.03C258.438 671.835 255.826 673.5 253 673.5C250.174 673.5 247.562 671.835 245.634 669.03C243.708 666.229 242.5 662.33 242.5 658C242.5 653.67 243.708 649.771 245.634 646.97C247.562 644.165 250.174 642.5 253 642.5C255.826 642.5 258.438 644.165 260.366 646.97C262.292 649.771 263.5 653.67 263.5 658Z" fill="#6749AE" stroke="#351B74"/>
  <path d="M219.043 669.247L219.543 669.247L219.043 669.247ZM253.948 617.2L223.005 630.908L223.41 631.823L254.353 618.114L253.948 617.2ZM218.543 637.766L218.543 669.247L219.543 669.247L219.543 637.766L218.543 637.766ZM225.051 673.275L254.373 658.658L253.927 657.763L224.605 672.38L225.051 673.275ZM218.543 669.247C218.543 672.59 222.059 674.766 225.051 673.275L224.605 672.38C222.278 673.54 219.543 671.847 219.543 669.247L218.543 669.247ZM223.005 630.908C220.293 632.11 218.543 634.798 218.543 637.766L219.543 637.766C219.543 635.194 221.059 632.864 223.41 631.823L223.005 630.908Z" fill="#EAE8F6"/>
  <ellipse cx="252.5" cy="659" rx="3.5" ry="6" fill="#EAE8F6"/>
</g>
</svg>
