<svg width="600" height="4000" viewBox="0 0 600 4000" fill="none" xmlns="http://www.w3.org/2000/svg">
<g clip-path="url(#clip0)">
<rect width="600" height="4000" fill="white"/>
<rect x="-1" y="1452" width="248" height="536" fill="#FAA9F2" fill-opacity="0.6"/>
<rect opacity="0.6" width="600" height="435" fill="url(#paint0_linear)"/>
<rect opacity="0.6" y="2360" width="600" height="230" fill="url(#paint1_linear)"/>
<path d="M0 169H529C534.523 169 539 173.477 539 179V573.675C539 579.198 534.523 583.675 529 583.675H126.322C120.799 583.675 116.322 588.152 116.322 593.675V993" stroke="url(#paint2_linear)" stroke-width="20"/>
<path d="M61 4225H590C595.523 4225 600 4220.52 600 4215V3820.32C600 3814.8 595.523 3810.32 590 3810.32H187.322C181.799 3810.32 177.322 3805.85 177.322 3800.32V3401" stroke="url(#paint3_linear)" stroke-width="20"/>
<path d="M641 1662H112C106.477 1662 102 1666.48 102 1672V2066.68C102 2072.2 106.477 2076.68 112 2076.68H514.678C520.201 2076.68 524.678 2081.15 524.678 2086.68V2486" stroke="url(#paint4_linear)" stroke-width="20"/>
<g filter="url(#filter0_d)">
<rect x="70.2039" y="1542.86" width="91.9549" height="91.9549" rx="20" transform="rotate(-81.1395 70.2039 1542.86)" fill="#B8FCFF"/>
</g>
<g filter="url(#filter1_d)">
<rect x="311" y="3386.86" width="91.9549" height="91.9549" rx="20" transform="rotate(-81.1395 311 3386.86)" fill="#B8FCFF"/>
</g>
<path d="M156.409 2869H494.122C505.168 2869 514.122 2877.95 514.122 2889V3466.72C514.122 3477.77 505.168 3486.72 494.122 3486.72H233.607H71" stroke="url(#paint5_linear)" stroke-width="20"/>
<path d="M510.32 667H-17C-28.0457 667 -37 675.954 -37 687V1265C-37 1276.05 -28.0457 1285 -17 1285H392.202H641" stroke="url(#paint6_linear)" stroke-width="20"/>
<g filter="url(#filter2_d)">
<rect x="333.064" y="717.868" width="76.7331" height="76.7331" rx="20" transform="rotate(-63.8318 333.064 717.868)" fill="#FAA9F2"/>
</g>
<g filter="url(#filter3_d)">
<rect x="247" y="2624.87" width="76.7331" height="76.7331" rx="20" transform="rotate(-63.8318 247 2624.87)" fill="#FAA9F2"/>
</g>
<rect y="3870" width="591" height="138" fill="#B8FCFF" fill-opacity="0.6"/>
</g>
<defs>
<filter id="filter0_d" x="63.043" y="1443.84" width="129.343" height="129.343" filterUnits="userSpaceOnUse" color-interpolation-filters="sRGB">
<feFlood flood-opacity="0" result="BackgroundImageFix"/>
<feColorMatrix in="SourceAlpha" type="matrix" values="0 0 0 0 0 0 0 0 0 0 0 0 0 0 0 0 0 0 127 0"/>
<feOffset dx="5" dy="4"/>
<feGaussianBlur stdDeviation="7.5"/>
<feColorMatrix type="matrix" values="0 0 0 0 0 0 0 0 0 0 0 0 0 0 0 0 0 0 0.1 0"/>
<feBlend mode="normal" in2="BackgroundImageFix" result="effect1_dropShadow"/>
<feBlend mode="normal" in="SourceGraphic" in2="effect1_dropShadow" result="shape"/>
</filter>
<filter id="filter1_d" x="303.839" y="3287.84" width="129.343" height="129.343" filterUnits="userSpaceOnUse" color-interpolation-filters="sRGB">
<feFlood flood-opacity="0" result="BackgroundImageFix"/>
<feColorMatrix in="SourceAlpha" type="matrix" values="0 0 0 0 0 0 0 0 0 0 0 0 0 0 0 0 0 0 127 0"/>
<feOffset dx="5" dy="4"/>
<feGaussianBlur stdDeviation="7.5"/>
<feColorMatrix type="matrix" values="0 0 0 0 0 0 0 0 0 0 0 0 0 0 0 0 0 0 0.1 0"/>
<feBlend mode="normal" in2="BackgroundImageFix" result="effect1_dropShadow"/>
<feBlend mode="normal" in="SourceGraphic" in2="effect1_dropShadow" result="shape"/>
</filter>
<filter id="filter2_d" x="323.064" y="638" width="132.708" height="132.708" filterUnits="userSpaceOnUse" color-interpolation-filters="sRGB">
<feFlood flood-opacity="0" result="BackgroundImageFix"/>
<feColorMatrix in="SourceAlpha" type="matrix" values="0 0 0 0 0 0 0 0 0 0 0 0 0 0 0 0 0 0 127 0"/>
<feOffset dx="5" dy="4"/>
<feGaussianBlur stdDeviation="7.5"/>
<feColorMatrix type="matrix" values="0 0 0 0 0 0 0 0 0 0 0 0 0 0 0 0 0 0 0.1 0"/>
<feBlend mode="normal" in2="BackgroundImageFix" result="effect1_dropShadow"/>
<feBlend mode="normal" in="SourceGraphic" in2="effect1_dropShadow" result="shape"/>
</filter>
<filter id="filter3_d" x="237" y="2545" width="132.708" height="132.708" filterUnits="userSpaceOnUse" color-interpolation-filters="sRGB">
<feFlood flood-opacity="0" result="BackgroundImageFix"/>
<feColorMatrix in="SourceAlpha" type="matrix" values="0 0 0 0 0 0 0 0 0 0 0 0 0 0 0 0 0 0 127 0"/>
<feOffset dx="5" dy="4"/>
<feGaussianBlur stdDeviation="7.5"/>
<feColorMatrix type="matrix" values="0 0 0 0 0 0 0 0 0 0 0 0 0 0 0 0 0 0 0.1 0"/>
<feBlend mode="normal" in2="BackgroundImageFix" result="effect1_dropShadow"/>
<feBlend mode="normal" in="SourceGraphic" in2="effect1_dropShadow" result="shape"/>
</filter>
<linearGradient id="paint0_linear" x1="17.6562" y1="64.9047" x2="586.746" y2="80.5363" gradientUnits="userSpaceOnUse">
<stop stop-color="#B5FFFF"/>
<stop offset="1" stop-color="#FCA5F1"/>
</linearGradient>
<linearGradient id="paint1_linear" x1="17.6562" y1="2394.32" x2="585.642" y2="2423.82" gradientUnits="userSpaceOnUse">
<stop stop-color="#B5FFFF"/>
<stop offset="1" stop-color="#FCA5F1"/>
</linearGradient>
<linearGradient id="paint2_linear" x1="269.5" y1="169" x2="269.5" y2="993" gradientUnits="userSpaceOnUse">
<stop stop-color="#B5FFFF"/>
<stop offset="1" stop-color="#FCA5F1"/>
</linearGradient>
<linearGradient id="paint3_linear" x1="330.5" y1="4225" x2="330.5" y2="3401" gradientUnits="userSpaceOnUse">
<stop stop-color="#B5FFFF"/>
<stop offset="1" stop-color="#FCA5F1"/>
</linearGradient>
<linearGradient id="paint4_linear" x1="371.5" y1="1662" x2="371.5" y2="2486" gradientUnits="userSpaceOnUse">
<stop stop-color="#B5FFFF"/>
<stop offset="1" stop-color="#FCA5F1"/>
</linearGradient>
<linearGradient id="paint5_linear" x1="335.265" y1="2869" x2="335.265" y2="4096.48" gradientUnits="userSpaceOnUse">
<stop stop-color="#B5FFFF"/>
<stop offset="1" stop-color="#FCA5F1"/>
</linearGradient>
<linearGradient id="paint6_linear" x1="236.66" y1="667" x2="236.66" y2="1895.03" gradientUnits="userSpaceOnUse">
<stop stop-color="#B5FFFF"/>
<stop offset="1" stop-color="#FCA5F1"/>
</linearGradient>
<clipPath id="clip0">
<rect width="600" height="4000" fill="white"/>
</clipPath>
</defs>
</svg>
