<svg width="1920" height="1834" viewBox="0 0 1920 1834" fill="none" xmlns="http://www.w3.org/2000/svg">
<path fill-rule="evenodd" clip-rule="evenodd" d="M248 1216H1791.5V1783.72H586.5H-126.5V1833.72H586.5H1796.5C1821.35 1833.72 1841.5 1813.58 1841.5 1788.72V1211C1841.5 1186.15 1821.35 1166 1796.5 1166H248V1216Z" fill="url(#paint0_linear)"/>
<rect opacity="0.6" width="1920" height="450" fill="url(#paint1_linear)"/>
<rect x="1672" y="450" width="248" height="536" fill="#FAA9F2" fill-opacity="0.6"/>
<g filter="url(#filter0_d)">
<rect x="1144" y="902.159" width="151.708" height="151.708" rx="20" transform="rotate(-63.8318 1144 902.159)" fill="#FAA9F2"/>
</g>
<g filter="url(#filter1_d)">
<rect x="605" y="1687.16" width="151.708" height="151.708" rx="20" transform="rotate(-63.8318 605 1687.16)" fill="#FAA9F2"/>
</g>
<g filter="url(#filter2_d)">
<rect x="191" y="860.898" width="151.708" height="151.708" rx="20" transform="rotate(-81.1395 191 860.898)" fill="#B8FCFF"/>
</g>
<g filter="url(#filter3_d)">
<rect x="166.105" y="1406.34" width="121.987" height="121.987" rx="20" transform="rotate(-137.616 166.105 1406.34)" fill="#B8FCFF"/>
</g>
<rect y="450" width="248" height="138" fill="#B8FCFF" fill-opacity="0.6"/>
<path d="M-320 169H1791C1796.52 169 1801 173.477 1801 179V573.675C1801 579.198 1796.52 583.675 1791 583.675H147.736C142.213 583.675 137.736 588.152 137.736 593.675V993" stroke="url(#paint2_linear)" stroke-width="50"/>
<defs>
<filter id="filter0_d" x="1134" y="755" width="233.063" height="233.063" filterUnits="userSpaceOnUse" color-interpolation-filters="sRGB">
<feFlood flood-opacity="0" result="BackgroundImageFix"/>
<feColorMatrix in="SourceAlpha" type="matrix" values="0 0 0 0 0 0 0 0 0 0 0 0 0 0 0 0 0 0 127 0"/>
<feOffset dx="5" dy="4"/>
<feGaussianBlur stdDeviation="7.5"/>
<feColorMatrix type="matrix" values="0 0 0 0 0 0 0 0 0 0 0 0 0 0 0 0 0 0 0.1 0"/>
<feBlend mode="normal" in2="BackgroundImageFix" result="effect1_dropShadow"/>
<feBlend mode="normal" in="SourceGraphic" in2="effect1_dropShadow" result="shape"/>
</filter>
<filter id="filter1_d" x="595" y="1540" width="233.063" height="233.063" filterUnits="userSpaceOnUse" color-interpolation-filters="sRGB">
<feFlood flood-opacity="0" result="BackgroundImageFix"/>
<feColorMatrix in="SourceAlpha" type="matrix" values="0 0 0 0 0 0 0 0 0 0 0 0 0 0 0 0 0 0 127 0"/>
<feOffset dx="5" dy="4"/>
<feGaussianBlur stdDeviation="7.5"/>
<feColorMatrix type="matrix" values="0 0 0 0 0 0 0 0 0 0 0 0 0 0 0 0 0 0 0.1 0"/>
<feBlend mode="normal" in2="BackgroundImageFix" result="effect1_dropShadow"/>
<feBlend mode="normal" in="SourceGraphic" in2="effect1_dropShadow" result="shape"/>
</filter>
<filter id="filter2_d" x="181" y="700" width="203.265" height="203.265" filterUnits="userSpaceOnUse" color-interpolation-filters="sRGB">
<feFlood flood-opacity="0" result="BackgroundImageFix"/>
<feColorMatrix in="SourceAlpha" type="matrix" values="0 0 0 0 0 0 0 0 0 0 0 0 0 0 0 0 0 0 127 0"/>
<feOffset dx="5" dy="4"/>
<feGaussianBlur stdDeviation="7.5"/>
<feColorMatrix type="matrix" values="0 0 0 0 0 0 0 0 0 0 0 0 0 0 0 0 0 0 0.1 0"/>
<feBlend mode="normal" in2="BackgroundImageFix" result="effect1_dropShadow"/>
<feBlend mode="normal" in="SourceGraphic" in2="effect1_dropShadow" result="shape"/>
</filter>
<filter id="filter3_d" x="66" y="1223" width="202.335" height="202.335" filterUnits="userSpaceOnUse" color-interpolation-filters="sRGB">
<feFlood flood-opacity="0" result="BackgroundImageFix"/>
<feColorMatrix in="SourceAlpha" type="matrix" values="0 0 0 0 0 0 0 0 0 0 0 0 0 0 0 0 0 0 127 0"/>
<feOffset dx="5" dy="4"/>
<feGaussianBlur stdDeviation="7.5"/>
<feColorMatrix type="matrix" values="0 0 0 0 0 0 0 0 0 0 0 0 0 0 0 0 0 0 0.1 0"/>
<feBlend mode="normal" in2="BackgroundImageFix" result="effect1_dropShadow"/>
<feBlend mode="normal" in="SourceGraphic" in2="effect1_dropShadow" result="shape"/>
</filter>
<linearGradient id="paint0_linear" x1="857.5" y1="1166" x2="857.5" y2="1833.72" gradientUnits="userSpaceOnUse">
<stop stop-color="#B5FFFF"/>
<stop offset="1" stop-color="#FCA5F1"/>
</linearGradient>
<linearGradient id="paint1_linear" x1="56.5" y1="67.1428" x2="1865.9" y2="220.881" gradientUnits="userSpaceOnUse">
<stop stop-color="#B5FFFF"/>
<stop offset="1" stop-color="#FCA5F1"/>
</linearGradient>
<linearGradient id="paint2_linear" x1="740.5" y1="169" x2="740.5" y2="993" gradientUnits="userSpaceOnUse">
<stop stop-color="#B5FFFF"/>
<stop offset="1" stop-color="#FCA5F1"/>
</linearGradient>
</defs>
</svg>
