<svg width="195" height="782" viewBox="0 0 195 782" fill="none" xmlns="http://www.w3.org/2000/svg">
<g clip-path="url(#clip0)">
<path d="M1 11H194V781H97.5H1V11Z" fill="#FFF5E7"/>
<path d="M1 11H194V781H97.5H1V11Z" stroke="#4B3B00" stroke-width="2"/>
<path d="M1 11H194V781H97.5H1V11Z" stroke="url(#paint0_linear)" stroke-width="2"/>
<path d="M0.481445 12.2593H195.481V132.259L97.9814 86.2593L0.481445 132.259V12.2593Z" fill="#FFEEB4"/>
<path d="M0 137.002L97.9146 90.0183L195.829 137.002" stroke="#9B7A04" stroke-width="2.3689"/>
<path d="M0 143.319L97.9146 96.3354L195.829 143.319" stroke="#9B7A04" stroke-width="2.3689"/>
<path d="M0 140.16L97.9146 93.1768L195.829 140.16" stroke="#FFF9E2" stroke-width="2.3689"/>
<path d="M0 726.376H97.9146H195.829" stroke="#4B3B00" stroke-width="2.3689"/>
<rect x="0.481445" y="0.259258" width="195" height="24" rx="7" fill="#FFEEB4"/>
<path d="M54.4577 40.3142C54.7637 39.7093 54.9237 39.1443 54.7254 38.4697L55.2086 38.6744C55.857 38.9483 56.4499 39.1988 57.0429 39.4507C59.9717 40.6957 62.7618 41.3005 65.5697 41.3005C65.9286 41.3005 66.2928 41.2899 66.6511 41.2699C67.751 41.2075 69.0234 41.0347 70.1226 40.2231C71.4142 39.2713 71.8194 37.4554 71.0401 36.0895C70.6085 35.3298 69.921 34.9443 68.9963 34.9443C68.488 34.9443 67.9089 35.0639 67.2777 35.2999C66.9994 35.4029 66.6934 35.5358 66.5837 35.8057C66.5555 35.8763 66.5428 35.9523 66.5463 36.0283C66.5498 36.1043 66.5696 36.1787 66.6041 36.2464C66.634 36.3164 66.6839 36.3761 66.7474 36.4177C66.8109 36.4593 66.8853 36.4811 66.9611 36.4803C67.1125 36.4803 67.2566 36.4026 67.3967 36.3281C67.4562 36.2932 67.5186 36.2634 67.5831 36.2391C67.7047 36.2018 67.8243 36.1586 67.9394 36.1161C68.1076 36.0506 68.2798 35.996 68.4549 35.9526C68.6144 35.9166 68.7773 35.8976 68.9408 35.8961C69.6123 35.8961 70.0797 36.257 70.3698 36.9994C70.738 37.9406 70.1808 39.1045 69.1014 39.6495C68.1945 40.1068 67.1938 40.2105 66.2472 40.255C65.9828 40.267 65.7184 40.2736 65.4494 40.2736C62.615 40.2736 59.7384 39.5923 56.3977 38.13C52.7623 36.5348 49.7137 35.2467 46.379 34.3288C44.6657 33.8582 42.8182 33.4229 40.906 33.4229C40.0952 33.4192 39.2865 33.5041 38.494 33.6761C36.4086 34.1327 34.6913 35.2088 33.5273 36.7894C32.3633 38.37 31.8576 40.3274 32.0784 42.4305C32.3263 44.7907 33.5326 46.4298 35.5724 47.1709C36.2558 47.4256 36.978 47.5587 37.7068 47.5644C39.1676 47.5644 40.5411 46.9974 41.7897 45.8801C43.0093 44.788 43.6022 43.478 43.5519 41.9858C43.5519 41.9612 43.5519 41.926 43.5566 41.8894C43.5671 41.7498 43.581 41.5571 43.4482 41.4155C43.4022 41.3695 43.347 41.3339 43.2862 41.311C43.2255 41.2881 43.1606 41.2784 43.0959 41.2826H43.0569C42.5809 41.3058 42.5704 41.7332 42.5657 41.916C42.5657 41.9459 42.5657 41.9752 42.5624 42.0037C42.5585 42.0636 42.5624 42.1194 42.5624 42.1732C42.5624 42.2271 42.5624 42.259 42.5624 42.2955C42.4448 44.0835 41.0673 45.7664 39.4267 46.1273C39.1841 46.1806 38.9366 46.2073 38.6883 46.2071C37.25 46.2071 35.8461 45.3091 35.1077 43.9193C34.4983 42.7694 34.337 41.474 34.6146 39.9599C35.2095 36.707 37.995 34.4352 41.3806 34.4352C41.6743 34.4355 41.9678 34.4524 42.2597 34.4857C46.2257 34.941 49.8202 36.3381 52.8158 37.6442C52.8777 37.6646 52.9342 37.6989 52.981 37.7445V37.7445C52.9612 37.8249 52.9293 37.9018 52.8865 37.9725L52.8588 38.0264C52.4996 38.7251 52.1394 39.4242 51.778 40.1234C50.6067 42.3946 49.3984 44.7435 48.2424 47.0738C47.7433 48.0828 47.2297 49.1064 46.7327 50.0968C45.1278 53.2958 43.468 56.6045 42.0224 59.9531C41.5468 61.0621 41.3559 62.2734 41.4672 63.4759C41.5762 64.7587 42.5373 65.6892 43.7595 65.6892C44.0376 65.6891 44.3138 65.6442 44.5778 65.5563L45.0511 65.4001L44.6261 65.1375C43.8157 64.6364 43.5929 64.1259 43.745 63.1136C44.0642 60.9867 45.0306 59.0532 45.9652 57.1848C46.0452 57.0246 46.1252 56.8651 46.2045 56.7049C48.8406 51.4055 51.5586 46.037 54.1887 40.8452L54.4577 40.3142Z" fill="#786765"/>
<path d="M161.226 60.1872C161.995 57.5405 163.281 55.0773 165.158 52.6565C165.718 51.9327 165.956 51.2454 165.905 50.4937C165.848 49.6575 165.45 49.2308 164.721 49.2308C164.618 49.2316 164.515 49.2391 164.412 49.2534C164.28 49.272 164.141 49.2946 164.01 49.3166C163.722 49.3736 163.429 49.4065 163.135 49.4149C163.053 49.415 162.97 49.4106 162.888 49.4017C162.557 49.3658 162.347 49.2787 162.239 49.1358C162.13 48.9929 162.103 48.7662 162.153 48.4419C162.174 48.3016 162.203 48.164 162.233 48.0178C162.283 47.7985 162.32 47.5766 162.346 47.3531C162.419 46.5815 161.908 46.0178 161.044 45.9181C160.998 45.9129 160.951 45.9103 160.905 45.9101C160.283 45.9101 160.272 46.4631 160.267 46.6991C160.267 46.7769 160.256 46.8546 160.252 46.8985C159.761 52.9271 155.423 58.7256 154.483 59.7725C153.808 60.5236 153.104 60.9961 152.33 61.2161C152.095 61.2904 151.852 61.3336 151.607 61.3444C151.213 61.3444 150.985 61.1769 150.828 60.2623C150.773 59.9238 150.763 59.5794 150.798 59.2381C150.899 58.0782 151.235 56.9709 151.55 56.0404L151.554 56.0264C151.833 55.2042 151.972 54.7915 152.211 54.6153C152.449 54.4392 152.9 54.4378 153.715 54.4345C155.169 54.4292 156.392 53.94 157.351 52.9802C157.615 52.7144 159.284 50.8746 157.488 49.1431C156.947 48.6207 156.166 48.3681 155.152 48.5515C154.533 48.6639 153.944 48.9331 153.301 49.3983C152.455 50.0098 151.778 50.7602 151.281 51.3458C150.846 51.866 150.237 52.2096 149.569 52.3129C149.507 52.325 149.443 52.3317 149.38 52.3328C149.342 52.3375 149.303 52.3306 149.269 52.3129C149.269 52.3129 149.228 52.2537 149.279 52.0185C149.454 51.1923 149.464 50.4512 149.307 49.7526C149.219 49.3578 149.034 48.5369 148.117 48.39C147.365 48.2691 146.818 48.6114 146.493 49.4056C145.999 50.4292 146.285 51.9261 147.134 52.7463C147.461 53.0626 147.526 53.3318 147.393 53.8097C146.858 55.7293 145.978 57.4262 144.777 58.8519C144.241 59.488 143.574 60.2803 142.714 60.7555C142.515 60.8659 142.256 60.9915 142.014 60.9915C141.844 60.9888 141.68 60.9262 141.551 60.8147C141.211 60.5422 141.109 60.1872 141.22 59.6655C141.295 59.3183 141.39 58.976 141.506 58.6406C142.402 56.0643 147.263 46.3169 147.898 45.1717C147.91 45.203 147.924 45.2333 147.941 45.2621C147.986 45.3399 148.05 45.4042 148.128 45.4481C148.205 45.492 148.293 45.5138 148.382 45.5113C148.668 45.5113 148.986 45.3119 149.242 45.1524L149.334 45.0953C152.089 43.4156 154.137 41.4914 155.594 39.2129C156.072 38.4752 156.405 37.6524 156.575 36.7889C156.712 36.0804 156.602 35.4835 156.257 35.0641C155.883 34.6074 155.258 34.3994 154.477 34.4705C153.239 34.5848 152.148 35.1352 151.045 36.1987C149.507 37.6802 148.146 39.4755 146.631 42.0192C144.635 45.3698 142.929 48.937 141.277 52.388C140.708 53.5744 140.121 54.8014 139.53 56.0011C138.94 57.2009 138.609 58.3873 138.556 59.5073C138.509 60.5076 137.829 60.8718 137.036 61.2932C136.971 61.332 136.899 61.3548 136.824 61.3597C136.64 61.3597 136.585 61.0892 136.57 60.9722C136.52 60.5907 136.6 60.2032 136.695 59.8423C137.334 57.3783 138.469 55.1231 139.779 52.6432C140.073 52.0856 140.374 51.4083 140.378 50.61C140.383 50.3259 140.332 50.0435 140.228 49.7795C140.123 49.5154 139.967 49.2749 139.77 49.072C139.581 48.8799 139.356 48.7276 139.108 48.6238C138.86 48.5201 138.594 48.467 138.326 48.4678C137.998 48.4689 137.675 48.5453 137.381 48.6911C136.852 48.9483 136.414 49.3339 136.048 49.6742C135.571 50.1162 135.157 50.6173 134.756 51.1025L134.726 51.1384L134.738 51.1052C135.031 50.3122 134.925 49.6157 134.423 49.0361C134.258 48.8372 134.05 48.6785 133.815 48.572C133.58 48.4655 133.325 48.4139 133.067 48.4213C132.873 48.4235 132.679 48.4458 132.489 48.4877C131.604 48.6725 130.922 49.1577 130.427 49.5598C129.479 50.3315 128.653 51.2361 127.863 52.1361C128.042 51.7307 128.226 51.3119 128.387 50.8892C128.63 50.2531 128.512 49.6263 128.036 49.0281C127.862 48.8101 127.648 48.5874 127.375 48.5874C127.049 48.5874 126.846 48.9078 126.727 49.1484C126.108 50.3667 125.457 51.5944 124.827 52.7822C124.55 53.3046 124.273 53.8275 123.997 54.3508C123.85 54.6295 123.703 54.9073 123.554 55.1843C122.809 56.5768 122.04 58.0171 121.522 59.5531C121.125 60.7396 120.255 61.4847 119.461 62.0569C119.241 62.2151 119.118 62.2391 119.065 62.2391C118.903 62.2391 118.848 61.9134 118.829 61.7193C118.777 61.1783 118.901 60.6246 119.022 60.1487C119.58 57.948 120.632 55.9187 121.661 54.0297C122.934 51.6934 124.206 49.3073 125.437 46.9995C127.172 43.7466 128.966 40.3828 130.787 37.1079C131.235 36.3043 131.316 35.4243 131.008 34.6939C130.71 33.978 130.066 33.4523 129.198 33.2216C128.778 33.1094 128.346 33.0528 127.911 33.0534C127.144 33.0534 126.336 33.2223 125.441 33.5692C123.231 34.426 121.627 36.0697 120.297 37.5433C116.965 41.2289 114.459 45.4449 112.646 48.7044C112.453 49.0527 112.311 49.1537 112.014 49.1537C111.971 49.1537 111.924 49.1537 111.874 49.1464C110.109 48.9756 108.391 48.8885 106.771 48.8885C104.86 48.8848 102.951 49.0118 101.058 49.2687C98.8904 49.5685 96.095 50.1467 93.7022 51.9733C92.3293 53.0208 91.6069 54.2438 91.4918 55.712C91.4056 56.792 91.5362 57.8783 91.8756 58.9066C92.2151 59.9348 92.7566 60.8839 93.468 61.6976C94.1794 62.5113 95.0462 63.1729 96.0168 63.6432C96.9875 64.1135 98.0422 64.3828 99.1184 64.4351C99.2671 64.4418 99.4165 64.4458 99.5626 64.4458C102.359 64.4458 104.697 63.1543 106.512 60.608C108.407 57.9493 110.074 55.0812 111.687 52.3102C112.01 51.7546 112.334 51.1996 112.658 50.6452C112.823 50.3628 112.943 50.277 113.17 50.277C113.223 50.2772 113.276 50.281 113.328 50.2883C115.051 50.5203 117.002 50.7828 118.874 51.2056C118.901 51.214 118.929 51.2242 118.956 51.2361C119.042 51.2776 119.135 51.3015 119.23 51.3066C119.319 51.3066 119.535 51.274 119.627 50.9743C119.763 50.5223 119.076 50.2511 119.026 50.2219C119.007 50.2119 118.146 49.7878 117.744 49.738C117.62 49.7227 117.502 49.7081 117.388 49.6861C116.772 49.5665 116.143 49.4821 115.537 49.4003C114.95 49.3212 114.347 49.2395 113.757 49.1271C113.783 49.0592 113.816 48.9945 113.857 48.9344C113.876 48.9031 113.895 48.8719 113.912 48.8407C115.823 45.4229 117.608 42.7151 119.531 40.3176C120.838 38.6859 122.301 36.9943 124.132 35.6889C125.542 34.6826 126.928 34.2366 128.383 34.3196C128.813 34.3442 128.878 34.418 128.886 34.4326C128.895 34.4473 128.93 34.5423 128.74 34.9471C128.685 35.0614 128.627 35.1777 128.569 35.2901L128.548 35.3319C126.458 39.4343 118.441 55.1617 117.663 56.9397C117.108 58.2092 116.524 59.6987 116.626 61.3165L116.631 61.4023C116.68 62.2065 116.741 63.2075 117.743 63.5578C117.964 63.6358 118.196 63.6763 118.429 63.6774C119.107 63.6774 119.765 63.3338 120.439 62.6272C120.685 62.368 120.913 62.1008 121.153 61.8183L121.197 61.7678C121.216 61.8289 121.241 61.8877 121.272 61.9433C121.299 61.9892 121.325 62.039 121.352 62.0902C121.503 62.3753 121.709 62.7655 122.119 62.7821H122.141C122.53 62.7821 122.775 62.0091 122.802 61.9539C124.477 58.6705 126.616 54.8905 129.783 51.7519C130.576 50.963 131.31 50.271 132.204 49.7918C132.34 49.7098 132.493 49.6609 132.651 49.6489C132.717 49.6459 132.781 49.6674 132.832 49.7094C132.89 49.7599 132.902 49.7699 132.741 49.9839C132.693 50.045 132.649 50.1094 132.609 50.1767C132.194 50.9311 131.766 51.6948 131.353 52.4365C130.685 53.6283 129.994 54.8612 129.338 56.0876C128.611 57.4501 127.796 59.0533 127.388 60.83C127.28 61.3012 127.207 61.9958 127.814 62.5893C127.986 62.7575 128.133 62.8871 128.322 62.8871C128.579 62.8871 128.725 62.6552 128.834 62.4278C129.495 61.0526 130.079 59.9347 130.674 58.9097C132.392 55.948 134.355 52.8659 137.044 50.3933C137.385 50.0796 137.726 49.7872 138.156 49.6536C138.23 49.6294 138.307 49.6162 138.385 49.6143C138.444 49.6123 138.503 49.6252 138.556 49.6517C138.609 49.6783 138.654 49.7178 138.688 49.7666C138.733 49.8244 138.742 49.8363 138.609 50.0045C138.576 50.0451 138.543 50.0876 138.512 50.1335C137.511 51.6622 136.714 52.9703 136.077 54.3807C135.11 56.5236 134.318 58.4824 134.41 60.7495C134.463 62.0789 135.095 62.8712 136.1 62.8712C136.514 62.8712 136.967 62.7323 137.447 62.4577C137.94 62.1753 138.329 61.7791 138.654 61.4295C138.698 61.3787 138.738 61.3237 138.772 61.2653L138.792 61.2341C139.397 62.4072 140.119 62.9117 141.172 62.9117C141.417 62.9098 141.662 62.8855 141.903 62.8393C142.555 62.7203 143.175 62.4072 143.798 61.8835C145.861 60.1487 147.397 57.7625 148.632 54.3614C148.871 53.7007 149.019 53.3564 149.507 53.3564C149.585 53.3573 149.664 53.3649 149.741 53.379C149.782 53.3857 149.824 53.3857 149.865 53.379C149.856 53.3923 149.848 53.4056 149.84 53.4202C149.18 54.5684 148.654 55.7895 148.273 57.0593C147.819 58.6106 147.795 59.8835 148.199 61.0646C148.565 62.1367 149.213 62.7083 150.124 62.7642C150.287 62.7741 150.451 62.7794 150.611 62.7794C152.737 62.7794 154.559 61.8901 155.88 60.2078C158.314 57.1098 159.828 53.5612 161.089 50.1673C161.61 50.4219 162.198 50.5369 162.953 50.5369C163.309 50.5369 163.674 50.5123 164.028 50.4884H164.035C162.713 52.1979 161.539 53.7685 160.586 55.5532C159.74 57.1377 158.843 59.0094 158.919 61.1729C158.97 62.6252 159.815 62.8419 160.313 62.8419C160.557 62.8378 160.8 62.7984 161.032 62.7249C162.334 62.3361 163.194 61.3863 164.025 60.4651C164.144 60.3321 164.261 60.2039 164.381 60.0749C164.434 60.0177 164.558 59.8841 164.544 59.702C164.538 59.6467 164.521 59.5932 164.494 59.545C164.466 59.4969 164.429 59.4552 164.384 59.4229C164.3 59.3546 164.196 59.3169 164.089 59.3159C163.941 59.3217 163.801 59.3854 163.699 59.4933C163.552 59.6302 163.406 59.7712 163.264 59.9074C162.945 60.2138 162.615 60.5315 162.272 60.8127C162.213 60.8612 162.152 60.915 162.089 60.9696C161.856 61.1729 161.592 61.4036 161.362 61.4036C161.289 61.402 161.218 61.3789 161.158 61.3371C160.935 61.1942 160.973 60.9509 161.148 60.4245C161.178 60.3421 161.204 60.2643 161.226 60.1872ZM111.857 50.158C111.527 50.7066 111.2 51.2508 110.876 51.7905C109.97 53.2993 109.115 54.725 108.221 56.164C108.065 56.4152 107.911 56.6671 107.758 56.9197C106.896 58.3262 106.004 59.7811 104.88 61.026C103.714 62.3188 102.247 63.1065 100.518 63.3683C100.317 63.3988 100.114 63.4141 99.9103 63.4142C98.9849 63.4142 98.0734 63.1011 97.2002 62.4837C95.0268 60.9483 93.9613 58.7389 94.0367 55.9161C94.0882 53.9779 95.1604 52.5595 97.4183 51.4522C99.2255 50.5648 101.167 50.2744 102.996 50.0916C104.197 49.9719 105.424 49.9141 106.748 49.9141C108.286 49.9128 109.919 49.9905 111.857 50.158ZM153.11 53.5253C153.06 53.5253 153.007 53.5253 152.955 53.5253C152.903 53.5253 152.86 53.5286 152.813 53.5286C152.587 53.5286 152.549 53.486 152.527 53.4462C152.489 53.3684 152.703 53.1271 152.818 52.9975C152.895 52.9104 152.975 52.82 153.04 52.7316C153.825 51.6343 154.586 50.844 155.435 50.2438C155.481 50.211 155.528 50.1771 155.576 50.1421C155.803 49.9753 156.039 49.8024 156.248 49.8024C156.345 49.8054 156.439 49.8418 156.513 49.9055C156.944 50.2425 157.107 50.7762 156.954 51.3677C156.741 52.2085 156.059 52.6918 155.42 53.054C154.891 53.3531 154.258 53.5133 153.427 53.5572C153.323 53.5322 153.217 53.5215 153.11 53.5253V53.5253ZM154.686 35.9414C154.83 35.8537 154.983 35.768 155.116 35.768C155.184 35.7683 155.25 35.7917 155.304 35.8344C155.446 35.9414 155.444 36.097 155.408 36.4021V36.428C155.308 37.2734 155.003 38.077 154.474 38.8872C152.95 41.2136 150.714 42.8666 148.737 44.2332C148.657 44.2824 148.574 44.3268 148.489 44.3661C148.427 44.3967 148.363 44.4286 148.3 44.4632C149.483 42.3761 150.861 40.1501 152.428 38.0451C153.089 37.1538 153.849 36.4433 154.686 35.9401V35.9414Z" fill="#786765"/>
<path d="M81.4865 61.9752C82.0927 61.3936 82.5851 60.8419 82.9222 60.1181L83.0306 59.8848L82.792 59.7997C82.7023 59.7668 82.6078 59.7493 82.5124 59.7479C82.1991 59.7479 82.0358 59.9599 81.9274 60.1001C81.9022 60.1345 81.8751 60.1673 81.8461 60.1985C81.7734 60.2703 81.7027 60.3441 81.632 60.4179C81.3854 60.6731 81.1534 60.9144 80.8698 61.0885C80.8368 61.1085 80.8037 61.1297 80.77 61.151C80.6048 61.256 80.4494 61.3557 80.3073 61.3557C80.2395 61.3541 80.1734 61.3331 80.117 61.2952C79.9154 61.1696 79.9187 60.9629 79.9365 60.6306V60.59C79.9953 59.5458 80.3331 58.5668 80.7052 57.5731C81.4575 55.5611 82.5051 53.6515 83.5178 51.7991C83.7148 51.4388 83.9111 51.0786 84.1067 50.7183C84.5615 49.8789 84.4491 49.1231 83.7828 48.5356C83.488 48.2757 83.2785 48.1049 83.0557 48.1049C82.7252 48.1049 82.5692 48.4492 82.3875 48.8473C82.3214 48.9935 82.2493 49.1378 82.168 49.2986C81.7053 48.7004 81.0529 48.4159 80.1493 48.4159C80.0555 48.4159 79.9563 48.4159 79.8539 48.4246C78.6417 48.485 77.4773 48.9187 76.5185 49.6668C74.3174 51.373 72.6755 53.6588 71.6384 56.4604C71.2385 57.5392 70.822 58.8047 70.9338 60.1719C71.0455 61.5392 71.4877 62.3135 72.3972 62.6545L69.9251 63.2294L70.3653 61.2354C70.9291 58.6731 71.4824 56.1573 72.037 53.6416C72.1107 53.3597 72.2151 53.0869 72.3483 52.828C72.423 52.6672 72.5003 52.501 72.5651 52.3288C72.8143 51.6728 72.5803 51.0374 71.9543 50.6672C71.7867 50.5632 71.5946 50.5061 71.3978 50.5017C71.1261 50.5017 70.7315 50.6286 70.3911 51.2328C70.3402 51.3232 70.2939 51.4156 70.2496 51.5053C70.1696 51.6847 70.0682 51.8537 69.9475 52.0085C68.229 54.0025 65.8844 56.5508 63.0018 58.604C62.9079 58.6704 62.8134 58.7509 62.7222 58.828C62.4948 59.0207 62.2595 59.2195 62.046 59.2195C61.9427 59.2151 61.8442 59.1744 61.7677 59.1045C61.4181 58.822 61.5549 58.4265 61.8028 57.8549C61.8252 57.8024 61.8477 57.7505 61.8689 57.7C61.9958 57.3983 62.1218 57.0956 62.247 56.7921C63.3045 54.2497 64.3939 51.621 66.1891 49.4375C66.513 49.0427 66.2989 48.6499 66.1838 48.4405C66.1312 48.3334 66.0499 48.2433 65.9489 48.1803C65.848 48.1174 65.7315 48.0841 65.6127 48.0843C65.4862 48.0863 65.3618 48.1177 65.2492 48.176C64.3179 48.6413 63.2616 49.173 62.8524 50.4006C62.6118 51.1245 62.3329 51.9034 61.9753 52.8513C61.6911 53.6043 61.3949 54.3687 61.1087 55.1072C60.5211 56.6239 59.9189 58.1846 59.3736 59.7558L59.1092 59.7386C59.0735 59.7386 59.0391 59.7352 59.0061 59.7352C58.4932 59.7352 58.279 60.0011 58.1276 60.1952C58.1025 60.2264 58.0781 60.2577 58.0523 60.2863C57.7925 60.5767 57.4732 60.9057 57.072 61.1417L56.9953 61.1882C56.8506 61.2753 56.7138 61.3584 56.5895 61.3584C56.5338 61.3577 56.4794 61.3416 56.4322 61.3118C56.2207 61.1902 56.2193 60.9941 56.2339 60.6578V60.6206C56.2749 59.6954 56.5327 58.826 56.9055 57.8057C57.7086 55.6123 58.8514 53.5339 59.9566 51.5246C60.0981 51.268 60.2391 51.0112 60.3796 50.7542C60.8642 49.8689 60.7498 49.1145 60.0412 48.511C59.7438 48.2571 59.5475 48.1035 59.3359 48.1035C59.0193 48.1035 58.8732 48.4286 58.7001 48.8054C58.6234 48.9756 58.5408 49.1417 58.4542 49.3152C57.9379 48.6732 57.3536 48.4159 56.4712 48.4159H56.4401C54.9985 48.4259 53.6772 48.9217 52.5131 49.8908C50.0503 51.9413 48.3489 54.6445 47.4605 57.926C47.134 59.1317 47.1188 60.1859 47.4129 61.1397C47.7434 62.2224 48.4705 62.8439 49.4038 62.8439C49.8272 62.834 50.2428 62.7269 50.6187 62.5308C51.4529 62.1201 52.1232 61.4933 52.7227 60.8765C53.2515 60.3315 53.7142 59.7392 54.2007 59.0819C54.0559 59.9267 53.9984 60.7489 54.2297 61.5777C54.467 62.4291 54.9568 62.8605 55.6932 62.8605C55.8795 62.8593 56.0651 62.837 56.2464 62.7941C57.6848 62.4617 58.4383 61.3703 59.2209 60.2018C59.1826 60.3162 59.1436 60.4292 59.1059 60.5435C58.8931 61.1856 58.9995 61.696 59.4219 62.0603C59.5661 62.1944 59.7542 62.2707 59.9507 62.2749C60.225 62.2749 60.4517 62.1241 60.652 61.9905C60.7015 61.9572 60.7498 61.924 60.7981 61.8961C62.3183 60.9828 63.6443 59.815 64.7713 58.7921C66.6882 57.0493 68.3407 55.3757 69.8041 53.6914C69.3447 57.153 68.7961 60.2956 68.1305 63.2846C68.073 63.5418 67.958 63.6482 67.6182 63.7592C64.3046 64.8366 61.0909 66.3055 57.7932 68.2503C54.902 69.9552 51.6201 72.1526 49.2002 75.5278C47.6581 77.6793 46.9066 80.0588 47.0269 82.4098C47.1472 84.7607 48.14 87.0452 49.8963 89.0132C51.3663 90.6596 52.8536 91.4267 54.5768 91.4267C54.6191 91.4267 54.662 91.4267 54.705 91.4267C56.6219 91.3835 58.2962 90.5094 59.9837 88.6749C61.9964 86.4862 63.2695 83.9232 64.2498 81.7039C66.6518 76.2642 68.1761 70.5275 69.4657 65.1383L69.4743 65.1018C69.5655 64.7203 69.6144 64.5621 69.937 64.4856C72.9015 63.7758 75.952 63.4301 79.257 63.4301C80.2485 63.4301 81.2763 63.4627 82.3095 63.5272C83.0855 63.5757 83.5786 63.7578 83.8622 64.1008C84.1576 64.4584 84.2455 65.024 84.1404 65.8794C83.9368 67.5265 83.0412 68.8818 82.1422 70.1287C82.1138 70.1679 82.0761 70.2091 82.0378 70.253C81.8812 70.4298 81.6412 70.6963 81.8184 71.1044L81.8732 71.2327L82.0114 71.244C82.0301 71.245 82.0488 71.245 82.0676 71.244V71.244C82.169 71.2427 82.2688 71.2181 82.3593 71.172C82.4499 71.1259 82.5287 71.0596 82.5897 70.9781C82.714 70.8292 82.8392 70.6808 82.9652 70.5328C83.5396 69.8555 84.1332 69.1543 84.6124 68.3713C85.67 66.6392 85.5265 64.8027 84.2045 63.1995C83.4708 62.3122 82.5157 62.0995 81.4865 61.9752ZM57.3602 51.3717L57.2373 51.6024C56.6054 52.7828 55.953 54.0031 55.2695 55.1769C54.3031 56.8386 53.2462 58.5814 51.8773 60.0862C51.564 60.4312 51.1369 60.8652 50.6148 61.1616C50.3761 61.2946 50.1904 61.365 50.0615 61.365C49.9815 61.365 49.7938 61.365 49.6947 60.6904C49.6801 60.5907 49.6669 60.491 49.655 60.3979L49.6431 60.3089C49.7799 58.4258 50.4819 56.7063 51.1508 55.2727C51.9685 53.5213 52.9289 52.1235 54.0876 50.9995C54.7856 50.3222 55.4599 49.946 56.2094 49.8171C56.4056 49.7785 56.6045 49.7563 56.8043 49.7506C57.1057 49.7506 57.3054 49.8397 57.4521 50.0391C57.6953 50.3721 57.6669 50.7961 57.3582 51.3717H57.3602ZM77.7466 61.4933C77.7982 61.6973 77.7665 61.7505 77.7625 61.7558C77.7513 61.7711 77.701 61.8097 77.465 61.8309C77.2006 61.8549 76.931 61.8748 76.6718 61.8974C76.2792 61.9267 75.8787 61.9566 75.4821 62.0004C76.3076 61.3743 76.9752 60.5854 77.6362 59.7406C77.5771 60.3269 77.6144 60.9191 77.7466 61.4933V61.4933ZM74.3313 61.1503C74.0794 61.2833 73.8805 61.3564 73.7403 61.3564C73.6518 61.3564 73.4436 61.3564 73.3933 60.6545C73.3867 60.5601 73.3827 60.4664 73.3768 60.3441C73.3768 60.2829 73.3715 60.2145 73.3675 60.136C73.4654 58.3547 74.209 56.6312 74.8991 55.1543C75.6645 53.5173 76.5866 52.178 77.7202 51.0593C78.4651 50.3235 79.1982 49.9187 80.0271 49.7845C80.1731 49.7584 80.321 49.7442 80.4693 49.7419C80.7846 49.7419 80.9981 49.8297 81.1494 50.0251C81.4872 50.4518 81.2413 51.0022 81.158 51.161L80.9412 51.5784C79.3694 54.5694 77.744 57.6608 75.4417 60.2337C75.0716 60.6458 74.7094 60.9456 74.3313 61.1503ZM49.4653 77.5284C51.0014 74.8179 53.2812 72.5334 56.8572 70.12C59.4794 68.3513 64.7508 65.9519 67.7947 65.1211C66.0761 73.6022 63.9569 79.8136 60.9388 85.2233C59.9936 86.9189 59.0993 88.0814 58.0397 88.9953C57.0046 89.888 55.83 90.3592 54.6422 90.3592C53.4372 90.3592 52.2402 89.8753 51.1806 88.9594C47.789 86.0276 47.132 81.6474 49.4653 77.5284Z" fill="#786765"/>
<path d="M91.3268 73.6022C91.3262 73.4906 91.307 73.3798 91.2699 73.2745C91.2254 73.1553 91.1526 73.0487 91.0577 72.9642C90.9282 72.8503 90.7814 72.758 90.6228 72.691C90.3902 72.5915 90.1478 72.5169 89.8997 72.4683C89.6308 72.4131 89.3658 72.34 89.1065 72.2496C88.8971 72.1789 88.6991 72.0777 88.5189 71.9492C88.3663 71.8406 88.2419 71.6968 88.156 71.5298C88.07 71.3522 88.0276 71.1564 88.0324 70.9588C88.0322 70.7623 88.0775 70.5685 88.1646 70.3925C88.2541 70.2115 88.3823 70.0526 88.54 69.9273C88.7178 69.7871 88.9193 69.6803 89.1349 69.6122C89.3878 69.5312 89.6521 69.4917 89.9175 69.4952C90.1996 69.4911 90.4805 69.5322 90.7497 69.6169C90.977 69.688 91.1884 69.8027 91.3724 69.9545C91.5376 70.0931 91.6699 70.2671 91.7597 70.4637C91.8492 70.6633 91.8944 70.8801 91.8919 71.0991H91.297C91.2966 70.9584 91.2655 70.8195 91.2058 70.6923C91.1438 70.5578 91.0536 70.4383 90.9414 70.342C90.8125 70.2342 90.6651 70.1509 90.5065 70.0961C90.3167 70.0302 90.1169 69.9983 89.9162 70.0017C89.7164 69.9971 89.5172 70.0256 89.3266 70.0861C89.1807 70.1328 89.0449 70.207 88.9267 70.3048C88.8288 70.3859 88.751 70.4888 88.6993 70.6052C88.6532 70.71 88.6289 70.8231 88.6279 70.9376C88.6264 71.0483 88.6447 71.1584 88.6821 71.2626C88.7263 71.371 88.7987 71.4653 88.8917 71.5358C89.0238 71.6357 89.1705 71.7144 89.3266 71.7691C89.564 71.8558 89.8069 71.9264 90.0537 71.9804C90.3374 72.0447 90.6162 72.1293 90.8879 72.2337C91.0976 72.3129 91.2935 72.425 91.4682 72.566C91.6136 72.6833 91.7301 72.8327 91.8086 73.0027C91.886 73.1821 91.9241 73.3761 91.9203 73.5717C91.9227 73.7826 91.8751 73.991 91.7815 74.1798C91.6874 74.3657 91.5517 74.527 91.3849 74.6511C91.1975 74.79 90.9865 74.8936 90.7623 74.9568C90.4975 75.0323 90.2232 75.069 89.9479 75.0658C89.6431 75.0706 89.3395 75.0257 89.049 74.9329C88.81 74.8566 88.5872 74.7362 88.392 74.578C88.2221 74.4385 88.0849 74.263 87.9901 74.0642C87.9017 73.877 87.8556 73.6725 87.8552 73.4653H88.4501C88.455 73.6542 88.5112 73.8381 88.6127 73.997C88.7049 74.1347 88.8263 74.2501 88.9683 74.3347C89.1145 74.421 89.2741 74.4821 89.4403 74.5155C89.6082 74.5516 89.7795 74.5701 89.9512 74.5707C90.1524 74.5741 90.3529 74.5473 90.5461 74.4909C90.7016 74.4459 90.8479 74.3737 90.9784 74.2775C91.0883 74.1961 91.1787 74.091 91.2428 73.9698C91.2999 73.8559 91.3287 73.7298 91.3268 73.6022V73.6022Z" fill="#786765"/>
<path d="M93.2133 68.041C93.2109 67.9353 93.2498 67.8329 93.3217 67.7558C93.3599 67.7163 93.4061 67.6855 93.4572 67.6653C93.5083 67.6451 93.563 67.6361 93.6178 67.6388C93.6713 67.6358 93.7248 67.6439 93.775 67.6627C93.8252 67.6815 93.871 67.7105 93.9095 67.748C93.948 67.7855 93.9784 67.8306 93.9987 67.8804C94.019 67.9302 94.0289 67.9838 94.0276 68.0376C94.0289 68.0899 94.0199 68.1418 94.0009 68.1905C93.982 68.2391 93.9535 68.2834 93.9172 68.3208C93.8779 68.3597 93.831 68.39 93.7795 68.4097C93.7279 68.4294 93.6729 68.438 93.6178 68.4351C93.5645 68.4385 93.511 68.4306 93.4609 68.4119C93.4108 68.3932 93.3652 68.364 93.3271 68.3264C93.2889 68.2888 93.2591 68.2435 93.2395 68.1936C93.2198 68.1436 93.2109 68.09 93.2133 68.0363V68.041ZM93.9093 74.9681H93.3144V69.595H93.9093V74.9681Z" fill="#786765"/>
<path d="M95.2774 72.2317C95.2728 71.8503 95.3201 71.4702 95.4182 71.1018C95.4989 70.7906 95.637 70.4975 95.8254 70.2377C95.9959 70.0054 96.2182 69.8164 96.4745 69.686C96.7441 69.5538 97.0411 69.4875 97.341 69.4926C97.683 69.4829 98.0216 69.5624 98.3239 69.7232C98.5985 69.8788 98.8309 70.0997 99.0008 70.3666L99.0299 69.5916H99.5812V74.8704C99.5861 75.1891 99.5341 75.5061 99.4278 75.8063C99.3347 76.0684 99.1876 76.3078 98.9962 76.5088C98.806 76.7036 98.5759 76.8544 98.322 76.9508C98.0154 77.0651 97.6894 77.1174 97.3627 77.1046C97.036 77.0918 96.7151 77.0143 96.4183 76.8764C96.2537 76.7993 96.0984 76.7034 95.9556 76.5906C95.8094 76.4757 95.6811 76.3395 95.5749 76.1865L95.9054 75.8289C96.0924 76.0714 96.328 76.2718 96.5968 76.4171C96.8448 76.5424 97.119 76.6062 97.3966 76.6032C97.6266 76.6074 97.8553 76.568 98.0708 76.4869C98.2594 76.4133 98.4291 76.2979 98.5672 76.1493C98.7062 75.9941 98.8114 75.8114 98.8759 75.6129C98.9498 75.381 98.9855 75.1385 98.9816 74.895V74.2696C98.806 74.5157 98.5741 74.7159 98.3054 74.8531C98.0029 75.0006 97.6699 75.074 97.3338 75.0672C97.0354 75.0726 96.7403 75.0041 96.4745 74.8678C96.2192 74.7324 95.9979 74.5403 95.8274 74.3061C95.6397 74.0459 95.5017 73.7529 95.4202 73.4421C95.3222 73.0815 95.2742 72.7091 95.2774 72.3354V72.2317ZM95.8723 72.336C95.87 72.6309 95.9015 72.9251 95.9662 73.2127C96.0201 73.4619 96.1169 73.6997 96.2524 73.9153C96.3746 74.1078 96.5416 74.2674 96.7389 74.3806C96.9528 74.498 97.1939 74.5562 97.4375 74.5494C97.6237 74.552 97.8093 74.5269 97.9882 74.475C98.142 74.4298 98.2877 74.3602 98.4198 74.2689C98.5435 74.1827 98.6534 74.0781 98.7457 73.9585C98.8393 73.8373 98.9189 73.7057 98.983 73.5664V71.0725C98.9259 70.9322 98.8539 70.7984 98.7681 70.6737C98.6805 70.5457 98.5739 70.4318 98.4522 70.3361C98.3219 70.2347 98.1758 70.1559 98.0199 70.1028C97.8353 70.0417 97.6418 70.0123 97.4475 70.0157C97.201 70.009 96.9572 70.0682 96.7409 70.1872C96.543 70.302 96.3755 70.4629 96.2524 70.6564C96.1166 70.8728 96.0197 71.1115 95.9662 71.3616C95.9018 71.6482 95.8703 71.9412 95.8723 72.235V72.336Z" fill="#786765"/>
<path d="M101.687 69.5949L101.706 70.5142C101.797 70.3638 101.904 70.2238 102.025 70.0968C102.265 69.8425 102.57 69.6588 102.907 69.565C103.084 69.5164 103.266 69.4923 103.45 69.4933C103.693 69.4897 103.935 69.5265 104.166 69.6023C104.37 69.6712 104.555 69.7907 104.701 69.9499C104.858 70.1264 104.972 70.3361 105.037 70.5634C105.121 70.8585 105.16 71.1645 105.153 71.4713V74.9675H104.566V71.4673C104.572 71.2323 104.541 70.9979 104.476 70.7721C104.428 70.6056 104.342 70.4527 104.225 70.3254C104.116 70.2123 103.979 70.1292 103.829 70.0841C103.66 70.0345 103.484 70.0103 103.308 70.0124C103.112 70.0097 102.917 70.0461 102.735 70.1194C102.568 70.1875 102.415 70.284 102.281 70.4045C102.148 70.5243 102.034 70.6624 101.94 70.8146C101.847 70.9635 101.771 71.1224 101.713 71.2885V74.9681H101.125V69.5949H101.687Z" fill="#786765"/>
<path d="M110.052 74.9681C110.015 74.8577 109.989 74.7436 109.975 74.6278C109.958 74.4949 109.945 74.3584 109.938 74.2184C109.845 74.3387 109.739 74.4485 109.622 74.5461C109.497 74.6505 109.359 74.7398 109.213 74.8119C109.053 74.8912 108.886 74.9529 108.714 74.9961C108.521 75.0425 108.324 75.0648 108.126 75.0625C107.885 75.0657 107.645 75.027 107.417 74.9482C107.217 74.8793 107.032 74.7705 106.875 74.6285C106.726 74.4932 106.608 74.3282 106.526 74.144C106.443 73.9533 106.401 73.7468 106.403 73.5384C106.399 73.2921 106.457 73.0488 106.571 72.8306C106.687 72.6154 106.853 72.4314 107.054 72.2942C107.289 72.1367 107.549 72.0223 107.823 71.9565C108.155 71.8752 108.495 71.8362 108.837 71.8402H109.934V71.2294C109.934 70.8452 109.816 70.543 109.58 70.3228C109.344 70.1025 109.001 69.9918 108.551 69.9904C108.357 69.9883 108.163 70.0168 107.978 70.0748C107.815 70.1247 107.662 70.2038 107.526 70.3081C107.405 70.4011 107.304 70.5186 107.23 70.6531C107.16 70.7816 107.123 70.926 107.124 71.0725L106.529 71.0679C106.53 70.8632 106.581 70.6619 106.677 70.4816C106.781 70.287 106.923 70.1156 107.095 69.9778C107.288 69.8224 107.507 69.7023 107.741 69.6229C108.011 69.5308 108.294 69.4859 108.579 69.4899C108.844 69.4875 109.107 69.5242 109.361 69.5989C109.586 69.6647 109.796 69.7762 109.976 69.9266C110.148 70.076 110.284 70.2629 110.373 70.473C110.473 70.7153 110.521 70.9758 110.516 71.238V73.8395C110.516 73.9326 110.516 74.0283 110.526 74.128C110.536 74.2277 110.543 74.3234 110.558 74.4158C110.572 74.5082 110.59 74.5973 110.61 74.6817C110.626 74.757 110.648 74.8309 110.676 74.9023V74.9622L110.052 74.9681ZM108.195 74.5408C108.397 74.5426 108.597 74.515 108.79 74.459C108.966 74.4081 109.133 74.332 109.287 74.233C109.43 74.1416 109.56 74.0296 109.672 73.9007C109.78 73.776 109.869 73.6363 109.936 73.4859V72.3015H108.921C108.648 72.2984 108.376 72.3258 108.109 72.3832C107.896 72.4279 107.691 72.5076 107.504 72.6192C107.35 72.7117 107.22 72.8403 107.126 72.9941C107.037 73.1453 106.992 73.3178 106.994 73.4932C106.993 73.6341 107.021 73.7737 107.078 73.9027C107.133 74.0294 107.214 74.1427 107.317 74.235C107.427 74.3333 107.555 74.4092 107.694 74.4583C107.855 74.5153 108.025 74.5432 108.195 74.5408V74.5408Z" fill="#786765"/>
<path d="M113.015 68.2198V69.595H114.123V70.0822H113.017V73.6647C113.012 73.8183 113.031 73.9717 113.073 74.1194C113.104 74.2187 113.156 74.3097 113.227 74.3852C113.288 74.4479 113.364 74.4925 113.449 74.5142C113.535 74.5363 113.624 74.5473 113.713 74.5467C113.799 74.5468 113.885 74.5411 113.97 74.5295L114.192 74.4969L114.217 74.9834C114.125 75.0144 114.029 75.0353 113.933 75.0459C113.817 75.0605 113.701 75.0678 113.584 75.0678C113.428 75.0694 113.272 75.047 113.122 75.0014C112.981 74.9585 112.854 74.8789 112.754 74.7707C112.642 74.6457 112.561 74.4972 112.514 74.336C112.451 74.1176 112.422 73.8908 112.428 73.6634V70.0822H111.439V69.595H112.422V68.2198H113.015Z" fill="#786765"/>
<path d="M118.782 74.2875C118.613 74.5342 118.382 74.732 118.113 74.8611C117.835 74.9989 117.491 75.0676 117.079 75.0672C116.836 75.0705 116.594 75.0327 116.363 74.9555C116.153 74.8837 115.963 74.7619 115.81 74.6006C115.645 74.421 115.522 74.2063 115.452 73.9725C115.361 73.6691 115.319 73.3533 115.326 73.0366V69.595H115.914V73.0466C115.907 73.2903 115.94 73.5335 116.012 73.7664C116.065 73.9391 116.156 74.098 116.276 74.2317C116.385 74.3453 116.52 74.4304 116.669 74.4796C116.823 74.53 116.984 74.5551 117.146 74.5541C117.357 74.5573 117.569 74.5306 117.773 74.475C117.941 74.4281 118.1 74.3526 118.242 74.2516C118.37 74.1593 118.48 74.045 118.568 73.914C118.655 73.7817 118.723 73.6378 118.77 73.4866V69.5983H119.365V74.9715H118.792L118.782 74.2875Z" fill="#786765"/>
<path d="M123.37 70.1021C123.238 70.0781 123.104 70.0663 122.97 70.0669C122.785 70.0642 122.601 70.0946 122.427 70.1566C122.27 70.2129 122.125 70.2979 121.999 70.4072C121.875 70.5162 121.77 70.6454 121.689 70.7894C121.603 70.9435 121.536 71.1079 121.49 71.2786V74.9681H120.903V69.595H121.481L121.49 70.4491C121.623 70.1687 121.827 69.9283 122.081 69.7518C122.353 69.5743 122.673 69.485 122.997 69.4959C123.071 69.4961 123.146 69.5028 123.219 69.5159C123.276 69.5241 123.333 69.5391 123.387 69.5604L123.37 70.1021Z" fill="#786765"/>
<path d="M126.279 75.0672C125.947 75.0699 125.619 75.002 125.316 74.8678C125.028 74.7408 124.77 74.5547 124.558 74.3214C124.34 74.0792 124.172 73.7968 124.061 73.4899C123.94 73.1509 123.879 72.7928 123.883 72.4324V72.2224C123.878 71.8392 123.941 71.4581 124.069 71.0971C124.18 70.7815 124.35 70.49 124.57 70.2384C124.773 70.0075 125.02 69.8206 125.297 69.6893C125.57 69.5608 125.867 69.4948 126.168 69.4959C126.479 69.4899 126.788 69.5528 127.072 69.68C127.328 69.7976 127.554 69.9725 127.733 70.1912C127.919 70.4215 128.057 70.6865 128.141 70.9708C128.236 71.2915 128.282 71.6247 128.279 71.9592V72.3214H124.466V72.4358C124.464 72.7184 124.509 72.9994 124.599 73.2673C124.681 73.5147 124.808 73.7446 124.974 73.9452C125.133 74.1356 125.33 74.2902 125.552 74.3992C125.784 74.5122 126.039 74.5693 126.297 74.566C126.586 74.572 126.872 74.5125 127.134 74.3919C127.395 74.2613 127.621 74.0707 127.795 73.8355L128.165 74.1187C128.074 74.2507 127.971 74.3738 127.857 74.4863C127.735 74.6053 127.598 74.7073 127.449 74.7893C127.284 74.8792 127.108 74.9475 126.926 74.9927C126.714 75.0443 126.497 75.0693 126.279 75.0672ZM126.17 70.0024C125.956 70.0006 125.744 70.0445 125.548 70.1313C125.356 70.2182 125.184 70.3433 125.041 70.4989C124.889 70.6676 124.767 70.8617 124.681 71.0725C124.584 71.3099 124.52 71.5598 124.491 71.815H127.696V71.7485C127.69 71.5267 127.653 71.3068 127.587 71.0951C127.525 70.8928 127.427 70.7036 127.298 70.5368C127.165 70.3643 126.994 70.2257 126.798 70.1325C126.602 70.0393 126.387 69.994 126.17 70.0004V70.0024Z" fill="#786765"/>
</g>
<defs>
<linearGradient id="paint0_linear" x1="97.5" y1="10" x2="97.5" y2="782" gradientUnits="userSpaceOnUse">
<stop stop-color="white"/>
<stop offset="0.515625" stop-color="white" stop-opacity="0"/>
</linearGradient>
<clipPath id="clip0">
<rect width="195" height="782" fill="white"/>
</clipPath>
</defs>
</svg>
