<svg width="87" height="90" viewBox="0 0 87 90" fill="none" xmlns="http://www.w3.org/2000/svg">
<path d="M44.6311 86.7918L43.6704 87.3068L42.7098 86.7918L5.4041 66.7918L4.33163 66.2169V65V25V23.7831L5.4041 23.2082L42.7098 3.20817L43.6704 2.69317L44.6311 3.20817L81.9368 23.2082L83.0092 23.7831V25V65V66.2169L81.9368 66.7918L44.6311 86.7918Z" stroke="#9B7A04" stroke-width="4.06618"/>
<path d="M49.592 29.562L45.66 29.5557C41.2426 29.5557 38.3878 32.4846 38.3878 37.0178V40.4584H34.4344C34.0928 40.4584 33.8162 40.7353 33.8162 41.0769V46.0619C33.8162 46.4035 34.0931 46.6802 34.4344 46.6802H38.3878V59.2588C38.3878 59.6005 38.6645 59.8771 39.0061 59.8771H44.1642C44.5058 59.8771 44.7825 59.6002 44.7825 59.2588V46.6802H49.4049C49.7466 46.6802 50.0232 46.4035 50.0232 46.0619L50.0251 41.0769C50.0251 40.9129 49.9598 40.7558 49.844 40.6397C49.7283 40.5237 49.5705 40.4584 49.4065 40.4584H44.7825V37.5418C44.7825 36.1399 45.1165 35.4283 46.9426 35.4283L49.5914 35.4273C49.9327 35.4273 50.2093 35.1504 50.2093 34.8091V30.1802C50.2093 29.8392 49.933 29.5626 49.592 29.562Z" fill="#4B3B00"/>
</svg>
