<svg width="87" height="90" viewBox="0 0 87 90" fill="none" xmlns="http://www.w3.org/2000/svg">
<g clip-path="url(#clip0)">
<path d="M50.6404 27.1484H35.5589C29.794 27.1484 25.104 31.8385 25.104 37.6033V52.6847C25.104 58.4496 29.794 63.1396 35.5589 63.1396H50.6403C56.4051 63.1396 61.0951 58.4496 61.0951 52.6848V37.6033C61.0951 31.8385 56.4051 27.1484 50.6404 27.1484ZM58.2833 52.6847C58.2833 56.8991 54.8547 60.3278 50.6404 60.3278H35.5589C31.3445 60.3278 27.9158 56.8991 27.9158 52.6848V37.6033C27.9158 33.3889 31.3445 29.9602 35.5589 29.9602H50.6403C54.8547 29.9602 58.2833 33.3889 58.2833 37.6033V52.6847Z" fill="#4B3B00"/>
<path d="M43.0997 35.4432C37.7506 35.4432 33.3989 39.7949 33.3989 45.144C33.3989 50.493 37.7506 54.8447 43.0997 54.8447C48.4487 54.8447 52.8004 50.493 52.8004 45.144C52.8004 39.7949 48.4487 35.4432 43.0997 35.4432ZM43.0997 52.0329C39.3011 52.0329 36.2107 48.9425 36.2107 45.144C36.2107 41.3454 39.3011 38.255 43.0997 38.255C46.8982 38.255 49.9886 41.3454 49.9886 45.144C49.9886 48.9425 46.8982 52.0329 43.0997 52.0329Z" fill="#4B3B00"/>
<path d="M52.9408 36.7087C53.7173 36.7087 54.3467 36.0792 54.3467 35.3028C54.3467 34.5263 53.7173 33.8969 52.9408 33.8969C52.1644 33.8969 51.5349 34.5263 51.5349 35.3028C51.5349 36.0792 52.1644 36.7087 52.9408 36.7087Z" fill="#4B3B00"/>
</g>
<path d="M44.2246 86.7918L43.2639 87.3068L42.3033 86.7918L4.9976 66.7918L3.92513 66.2169V65V25V23.7831L4.9976 23.2082L42.3033 3.20817L43.2639 2.69317L44.2246 3.20817L81.5303 23.2082L82.6027 23.7831V25V65V66.2169L81.5303 66.7918L44.2246 86.7918Z" stroke="#9B7A04" stroke-width="4.06618"/>
<defs>
<clipPath id="clip0">
<rect x="25.104" y="27.1484" width="35.9911" height="35.9911" fill="white"/>
</clipPath>
</defs>
</svg>
