<svg width="87" height="90" viewBox="0 0 87 90" fill="none" xmlns="http://www.w3.org/2000/svg">
<path d="M44.0375 86.7918L43.0769 87.3068L42.1163 86.7918L4.81059 66.7918L3.73812 66.2169V65V25V23.7831L4.81059 23.2082L42.1163 3.20817L43.0769 2.69317L44.0375 3.20817L81.3433 23.2082L82.4157 23.7831V25V65V66.2169L81.3433 66.7918L44.0375 86.7918Z" fill="#9B7A04" stroke="#9B7A04" stroke-width="4.06618"/>
<path d="M60.9081 33.5223C59.5697 34.1337 58.1436 34.539 56.6567 34.7358C58.1863 33.7847 59.3538 32.2901 59.9026 30.4886C58.4765 31.3741 56.9019 31.9996 55.2238 32.3486C53.8696 30.847 51.9396 29.917 49.8341 29.917C45.7491 29.917 42.4604 33.37 42.4604 37.6031C42.4604 38.2122 42.5099 38.7979 42.6314 39.3554C36.4971 39.0438 31.0692 35.982 27.4229 31.3179C26.7863 32.4681 26.4129 33.7847 26.4129 35.2019C26.4129 37.8632 27.7288 40.2222 29.6903 41.5879C28.5049 41.5645 27.3419 41.2061 26.3566 40.6415C26.3566 40.6649 26.3566 40.6954 26.3566 40.7258C26.3566 44.46 28.9143 47.5616 32.2682 48.2761C31.6676 48.4471 31.013 48.5291 30.3337 48.5291C29.8613 48.5291 29.3844 48.501 28.9368 48.3979C29.8928 51.441 32.6056 53.6782 35.8313 53.7508C33.3209 55.7959 30.1335 57.0281 26.6828 57.0281C26.0777 57.0281 25.4973 57 24.917 56.9227C28.1854 59.1177 32.059 60.371 36.2362 60.371C49.8139 60.371 57.237 48.6579 57.237 38.505C57.237 38.1654 57.2258 37.8374 57.21 37.5118C58.6744 36.4295 59.9049 35.0778 60.9081 33.5223Z" fill="white"/>
</svg>
